<svg id="Layer_1" data-name="Layer 1" xmlns="http://www.w3.org/2000/svg" viewBox="0 0 500 333.33"><defs><style>.cls-1{fill:#fff;}</style></defs><title>emam-metode-pembayaran-qris</title><path d="M52.08,89.17H447.92A52.08,52.08,0,0,1,500,141.25V370.42a52.08,52.08,0,0,1-52.08,52.08H52.08A52.08,52.08,0,0,1,0,370.42V141.25A52.08,52.08,0,0,1,52.08,89.17Z" transform="translate(0 -89.17)"/><path class="cls-1" d="M97.9,205.53H79a6.29,6.29,0,0,0-6.29,6.29v87.5a6,6,0,0,0,6,6h56.86V280.15H97.9Z" transform="translate(0 -89.17)"/><path class="cls-1" d="M167.46,205.53H109.94v25.18h37.68v37h25.19V210.87A5.35,5.35,0,0,0,167.46,205.53Z" transform="translate(0 -89.17)"/><rect class="cls-1" x="147.62" y="190.99" width="25.19" height="50.56"/><rect class="cls-1" x="293.31" y="116.36" width="24.46" height="99.91"/><polygon class="cls-1" points="183.07 116.36 183.07 139.4 256.34 139.4 256.34 154.24 206.53 154.24 183.07 154.24 183.07 177.28 183.07 216.27 206.53 216.27 206.53 177.28 247.39 216.27 283.28 216.27 241.51 177.28 256.34 177.28 283.28 177.28 283.28 154.24 283.28 139.4 283.28 116.36 256.34 116.36 183.07 116.36"/><polygon class="cls-1" points="426.98 190.97 426.98 178.63 426.98 154.03 393.96 154.03 360.89 154.03 360.89 140.97 426.98 140.97 426.98 116.36 360.89 116.36 328.64 116.36 328.64 140.97 328.64 154.03 328.64 178.63 360.89 178.63 393.96 178.63 393.96 190.97 328.64 190.97 328.64 216.29 393.96 216.29 426.98 216.29 426.98 190.97"/><path class="cls-1" d="M105.74,181H66.32a10,10,0,0,0-10,10v39.25h6.45V190.94a3.54,3.54,0,0,1,3.53-3.54h39.42Z" transform="translate(0 -89.17)"/><path class="cls-1" d="M437.21,280.85v39.26a3.53,3.53,0,0,1-3.53,3.53H394.26v6.45h39.42a10,10,0,0,0,10-10V280.85Z" transform="translate(0 -89.17)"/><path class="cls-1" d="M110.08,242.54v25.37h25.36V242.54Zm17.68,17.69h-10v-10h10Z" transform="translate(0 -89.17)"/></svg>