<?xml version="1.0" encoding="utf-8"?>
<!-- Generator: Adobe Illustrator 23.1.0, SVG Export Plug-In . SVG Version: 6.00 Build 0)  -->
<svg version="1.1" id="Layer_1" xmlns="http://www.w3.org/2000/svg" xmlns:xlink="http://www.w3.org/1999/xlink" x="0px" y="0px"
	 viewBox="0 0 1080 1080" style="enable-background:new 0 0 1080 1080;" xml:space="preserve">
<style type="text/css">
	.st0{fill:#F6F8F3;}
</style>
<title>emam-instagram</title>
<path class="st0" d="M643.4,540c0,57.1-46.3,103.4-103.4,103.4c-57.1,0-103.4-46.3-103.4-103.4c0-57.1,46.3-103.4,103.4-103.4
	c0,0,0,0,0,0C597.1,436.6,643.4,482.9,643.4,540z"/>
<path class="st0" d="M781.7,357.1c-10.4-27-31.8-48.4-58.8-58.9c-10.9-4.3-27.3-9.3-57.6-10.7c-32.7-1.5-42.5-1.8-125.3-1.8
	s-92.6,0.3-125.3,1.8c-30.2,1.4-46.7,6.4-57.6,10.7c-27,10.4-48.4,31.8-58.9,58.9c-4.3,10.9-9.3,27.4-10.7,57.6
	c-1.5,32.7-1.8,42.5-1.8,125.3s0.3,92.6,1.8,125.3c1.4,30.2,6.4,46.7,10.7,57.6c10.4,27,31.8,48.4,58.9,58.8
	c10.9,4.3,27.4,9.3,57.6,10.7c32.7,1.5,42.5,1.8,125.3,1.8s92.6-0.3,125.3-1.8c30.2-1.4,46.7-6.4,57.6-10.7
	c27-10.4,48.4-31.8,58.8-58.8c4.3-10.9,9.3-27.3,10.7-57.6c1.5-32.7,1.8-42.5,1.8-125.3s-0.3-92.6-1.8-125.3
	C791,384.5,786,368.1,781.7,357.1z M540,699.2c-87.9,0-159.2-71.3-159.2-159.2S452,380.8,540,380.8c87.9,0,159.2,71.3,159.2,159.2
	c0,0,0,0,0,0C699.2,627.9,627.9,699.2,540,699.2C540,699.2,540,699.2,540,699.2z M705.5,411.7c-20.6,0-37.2-16.7-37.2-37.2
	s16.7-37.2,37.2-37.2c20.6,0,37.2,16.7,37.2,37.2S726.1,411.7,705.5,411.7L705.5,411.7z"/>
<path class="st0" d="M540,0C241.8,0,0,241.8,0,540s241.8,540,540,540s540-241.8,540-540S838.2,0,540,0z M848.2,667.8
	c-1.5,33-6.8,55.5-14.4,75.3c-16.1,41.7-49,74.6-90.7,90.7c-19.7,7.7-42.3,12.9-75.3,14.4s-43.6,1.9-127.8,1.9s-94.8-0.4-127.9-1.9
	s-55.5-6.8-75.3-14.4c-41.7-16.1-74.6-49-90.7-90.7c-7.7-19.7-12.9-42.3-14.4-75.3s-1.9-43.6-1.9-127.8s0.4-94.8,1.9-127.8
	s6.7-55.5,14.4-75.3c16.1-41.6,49-74.6,90.7-90.7c19.7-7.7,42.3-12.9,75.3-14.4s43.6-1.9,127.8-1.9s94.8,0.4,127.8,1.9
	s55.5,6.7,75.3,14.4c41.6,16.1,74.6,49,90.7,90.7c7.7,19.7,12.9,42.3,14.4,75.3s1.9,43.6,1.9,127.8S849.7,634.8,848.2,667.8z"/>
</svg>
