<svg xmlns="http://www.w3.org/2000/svg" xmlns:xlink="http://www.w3.org/1999/xlink" width="122.698" height="119.956" viewBox="0 0 122.698 119.956">
  <defs>
    <linearGradient id="linear-gradient" x1="0.5" y1="1" x2="0.5" gradientUnits="objectBoundingBox">
      <stop offset="0" stop-color="#25cf43"/>
      <stop offset="1" stop-color="#61fd7d"/>
    </linearGradient>
  </defs>
  <g id="Group_885" data-name="Group 885" transform="translate(-349.978 -240.978)">
    <g id="Icon_Shape" data-name="Icon Shape" transform="translate(349.978 240.978)">
      <path id="Path_1243" data-name="Path 1243" d="M472.667,330.493c0,.657-.02,2.081-.061,3.182a61.766,61.766,0,0,1-.647,7.749,25.42,25.42,0,0,1-2.222,6.493,23.294,23.294,0,0,1-4.38,5.9,23.791,23.791,0,0,1-6.029,4.266,26.873,26.873,0,0,1-6.679,2.173,66.277,66.277,0,0,1-7.866.621c-1.127.039-2.584.059-3.253.059l-60.415-.009c-.672,0-2.129-.02-3.254-.06a66.043,66.043,0,0,1-7.926-.633,26.817,26.817,0,0,1-6.641-2.172,23.785,23.785,0,0,1-6.035-4.283,23.3,23.3,0,0,1-4.363-5.894,25.464,25.464,0,0,1-2.222-6.53,61.994,61.994,0,0,1-.635-7.69c-.04-1.1-.06-2.526-.06-3.18l.01-59.065c0-.657.02-2.081.061-3.181a61.807,61.807,0,0,1,.647-7.749A25.425,25.425,0,0,1,352.917,254a23.3,23.3,0,0,1,4.38-5.9,23.791,23.791,0,0,1,6.029-4.266,26.871,26.871,0,0,1,6.679-2.173,66.275,66.275,0,0,1,7.866-.621c1.126-.039,2.584-.059,3.253-.059l60.415.009c.672,0,2.129.02,3.254.06a66.076,66.076,0,0,1,7.926.633,26.818,26.818,0,0,1,6.641,2.172,23.789,23.789,0,0,1,6.034,4.283,23.3,23.3,0,0,1,4.363,5.894,25.462,25.462,0,0,1,2.222,6.53,61.987,61.987,0,0,1,.635,7.69c.04,1.1.06,2.526.06,3.18Z" transform="translate(-349.978 -240.978)" fill-rule="evenodd" fill="url(#linear-gradient)"/>
    </g>
    <path id="WA_Logo" data-name="WA Logo" d="M6.066,64.113a42.762,42.762,0,1,1,37.053,21.41H43.1a42.739,42.739,0,0,1-20.434-5.2L0,86.264Zm18.949,9.238A35.49,35.49,0,0,0,43.1,78.3h.015a35.535,35.535,0,1,0-30.107-16.65L13.857,63l-3.59,13.111,13.451-3.527ZM50.1,62.676a61.5,61.5,0,0,1-6.091-2.25C33.288,55.8,26.289,45.012,25.754,44.3s-4.362-5.792-4.362-11.049a11.977,11.977,0,0,1,3.739-8.91A3.925,3.925,0,0,1,27.98,23c.712,0,1.425.007,2.048.037.077,0,.157,0,.24,0,.622,0,1.4-.007,2.164,1.831.89,2.139,3.027,7.4,3.294,7.93a1.966,1.966,0,0,1,.089,1.871,7.284,7.284,0,0,1-1.068,1.782c-.534.624-1.122,1.393-1.6,1.871-.535.532-1.092,1.111-.469,2.18a32.2,32.2,0,0,0,5.944,7.4,29.186,29.186,0,0,0,8.592,5.3c1.068.535,1.692.445,2.315-.267s2.671-3.119,3.383-4.188,1.424-.891,2.4-.535,6.232,2.941,7.3,3.475,1.781.8,2.048,1.247.267,2.584-.623,5.079-5.159,4.772-7.212,5.079a17.483,17.483,0,0,1-2.593.2A13.568,13.568,0,0,1,50.1,62.676Z" transform="translate(370.879 257.157)" fill="#fff"/>
  </g>
</svg>
