<svg width="11" height="11" viewBox="0 0 11 11" fill="none" xmlns="http://www.w3.org/2000/svg">
<g clip-path="url(#clip0)">
<path d="M2.66871 11.0006C1.966 11.0006 1.30239 10.7221 0.7904 10.2102C0.254301 9.67404 -0.0257258 8.97161 0.00186004 8.23223C0.0303698 7.46861 0.375344 6.73507 0.999506 6.11091L2.12331 4.98253C2.29076 4.81438 2.56281 4.81382 2.73097 4.98129C2.89911 5.14874 2.89969 5.42081 2.73222 5.58895L1.60781 6.71797C0.696642 7.62914 0.610662 8.81506 1.39811 9.6025C2.18557 10.39 3.37148 10.304 4.28199 9.39342L5.82643 7.84897C6.29456 7.38087 6.55271 6.84636 6.57297 6.30328C6.59156 5.80549 6.40069 5.33024 6.03554 4.96509C5.91319 4.84276 5.77782 4.73894 5.63316 4.65655C5.42695 4.5391 5.355 4.27671 5.47246 4.07052C5.58993 3.86432 5.85232 3.79239 6.05849 3.90982C6.26985 4.03022 6.46658 4.18082 6.64323 4.35745C7.17932 4.89354 7.45935 5.59597 7.43177 6.33536C7.40326 7.09898 7.05828 7.83254 6.43412 8.45668L4.88967 10.0011C4.26549 10.6253 3.53197 10.9702 2.76835 10.9988C2.7351 10.9999 2.70182 11.0006 2.66871 11.0006V11.0006ZM5.52759 6.93067C5.64504 6.72446 5.57307 6.46207 5.36688 6.34464C5.22223 6.26225 5.08684 6.15843 4.9645 6.03612C4.17706 5.24866 4.26304 4.06275 5.17359 3.1522L6.71803 1.60777C7.6286 0.697247 8.8145 0.611245 9.60192 1.39869C10.3894 2.18613 10.3034 3.37205 9.39221 4.28322L8.26781 5.41224C8.10034 5.58038 8.10089 5.85245 8.26905 6.0199C8.43719 6.18737 8.70924 6.18677 8.87672 6.01866L10.0005 4.89026C10.6247 4.2661 10.9696 3.53256 10.9982 2.76896C11.0258 2.02958 10.7457 1.32712 10.2096 0.791026C9.6735 0.254906 8.97071 -0.0250778 8.23169 0.00246511C7.46807 0.0309748 6.73453 0.375949 6.11039 1.00011L4.56593 2.54453C3.94176 3.1687 3.59681 3.90224 3.56828 4.66583C3.54069 5.40522 3.82072 6.10767 4.35682 6.64379C4.53344 6.82039 4.73017 6.97097 4.94156 7.09139C5.00868 7.12961 5.08172 7.14779 5.15382 7.14779C5.3032 7.14777 5.44835 7.06974 5.52759 6.93067V6.93067Z" fill="black"/>
</g>
<defs>
<clipPath id="clip0">
<rect width="11" height="11" fill="white"/>
</clipPath>
</defs>
</svg>
