<?xml version="1.0" encoding="utf-8"?>
<!-- Generator: Adobe Illustrator 23.1.0, SVG Export Plug-In . SVG Version: 6.00 Build 0)  -->
<svg version="1.1" id="Layer_1" xmlns="http://www.w3.org/2000/svg" xmlns:xlink="http://www.w3.org/1999/xlink" x="0px" y="0px"
	 viewBox="0 0 500 500" style="enable-background:new 0 0 500 500;" xml:space="preserve">
<style type="text/css">
	.st0{fill:#FFC107;}
	.st1{fill:#00B212;}
</style>
<path class="st0" d="M496.6,147.6c-2.4-5.6-5.8-10.5-10-14.5L264.7,355c-9.9,9.9-23.1,15.4-37.1,15.4c-14,0-27.2-5.5-37.1-15.4
	l-93.1-93.1C87.5,252,82,238.9,82,224.8c0-14,5.5-27.2,15.4-37.1c9.9-9.9,23.1-15.4,37.1-15.4c14,0,27.2,5.5,37.1,15.4l56,56
	L386.3,85l-8.1-49c-2.4-14.7-12-26.9-25.7-32.6c-13.8-5.8-29.3-4.1-41.7,4.7l-60.4,43.7l-0.2-0.2v0L189.2,8
	c-12.3-8.6-27.8-10.4-41.6-4.6C134,9.1,124.3,21.3,121.9,36l-11.8,73.6L36,121.9C21.3,124.3,9.1,134,3.4,147.8
	c-5.7,13.8-4,29.4,4.8,41.5l43.7,60.4L8,310.8c-8.6,12.3-10.4,27.8-4.6,41.6c5.8,13.7,17.9,23.3,32.6,25.7l73.6,11.8l12.3,74
	c2.4,14.7,12,26.9,25.7,32.6c13.8,5.8,29.3,4.1,41.7-4.7l60.4-43.7l0.2,0.2v0l60.8,43.6c12.3,8.6,27.8,10.4,41.6,4.6
	c13.7-5.7,23.3-17.9,25.7-32.6l11.8-73.6l74.1-12.3c14.7-2.4,26.9-12.1,32.7-25.9c5.7-13.8,4-29.4-4.8-41.5l-43.7-60.4l43.8-61.1
	C500.7,176.9,502.4,161.4,496.6,147.6z"/>
<g>
	<path class="st1" d="M227.6,339.8c-5.6,0-11.2-2.1-15.5-6.4L119,240.3c-8.6-8.6-8.6-22.4,0-31c8.6-8.6,22.4-8.6,31,0l77.6,77.6
		l220-220c8.6-8.6,22.4-8.6,31,0c8.6,8.6,8.6,22.4,0,31L243,333.4C238.8,337.7,233.2,339.8,227.6,339.8z"/>
</g>
</svg>
