<svg id="Layer_1" data-name="Layer 1" xmlns="http://www.w3.org/2000/svg" viewBox="0 0 500 333.33"><defs><style>.cls-1{fill:#28aae1;}.cls-2{fill:#414042;}</style></defs><title>emam-metode-pembayaran-debit</title><path class="cls-1" d="M52.08,75.28H447.92A52.08,52.08,0,0,1,500,127.36V356.53a52.08,52.08,0,0,1-52.08,52.08H52.08A52.07,52.07,0,0,1,0,356.53V127.37A52.09,52.09,0,0,1,52.08,75.28Z" transform="translate(0 -75.28)"/><rect class="cls-2" y="62.5" width="500" height="53.18"/><path d="M74.54,259q22.49,0,36.32,13.37t14,36q0,22.5-14,35.87Q97,357.6,74.54,357.59H42.48V259Zm-14,82.36h14q14,0,22.64-9.42,8.22-9.12,8.21-23.56,0-14.73-8.21-23.85-8.5-9.27-22.64-9.27h-14Z" transform="translate(0 -75.28)"/><path d="M204.09,303.8a41.12,41.12,0,0,1,1.9,11.7,67.36,67.36,0,0,1-.61,9.57H157.66q.32,9,4.41,14.59t12.46,5.62q11.1,0,13.22-9.72h18.09A26.52,26.52,0,0,1,195.66,353q-8.67,6.69-21.13,6.69a32,32,0,0,1-24.46-10.64Q139.89,338,139.88,320.66q0-17.78,10.19-28.57,9.72-10.32,24.46-10.33,15.35,0,23.86,10.79A33.73,33.73,0,0,1,204.09,303.8Zm-29.41-7.75q-7.59,0-11.85,4.93a22.19,22.19,0,0,0-5,12.69h31.45q0-12-7.59-16.11A14.92,14.92,0,0,0,174.68,296.05Z" transform="translate(0 -75.28)"/><path d="M289.49,292.4q9.35,10.64,9.35,28T289,348.93a30.59,30.59,0,0,1-23.86,10.79,22.78,22.78,0,0,1-12.53-3.65q-5.7-3.65-9-11.24l-4.41,12.76h-11.7V253.35h17.93V293q7-11.25,20.89-11.25A29.7,29.7,0,0,1,289.49,292.4Zm-44.14,23.7v9.73A17.79,17.79,0,0,0,251,338.6a16.91,16.91,0,0,0,12.23,4.86q7.21,0,12.39-6.31t5.17-16.64q0-10.33-5.09-16.49A15.84,15.84,0,0,0,263,297.87a17.13,17.13,0,0,0-12.62,5Q245.35,307.91,245.35,316.1Z" transform="translate(0 -75.28)"/><path d="M320.12,259.88a10.22,10.22,0,0,1,2.88-7.67q2.88-2.82,8.21-2.82a11.33,11.33,0,0,1,8.13,2.82,11.42,11.42,0,0,1,0,15.34c-2,1.88-4.69,2.81-8.13,2.81s-6.29-.93-8.21-2.81A10.22,10.22,0,0,1,320.12,259.88Zm2.12,23.7h17.93v74H322.24Z" transform="translate(0 -75.28)"/><path d="M412.2,355.77q-10,3.94-15.8,4a33.73,33.73,0,0,1-10.11-1.37,22.84,22.84,0,0,1-7.67-4.1q-7-6.22-7-17.17V295.74H361.29v-12h10.34V264.29h17.93v19.45h20.06v12H389.56v40.73q0,9.12,8.66,9.12a36.56,36.56,0,0,0,11.4-2.43Z" transform="translate(0 -75.28)"/></svg>