<svg id="Layer_1" data-name="Layer 1" xmlns="http://www.w3.org/2000/svg" viewBox="0 0 500 333.33"><defs><style>.cls-1{fill:#0e9347;}.cls-2{fill:#3bb54a;}.cls-3{fill:#f9d919;}</style></defs><title>emam-metode-pembayaran-tunai</title><path class="cls-1" d="M52.08,86.79H447.92A52.08,52.08,0,0,1,500,138.87V368a52.08,52.08,0,0,1-52.08,52.08H52.08A52.08,52.08,0,0,1,0,368V138.87A52.08,52.08,0,0,1,52.08,86.79Z" transform="translate(0 -86.79)"/><path class="cls-2" d="M419.07,381.45H80.93c0-25.6-19-46.54-42.26-46.54V172c23.24,0,42.26-20.95,42.26-46.55H419.07c0,25.6,19,46.55,42.26,46.55V334.91C438.09,334.91,419.07,355.85,419.07,381.45Z" transform="translate(0 -86.79)"/><ellipse class="cls-1" cx="250" cy="166.67" rx="93.09" ry="104.73"/><circle class="cls-1" cx="110.36" cy="166.67" r="23.27"/><circle class="cls-1" cx="389.64" cy="166.67" r="23.27"/><path class="cls-3" d="M241.65,226.27a20.44,20.44,0,0,1-4.35,13.15Q233,244.88,224.83,247l19.38,29.4H227.06l-15.93-28.17h-10v28.17H188V204.11h26.73q12.81,0,19.94,6.13Q241.65,216.14,241.65,226.27Zm-28.18,13.15q7.23,0,10.91-3.29a11.08,11.08,0,0,0,3.68-8.69,11.61,11.61,0,0,0-3.34-8.68q-3.34-3.28-10-3.29H201.11v23.95Z" transform="translate(0 -86.79)"/><path class="cls-3" d="M271.72,229.62q5.11-8.81,15.59-8.8a22.71,22.71,0,0,1,17.15,7.57q7.57,8,7.58,20.94t-7.69,21a22.58,22.58,0,0,1-17,7.57q-9.92,0-14.48-5.9v30.74H259.69V222.26h10.8ZM285,266a13,13,0,0,0,4.85-1,12.48,12.48,0,0,0,4.51-3.12q4.46-4.67,4.45-12.52t-3.84-12.31a11.92,11.92,0,0,0-9.36-4.46,12.92,12.92,0,0,0-9,3.18q-3.51,3.16-3.73,9.07v9.69a10.73,10.73,0,0,0,3.68,8.47A12.45,12.45,0,0,0,285,266Z" transform="translate(0 -86.79)"/></svg>