<svg id="Layer_1" data-name="Layer 1" xmlns="http://www.w3.org/2000/svg" viewBox="0 0 500 333.33"><defs><style>.cls-1{fill:#005faf;}.cls-2{fill:#fbfcfa;}</style></defs><title>emam-metode-pembayaran-belum-ada-informasi</title><path class="cls-1" d="M52.08,64.76H447.92A52.08,52.08,0,0,1,500,116.84V346a52.08,52.08,0,0,1-52.08,52.08H52.08A52.07,52.07,0,0,1,0,346V116.85A52.09,52.09,0,0,1,52.08,64.76Z" transform="translate(0 -64.76)"/><path class="cls-2" d="M315,187.19q0,14.92-7.33,24.94T284.52,230q-13.25,6.76-17.33,11.55a24.29,24.29,0,0,0-5.21,8.88,35.3,35.3,0,0,0-1.13,9.44v8.17H227.6V256.79q0-25.37,15.22-36.07a120.27,120.27,0,0,1,15.77-9.3q10.43-5.35,15.08-10.85t4.65-14.09a17.88,17.88,0,0,0-7-14.37q-7-5.78-20.86-5.78T228.72,173a25.2,25.2,0,0,0-9,17.33H185q1.41-24.51,18-39.31t46.64-14.79q30,0,47.62,14.65T315,187.19ZM228.3,288.64q6.34-6.19,16.63-6.2t17.05,6.2a20.45,20.45,0,0,1,6.76,15.78A20.9,20.9,0,0,1,262,320.34q-6.76,6.35-17.05,6.34t-16.63-6.34A21.62,21.62,0,0,1,222,304.42,21.14,21.14,0,0,1,228.3,288.64Z" transform="translate(0 -64.76)"/></svg>