<svg width="21" height="21" viewBox="0 0 21 21" fill="none" xmlns="http://www.w3.org/2000/svg">
<path d="M21 6.74266V16.3763C21 17.812 19.8348 18.9772 18.3991 18.9772H2.60087C1.16461 18.9772 0 17.812 0 16.3763V8.86266V6.74266V4.62382C0 3.18698 1.16461 2.02295 2.60087 2.02295H8.18812C9.45965 2.02295 10.5139 2.93614 10.7404 4.14179H18.3991C19.8348 4.14179 21 5.30583 21 6.74266ZM15.8405 13.2391H17.6246C18.1061 13.2391 18.4974 12.8483 18.4974 12.3663V10.9451C18.4974 10.4631 18.1061 10.0718 17.6241 10.07L15.8387 10.0718L15.8405 8.28642C15.8405 7.80439 15.448 7.41253 14.966 7.41253H13.5459C13.0639 7.41253 12.672 7.80439 12.6726 8.28527V10.07L10.8878 10.0718C10.4058 10.0718 10.0151 10.4631 10.0151 10.9451V12.3663C10.0151 12.6068 10.1128 12.8258 10.2705 12.9813C10.4283 13.1379 10.6468 13.2373 10.8878 13.2373H12.672V15.0221C12.672 15.2625 12.7703 15.4816 12.9281 15.6382C13.0858 15.796 13.3037 15.8931 13.5453 15.8931H14.9654C15.4474 15.8931 15.8381 15.5024 15.8381 15.0204L15.8405 13.2391Z" fill="#FFC107"/>
</svg>
