<svg xmlns="http://www.w3.org/2000/svg" width="120" height="120" viewBox="0 0 120 120">
  <g id="FULL_COLOR_ICON" data-name="FULL COLOR ICON" transform="translate(-360.75 -237.638)">
    <rect id="Rectangle_1586" data-name="Rectangle 1586" width="120" height="120" rx="26" transform="translate(360.75 237.638)" fill="#00b900"/>
    <g id="TYPE_A" data-name="TYPE A">
      <g id="Group_876" data-name="Group 876">
        <path id="Path_1225" data-name="Path 1225" d="M464.246,292.361c0-19.55-19.6-35.456-43.691-35.456s-43.69,15.906-43.69,35.456c0,17.527,15.543,32.205,36.539,34.981,1.423.306,3.359.938,3.849,2.154a8.97,8.97,0,0,1,.141,3.951s-.512,3.082-.623,3.74c-.19,1.1-.878,4.32,3.784,2.355s25.162-14.816,34.328-25.366h0c6.332-6.944,9.365-13.991,9.365-21.815" fill="#fff"/>
        <g id="Group_875" data-name="Group 875">
          <path id="Path_1226" data-name="Path 1226" d="M411.678,282.914h-3.065a.851.851,0,0,0-.851.849V302.8a.851.851,0,0,0,.851.849h3.065a.85.85,0,0,0,.851-.849V283.763a.85.85,0,0,0-.851-.849" fill="#00b900"/>
          <path id="Path_1227" data-name="Path 1227" d="M432.772,282.914h-3.064a.849.849,0,0,0-.851.849v11.31l-8.725-11.781a.8.8,0,0,0-.066-.087l-.005,0c-.017-.019-.034-.036-.051-.053l-.016-.014c-.015-.013-.03-.026-.046-.038l-.022-.017c-.014-.011-.029-.021-.044-.031l-.026-.015a.51.51,0,0,0-.045-.025l-.027-.013c-.016-.007-.032-.015-.049-.021l-.028-.01-.05-.016-.03-.008-.048-.011-.036-.005-.045-.005-.044,0H416.36a.85.85,0,0,0-.851.849V302.8a.85.85,0,0,0,.851.849h3.064a.851.851,0,0,0,.852-.849V291.494l8.735,11.8a.856.856,0,0,0,.215.21l.009.006a.5.5,0,0,0,.053.032l.024.013.041.02.041.018.026.009.057.019.013,0a.862.862,0,0,0,.218.029h3.064a.85.85,0,0,0,.851-.849V283.763a.85.85,0,0,0-.851-.849" fill="#00b900"/>
          <path id="Path_1228" data-name="Path 1228" d="M404.291,298.883h-8.327V283.764a.851.851,0,0,0-.851-.851h-3.065a.852.852,0,0,0-.851.851V302.8h0a.845.845,0,0,0,.238.588l.012.013.012.012a.846.846,0,0,0,.588.237h12.244a.85.85,0,0,0,.85-.851v-3.065a.85.85,0,0,0-.85-.851" fill="#00b900"/>
          <path id="Path_1229" data-name="Path 1229" d="M449.7,287.681a.85.85,0,0,0,.85-.851v-3.065a.85.85,0,0,0-.85-.851H437.452a.844.844,0,0,0-.59.24l-.01.009-.014.015a.846.846,0,0,0-.235.586h0V302.8h0a.846.846,0,0,0,.237.588l.012.013.013.011a.842.842,0,0,0,.587.238H449.7a.85.85,0,0,0,.85-.851v-3.065a.85.85,0,0,0-.85-.851H441.37v-3.218H449.7a.85.85,0,0,0,.85-.851V291.75a.85.85,0,0,0-.85-.852H441.37v-3.217Z" fill="#00b900"/>
        </g>
      </g>
    </g>
  </g>
</svg>
