<svg width="15" height="15" viewBox="0 0 15 15" fill="none" xmlns="http://www.w3.org/2000/svg">
<path d="M7.5 0C3.35847 0 0 3.35847 0 7.5C0 11.6415 3.35847 15 7.5 15C11.6415 15 15 11.6415 15 7.5C15 3.35847 11.6415 0 7.5 0ZM7.65903 11.8667H7.65708C6.90765 11.8667 6.17015 11.6789 5.51194 11.3206L3.13236 11.9444L3.76917 9.61903C3.37571 8.93687 3.16904 8.16305 3.17 7.37556C3.17111 4.90153 5.18472 2.88889 7.65903 2.88889C8.24864 2.88889 8.83247 3.00505 9.37718 3.23073C9.92189 3.45642 10.4168 3.78721 10.8336 4.2042C11.2505 4.6212 11.5811 5.11623 11.8066 5.66102C12.0321 6.20582 12.148 6.78969 12.1478 7.37931C12.1468 9.85361 10.1328 11.8667 7.65903 11.8667Z" fill="#82AD40"/>
<path d="M7.66038 3.64655C5.60246 3.64655 3.92871 5.31946 3.92774 7.37613C3.92682 8.07838 4.12463 8.76655 4.49829 9.36113L4.58704 9.50224L4.20996 10.8786L5.62204 10.5082L5.75843 10.589C6.3333 10.9295 6.98919 11.1091 7.65732 11.1089H7.65885C9.71524 11.1089 11.3888 9.43585 11.3898 7.37919C11.3902 6.38967 10.9975 5.44053 10.2981 4.74053C9.5987 4.04054 8.64989 3.64702 7.66038 3.64655V3.64655ZM9.85482 8.97988C9.76135 9.24169 9.31315 9.48085 9.09774 9.51307C8.9044 9.54196 8.65996 9.55391 8.39135 9.46863C8.17415 9.40122 7.96066 9.3224 7.75176 9.23252C6.62676 8.74641 5.8919 7.61432 5.83579 7.53946C5.77968 7.4646 5.37746 6.93141 5.37746 6.37946C5.37746 5.82752 5.66774 5.55557 5.77052 5.44446C5.87329 5.33335 5.99496 5.30405 6.06968 5.30405C6.1444 5.30405 6.21926 5.30405 6.28454 5.30794C6.35399 5.31141 6.44593 5.28182 6.5369 5.50043C6.63038 5.72502 6.85468 6.27682 6.88274 6.33294C6.91079 6.38905 6.9294 6.4546 6.89218 6.52946C6.85496 6.60432 6.73051 6.76557 6.61176 6.91294C6.56204 6.9746 6.49718 7.0296 6.5626 7.14182C6.62802 7.25405 6.85315 7.62113 7.18649 7.91849C7.61496 8.30057 7.97635 8.41849 8.08926 8.47502C8.20218 8.53155 8.26676 8.52169 8.33218 8.44724C8.3976 8.3728 8.6126 8.11988 8.68732 8.00766C8.76204 7.89544 8.8369 7.91405 8.93968 7.9521C9.04246 7.99016 9.59385 8.26071 9.70607 8.31682C9.81829 8.37294 9.89288 8.40099 9.92093 8.4478C9.94899 8.4946 9.94843 8.71766 9.85496 8.9796L9.85482 8.97988Z" fill="#82AD40"/>
</svg>
