<?xml version="1.0" encoding="utf-8"?>
<!-- Generator: Adobe Illustrator 23.1.0, SVG Export Plug-In . SVG Version: 6.00 Build 0)  -->
<svg version="1.1" id="Layer_1" xmlns="http://www.w3.org/2000/svg" xmlns:xlink="http://www.w3.org/1999/xlink" x="0px" y="0px"
	 viewBox="0 0 1080 1080" style="enable-background:new 0 0 1080 1080;" xml:space="preserve">
<style type="text/css">
	.st0{fill:#F6F8F3;}
</style>
<title>emam-whatsapp</title>
<path class="st0" d="M540,0C241.8,0,0,241.8,0,540s241.8,540,540,540s540-241.8,540-540S838.2,0,540,0z M551.5,854.4h-0.1
	c-54,0-107.1-13.5-154.5-39.3L225.5,860l45.9-167.4c-28.3-49.1-43.2-104.8-43.1-161.5c0.1-178.1,145.1-323,323.2-323
	c178.5,0,323.2,144.7,323.2,323.2c0,0,0,0.1,0,0.1C874.6,709.5,729.6,854.4,551.5,854.4z"/>
<path class="st0" d="M551.5,262.5c-148.2,0-268.7,120.5-268.8,268.5c-0.1,50.6,14.2,100.1,41.1,142.9l6.4,10.2l-27.1,99.1
	l101.7-26.7l9.8,5.8c41.4,24.5,88.6,37.4,136.7,37.4h0.1c148.1,0,268.6-120.5,268.6-268.5C820.1,382.9,699.9,262.6,551.5,262.5z
	 M709.5,646.5c-6.7,18.8-39,36.1-54.5,38.4c-13.9,2.1-31.5,2.9-50.9-3.2c-15.6-4.9-31-10.5-46-17c-81-35-133.9-116.5-138-121.9
	s-33-43.8-33-83.5s20.9-59.3,28.3-67.3s16.2-10.1,21.5-10.1s10.8,0,15.5,0.3c5,0.3,11.6-1.9,18.2,13.9c6.7,16.2,22.9,55.9,24.9,59.9
	s3.4,8.8,0.7,14.1s-11.6,17-20.2,27.6c-3.6,4.4-8.3,8.4-3.5,16.5c4.7,8.1,20.9,34.5,44.9,55.9c30.8,27.5,56.9,36,65,40.1
	s12.8,3.4,17.5-2s20.2-23.6,25.6-31.7s10.8-6.7,18.2-4s47.1,22.2,55.2,26.3s13.5,6.1,15.5,9.4S716.3,627.7,709.5,646.5L709.5,646.5z
	"/>
</svg>
