<?xml version="1.0" encoding="utf-8"?>
<!-- Generator: Adobe Illustrator 23.1.0, SVG Export Plug-In . SVG Version: 6.00 Build 0)  -->
<svg version="1.1" id="Layer_1" xmlns="http://www.w3.org/2000/svg" xmlns:xlink="http://www.w3.org/1999/xlink" x="0px" y="0px"
	 viewBox="0 0 1080 1080" style="enable-background:new 0 0 1080 1080;" xml:space="preserve">
<style type="text/css">
	.st0{fill:#F6F8F3;}
</style>
<title>emam-youtube</title>
<path class="st0" d="M472.7,641.2L648.4,540L472.7,438.8V641.2z"/>
<path class="st0" d="M540,0C241.8,0,0,241.8,0,540s241.8,540,540,540s540-241.8,540-540S838.2,0,540,0z M877.4,540.5
	c0,0,0,109.5-13.9,162.3c-7.9,29-30.5,51.6-59.5,59.5c-52.8,13.9-264,13.9-264,13.9s-210.7,0-264-14.5c-29-7.9-51.6-30.5-59.5-59.5
	C202.6,650.1,202.6,540,202.6,540s0-109.5,13.9-162.3c7.8-28.9,31.1-52.3,59.5-60c52.8-13.9,264-13.9,264-13.9s211.2,0,264,14.5
	c29,7.9,51.6,30.5,59.5,59.5C878,430.5,877.4,540.5,877.4,540.5z"/>
</svg>
