<?xml version="1.0" encoding="utf-8"?>
<!-- Generator: Adobe Illustrator 23.1.0, SVG Export Plug-In . SVG Version: 6.00 Build 0)  -->
<svg version="1.1" id="Layer_1" xmlns="http://www.w3.org/2000/svg" xmlns:xlink="http://www.w3.org/1999/xlink" x="0px" y="0px"
	 viewBox="0 0 1080 1080" style="enable-background:new 0 0 1080 1080;" xml:space="preserve">
<style type="text/css">
	.st0{fill:#F6F8F3;}
</style>
<title>emam-linkedin</title>
<path class="st0" d="M540,0C241.8,0,0,241.8,0,540s241.8,540,540,540s540-241.8,540-540S838.2,0,540,0z M383.1,816.3H251.6V420.7
	h131.5V816.3z M317.3,366.6h-0.9c-44.1,0-72.7-30.4-72.7-68.4c0-38.8,29.4-68.4,74.4-68.4s72.7,29.5,73.5,68.4
	C391.7,336.3,363.2,366.6,317.3,366.6z M857.3,816.3H725.8V604.7c0-53.2-19-89.5-66.6-89.5c-36.3,0-58,24.5-67.5,48.1
	c-3.5,8.5-4.3,20.3-4.3,32.1v221H455.9c0,0,1.7-358.5,0-395.7h131.5v56c17.5-27,48.8-65.3,118.5-65.3c86.5,0,151.4,56.5,151.4,178.1
	L857.3,816.3z"/>
</svg>
