<svg id="Layer_1" data-name="Layer 1" xmlns="http://www.w3.org/2000/svg" viewBox="0 0 500 333.33"><defs><style>.cls-1{fill:#faab18;}.cls-2{fill:#414042;}</style></defs><title>emam-metode-pembayaran-kredit</title><path class="cls-1" d="M52.08,95.71H447.92A52.09,52.09,0,0,1,500,147.8V377a52.09,52.09,0,0,1-52.08,52.09H52.08A52.09,52.09,0,0,1,0,377V147.8A52.09,52.09,0,0,1,52.08,95.71Z" transform="translate(0 -95.71)"/><rect class="cls-2" y="62.5" width="500" height="53.18"/><path d="M60.41,279.32v40.24L99,279.32h24.42l-43.11,44,46,53.8H103.21L68.4,335.68l-8,8.14v33.31H42.48V279.32Z" transform="translate(0 -95.71)"/><path d="M158.82,318.35q6.63-15.83,19.89-15.82a26,26,0,0,1,6.48,1.05l-.3,17.79a39,39,0,0,0-8.29-.91q-17.79,0-17.78,24.57v32.1H141v-73.4h17.78Z" transform="translate(0 -95.71)"/><path d="M260.46,323.78a40.85,40.85,0,0,1,1.89,11.6,68,68,0,0,1-.6,9.5H214.42q.32,8.89,4.38,14.46t12.35,5.58q11,0,13.12-9.65H262.2a26.3,26.3,0,0,1-10.1,17.34q-8.58,6.63-20.95,6.63a31.79,31.79,0,0,1-24.26-10.55q-10.09-11-10.1-28.18,0-17.64,10.1-28.34,9.65-10.25,24.26-10.24,15.22,0,23.66,10.69A33.2,33.2,0,0,1,260.46,323.78Zm-29.16-7.69q-7.53,0-11.75,4.9a22,22,0,0,0-5,12.58h31.19q0-11.9-7.53-16A14.79,14.79,0,0,0,231.3,316.09Z" transform="translate(0 -95.71)"/><path d="M331.37,365.82q-6.78,13.43-20.8,13.42a30.2,30.2,0,0,1-23.51-10.7q-9.8-11.16-9.79-28.34t9.34-27.88a29.34,29.34,0,0,1,22.91-10.39q13.71,0,20.65,11V273.74H348.1V377.13H333.48ZM312.84,317.9a15.69,15.69,0,0,0-12.59,6.1q-5.06,6.11-5.05,16.35t5.13,16.51A16.15,16.15,0,0,0,324.89,358a18,18,0,0,0,5.28-13.27v-9.49a18.44,18.44,0,0,0-5.28-12.81Q320.38,317.91,312.84,317.9Z" transform="translate(0 -95.71)"/><path d="M375.53,280.22a10.13,10.13,0,0,1,2.86-7.61q2.87-2.78,8.14-2.78a11.28,11.28,0,0,1,8.06,2.78,11.32,11.32,0,0,1,0,15.22,11.24,11.24,0,0,1-8.06,2.79q-5.28,0-8.14-2.79A10.1,10.1,0,0,1,375.53,280.22Zm2.11,23.51h17.78v73.4H377.64Z" transform="translate(0 -95.71)"/><path d="M466.85,375.32q-9.94,3.92-15.67,3.92a33.45,33.45,0,0,1-10-1.36,22.5,22.5,0,0,1-7.61-4.07q-6.94-6.18-6.93-17v-41H416.37V303.88h10.25V284.59H444.4v19.29h19.89v11.91H444.4v40.39q0,9,8.59,9a36.15,36.15,0,0,0,11.3-2.41Z" transform="translate(0 -95.71)"/></svg>