<svg xmlns="http://www.w3.org/2000/svg" xmlns:xlink="http://www.w3.org/1999/xlink" width="580" height="828" viewBox="0 0 580 828">
  <defs>
    <clipPath id="clip-path">
      <rect id="Rectangle_1820" data-name="Rectangle 1820" width="580" height="828" transform="translate(952.448 21)" fill="#fff"/>
    </clipPath>
    <clipPath id="clip-path-2">
      <rect id="Rectangle_1822" data-name="Rectangle 1822" width="1360.55" height="831.753" transform="translate(0)"/>
    </clipPath>
    <clipPath id="clip-path-3">
      <rect id="Rectangle_1823" data-name="Rectangle 1823" width="1360.55" height="831.753"/>
    </clipPath>
  </defs>
  <g id="Mask_Group_43" data-name="Mask Group 43" transform="translate(-952.448 -21)" clip-path="url(#clip-path)">
    <g id="emam-tech" transform="translate(952.527 18.836)">
      <g id="Group_1155" data-name="Group 1155" transform="translate(0 0)" clip-path="url(#clip-path-2)">
        <rect id="Rectangle_1821" data-name="Rectangle 1821" width="1151.457" height="2.31" transform="translate(864.964 406.346)" fill="#e82537"/>
      </g>
      <g id="Group_1156" data-name="Group 1156" transform="translate(0 0)" clip-path="url(#clip-path-3)">
        <path id="Path_1712" data-name="Path 1712" d="M-224.446,130.031a3.512,3.512,0,0,0,3.466-3.466h0a3.512,3.512,0,0,0-3.466-3.466,3.581,3.581,0,0,0-3.754,3.466h0a3.781,3.781,0,0,0,3.754,3.466Z" transform="translate(2240.578 280.936)" fill="#e82537"/>
      </g>
      <g id="Group_1157" data-name="Group 1157" transform="translate(0 0)" clip-path="url(#clip-path-3)">
        <path id="Path_1713" data-name="Path 1713" d="M173.666,130.22a3.613,3.613,0,0,1,.289-7.22,3.337,3.337,0,0,1,3.466,3.466,3.823,3.823,0,0,1-3.754,3.754Z" transform="translate(691.588 280.747)" fill="#e82537"/>
      </g>
      <g id="Group_1158" data-name="Group 1158" transform="translate(0 0)" clip-path="url(#clip-path-3)">
        <path id="Path_1714" data-name="Path 1714" d="M83.486,167.384H348.607v-2.31H84.353L-4.021,76.7H-223.8v2.31H-5.176Z" transform="translate(1658.284 193.331)" fill="#28aae1"/>
      </g>
      <g id="Group_1159" data-name="Group 1159" transform="translate(0 0)" clip-path="url(#clip-path-3)">
        <path id="Path_1715" data-name="Path 1715" d="M-221.5,113.531a3.512,3.512,0,0,0,3.466-3.466A3.512,3.512,0,0,0-221.5,106.6h0a3.337,3.337,0,0,0-3.466,3.466h0c-.289,1.733,1.444,3.466,3.466,3.466Z" transform="translate(2228.394 249.783)" fill="#28aae1"/>
      </g>
      <g id="Group_1160" data-name="Group 1160" transform="translate(0 0)" clip-path="url(#clip-path-3)">
        <path id="Path_1716" data-name="Path 1716" d="M-23.434,82.831A3.512,3.512,0,0,1-26.9,79.366h0A3.337,3.337,0,0,1-23.434,75.9a3.512,3.512,0,0,1,3.466,3.466,3.512,3.512,0,0,1-3.466,3.466Z" transform="translate(1458.207 191.821)" fill="#28aae1"/>
      </g>
      <g id="Group_1161" data-name="Group 1161" transform="translate(0 0)" clip-path="url(#clip-path-3)">
        <path id="Path_1717" data-name="Path 1717" d="M-100.9,108.931a3.512,3.512,0,0,0,3.466-3.466A3.337,3.337,0,0,0-100.9,102h0a3.512,3.512,0,0,0-3.466,3.466h0C-104.657,107.2-102.924,108.931-100.9,108.931Z" transform="translate(1759.497 241.098)" fill="#e82537"/>
      </g>
      <g id="Group_1162" data-name="Group 1162" transform="translate(0 0)" clip-path="url(#clip-path-3)">
        <path id="Path_1718" data-name="Path 1718" d="M-102.582,130.009a3.632,3.632,0,0,1,3.754-.578l34.079-34.079h201.3L184.2,47.7H323.691l27.725,27.725h511.47L994,206.542h294v2.31H993.136L862.019,77.736H350.549L322.824,50.01H185.354L137.7,97.663H-63.305l-33.5,33.5a3.558,3.558,0,0,1-.578,4.043h0a3.605,3.605,0,0,1-4.91-.578A3.919,3.919,0,0,1-102.582,130.009Z" transform="translate(370.591 138.578)" fill="#e82537"/>
      </g>
      <g id="Group_1163" data-name="Group 1163" transform="translate(0 0)" clip-path="url(#clip-path-3)">
        <path id="Path_1719" data-name="Path 1719" d="M33.766,98.031a3.466,3.466,0,1,0,0-6.931A3.337,3.337,0,0,0,30.3,94.566,3.512,3.512,0,0,0,33.766,98.031Z" transform="translate(1235.812 220.519)" fill="#faab18"/>
      </g>
      <g id="Group_1164" data-name="Group 1164" transform="translate(0 0)" clip-path="url(#clip-path-3)">
        <path id="Path_1720" data-name="Path 1720" d="M35.154,73.6a3.753,3.753,0,0,1,3.466,2.31H254.645L304.9,126.162H841.781v2.31H303.741L253.489,78.221H38.331A3.583,3.583,0,0,1,31.4,77.066,3.781,3.781,0,0,1,35.154,73.6Z" transform="translate(428.085 187.478)" fill="#faab18"/>
      </g>
      <g id="Group_1165" data-name="Group 1165" transform="translate(0 0)" clip-path="url(#clip-path-3)">
        <path id="Path_1721" data-name="Path 1721" d="M866.557,276.03h176.459v-2.31H867.423l-96.749-97.038h-165.2L429.6.8H-210.1V3.11H428.732L604.613,178.992H769.519Z" transform="translate(924.309 50.029)" fill="#faab18"/>
      </g>
      <g id="Group_1166" data-name="Group 1166" transform="translate(0 0)" clip-path="url(#clip-path-3)">
        <path id="Path_1722" data-name="Path 1722" d="M-207.8,101.431a3.337,3.337,0,0,0,3.466-3.466h0A3.512,3.512,0,0,0-207.8,94.5h0a3.337,3.337,0,0,0-3.466,3.466c-.289,2.022,1.444,3.466,3.466,3.466Z" transform="translate(2175.128 226.938)" fill="#faab18"/>
      </g>
      <g id="Group_1167" data-name="Group 1167" transform="translate(0 0)" clip-path="url(#clip-path-3)">
        <path id="Path_1723" data-name="Path 1723" d="M225.966,7.22A3.337,3.337,0,0,1,222.5,3.754,3.581,3.581,0,0,1,225.966,0a3.337,3.337,0,0,1,3.466,3.466h0A3.581,3.581,0,0,1,225.966,7.22Z" transform="translate(488.533 48.519)" fill="#faab18"/>
      </g>
      <g id="Group_1168" data-name="Group 1168" transform="translate(0 0)" clip-path="url(#clip-path-3)">
        <path id="Path_1724" data-name="Path 1724" d="M1028.29,209.69l1.733-1.733L896.884,74.819H639.561L591.042,26.3H238.991L214.154,51.137H30.764L-14,95.9l1.444,1.733L31.631,53.448h183.39L239.858,28.61H590.176l48.23,48.519H895.729Z" transform="translate(370.96 98.174)" fill="#faab18"/>
      </g>
      <g id="Group_1169" data-name="Group 1169" transform="translate(0 0)" clip-path="url(#clip-path-3)">
        <path id="Path_1725" data-name="Path 1725" d="M-13.753,94.218a3.32,3.32,0,0,0,4.91,0h0a3.32,3.32,0,0,0,0-4.91h0a3.661,3.661,0,0,0-5.2,0A3.6,3.6,0,0,0-13.753,94.218Z" transform="translate(1411.27 215.091)" fill="#faab18"/>
      </g>
      <g id="Group_1170" data-name="Group 1170" transform="translate(0 0)" clip-path="url(#clip-path-3)">
        <path id="Path_1726" data-name="Path 1726" d="M352.065,55.43a3.673,3.673,0,0,1-5.2-.289,3.509,3.509,0,0,1,0-4.621,3.673,3.673,0,0,1,5.2.289A3.509,3.509,0,0,1,352.065,55.43Z" transform="translate(8.361 142.111)" fill="#faab18"/>
      </g>
      <g id="Group_1171" data-name="Group 1171" transform="translate(0 0)" clip-path="url(#clip-path-3)">
        <path id="Path_1727" data-name="Path 1727" d="M898.148,181.2l1.733-1.733L783.493,63.082H550.141L517.217,30.159H6.9L-19.956,3.3-21.4,5.033,6.036,32.758H516.351l32.924,32.924H782.627Z" transform="translate(522.473 54.749)" fill="#b4d234"/>
      </g>
      <g id="Group_1172" data-name="Group 1172" transform="translate(0 0)" clip-path="url(#clip-path-3)">
        <path id="Path_1728" data-name="Path 1728" d="M-21.292,69.606a3.661,3.661,0,0,0,5.2,0,3.661,3.661,0,0,0,0-5.2,3.661,3.661,0,0,0-5.2,0h0A3.661,3.661,0,0,0-21.292,69.606Z" transform="translate(1440.18 168.079)" fill="#b4d234"/>
      </g>
      <g id="Group_1173" data-name="Group 1173" transform="translate(0 0)" clip-path="url(#clip-path-3)">
        <path id="Path_1729" data-name="Path 1729" d="M297.183,8.519a3.661,3.661,0,0,1,0-5.2,3.673,3.673,0,0,1,5.2.289,3.509,3.509,0,0,1,0,4.621A3.442,3.442,0,0,1,297.183,8.519Z" transform="translate(202.157 52.996)" fill="#b4d234"/>
      </g>
      <g id="Group_1174" data-name="Group 1174" transform="translate(0 0)" clip-path="url(#clip-path-3)">
        <path id="Path_1730" data-name="Path 1730" d="M50.766,85.331A3.466,3.466,0,1,0,47.3,81.866h0A3.512,3.512,0,0,0,50.766,85.331Z" transform="translate(1169.715 196.541)" fill="#e82537"/>
      </g>
      <g id="Group_1175" data-name="Group 1175" transform="translate(0 0)" clip-path="url(#clip-path-3)">
        <path id="Path_1731" data-name="Path 1731" d="M51.9,78.3a4.281,4.281,0,0,1,3.466,2.31H515.137v2.6H55.363a3.731,3.731,0,0,1-3.466,2.6,3.581,3.581,0,0,1-3.466-3.754A3.411,3.411,0,0,1,51.9,78.3Z" transform="translate(705.633 196.352)" fill="#e82537"/>
      </g>
      <g id="Group_1176" data-name="Group 1176" transform="translate(0 0)" clip-path="url(#clip-path-3)">
        <path id="Path_1732" data-name="Path 1732" d="M-209.834,141.631a3.512,3.512,0,0,0,3.466-3.466h0a3.337,3.337,0,0,0-3.466-3.466h0a3.512,3.512,0,0,0-3.466,3.466h0A3.337,3.337,0,0,0-209.834,141.631Z" transform="translate(2182.935 302.837)" fill="#faab18"/>
      </g>
      <g id="Group_1177" data-name="Group 1177" transform="translate(0 0)" clip-path="url(#clip-path-3)">
        <path id="Path_1733" data-name="Path 1733" d="M-208.634,356.146a3.753,3.753,0,0,1,3.466,2.31H280.886L408.249,231.094h574.14l81.442-95.594H1247.51v2.31H1064.7L983.255,233.4H409.4L282.042,360.767h-487.21a3.482,3.482,0,0,1-3.466,2.31,3.512,3.512,0,0,1-3.466-3.466A3.512,3.512,0,0,1-208.634,356.146Z" transform="translate(725.591 304.347)" fill="#faab18"/>
      </g>
      <g id="Group_1178" data-name="Group 1178" transform="translate(0 0)" clip-path="url(#clip-path-3)">
        <path id="Path_1734" data-name="Path 1734" d="M-118.934,154.931a3.512,3.512,0,0,0,3.466-3.466A3.512,3.512,0,0,0-118.934,148a3.512,3.512,0,0,0-3.466,3.466A3.512,3.512,0,0,0-118.934,154.931Z" transform="translate(1829.514 327.948)" fill="#faab18"/>
      </g>
      <g id="Group_1179" data-name="Group 1179" transform="translate(0 0)" clip-path="url(#clip-path-3)">
        <path id="Path_1735" data-name="Path 1735" d="M-117.157,228.987a3.753,3.753,0,0,1,3.466,2.31H295.254l82.309-82.6h751.465v2.31h-750.6l-82.6,82.6h-410.1a3.482,3.482,0,0,1-3.466,2.31,3.512,3.512,0,0,1-3.466-3.466A4.325,4.325,0,0,1-117.157,228.987Z" transform="translate(581.552 329.269)" fill="#faab18"/>
      </g>
      <g id="Group_1180" data-name="Group 1180" transform="translate(0)" clip-path="url(#clip-path-3)">
        <ellipse id="Ellipse_87" data-name="Ellipse 87" cx="3.466" cy="3.466" rx="3.466" ry="3.466" transform="translate(1036.802 499.919)" fill="#b4d234"/>
      </g>
      <g id="Group_1181" data-name="Group 1181" transform="translate(0 0)" clip-path="url(#clip-path-3)">
        <path id="Path_1736" data-name="Path 1736" d="M114,270.411a3.753,3.753,0,0,1,3.466,2.31h287.07l26.859-26.859H659.257L747.919,157.2l1.733,1.733-89.529,89.529H432.258L405.4,275.321H117.463a3.583,3.583,0,0,1-6.931-1.155A3.277,3.277,0,0,1,114,270.411Z" transform="translate(291.771 345.318)" fill="#b4d234"/>
      </g>
      <g id="Group_1182" data-name="Group 1182" transform="translate(0)" clip-path="url(#clip-path-3)">
        <rect id="Rectangle_1849" data-name="Rectangle 1849" width="470.46" height="2.31" transform="translate(886.625 443.891)" fill="#faab18"/>
      </g>
      <g id="Group_1183" data-name="Group 1183" transform="translate(0 0)" clip-path="url(#clip-path-3)">
        <path id="Path_1737" data-name="Path 1737" d="M3.566,143.131a3.466,3.466,0,0,0,0-6.931A3.512,3.512,0,0,0,.1,139.666h0A3.727,3.727,0,0,0,3.566,143.131Z" transform="translate(1353.23 305.669)" fill="#faab18"/>
      </g>
      <g id="Group_1184" data-name="Group 1184" transform="translate(0 0)" clip-path="url(#clip-path-3)">
        <path id="Path_1738" data-name="Path 1738" d="M166.355,143.131a3.466,3.466,0,1,1,3.466-3.466h0c.289,1.733-1.444,3.466-3.466,3.466Z" transform="translate(720.27 305.669)" fill="#faab18"/>
      </g>
      <g id="Group_1185" data-name="Group 1185" transform="translate(0)" clip-path="url(#clip-path-3)">
        <ellipse id="Ellipse_88" data-name="Ellipse 88" cx="3.466" cy="3.466" rx="3.466" ry="3.466" transform="translate(874.784 515.225)" fill="#e82537"/>
      </g>
      <g id="Group_1186" data-name="Group 1186" transform="translate(0 0)" clip-path="url(#clip-path-3)">
        <path id="Path_1739" data-name="Path 1739" d="M170.654,136.8a3.13,3.13,0,0,1,3.177,2.31H499.312l71.912,71.912h177.9v2.31H570.357l-71.912-71.912H173.831a3.731,3.731,0,0,1-3.466,2.6,3.512,3.512,0,0,1-3.466-3.466A3.64,3.64,0,0,1,170.654,136.8Z" transform="translate(129.412 306.802)" fill="#e82537"/>
      </g>
      <g id="Group_1187" data-name="Group 1187" transform="translate(0 0)" clip-path="url(#clip-path-3)">
        <path id="Path_1740" data-name="Path 1740" d="M78.215,161.981a3.753,3.753,0,0,1,3.466,2.31H389.833l37.544-37.544H799.067L821.3,104.51a3.558,3.558,0,0,1,.578-4.043,3.509,3.509,0,0,1,4.621,0,3.384,3.384,0,0,1-3.466,5.776l-23.1,23.1H428.244L390.7,166.891H81.1a3.482,3.482,0,0,1-3.466,2.31h0a3.512,3.512,0,0,1-3.466-3.466A4.068,4.068,0,0,1,78.215,161.981Z" transform="translate(318.6 236.567)" fill="#faab18"/>
      </g>
      <g id="Group_1188" data-name="Group 1188" transform="translate(0 0)" clip-path="url(#clip-path-3)">
        <path id="Path_1741" data-name="Path 1741" d="M-66.4,117.931a3.512,3.512,0,0,0,3.466-3.466h0A3.337,3.337,0,0,0-66.4,111h0a3.512,3.512,0,0,0-3.466,3.466C-70.157,116.487-68.424,117.931-66.4,117.931Z" transform="translate(1625.361 258.091)" fill="#b4d234"/>
      </g>
      <g id="Group_1189" data-name="Group 1189" transform="translate(0 0)" clip-path="url(#clip-path-3)">
        <path id="Path_1742" data-name="Path 1742" d="M-65.234,110.9a3.753,3.753,0,0,1,3.466,2.31H188.912v2.31H-61.769a3.482,3.482,0,0,1-3.466,2.31,3.512,3.512,0,0,1-3.466-3.466A3.727,3.727,0,0,1-65.234,110.9Z" transform="translate(1370.046 257.902)" fill="#b4d234"/>
      </g>
      <g id="Group_1190" data-name="Group 1190" transform="translate(0 0)" clip-path="url(#clip-path-3)">
        <path id="Path_1743" data-name="Path 1743" d="M240.7,97.331a3.466,3.466,0,0,0,0-6.931,3.727,3.727,0,0,0-3.466,3.466c-.289,2.022,1.444,3.466,3.466,3.466Z" transform="translate(431.347 219.197)" fill="#b4d234"/>
      </g>
      <g id="Group_1191" data-name="Group 1191" transform="translate(0 0)" clip-path="url(#clip-path-3)">
        <path id="Path_1744" data-name="Path 1744" d="M239.383,95.432a3.661,3.661,0,0,1,5.2,0,3.5,3.5,0,0,1,.578,4.043l33.5,33.5H521.832L563.709,91.1H694.247v2.6H564.575L522.7,135.576H277.5L243.426,101.5a3.5,3.5,0,0,1-4.043-.578h0A4.013,4.013,0,0,1,239.383,95.432Z" transform="translate(-21.914 220.519)" fill="#b4d234"/>
      </g>
      <g id="Group_1192" data-name="Group 1192" transform="translate(0 0)" clip-path="url(#clip-path-3)">
        <path id="Path_1745" data-name="Path 1745" d="M-86.682,182.506a3.661,3.661,0,0,0,0-5.2,3.32,3.32,0,0,0-4.91,0h0a3.32,3.32,0,0,0,0,4.91h0A3.126,3.126,0,0,0-86.682,182.506Z" transform="translate(1713.797 381.237)" fill="#28aae1"/>
      </g>
      <g id="Group_1193" data-name="Group 1193" transform="translate(0 0)" clip-path="url(#clip-path-3)">
        <path id="Path_1746" data-name="Path 1746" d="M-88.234,224.275h0a3.753,3.753,0,0,1,3.466,2.31H276.524L325.909,177.2l1.733,1.733L277.39,229.185H-84.769a3.482,3.482,0,0,1-3.466,2.31,3.512,3.512,0,0,1-3.466-3.466A3.584,3.584,0,0,1-88.234,224.275Z" transform="translate(1297.741 383.078)" fill="#28aae1"/>
      </g>
      <g id="Group_1194" data-name="Group 1194" transform="translate(0 0)" clip-path="url(#clip-path-3)">
        <path id="Path_1747" data-name="Path 1747" d="M-173.182,150.706a3.661,3.661,0,0,0,0-5.2,3.32,3.32,0,0,0-4.91,0h0a3.32,3.32,0,0,0,0,4.91h0A3.126,3.126,0,0,0-173.182,150.706Z" transform="translate(2050.112 321.198)" fill="#e82537"/>
      </g>
      <g id="Group_1195" data-name="Group 1195" transform="translate(0 0)" clip-path="url(#clip-path-3)">
        <path id="Path_1748" data-name="Path 1748" d="M-174.734,346.885a3.753,3.753,0,0,1,3.466,2.31h79.421l69.6,69.6h420.5l69.89,69.89h754.353L1565.88,145.3l1.733,1.733L1223.36,491.286H467.274l-69.89-69.89h-420.5l-69.6-69.6h-78.554a3.482,3.482,0,0,1-3.466,2.31,3.512,3.512,0,0,1-3.466-3.466A3.581,3.581,0,0,1-174.734,346.885Z" transform="translate(307.584 322.85)" fill="#e82537"/>
      </g>
      <g id="Group_1196" data-name="Group 1196" transform="translate(0 0)" clip-path="url(#clip-path-3)">
        <path id="Path_1749" data-name="Path 1749" d="M-76.434,236.131a3.337,3.337,0,0,0,3.466-3.466h0a3.512,3.512,0,0,0-3.466-3.466h0a3.512,3.512,0,0,0-3.466,3.466,3.512,3.512,0,0,0,3.466,3.466Z" transform="translate(1664.272 481.256)" fill="#faab18"/>
      </g>
      <g id="Group_1197" data-name="Group 1197" transform="translate(0 0)" clip-path="url(#clip-path-3)">
        <path id="Path_1750" data-name="Path 1750" d="M-75.334,257.625a3.753,3.753,0,0,1,3.466,2.31H315.416L345.451,229.9H744.577v2.31H346.318l-30.035,30.035H-72.158a3.379,3.379,0,0,1-3.177,2.31h0a3.512,3.512,0,0,1-3.466-3.466A3.512,3.512,0,0,1-75.334,257.625Z" transform="translate(843.55 482.578)" fill="#faab18"/>
      </g>
      <g id="Group_1198" data-name="Group 1198" transform="translate(0 0)" clip-path="url(#clip-path-3)">
        <path id="Path_1751" data-name="Path 1751" d="M-120.734,195.331a3.512,3.512,0,0,0,3.466-3.466h0a3.512,3.512,0,0,0-3.466-3.466,3.337,3.337,0,0,0-3.466,3.466h0a3.512,3.512,0,0,0,3.466,3.466Z" transform="translate(1836.512 404.224)" fill="#e82537"/>
      </g>
      <g id="Group_1199" data-name="Group 1199" transform="translate(0 0)" clip-path="url(#clip-path-3)">
        <path id="Path_1752" data-name="Path 1752" d="M-121.978,177.421a3.673,3.673,0,0,1,5.2.289,3.545,3.545,0,0,1,.578,3.754l22.527,22.527H57.369l60.937,60.938H247.69l48.23,48.23H965.365L992.8,285.722h474.792l72.778-72.778h52.562v2.31h-51.7l-72.778,72.778H993.667l-27.436,27.436H294.476l-48.23-48.23H116.862L55.925,206.3H-95.119l-23.1-23.1a4.057,4.057,0,0,1-4.043-.578A3.967,3.967,0,0,1-121.978,177.421Z" transform="translate(123.133 381.703)" fill="#e82537"/>
      </g>
      <g id="Group_1200" data-name="Group 1200" transform="translate(0 0)" clip-path="url(#clip-path-3)">
        <path id="Path_1753" data-name="Path 1753" d="M253.566,156.131a3.512,3.512,0,0,0,3.466-3.466,3.727,3.727,0,0,0-3.466-3.466,3.466,3.466,0,1,0,0,6.931Z" transform="translate(381.223 330.214)" fill="#faab18"/>
      </g>
      <g id="Group_1201" data-name="Group 1201" transform="translate(0 0)" clip-path="url(#clip-path-3)">
        <path id="Path_1754" data-name="Path 1754" d="M252.383,166.462h0a3.673,3.673,0,0,1,5.2.289,3.632,3.632,0,0,1,.578,3.754l33.212,33.212H460.9L514.616,150H659.884v2.31h-144.4l-53.717,53.717H290.216l-33.79-33.79a3.5,3.5,0,0,1-4.043-.578h0A3.661,3.661,0,0,1,252.383,166.462Z" transform="translate(-25.095 331.724)" fill="#faab18"/>
      </g>
      <g id="Group_1202" data-name="Group 1202" transform="translate(0 0)" clip-path="url(#clip-path-3)">
        <path id="Path_1755" data-name="Path 1755" d="M341.126,213.655a3.753,3.753,0,0,1,3.466,2.31H452.026l37.256-37.256a3.557,3.557,0,0,1,.578-4.043,3.509,3.509,0,0,1,4.621,0,3.384,3.384,0,0,1-3.466,5.776l-38.122,38.122H344.3a3.583,3.583,0,0,1-6.931-1.155C337.66,215.388,339.393,213.655,341.126,213.655Z" transform="translate(-109.506 376.659)" fill="#b4d234"/>
      </g>
      <g id="Group_1203" data-name="Group 1203" transform="translate(0 0)" clip-path="url(#clip-path-2)">
        <rect id="Rectangle_1871" data-name="Rectangle 1871" width="883.448" height="1.733" transform="translate(1133.84 412.122)" fill="#faab18"/>
      </g>
      <g id="Group_1204" data-name="Group 1204" transform="translate(0)" clip-path="url(#clip-path-3)">
        <ellipse id="Ellipse_89" data-name="Ellipse 89" cx="2.599" cy="2.599" rx="2.599" ry="2.599" transform="translate(2014.4 410.389)" fill="#faab18"/>
      </g>
      <g id="Group_1205" data-name="Group 1205" transform="translate(0 0)" clip-path="url(#clip-path-3)">
        <path id="Path_1756" data-name="Path 1756" d="M80.473,130.787a2.747,2.747,0,0,1-.289-5.487h0a2.849,2.849,0,0,1,2.888,2.6,2.5,2.5,0,0,1-2.6,2.888Z" transform="translate(1053.367 285.089)" fill="#faab18"/>
      </g>
      <g id="Group_1206" data-name="Group 1206" transform="translate(0 0)" clip-path="url(#clip-path-3)">
        <path id="Path_1757" data-name="Path 1757" d="M10.863,159.3H214.18v-1.733H11.73L-56.428,89.7H-224.8v1.733H-57.006Z" transform="translate(1795.599 217.875)" fill="#28aae1"/>
      </g>
      <g id="Group_1207" data-name="Group 1207" transform="translate(0 0)" clip-path="url(#clip-path-3)">
        <path id="Path_1758" data-name="Path 1758" d="M-223.157,117.823a2.849,2.849,0,0,0,2.888-2.6,2.655,2.655,0,0,0-2.888-2.6,2.588,2.588,0,0,0-2.6,2.6c-.289,1.444.866,2.6,2.6,2.6Z" transform="translate(2232.935 261.087)" fill="#28aae1"/>
      </g>
      <g id="Group_1208" data-name="Group 1208" transform="translate(0 0)" clip-path="url(#clip-path-3)">
        <path id="Path_1759" data-name="Path 1759" d="M-70.912,94.676a2.849,2.849,0,0,1-2.888-2.6v-.289A2.729,2.729,0,0,1-70.912,88.9a2.729,2.729,0,0,1,2.888,2.888A2.729,2.729,0,0,1-70.912,94.676Z" transform="translate(1641.711 216.365)" fill="#28aae1"/>
      </g>
      <g id="Group_1209" data-name="Group 1209" transform="translate(0 0)" clip-path="url(#clip-path-3)">
        <path id="Path_1760" data-name="Path 1760" d="M707.25,191.108H933.382v-1.733H707.827l-100.5-100.5H214.841L193.47,67.5H86.613L49.935,104.178H-104.286L-132.3,131.9l1.155,1.444,27.436-27.436H50.8L87.19,69.233h105.7L214.263,90.6H606.458Z" transform="translate(809.254 175.961)" fill="#b4d234"/>
      </g>
      <g id="Group_1210" data-name="Group 1210" transform="translate(0 0)" clip-path="url(#clip-path-3)">
        <ellipse id="Ellipse_90" data-name="Ellipse 90" cx="2.599" cy="2.599" rx="2.599" ry="2.599" transform="translate(1740.037 363.603)" fill="#b4d234"/>
      </g>
      <g id="Group_1211" data-name="Group 1211" transform="translate(0 0)" clip-path="url(#clip-path-3)">
        <path id="Path_1761" data-name="Path 1761" d="M240.45,93.747a2.866,2.866,0,1,1-.289-4.043l.289.289A2.462,2.462,0,0,1,240.45,93.747Z" transform="translate(439.103 216.717)" fill="#b4d234"/>
      </g>
      <g id="Group_1212" data-name="Group 1212" transform="translate(0)" clip-path="url(#clip-path-3)">
        <ellipse id="Ellipse_91" data-name="Ellipse 91" cx="2.599" cy="2.599" rx="2.599" ry="2.599" transform="translate(1441.704 339.344)" fill="#28aae1"/>
      </g>
      <g id="Group_1213" data-name="Group 1213" transform="translate(0 0)" clip-path="url(#clip-path-3)">
        <path id="Path_1762" data-name="Path 1762" d="M-28.822,89.251a2.6,2.6,0,0,1,1.733-1.733,3,3,0,0,1,3.754,1.733H141.283l38.411,38.7H591.815v1.733h-412.7L140.705,91.273H-23.335a2.6,2.6,0,0,1-1.733,1.733,1.841,1.841,0,0,1-1.733,0A2.931,2.931,0,0,1-28.822,89.251Z" transform="translate(852.487 213.415)" fill="#28aae1"/>
      </g>
      <g id="Group_1214" data-name="Group 1214" transform="translate(0 0)" clip-path="url(#clip-path-3)">
        <path id="Path_1763" data-name="Path 1763" d="M611.676,242.615H747.125v-1.733H612.543l-74.511-74.511h-126.5L276.665,31.5H-214.3v1.733H275.8L410.669,168.1H537.454Z" transform="translate(1232.33 107.992)" fill="#e82537"/>
      </g>
      <g id="Group_1215" data-name="Group 1215" transform="translate(0 0)" clip-path="url(#clip-path-3)">
        <ellipse id="Ellipse_92" data-name="Ellipse 92" cx="2.599" cy="2.599" rx="2.599" ry="2.599" transform="translate(1976.855 347.142)" fill="#e82537"/>
      </g>
      <g id="Group_1216" data-name="Group 1216" transform="translate(0 0)" clip-path="url(#clip-path-2)">
        <ellipse id="Ellipse_93" data-name="Ellipse 93" cx="2.888" cy="2.888" rx="2.888" ry="2.888" transform="translate(1015.431 137.47)" fill="#e82537"/>
      </g>
      <g id="Group_1217" data-name="Group 1217" transform="translate(0 0)" clip-path="url(#clip-path-3)">
        <path id="Path_1764" data-name="Path 1764" d="M-63.775,103.079a3.029,3.029,0,0,0,3.754,0,3.029,3.029,0,0,0,0-3.754,3.029,3.029,0,0,0-3.754,0A3.029,3.029,0,0,0-63.775,103.079Z" transform="translate(1605.982 234.821)" fill="#28aae1"/>
      </g>
      <g id="Group_1218" data-name="Group 1218" transform="translate(0 0)" clip-path="url(#clip-path-3)">
        <path id="Path_1765" data-name="Path 1765" d="M-63.182,103.085a3.071,3.071,0,0,1,3.466-.578l32.346-32.346H113.276L132.337,51.1H402.657l37.256,36.967H637.164L739.4,190.3l-1.155,1.155L636.587,89.8H439.046L402.079,52.833H133.492L114.431,71.894H-26.216l-32.057,32.057a2.636,2.636,0,0,1-.578,3.177,3.093,3.093,0,0,1-4.043.289A3.506,3.506,0,0,1-63.182,103.085Z" transform="translate(805.406 144.997)" fill="#28aae1"/>
      </g>
      <g id="Group_1219" data-name="Group 1219" transform="translate(0 0)" clip-path="url(#clip-path-3)">
        <path id="Path_1766" data-name="Path 1766" d="M635.945,170l1.444-1.444L547.86,79.32H368.8L343.677,54.194H-47.94L-68.445,33.4-69.6,34.844l21.083,21.083H342.81l25.415,25.126H547.283Z" transform="translate(924.168 111.579)" fill="#28aae1"/>
      </g>
      <g id="Group_1220" data-name="Group 1220" transform="translate(0 0)" clip-path="url(#clip-path-3)">
        <path id="Path_1767" data-name="Path 1767" d="M-69.475,84.121a3.029,3.029,0,0,0,3.754,0,3.029,3.029,0,0,0,0-3.754,2.462,2.462,0,0,0-3.754,0h0A3.029,3.029,0,0,0-69.475,84.121Z" transform="translate(1628.144 198.618)" fill="#28aae1"/>
      </g>
      <g id="Group_1221" data-name="Group 1221" transform="translate(0 0)" clip-path="url(#clip-path-3)">
        <path id="Path_1768" data-name="Path 1768" d="M174.993,37.536a2.866,2.866,0,1,1,3.754-4.332c1.155.866,1.155,2.888.289,4.043l-.289.289A2.462,2.462,0,0,1,174.993,37.536Z" transform="translate(678.131 110.043)" fill="#28aae1"/>
      </g>
      <g id="Group_1222" data-name="Group 1222" transform="translate(0 0)" clip-path="url(#clip-path-3)">
        <rect id="Rectangle_1891" data-name="Rectangle 1891" width="355.516" height="1.733" transform="translate(1051.242 313.063)" fill="#b4d234"/>
      </g>
      <g id="Group_1223" data-name="Group 1223" transform="translate(0 0)" clip-path="url(#clip-path-3)">
        <path id="Path_1769" data-name="Path 1769" d="M-14.264,96.576a2.729,2.729,0,0,0,2.888-2.888,2.849,2.849,0,0,0-2.6-2.888h-.289a2.655,2.655,0,0,0-2.6,2.888A2.667,2.667,0,0,0-14.264,96.576Z" transform="translate(1420.733 219.952)" fill="#b4d234"/>
      </g>
      <g id="Group_1224" data-name="Group 1224" transform="translate(0 0)" clip-path="url(#clip-path-3)">
        <path id="Path_1770" data-name="Path 1770" d="M108.988,96.576a2.888,2.888,0,1,1,2.888-2.888,2.849,2.849,0,0,1-2.6,2.888Z" transform="translate(942.254 219.952)" fill="#b4d234"/>
      </g>
      <g id="Group_1225" data-name="Group 1225" transform="translate(0 0)" clip-path="url(#clip-path-3)">
        <path id="Path_1771" data-name="Path 1771" d="M-215.9,307.793H160.41l97.9-97.615H699.027l62.382-73.645H901.478V134.8H760.542l-62.381,73.356H257.448l-97.615,97.9H-215.9Z" transform="translate(1082.597 303.026)" fill="#e82537"/>
      </g>
      <g id="Group_1226" data-name="Group 1226" transform="translate(0 0)" clip-path="url(#clip-path-3)">
        <path id="Path_1772" data-name="Path 1772" d="M-214.264,139.687a2.849,2.849,0,0,0,2.888-2.6,2.849,2.849,0,0,0-2.6-2.888h-.289a2.655,2.655,0,0,0-2.6,2.888A3.048,3.048,0,0,0-214.264,139.687Z" transform="translate(2198.339 301.893)" fill="#e82537"/>
      </g>
      <g id="Group_1227" data-name="Group 1227" transform="translate(0)" clip-path="url(#clip-path-2)">
        <ellipse id="Ellipse_94" data-name="Ellipse 94" cx="2.888" cy="2.888" rx="2.888" ry="2.888" transform="translate(863.809 607.064)" fill="#e82537"/>
      </g>
      <g id="Group_1228" data-name="Group 1228" transform="translate(0 0)" clip-path="url(#clip-path-3)">
        <path id="Path_1773" data-name="Path 1773" d="M-146.2,209.981H170.906l63.537-63.248H810.315V145H233.576l-63.248,63.248H-146.2Z" transform="translate(972.465 322.284)" fill="#faab18"/>
      </g>
      <g id="Group_1229" data-name="Group 1229" transform="translate(0 0)" clip-path="url(#clip-path-3)">
        <path id="Path_1774" data-name="Path 1774" d="M-144.212,149.912a2.729,2.729,0,0,0,2.888-2.888,2.655,2.655,0,0,0-2.888-2.6,2.849,2.849,0,0,0-2.888,2.6A3.106,3.106,0,0,0-144.212,149.912Z" transform="translate(1926.703 321.127)" fill="#faab18"/>
      </g>
      <g id="Group_1230" data-name="Group 1230" transform="translate(0 0)" clip-path="url(#clip-path-3)">
        <path id="Path_1775" data-name="Path 1775" d="M185.914,171.787a2.89,2.89,0,0,1-1.733-3.754,2.6,2.6,0,0,1,1.733-1.733,2.849,2.849,0,0,1,2.888,2.6,2.729,2.729,0,0,1-2.888,2.888Z" transform="translate(640.351 362.499)" fill="#faab18"/>
      </g>
      <g id="Group_1231" data-name="Group 1231" transform="translate(0 0)" clip-path="url(#clip-path-3)">
        <path id="Path_1776" data-name="Path 1776" d="M253.667,241.673l20.794-20.794H449.186l66.136-66.136a2.636,2.636,0,0,1,.578-3.177,2.655,2.655,0,0,1,3.754,3.754,3.147,3.147,0,0,1-3.177.578l-66.713,66.714H275.038l-20.505,20.794H31v-1.733Z" transform="translate(750.5 333.046)" fill="#28aae1"/>
      </g>
      <g id="Group_1232" data-name="Group 1232" transform="translate(0 0)" clip-path="url(#clip-path-3)">
        <path id="Path_1777" data-name="Path 1777" d="M201.514,186.987a2.89,2.89,0,0,1-1.733-3.754,2.6,2.6,0,0,1,1.733-1.733,2.667,2.667,0,0,1,2.6,2.888A2.588,2.588,0,0,1,201.514,186.987Z" transform="translate(579.987 391.197)" fill="#28aae1"/>
      </g>
      <g id="Group_1233" data-name="Group 1233" transform="translate(0)" clip-path="url(#clip-path-3)">
        <rect id="Rectangle_1903" data-name="Rectangle 1903" width="361.004" height="1.733" transform="translate(1150.302 441.003)" fill="#b4d234"/>
      </g>
      <g id="Group_1234" data-name="Group 1234" transform="translate(0 0)" clip-path="url(#clip-path-3)">
        <path id="Path_1778" data-name="Path 1778" d="M-50.312,140.812a2.729,2.729,0,0,0,2.888-2.888,2.655,2.655,0,0,0-2.888-2.6,2.849,2.849,0,0,0-2.888,2.6A2.894,2.894,0,0,0-50.312,140.812Z" transform="translate(1561.617 303.945)" fill="#b4d234"/>
      </g>
      <g id="Group_1235" data-name="Group 1235" transform="translate(0)" clip-path="url(#clip-path-3)">
        <ellipse id="Ellipse_95" data-name="Ellipse 95" cx="2.888" cy="2.888" rx="2.888" ry="2.888" transform="translate(1147.414 438.981)" fill="#b4d234"/>
      </g>
      <g id="Group_1236" data-name="Group 1236" transform="translate(0 0)" clip-path="url(#clip-path-3)">
        <path id="Path_1779" data-name="Path 1779" d="M381.609,193.294h137.47v-1.733h-136.6L327.314,136.4H74.9v1.733H326.736Z" transform="translate(625.158 306.047)" fill="#b4d234"/>
      </g>
      <g id="Group_1237" data-name="Group 1237" transform="translate(0)" clip-path="url(#clip-path-3)">
        <ellipse id="Ellipse_96" data-name="Ellipse 96" cx="2.888" cy="2.888" rx="2.888" ry="2.888" transform="translate(1141.06 495.586)" fill="#b4d234"/>
      </g>
      <g id="Group_1238" data-name="Group 1238" transform="translate(0)" clip-path="url(#clip-path-3)">
        <ellipse id="Ellipse_97" data-name="Ellipse 97" cx="2.888" cy="2.888" rx="2.888" ry="2.888" transform="translate(697.17 440.425)" fill="#b4d234"/>
      </g>
      <g id="Group_1239" data-name="Group 1239" transform="translate(0 0)" clip-path="url(#clip-path-3)">
        <path id="Path_1780" data-name="Path 1780" d="M243.093,157.021l28.88-28.88H557.021L574.061,111.1a2.636,2.636,0,0,1,.578-3.177,3.47,3.47,0,0,1,4.043,0,3.03,3.03,0,0,1,0,3.754,3.147,3.147,0,0,1-3.177.578l-17.617,17.617H272.839l-28.88,28.88H3.675v-1.733Z" transform="translate(770.605 251.058)" fill="#28aae1"/>
      </g>
      <g id="Group_1240" data-name="Group 1240" transform="translate(0 0)" clip-path="url(#clip-path-3)">
        <path id="Path_1781" data-name="Path 1781" d="M204.888,129.287a2.667,2.667,0,0,1-2.888-2.6,2.747,2.747,0,1,1,5.487-.289h0A2.667,2.667,0,0,1,204.888,129.287Z" transform="translate(569.681 282.257)" fill="#28aae1"/>
      </g>
      <g id="Group_1241" data-name="Group 1241" transform="translate(0 0)" clip-path="url(#clip-path-2)">
        <rect id="Rectangle_1912" data-name="Rectangle 1912" width="195.231" height="1.733" transform="translate(1471.161 385.264)" fill="#28aae1"/>
      </g>
      <g id="Group_1242" data-name="Group 1242" transform="translate(0 0)" clip-path="url(#clip-path-3)">
        <path id="Path_1782" data-name="Path 1782" d="M-104.2,121.512a2.849,2.849,0,0,0,2.888-2.6v-.289a2.655,2.655,0,0,0-2.888-2.6,2.588,2.588,0,0,0-2.6,2.6A3.071,3.071,0,0,0-104.2,121.512Z" transform="translate(1770.304 267.506)" fill="#28aae1"/>
      </g>
      <g id="Group_1243" data-name="Group 1243" transform="translate(0 0)" clip-path="url(#clip-path-3)">
        <path id="Path_1783" data-name="Path 1783" d="M-36.412,121.512a2.729,2.729,0,0,1-2.888-2.888,2.655,2.655,0,0,1,2.888-2.6,2.849,2.849,0,0,1,2.888,2.6A2.894,2.894,0,0,1-36.412,121.512Z" transform="translate(1507.573 267.506)" fill="#28aae1"/>
      </g>
      <g id="Group_1244" data-name="Group 1244" transform="translate(0 0)" clip-path="url(#clip-path-3)">
        <path id="Path_1784" data-name="Path 1784" d="M129.533,105.01a3.093,3.093,0,0,1,4.043-.289,2.672,2.672,0,0,1,.578,3.466l25.7,25.7H346.424l32.057-32.057H476.1a2.526,2.526,0,0,1,2.6-1.733,2.894,2.894,0,0,1,2.888,2.888,2.667,2.667,0,0,1-2.888,2.6,2.925,2.925,0,0,1-2.6-1.733H379.348l-32.057,32.057H159.28L133,109.631a3.265,3.265,0,0,1-3.177-.578A2.586,2.586,0,0,1,129.533,105.01Z" transform="translate(507.277 237.511)" fill="#faab18"/>
      </g>
      <g id="Group_1245" data-name="Group 1245" transform="translate(0 0)" clip-path="url(#clip-path-3)">
        <path id="Path_1785" data-name="Path 1785" d="M-123.5,206.655H157.216l38.411-38.7-1.155-1.155L156.35,204.633H-123.5Z" transform="translate(1521.594 363.443)" fill="#28aae1"/>
      </g>
      <g id="Group_1246" data-name="Group 1246" transform="translate(0 0)" clip-path="url(#clip-path-3)">
        <path id="Path_1786" data-name="Path 1786" d="M-119.721,170.768a3.47,3.47,0,0,0,0-4.043,3.029,3.029,0,0,0-3.754,0,3.47,3.47,0,0,0,0,4.043A2.467,2.467,0,0,0-119.721,170.768Z" transform="translate(1838.098 362.074)" fill="#28aae1"/>
      </g>
      <g id="Group_1247" data-name="Group 1247" transform="translate(0 0)" clip-path="url(#clip-path-3)">
        <path id="Path_1787" data-name="Path 1787" d="M-11.4,184.7a2.588,2.588,0,0,1-2.6-2.6,2.588,2.588,0,0,1,2.6-2.6h0a2.588,2.588,0,0,1,2.6,2.6A3.048,3.048,0,0,1-11.4,184.7Z" transform="translate(1409.784 387.421)" fill="#28aae1"/>
      </g>
      <g id="Group_1248" data-name="Group 1248" transform="translate(0 0)" clip-path="url(#clip-path-3)">
        <path id="Path_1788" data-name="Path 1788" d="M-186.2,146.179a2.467,2.467,0,0,0,0-3.754h0a3.029,3.029,0,0,0-3.754,0,3.029,3.029,0,0,0,0,3.754A2.462,2.462,0,0,0-186.2,146.179Z" transform="translate(2096.337 316.195)" fill="#28aae1"/>
      </g>
      <g id="Group_1249" data-name="Group 1249" transform="translate(0 0)" clip-path="url(#clip-path-3)">
        <path id="Path_1789" data-name="Path 1789" d="M-187.617,297.1a2.925,2.925,0,0,1,2.6,1.733h60.937l53.429,53.429H251.941l53.717,53.717H884.13L1147.807,142.3l1.444,1.444L885.286,407.71H305.37l-53.717-53.717H-70.94l-53.429-53.429H-184.44a2.526,2.526,0,0,1-2.6,1.733,2.667,2.667,0,0,1-2.6-2.888C-190.5,298.254-189.061,297.1-187.617,297.1Z" transform="translate(759.735 317.186)" fill="#28aae1"/>
      </g>
      <g id="Group_1250" data-name="Group 1250" transform="translate(0 0)" clip-path="url(#clip-path-3)">
        <path id="Path_1790" data-name="Path 1790" d="M-111.612,212.087a2.849,2.849,0,0,0,2.888-2.6,2.729,2.729,0,0,0-2.888-2.888,2.849,2.849,0,0,0-2.888,2.6v.289A2.849,2.849,0,0,0-111.612,212.087Z" transform="translate(1799.953 438.587)" fill="#faab18"/>
      </g>
      <g id="Group_1251" data-name="Group 1251" transform="translate(0 0)" clip-path="url(#clip-path-3)">
        <path id="Path_1791" data-name="Path 1791" d="M-110.9,228.571h0a2.925,2.925,0,0,1,2.6,1.733H189.165l22.815-23.1H518.112v1.733H212.847l-22.815,23.1H-108.013a2.526,2.526,0,0,1-2.6,1.733h0a2.849,2.849,0,0,1-2.888-2.6A2.588,2.588,0,0,1-110.9,228.571Z" transform="translate(1170.23 439.719)" fill="#faab18"/>
      </g>
      <g id="Group_1252" data-name="Group 1252" transform="translate(0 0)" clip-path="url(#clip-path-3)">
        <path id="Path_1792" data-name="Path 1792" d="M-145.814,180.887a2.655,2.655,0,0,0,2.6-2.888,2.588,2.588,0,0,0-2.6-2.6,2.588,2.588,0,0,0-2.6,2.6A3.071,3.071,0,0,0-145.814,180.887Z" transform="translate(1932.348 379.68)" fill="#28aae1"/>
      </g>
      <g id="Group_1253" data-name="Group 1253" transform="translate(0 0)" clip-path="url(#clip-path-3)">
        <path id="Path_1793" data-name="Path 1793" d="M-146.643,167.066a2.462,2.462,0,0,1,3.754,0,3.147,3.147,0,0,1,.578,3.177l17.328,17.328H-9.173l46.786,46.786h99.348l36.967,36.967h513.78l21.082-21.083h364.18L1128.71,194.5h40.432v1.733h-39.566l-55.739,55.739H709.369l-21.083,21.083H172.773L135.806,236.09H36.458L-10.328,189.3h-115.81L-144.044,171.4a2.636,2.636,0,0,1-3.177-.578A3.168,3.168,0,0,1-146.643,167.066Z" transform="translate(617.68 362.31)" fill="#28aae1"/>
      </g>
      <g id="Group_1254" data-name="Group 1254" transform="translate(0 0)" clip-path="url(#clip-path-3)">
        <path id="Path_1794" data-name="Path 1794" d="M167.425,189.22H299.119l41.3-41.3H451.029V145.9H339.552l-41.3,41.3H168.291l-27.436-27.148-1.155,1.155Z" transform="translate(506.063 323.983)" fill="#b4d234"/>
      </g>
      <g id="Group_1255" data-name="Group 1255" transform="translate(0 0)" clip-path="url(#clip-path-3)">
        <path id="Path_1795" data-name="Path 1795" d="M141.4,150.6a2.6,2.6,0,1,0-2.6-2.6h0A2.588,2.588,0,0,0,141.4,150.6Z" transform="translate(815.693 323.039)" fill="#b4d234"/>
      </g>
      <g id="Group_1256" data-name="Group 1256" transform="translate(0 0)" clip-path="url(#clip-path-3)">
        <path id="Path_1796" data-name="Path 1796" d="M247.193,154.936a2.866,2.866,0,1,1,4.043-.289l-.289.289A3.029,3.029,0,0,1,247.193,154.936Z" transform="translate(397.415 331.698)" fill="#b4d234"/>
      </g>
      <g id="Group_1257" data-name="Group 1257" transform="translate(0 0)" clip-path="url(#clip-path-3)">
        <path id="Path_1797" data-name="Path 1797" d="M206.3,197.246h85.774l31.191-30.9-1.444-1.444L291.5,195.224H206.3Z" transform="translate(441.485 359.856)" fill="#b4d234"/>
      </g>
      <g id="Group_1258" data-name="Group 1258" transform="translate(0 0)" clip-path="url(#clip-path-3)">
        <path id="Path_1798" data-name="Path 1798" d="M210.247,169.136a2.866,2.866,0,1,0-4.043-.289l.289.289A3.029,3.029,0,0,0,210.247,169.136Z" transform="translate(555.658 358.508)" fill="#b4d234"/>
      </g>
      <g id="Group_1259" data-name="Group 1259" transform="translate(0)" clip-path="url(#clip-path-3)">
        <ellipse id="Ellipse_98" data-name="Ellipse 98" cx="2.888" cy="2.888" rx="2.888" ry="2.888" transform="translate(644.897 553.347)" fill="#b4d234"/>
      </g>
    </g>
  </g>
</svg>
