<svg id="Layer_1" data-name="Layer 1" xmlns="http://www.w3.org/2000/svg" viewBox="0 0 1080 514.78"><defs><style>.cls-1{fill:#4d4d4d;}.cls-2{fill:#f2f2f2;}.cls-3{fill:#ccc;}.cls-4{fill:#ea2336;}.cls-5{fill:#ffac0e;}.cls-6{font-size:65.72px;font-family:Karla-Bold, Karla;font-weight:700;}</style></defs><title>emam-404-halaman-tidak-ditemukan</title><ellipse class="cls-1" cx="540" cy="225.52" rx="157.58" ry="58.99"/><ellipse class="cls-2" cx="540" cy="189.98" rx="225.27" ry="84.33"/><ellipse class="cls-3" cx="540" cy="189.98" rx="149.87" ry="56.11"/><path class="cls-4" d="M591.2,451.75c-15.49,6.34-11.42,56.29,10.36,73.71s29.84,3.12,42.49,19.53c34.5,44.74,58.07,110.33,61,115.87s10.55,24.28,25.6,17.95c17-7.12,2.77-24,1.85-26.39s-34.58-66-74.44-108.49c-19.4-19-.72-31.41-11.61-53.38S607.63,445,591.2,451.75Z" transform="translate(0 -359.85)"/><path class="cls-5" d="M521.48,457.35s-3.92,48.25-41.93,59.13c-14,3.63-18.31,8.22-18.31,8.22-14.26,14.78-81.4,140.12-85.1,145.4s-12.6,11.68-20.32,7.92-9.9-16.83-3-28.9,57.94-93.44,97.93-126.1c7.26-6.93-4.13-22.76,6.6-35.84a116.27,116.27,0,0,0,20.73-38.09h0l5.94,1.8s-6.2,20.2-10.71,29.1c-3.1,6.14,2.38,6.14,4.52,2.05s9.76-18,12.52-29.64h0l6.14,1s-.34,7-10.77,30.72c-2.38,4.42,1,6.14,3.83,1.52a125,125,0,0,0,13.3-31.82h0l6,1.5s-5.22,22.53-12,32.69c-3,5.41,2.44,5.94,4.69,2s7.83-11.44,13.81-34" transform="translate(0 -359.85)"/><circle class="cls-5" cx="480.98" cy="90.46" r="3.12"/><circle class="cls-5" cx="493.45" cy="93.03" r="3.12"/><circle class="cls-5" cx="505.93" cy="94.67" r="3.12"/><circle class="cls-5" cx="518.4" cy="97.03" r="3.12"/><path d="M254.8,563.79v65H213v54.5H129.45v-54.5H0V566.06L144.89,359.85H213V563.79Zm-178.49,0h53.14V487.48Z" transform="translate(0 -359.85)"/><path d="M1080,563.79v65h-41.79v54.5H954.64v-54.5H825.2V566.06L970.09,359.85h68.12V563.79Zm-178.5,0h53.14V487.48Z" transform="translate(0 -359.85)"/><text class="cls-6" transform="translate(120.36 498.29)">Halaman Tidak Ditemukan</text></svg>