<svg id="Layer_1" data-name="Layer 1" xmlns="http://www.w3.org/2000/svg" viewBox="0 0 500 120.89"><defs><style>.cls-1{fill:#ee2839;}.cls-2,.cls-3{fill:#fff;}.cls-2{fill-opacity:0.01;fill-rule:evenodd;}</style></defs><title>gofood-emam</title><rect class="cls-1" width="500" height="120.89" rx="57.74"/><path class="cls-2" d="M63,210.3H436.78v84.23H63Z" transform="translate(0.09 -191.97)"/><path class="cls-3" d="M99.2,219.32A36.1,36.1,0,1,1,63,255.41,36.12,36.12,0,0,1,99.2,219.32Zm89.06,16.4h.15v-3.94H199.2v39.1c0,11.37-9,19.25-21.72,19.25a26,26,0,0,1-21.56-9.55l8-6.67a15.58,15.58,0,0,0,13.52,6.59c6.3,0,10.93-4,10.93-9.47v-2.88h-.15a17.16,17.16,0,0,1-13,4.85,21,21,0,1,1-.39-42A18.07,18.07,0,0,1,188.26,235.72ZM85,236.06a2.65,2.65,0,0,0-.89,2.08l0,10.69a1.85,1.85,0,0,1-1.81,1.88,1.82,1.82,0,0,1-1.77-1.88h0a48,48,0,0,1,.73-8.54,2.74,2.74,0,0,0-2.14-3.18,2.6,2.6,0,0,0-3,2.14s0,.08,0,.12a66.81,66.81,0,0,0-.82,12.32,12.31,12.31,0,0,0,5.59,10.16,5.51,5.51,0,0,1,2.62,4.39l.29,6.3a2.92,2.92,0,1,0,5.83,0l.27-6.09a5.43,5.43,0,0,1,2.69-4.34,11.69,11.69,0,0,0,5.52-9.54,67.15,67.15,0,0,0-.79-13.21,2.62,2.62,0,0,0-2.93-2.27h-.08a2.76,2.76,0,0,0-2.14,3.19,47.05,47.05,0,0,1,.73,8.54,1.78,1.78,0,0,1-1.65,1.89,1.85,1.85,0,0,1-1-.26,1.77,1.77,0,0,1-.85-1.62l0-10.56a2.82,2.82,0,0,0-2.17-2.87,2.64,2.64,0,0,0-2.17.65Zm27.76-.69c-6.9,0-10.34,10.4-10.34,17.26a10.75,10.75,0,0,0,4.78,8.82,5.19,5.19,0,0,1,2.33,4l.32,7.07a2.91,2.91,0,1,0,5.81,0l.33-7.07a5.2,5.2,0,0,1,2.32-4,10.78,10.78,0,0,0,4.79-8.81C123.11,245.77,119.66,235.37,112.77,235.37Zm114.67-4.73c13.14,0,22.71,9.32,22.71,21.22s-9.57,21.22-22.71,21.22a21.27,21.27,0,1,1,0-42.44Zm82.92,0c13.14,0,22.71,9.32,22.71,21.22s-9.57,21.22-22.71,21.22a21.27,21.27,0,1,1,0-42.44Zm49.89,0c13.14,0,22.71,9.32,22.71,21.22s-9.57,21.22-22.71,21.22a21.27,21.27,0,1,1,0-42.44Zm73.13-14v55.32H423V268h-.16a17.79,17.79,0,0,1-13.59,5.08,21.23,21.23,0,1,1-.3-42.44A19.18,19.18,0,0,1,422,235h.16V216.62Zm-148.61-.3v9.62h-9.19c-2.2,0-3.33,1.05-3.33,3.1v2.73h15v9.55h-15v30.61H261V241.32h-9.65v-9.54H261v-4.1c0-7,4.93-11.37,13.21-11.37h10.55Zm-57.33,24.17a11.37,11.37,0,1,0,11.47,11.37,10.9,10.9,0,0,0-11.47-11.37Zm82.92,0a11.37,11.37,0,1,0,11.47,11.37,10.9,10.9,0,0,0-11.47-11.37Zm49.89,0a11.37,11.37,0,1,0,11.47,11.37,10.9,10.9,0,0,0-11.47-11.37ZM177,240.87c-7.29,0-12.15,4.4-12.15,11a10.63,10.63,0,0,0,11.69,11.29c6.31,0,11.4-3.95,11.4-8.87v-4.69C188,245,182.8,240.87,177,240.87Zm225.13,2.65a11.18,11.18,0,0,0-3.47,8.34c0,6.9,4.71,11.29,12,11.29,6.39,0,11.47-3.95,11.47-8.87V249.2c0-4.77-5.32-8.71-11.47-8.71a11.15,11.15,0,0,0-8.52,3Z" transform="translate(0.09 -191.97)"/></svg>