<svg id="Layer_1" data-name="Layer 1" xmlns="http://www.w3.org/2000/svg" xmlns:xlink="http://www.w3.org/1999/xlink" viewBox="0 0 1080 1087.16"><defs><style>.cls-1{fill:none;}.cls-2{fill:#26abe2;}.cls-3{clip-path:url(#clip-path);}.cls-4{fill:#edb98a;}</style><clipPath id="clip-path" transform="translate(0)"><circle class="cls-1" cx="540" cy="540" r="540"/></clipPath></defs><title>emam-team-brama</title><circle class="cls-2" cx="540" cy="540" r="540"/><g class="cls-3"><path class="cls-4" d="M189.21,805.83s-19,149.24,6.84,276.33h690.5s-25.21-179.35-21.93-263.93S189.21,805.83,189.21,805.83Z" transform="translate(0)"/><path class="cls-4" d="M444.92,500.88s54.63-23.21,62.71-64.7c0,0-51.34-22.84-54.16-76.19,0,0-50-1.45-47.24-44.1s42.42-39.75,59.8-30.47c0,0,.15-35.65,10.69-44.46s28.89-29.19,33.83-43.13c0,0,90-78.52,202-12.83,0,0,12.55,55.56,13.48,96.19,0,18.07,15.79,50,16,69.11s-7.66,83.82-88.73,109.43c0,0,9.74,39.25,28.24,49.49,0,0-6.65,79-105,80.64S444.92,500.88,444.92,500.88Z" transform="translate(0)"/><path d="M428.42,281.88S413,246.82,412.83,219.26l-4.47,2.88s-11.2-61,38.75-75.55c0,0,40.56-115.64,139.16-103.25L568.92,53.83S661.58,54.94,695,81.68l-8.45,6.87s58.8,51.75,60.54,89.92l-15.62,3.25-8.37,43.75L712.53,185s-97.83-68.65-202,12.83c0,0-9.37,27-23.25,34.64s-21.69,34.26-19.73,51.61C467.57,284.08,440.05,274.72,428.42,281.88Z" transform="translate(0)"/><path d="M441.54,493.36S251.13,473.91,180.87,794.73c0,0,33.87,52.75,129.7,37.8,0,0-23.87,124.49,7.79,249.63H830.17L807,840.89s49.88,6.62,92.17-23.31c0,0-62.34-230.79-118.35-278.37s-98.73-38.84-98.73-38.84-12.94,95.33-105.47,89.49S441.54,493.36,441.54,493.36Z" transform="translate(0)"/><image width="4500" height="4135" transform="translate(649.76 668.78) scale(0.02)" xlink:href="../../Brand/Logo_Emam/emam_Logo_Vertical_2.png"/><path d="M444.92,505.88a5,5,0,0,1-1.62-9.73h0c.5-.17,48.19-17,58.5-56.78a83.84,83.84,0,0,1-23.71-15.09c-12.74-11.49-28-32.58-28.45-67.84a5,5,0,0,1,4.94-5.07h.06a5,5,0,0,1,5,4.94c.75,60.36,48.89,74.93,49.37,75.07a5,5,0,0,1,3.53,5.71c-9,48.59-63.69,67.73-66,68.52A5.08,5.08,0,0,1,444.92,505.88Z" transform="translate(0)"/><path d="M448.17,362.9c-6.36,0-21.89-1.19-33.48-11.84-8.93-8.2-13.46-20-13.46-35.17s4.52-26.33,13.43-33.39c14.87-11.79,36.19-7,37.09-6.75a5,5,0,1,1-2.28,9.73c-.17,0-17.59-3.91-28.64,4.89-6.37,5.07-9.6,13.66-9.6,25.52,0,12.19,3.42,21.53,10.17,27.76,11.31,10.44,28.62,9.2,28.8,9.19a5,5,0,0,1,.83,10C450.85,362.82,449.82,362.9,448.17,362.9Z" transform="translate(0)"/><path d="M613.5,469.47a228.06,228.06,0,0,1-30.69-2.17,5,5,0,1,1,1.34-9.91c45.09,6.1,81.68-1.29,108.76-22C729.43,407.54,736,365,736.67,360.2c1.59-12-2.22-24.25-6.64-38.48-3.82-12.32-8.16-26.29-9.13-41.81v-.11c-3.08-74.33-12.6-92.12-12.69-92.29a5,5,0,0,1,1.69-6.83,5.05,5.05,0,0,1,6.9,1.72c1.1,1.82,10.89,20,14.09,96.93.9,14.31,4.86,27.08,8.69,39.42,4.57,14.72,8.88,28.63,7,42.76-.68,5.19-7.87,51.53-47.6,81.86C676.25,460.73,647.58,469.47,613.5,469.47Z" transform="translate(0)"/><path d="M680.9,514.22a5,5,0,0,1-2.75-.83c-24.43-16.12-27.73-48.76-27.86-50.14a5,5,0,1,1,10-.93h0c0,.29,3,29.28,23.42,42.73a5,5,0,0,1-2.76,9.17Z" transform="translate(0)"/><path d="M807.2,849.25a5,5,0,0,1-.06-10c43.87-.52,76.57-18.1,86.21-23.93-7.93-29.36-64.5-232.72-119.6-275.5-48.16-37.41-78-36.8-87-35.39a112.32,112.32,0,0,1-14.9,43.27c-13,21.52-39.77,47.17-93.63,47.17-53.38,0-89-27.15-109.44-49.91a182.64,182.64,0,0,1-30.53-46.64c-11.41.13-53.35,2.8-100.5,32.94C286.88,563.74,219.42,635.69,186.13,794c1.89,3.23,8.27,12.37,23.55,20.4,17.38,9.13,49.94,18.58,106.87,12.51l8.14-58.61a5,5,0,0,1,9.9,1.38l-8.67,62.45a5,5,0,0,1-4.38,4.28A341.33,341.33,0,0,1,282,838.87c-86.88,0-104.92-40.26-105.73-42.2a5,5,0,0,1-.29-2.95c15-72,38.13-132.84,68.86-180.82,24.72-38.6,54.36-69,88.09-90.45,57.74-36.66,106.86-34.2,108.92-34.08a5,5,0,0,1,4.37,3.21,170.21,170.21,0,0,0,30.19,46.95c27.75,30.75,62,46.34,101.77,46.34,39.5,0,68.12-14.25,85.07-42.33a100.82,100.82,0,0,0,13.82-42.4,5,5,0,0,1,3.31-4.48c1.48-.52,36.91-12.36,99.52,36.26,61.78,48,121.57,274.76,124.08,284.39a5,5,0,0,1-2,5.37c-1.57,1.1-39.18,26.91-94.73,27.57Z" transform="translate(0)"/><path d="M830.16,1087.16a5,5,0,0,1-4.92-4.18c-13.77-82.58-29.4-331.12-29.56-333.62a5,5,0,0,1,10-.62c.16,2.49,15.76,250.52,29.44,332.59a5,5,0,0,1-4.11,5.76A5.81,5.81,0,0,1,830.16,1087.16Z" transform="translate(0)"/><path d="M196,1087.16a5,5,0,0,1-4.93-4.2c-25-154.25-8.11-277.71-7.94-278.94a5,5,0,1,1,9.9,1.4c-.17,1.21-16.82,123.27,7.91,275.94a5,5,0,0,1-4.13,5.73A4.43,4.43,0,0,1,196,1087.16Z" transform="translate(0)"/><path d="M886.55,1087.16a5,5,0,0,1-4.92-4.13c-24.1-135.12-22-247.95-21.94-249.08a5,5,0,0,1,10,.22c0,1.11-2.13,113,21.79,247.11a5,5,0,0,1-4.05,5.8A5.24,5.24,0,0,1,886.55,1087.16Z" transform="translate(0)"/><path d="M318.36,1087.16a5,5,0,0,1-4.87-3.88A667,667,0,0,1,297.44,905.1c2.06-45,8-72.49,8.25-73.64a5,5,0,0,1,9.77,2.14c-.24,1.1-23.67,111.52,7.77,247.43a5,5,0,0,1-3.74,6A5.52,5.52,0,0,1,318.36,1087.16Z" transform="translate(0)"/><path d="M477.78,327.83a5,5,0,0,1-4-2c-.52-.68-11.74-14.6-38.47-8.55a5,5,0,1,1-2.21-9.76c33.44-7.57,48.08,11.49,48.68,12.31a5,5,0,0,1-4,8Z" transform="translate(0)"/><path d="M445.49,332.46a5,5,0,0,1-4.88-3.94c-2.49-11.49,9.41-20.73,10.78-21.75a5,5,0,0,1,6,8c-2.12,1.59-7.95,7.15-7,11.61a5,5,0,0,1-4.89,6.06Z" transform="translate(0)"/><path d="M428.42,286.12a5,5,0,0,1-4.43-2.68c-.67-1.27-14.39-27.76-14.58-54.92h0a5,5,0,0,1-8.14-3.29,121.36,121.36,0,0,1,2.23-36.81c5.6-24.77,19.32-40.63,39.78-46.06a199.8,199.8,0,0,1,31.34-55.48c30.26-37.48,69.94-54.8,114.77-50.09a5,5,0,0,1,2.06,9.25l-6.79,4.1c27.92,0,79.74,3.93,118.26,30.75a5,5,0,0,1-1.59,8.93L695,91.49c14,11.17,41.27,37.22,58,80.93,2.15,5.81.41,9.32-1.43,11.24-3.84,4-11,3.75-16.78,2.66-.46,9.27-2.11,27.1-8,44a5,5,0,1,1-9.44-3.3C725.05,205,725,180.23,725,180a5,5,0,0,1,6.51-4.81c4.68,1.48,10.29,2.2,12.45,1.68a9.19,9.19,0,0,0-.28-.91c-21.52-56.28-62.31-82.1-62.72-82.36a5,5,0,0,1,1.36-9.08l5.33-1.4c-50.84-28.71-121-22.26-121.71-22.19a5,5,0,0,1-3.07-9.25l9.28-5.61c-34.83.74-64.89,16.47-89.54,46.89a189.72,189.72,0,0,0-30.7,55.15,5,5,0,0,1-3.73,3.39c-33.31,7.1-37.38,45-37.38,63l1.3-1.07a5,5,0,0,1,8.1,4.68c-4.5,27.45,12.51,60.37,12.68,60.7a5,5,0,0,1-4.43,7.32Z" transform="translate(0)"/><path d="M467.28,291.25a5,5,0,0,1-2.91-.93c-4.84-3.47-12-4.22-12.09-4.22a5,5,0,0,1,1-10,42.68,42.68,0,0,1,9,2.06c.37-13.44,3.16-38.59,18.25-47.44,16-9.37,26-36.18,26.08-36.45a5,5,0,0,1,1.5-2.13c1-.82,24.69-20.17,62.12-31.41,34.65-10.41,87.92-15.38,145,20a5,5,0,1,1-5.27,8.5c-43.14-26.75-89-33.14-136.46-19-31.47,9.38-53.22,25.2-58,28.88-2.42,6.07-12.9,30.31-29.88,40.26-12.39,7.27-13.78,36.12-13.27,46.63a5,5,0,0,1-5,5.24Z" transform="translate(0)"/><path d="M552.49,295a4.76,4.76,0,0,1-.91-.09,5,5,0,0,1-4-5.78c1.29-7.22,8-21,24.24-21.68s23.49,11.5,25,18a5,5,0,0,1-9.73,2.31c-.29-1.13-3.1-10.78-14.9-10.34-12,.47-14.54,12.15-14.79,13.48A5,5,0,0,1,552.49,295Z" transform="translate(0)"/><path d="M696.92,293.1a5,5,0,0,1-5-5c0-1.21-.42-11.57-9.94-13.65-9.77-2.13-15.34,10.23-15.39,10.36a5,5,0,0,1-9.16-4c3.05-6.92,12.54-19.2,26.68-16.1s17.81,16.65,17.81,23.39A5,5,0,0,1,696.92,293.1Z" transform="translate(0)"/><path d="M643.47,346.48c-12.83,0-23.85-11.34-24.33-11.83a5,5,0,1,1,7.22-6.92c2.45,2.53,10.4,9,17.6,8.74,3.45-.14,6.46-1.84,9.18-5.19s3.78-6.49,3.11-9.48c-1.35-6-9.33-11.06-12-12.34a5,5,0,1,1,4.31-9c1.51.73,14.81,7.39,17.46,19.18.94,4.19.81,10.72-5.11,18-4.59,5.63-10.16,8.61-16.56,8.87Z" transform="translate(0)"/><path d="M636.09,392.83A57.93,57.93,0,0,1,616.51,389a5,5,0,0,1,3.38-9.41c22.74,8.19,30.59-1.71,30.92-2.14l4,2.95,4.1,2.86C658.59,383.79,652,392.83,636.09,392.83Z" transform="translate(0)"/><path d="M610.29,409.27a5,5,0,0,1-4.31-7.53c13.21-22.52-4.16-40.92-4.91-41.69a5,5,0,0,1,7.16-7c8.2,8.37,20.08,30.38,6.37,53.74A5,5,0,0,1,610.29,409.27Z" transform="translate(0)"/><path d="M534.08,263.18a32.37,32.37,0,0,1,2.39-7.28,41.4,41.4,0,0,1,3.82-6.63,43,43,0,0,1,11.27-10.94,43.49,43.49,0,0,1,7.19-3.77,41.57,41.57,0,0,1,7.86-2.28,37.93,37.93,0,0,1,16,.51,6.88,6.88,0,0,1-1.36,13.52l-.33,0a98.26,98.26,0,0,0-11.59,1.09c-1.85.37-3.69.76-5.5,1.3a53.9,53.9,0,0,0-5.41,1.94,59.78,59.78,0,0,0-10.54,6A100.2,100.2,0,0,0,537.71,265l-.16.15a2.1,2.1,0,0,1-2.95-.12A2.12,2.12,0,0,1,534.08,263.18Z" transform="translate(0)"/><path d="M701.62,259.74a101.56,101.56,0,0,0-10.17-8.32,58.82,58.82,0,0,0-10.55-6,50.65,50.65,0,0,0-5.4-2c-1.81-.53-3.65-.93-5.5-1.29a100.39,100.39,0,0,0-11.59-1.1l-.33,0a6.87,6.87,0,0,1-1.37-13.51,38.09,38.09,0,0,1,16-.52,43,43,0,0,1,7.87,2.28,43.94,43.94,0,0,1,7.19,3.78A42.87,42.87,0,0,1,699,244.07a41,41,0,0,1,3.82,6.63,32.19,32.19,0,0,1,2.38,7.28,2.08,2.08,0,0,1-1.67,2.43,2,2,0,0,1-1.78-.51Z" transform="translate(0)"/></g></svg>