<svg id="Layer_1" data-name="Layer 1" xmlns="http://www.w3.org/2000/svg" xmlns:xlink="http://www.w3.org/1999/xlink" viewBox="0 0 1080 1097.86"><defs><style>.cls-1{fill:none;}.cls-2{fill:#fbab18;}.cls-3{clip-path:url(#clip-path);}.cls-4{fill:#1e1e1d;}.cls-5{fill:#edb98a;}.cls-6{fill:#231f20;}.cls-7{fill:#d08b5b;}.cls-8{fill:#fff;}</style><clipPath id="clip-path" transform="translate(0)"><circle class="cls-1" cx="540" cy="540" r="540"/></clipPath></defs><title>emam-creative-team</title><circle class="cls-2" cx="540" cy="540" r="540"/><g class="cls-3"><path class="cls-4" d="M739.86,634.29l-19.94,20.14-.76,3.89s-91.23,28.07-109,41.89-70.77,104.87-87.3,201.66-19.44,188.82-19.44,188.82h531.39s.73-268.56-31.6-331.2S947.12,694.8,902.43,678l2.73-11.42L886,645.84s-32.16,23.87-51.1,25.68c0,0-4.6,14.89-1,34.52l-13.09,23.8L798,701.14s3.32-30.67,1-34.35S748.89,645.81,739.86,634.29Z" transform="translate(0)"/><path class="cls-5" d="M751.22,642.92s9.91-18.71,8.93-28.7-33.62-51.76-33.62-51.76-37.79-6.15-35.66-45.61c1.77-26.3,36.32-23.91,45.65-9.91l17.66.5S743,472,750,458.35s12.25-26.87,11-37c0,0,89.32-36.36,159.69-5.28,0,0,25.15,119.09,19.94,153.82S892.9,635.18,868,637.75l8,15s-28.86,16.41-40,18.65-2,35.89-2,35.89L821.2,729.17l-24-27s5.46-30.35,1.81-35.33S751.22,642.92,751.22,642.92Z" transform="translate(0)"/><path d="M697.09,502.56s-46.32-101.46,20-119.79c0,0,28.4-75.1,131.17-50.71,0,0,87.7,35,98.65,30.36l-8.54,14,7.21,6.63-8.87,7.87s4.9,41.09-7.21,58.94l-8.85-33.76S849.13,383.72,761,421.4c0,0-.56,21.68-11,37-5.3,7.27,4.14,49.09,4.14,49.09l-17.66-.5S719.18,489.09,697.09,502.56Z" transform="translate(0)"/><path d="M788.07,485.48A37.78,37.78,0,0,1,795.6,476a45.54,45.54,0,0,1,10-7.13c.92-.49,1.87-.93,2.83-1.37s1.95-.81,3-1.14a36,36,0,0,1,6.21-1.6,31.74,31.74,0,0,1,12.91.36,5.27,5.27,0,0,1-1,10.38l-.32,0a77.41,77.41,0,0,0-9.66.9c-1.59.26-3.2.59-4.8,1s-3.22.86-4.84,1.4a90,90,0,0,0-9.73,3.88c-3.25,1.49-6.56,3.21-9.86,4.94l-.13.06a1.59,1.59,0,0,1-2.14-2.17Z" transform="translate(0)"/><path d="M916.75,482.91c-1.31-.67-2.69-1.43-4-2.06s-2.69-1.26-4-1.79a68.3,68.3,0,0,0-8-2.74c-.65-.22-1.35-.33-2-.5l-1-.27c-.34-.08-.68-.12-1-.2-.67-.14-1.34-.27-2-.43l-2-.34-1-.2c-.33-.07-.68-.08-1-.14-.69-.09-1.37-.2-2.06-.32-1.38-.22-2.78-.33-4.2-.68l-.61-.15a5.27,5.27,0,0,1,.46-10.32c.86-.14,1.73-.21,2.6-.28a20.85,20.85,0,0,1,2.62-.08c.88,0,1.76.09,2.63.16a19.41,19.41,0,0,1,2.62.36c.87.17,1.74.33,2.6.53s1.7.51,2.55.77a20.76,20.76,0,0,1,2.49.93c.81.36,1.64.67,2.42,1.09a34.25,34.25,0,0,1,8.59,6.12,24.83,24.83,0,0,1,5.94,8.68,1.59,1.59,0,0,1-2.2,2Z" transform="translate(0)"/><path d="M873.92,557.14c-9.25,0-19.16-6.2-20.44-7a3.84,3.84,0,1,1,4.16-6.45c3.31,2.13,13.17,7.25,19,5.44a5.91,5.91,0,0,0,3.79-3.7c1.27-3,1.39-5.67.34-8-2.11-4.82-8.3-7.17-8.36-7.19a3.84,3.84,0,0,1,2.61-7.23c.38.14,9.33,3.46,12.79,11.34,1.9,4.34,1.8,9.09-.3,14.1a13.57,13.57,0,0,1-8.61,8.07A17,17,0,0,1,873.92,557.14Z" transform="translate(0)"/><path d="M866.51,598.18c-.45,0-.9,0-1.36,0-14.59-.95-22.52-12.83-22.85-13.33a3.85,3.85,0,0,1,6.43-4.22c.12.18,6.28,9.19,16.91,9.88,10.07.66,16.2-11,16.26-11.16a3.84,3.84,0,0,1,6.86,3.47C888.43,583.43,880.83,598.18,866.51,598.18Z" transform="translate(0)"/><ellipse cx="816.32" cy="504.02" rx="8.08" ry="12.83"/><ellipse cx="899.56" cy="503.36" rx="7.46" ry="11.85"/><path d="M820.84,733.68a3.84,3.84,0,0,1-3.56-2.39c-1.72-4.22-5.71-8.17-9.94-12.35a87,87,0,0,1-8.8-9.62,19.94,19.94,0,0,1-6,8.41,14,14,0,0,1-11.63,2.42l-.12,0c-40.23-9.53-64.09-61.35-65.08-63.55a3.84,3.84,0,0,1,1.27-4.72c5.36-3.81,16.28-15.8,20-20.1a3.83,3.83,0,0,1,5.38-.39c.24.2,24.08,20.33,56,30.39,7.7,2.43,5.73,13.47,3.82,24.15-.73,4.08-1.73,9.65-1.29,11.4a.83.83,0,0,1,0,.15c1.69,6,6.83,11.1,11.8,16,4.59,4.54,9.34,9.23,11.65,14.9a3.84,3.84,0,0,1-2.1,5A3.75,3.75,0,0,1,820.84,733.68Zm-38.39-21a6.29,6.29,0,0,0,5.39-1c3.72-2.82,5.18-10,5.5-13-.63-3.38.27-8.37,1.29-14.09.78-4.4,2.4-13.46,1.22-15.54-27.09-8.58-48.07-23.62-55.55-29.44-3.73,4.13-10.93,11.91-16.33,16.51C729.34,666.64,750.86,705.12,782.45,712.64Z" transform="translate(0)"/><path d="M837.53,1097.86a3.83,3.83,0,0,1-3.84-3.81c0-.59-.45-58.88-3.59-98.76-3.15-40.12-.15-169.92,0-176.1,0-23.88-6-50.92-10-68.83-.78-3.5-1.51-6.8-2.11-9.67-2.35-11.22,2.88-19.62,7.08-26.37,3-4.84,5.63-9,5-13-.06-.37-.17-.91-.29-1.56-2.09-10.75-3.64-22.58.63-28.89a9.24,9.24,0,0,1,5.93-4A119.47,119.47,0,0,0,884.58,643a3.84,3.84,0,0,1,5.13,5.72,125,125,0,0,1-51.83,25.63l-.12,0a1.54,1.54,0,0,0-1.08.78c-2,3-1.84,10.77.55,23.12.14.71.25,1.29.32,1.73,1.17,6.9-2.47,12.74-6,18.4-4,6.44-7.81,12.53-6.1,20.73.59,2.81,1.33,6.1,2.1,9.57,4.07,18.24,10.21,45.81,10.21,70.54v.09c0,1.35-3.14,135.53,0,175.37,3.16,40.16,3.6,98.72,3.61,99.3a3.84,3.84,0,0,1-3.82,3.87Z" transform="translate(0)"/><path d="M862.47,726a24.6,24.6,0,0,1-4.87-.49c-15.29-3.09-26.41-19.8-26.88-20.51a3.84,3.84,0,1,1,6.42-4.21c.1.14,9.87,14.75,22,17.19A16.39,16.39,0,0,0,872,715.14c16.63-11.17,27.05-38.45,29.82-46.46-8-7.77-16.52-19.15-16.91-19.67a3.84,3.84,0,1,1,6.16-4.6c.09.13,9.85,13.14,17.75,20.31a3.84,3.84,0,0,1,1.09,4c-.47,1.56-11.89,38.23-33.63,52.83A24.49,24.49,0,0,1,862.47,726Z" transform="translate(0)"/><path d="M503.39,1094.53h-.13a3.83,3.83,0,0,1-3.71-4c1.82-54.73,11.72-143.87,11.82-144.76,13.28-104.16,66.29-234.23,103.12-253.12,47.72-24.47,104.85-38,105.42-38.1a3.84,3.84,0,0,1,1.75,7.48c-.56.13-56.8,13.42-103.66,37.45-31.52,16.17-85.2,138.94-99,247.2-.09.83-9.95,89.68-11.76,144.1A3.85,3.85,0,0,1,503.39,1094.53Z" transform="translate(0)"/><path d="M1034.78,1097.86a3.84,3.84,0,0,1-3.84-3.84V987.39c-1.43-49.28-4.77-93.64-9.93-131.84-9.19-68-24-113.2-42.82-130.63-44.75-41.42-75.59-43.11-75.9-43.12a3.84,3.84,0,0,1,.26-7.68c1.35,0,33.72,1.54,80.86,45.17,42.42,39.27,52.8,184.72,55.21,267.94V1094A3.84,3.84,0,0,1,1034.78,1097.86Z" transform="translate(0)"/><path d="M975.58,1097.86a3.84,3.84,0,0,1-3.81-3.38c-.08-.69-8.31-69.55-7.7-126.2.62-57,15.38-102.47,15.53-102.92a3.84,3.84,0,1,1,7.3,2.4c-.15.44-14.55,44.86-15.14,100.6-.61,56.15,7.55,124.52,7.64,125.2a3.84,3.84,0,0,1-3.36,4.27A3.55,3.55,0,0,1,975.58,1097.86Z" transform="translate(0)"/><path d="M621.79,1097.86h-.22a3.84,3.84,0,0,1-3.62-4c0-.64,3.84-65,15.75-113.67,11.74-48,16.41-146.67,16.46-147.66a3.84,3.84,0,1,1,7.67.36c-.19,4.07-4.75,100.41-16.67,149.12-11.74,48-15.5,111.65-15.54,112.29A3.84,3.84,0,0,1,621.79,1097.86Z" transform="translate(0)"/><circle class="cls-6" cx="833.36" cy="736.03" r="3.91"/><circle class="cls-6" cx="845.39" cy="808.19" r="3.91"/><circle class="cls-6" cx="845.39" cy="891.62" r="3.91"/><circle class="cls-6" cx="844.33" cy="967.99" r="3.91"/><circle class="cls-6" cx="849.31" cy="1044.37" r="3.91"/><path d="M912.69,899.37a3.82,3.82,0,0,1-2.18-.68L876.58,875.3a3.83,3.83,0,0,1-1.66-3.16V808.19a3.82,3.82,0,0,1,1.38-3,3.86,3.86,0,0,1,3.15-.83c.35.06,34.89,6.22,66.42,0a3.84,3.84,0,0,1,4.59,3.77V874.5a3.85,3.85,0,0,1-1.82,3.27l-33.93,21A3.78,3.78,0,0,1,912.69,899.37ZM882.6,870.12l30.2,20.82,30-18.58V812.78c-25,4.05-50.12,1.33-60.18-.1Z" transform="translate(0)"/><path d="M912,835c-20.16,0-33.5-4-34.33-4.29a3.84,3.84,0,1,1,2.28-7.34c.43.14,29.3,8.74,65.82-.06a3.84,3.84,0,0,1,1.8,7.46A151.75,151.75,0,0,1,912,835Z" transform="translate(0)"/><path d="M848.64,643.46a119,119,0,0,1-46.14-9.6,3.84,3.84,0,1,1,3-7.08c29.92,12.56,61.21,11.94,88.1-1.76,21.74-11.08,37.48-29.41,42.1-49,9.68-41.11-18.43-157.77-18.72-159a3.84,3.84,0,0,1,7.47-1.81c1.18,4.86,28.82,119.64,18.73,162.52-5.13,21.81-22.36,42-46.09,54.13A106.1,106.1,0,0,1,848.64,643.46Z" transform="translate(0)"/><path d="M751.51,646.77a3.84,3.84,0,0,1-3.3-5.81c.14-.24,9-15.38,8-25.72-.51-5.45-8.1-15.35-15.44-24.93-6.15-8-12.5-16.31-16.74-24.25a46.24,46.24,0,0,1-16.22-5.57c-8.61-5-19.18-15.12-20.68-35.5-1.18-16,5.77-27.22,19.07-30.77,12.84-3.43,28.92,1.51,33.09,10.16a3.84,3.84,0,1,1-6.92,3.33c-2.12-4.38-13.79-8.85-24.19-6.07-6.74,1.8-14.54,7.22-13.39,22.78,2.37,32.26,30.69,34.14,31.9,34.21a3.84,3.84,0,0,1,3.25,2.13c3.87,7.84,10.51,16.5,16.93,24.88,8.73,11.39,16.27,21.23,17,28.88,1.21,12.87-8.66,29.66-9.08,30.37A3.85,3.85,0,0,1,751.51,646.77Z" transform="translate(0)"/><path d="M729.19,543.65a3.84,3.84,0,0,1-3.5-2.27c-.1-.23-6.83-14.91-17.18-18.11a3.84,3.84,0,0,1,2.27-7.34c13.72,4.24,21.59,21.58,21.92,22.31a3.86,3.86,0,0,1-1.94,5.08A4,4,0,0,1,729.19,543.65Z" transform="translate(0)"/><path d="M713.36,536a4,4,0,0,1-1.42-.27,3.85,3.85,0,0,1-2.14-5c2.44-6.1,9.81-7.15,10.65-7.25a3.84,3.84,0,0,1,.93,7.62c-1.19.16-3.85,1-4.45,2.49A3.84,3.84,0,0,1,713.36,536Z" transform="translate(0)"/><path d="M747.32,512.15c-3.84,0-8.13-.32-11.16-.61a3.84,3.84,0,1,1,.73-7.65,108.19,108.19,0,0,0,12.91.54c-.29-1.56-.76-3.67-1.19-5.62-3-13.44-8-35.92,1.72-50.23,10.65-15.69,6.85-24.19,6.49-24.92a3.67,3.67,0,0,1-.38-3.1,3.79,3.79,0,0,1,2.19-2.33c.89-.38,22.11-9.49,53-14.83,28.55-4.95,70.91-7.38,110.59,9.17a3.84,3.84,0,1,1-2.95,7.09c-37.92-15.81-78.64-13.47-106.13-8.73A262.89,262.89,0,0,0,764.91,424c1.09,5.23,1.08,15.21-8.22,28.91-7.84,11.56-3.3,32-.58,44.24,1.89,8.51,2.75,12.4-1,14.08C753.51,511.92,750.58,512.15,747.32,512.15Z" transform="translate(0)"/><path d="M697.42,507.2a3.83,3.83,0,0,1-3.53-2.33c-1.16-2.7-28.06-66.44-9.06-102.3,6-11.38,16-18.71,29.61-21.82,3.61-7.61,18.87-35.67,52.92-49.84,30.8-12.81,67.78-10.45,109.9,7,60.69,24.77,69.68,20.67,70,20.48a3.83,3.83,0,0,1,5.19,5.18c-.9,1.72-4.64,8.51-9.41,12.84a11.25,11.25,0,0,0,3.7,1.87,3.85,3.85,0,0,1,2.68,6.19,40.89,40.89,0,0,1-8,7.71c.81,9.46,2.6,42.77-9.83,61.61a3.84,3.84,0,1,1-6.41-4.23c12.74-19.31,8.41-58.62,8.37-59a3.83,3.83,0,0,1,2.2-3.92,17.07,17.07,0,0,0,4.12-3.09,44.59,44.59,0,0,1-6.07-4.56,3.84,3.84,0,0,1,1.54-6.56c1.66-.46,4.09-3,6.38-6.16-12.54-.94-35.12-8.05-67.44-21.23-40.19-16.66-75.18-19-104-7-35.87,14.91-49.49,47.23-49.62,47.56a3.86,3.86,0,0,1-2.82,2.31c-12.41,2.4-21,8.38-26.25,18.28-17.29,32.61,9.06,95.06,9.33,95.69a3.84,3.84,0,0,1-3.53,5.35Z" transform="translate(0)"/><path d="M876.4,657.61a3.82,3.82,0,0,1-3.38-2l-8.57-16a3.84,3.84,0,1,1,6.77-3.62l8.57,16a3.85,3.85,0,0,1-1.58,5.2A3.76,3.76,0,0,1,876.4,657.61Z" transform="translate(0)"/><path class="cls-7" d="M242.55,651.92s47.76-24,42-46.31-29.54-15.08-42-57.13c0,0-29.31,3.93-31.31-27.39s21.54-46.2,45-15.21c0,0-27.2-87.18,24.1-104.73s163-9.11,167.48,5.55,1.78,30,1.78,30,9,119.48,4.93,129.12S441.68,614,389,626.8c0,0,10.3,15.09,37.65,35.11s-80,97.12-80,97.12L219.62,687.57Z" transform="translate(0)"/><path class="cls-7" d="M51.53,881.16s-14.36,113,5.18,209.21h522.8S560.42,954.58,562.9,890.55,51.53,881.16,51.53,881.16Z" transform="translate(0)"/><path d="M242.58,644.58S98.42,629.86,45.22,872.76c0,0,25.64,39.94,98.2,28.62,0,0-18.08,94.25,5.9,189h387.5L519.24,907.71s37.77,5,69.79-17.65c0,0-47.2-174.74-89.6-210.76s-74.76-29.41-74.76-29.41-9.8,72.18-79.85,67.75S242.58,644.58,242.58,644.58Z" transform="translate(0)"/><polygon points="248.95 565.81 241.56 568.71 237.61 563.1 230.78 562.74 238.56 547.64 242.83 551.54 248.95 565.81"/><path d="M217.39,497.43S187,448,223.87,391.38c0,0-3.42-4.33-1.75-8.22s6.33-5.33,6.33-5.33-2-4.67-1.17-6.44,6.37-5.17,14.35-3.33c0,0,61.87-51,138-34.39,0,0,55.14,21.88,63.76,20.63s-.39,8.84-.39,8.84l7.17.42.71,10.52,7.2-.19s1.33,23.9-7.75,30.73c0,0,16.88,21.52,6.78,31.85s-8.78-1.45-8.78-1.45l-.66-15.66s-11.77-6.1-14.44-10.1c0,0-24.32,8.71-46.92,5.08,0,0-38.89,20.86-61.34,13.17,0,0,3.37-9,3.46-11.12,0,0-43.29,14.08-53.82,14.13,0,0-18.3,33.05-16.74,72.58C257.88,503.1,229.09,477.32,217.39,497.43Z" transform="translate(0)"/><path class="cls-8" d="M317.12,566.93s.95-23.64,29.61-22.86,62.08,0,62.08,0,20.54-1.06,22,21.75-57.33,28.93-57.33,28.93S324.39,599,317.12,566.93Z" transform="translate(0)"/><path d="M519.43,914.09a3.84,3.84,0,0,1,0-7.68,133.56,133.56,0,0,0,65.21-18.08c-6-22.36-48.84-176.16-90.52-208.53-36-28-58.82-27.73-65.83-26.74A85.34,85.34,0,0,1,417,685.76c-9.84,16.3-30.13,35.73-70.94,35.73-40.43,0-67.4-20.56-82.9-37.81A138.45,138.45,0,0,1,240,648.39c-8.68.11-40.39,2.16-76,24.94-38.46,24.59-89.52,79-114.72,198.87,1.44,2.46,6.27,9.35,17.81,15.42,13.15,6.9,37.77,14,80.82,9.46l6.16-44.33a3.84,3.84,0,0,1,7.61,1l-6.57,47.29a3.83,3.83,0,0,1-3.36,3.29,257.68,257.68,0,0,1-29.94,1.85c-65.83,0-79.49-30.51-80.11-32a3.84,3.84,0,0,1-.22-2.27C52.79,817.46,70.33,771.4,93.6,735.06c18.72-29.23,41.16-52.28,66.71-68.5,43.73-27.77,80.93-25.9,82.5-25.81a3.85,3.85,0,0,1,3.36,2.46A128.3,128.3,0,0,0,269,678.75c21,23.26,46.92,35.06,77,35.06,29.89,0,51.54-10.77,64.36-32a76.29,76.29,0,0,0,10.46-32.07,3.82,3.82,0,0,1,2.54-3.44c1.12-.4,28-9.37,75.4,27.45,46.8,36.34,92.06,208.06,94,215.35a3.85,3.85,0,0,1-1.52,4.12c-1.19.84-29.68,20.39-71.76,20.89Z" transform="translate(0)"/><path d="M536.81,1094.21A3.84,3.84,0,0,1,533,1091c-10.42-62.52-22.26-250.7-22.38-252.59a3.84,3.84,0,0,1,7.67-.48c.12,1.89,11.93,189.68,22.29,251.81a3.85,3.85,0,0,1-3.16,4.42A3.52,3.52,0,0,1,536.81,1094.21Z" transform="translate(0)"/><path d="M56.71,1094.21a3.85,3.85,0,0,1-3.79-3.22c-18.92-116.79-6.14-210.27-6-211.2a3.84,3.84,0,1,1,7.6,1.07c-.13.92-12.73,93.32,6,208.9a3.83,3.83,0,0,1-3.17,4.4A3.31,3.31,0,0,1,56.71,1094.21Z" transform="translate(0)"/><path d="M579.5,1094.21a3.83,3.83,0,0,1-3.77-3.16c-18.25-102.31-16.63-187.75-16.62-188.6a3.85,3.85,0,0,1,3.84-3.76H563a3.84,3.84,0,0,1,3.75,3.93c0,.84-1.61,85.56,16.5,187.08a3.84,3.84,0,0,1-3.11,4.45A3.13,3.13,0,0,1,579.5,1094.21Z" transform="translate(0)"/><path d="M149.31,1094.21a3.86,3.86,0,0,1-3.74-3,505.16,505.16,0,0,1-12.15-134.93c1.56-34,6.06-54.89,6.25-55.76a3.84,3.84,0,0,1,7.5,1.65c-.18.83-17.92,84.42,5.89,187.31a3.83,3.83,0,0,1-2.88,4.6A3.69,3.69,0,0,1,149.31,1094.21Z" transform="translate(0)"/><path d="M245.11,651.43a3.85,3.85,0,0,1-1-7.57c.42-.1,34.43-9.13,36.53-34.72-.11-4.85-6.45-10.71-13.77-17.48-10.69-9.89-24-22.2-28.11-40.4a3.84,3.84,0,0,1,7.49-1.7c3.59,15.88,15.41,26.81,25.84,36.46,8.71,8.06,16.24,15,16.24,23.25,0,.1,0,.2,0,.3-2.4,31.26-40.68,41.33-42.31,41.74A3.79,3.79,0,0,1,245.11,651.43Z" transform="translate(0)"/><path d="M235.73,552.32c-5,0-11.49-1-17-5.32-6.87-5.37-10.31-14.32-10.23-26.6.11-18.49,6.27-31.15,16.9-34.74,10-3.37,21.83,2.27,31.73,15.09a3.84,3.84,0,1,1-6.07,4.7c-7.81-10.11-16.48-14.78-23.2-12.52-7.22,2.44-11.59,12.73-11.68,27.52-.06,9.77,2.39,16.67,7.29,20.5,7.23,5.65,18,3.1,18.12,3.08a3.84,3.84,0,1,1,1.9,7.44A33.92,33.92,0,0,1,235.73,552.32Z" transform="translate(0)"/><path d="M217.58,500.93a3.81,3.81,0,0,1-2.77-1.19c-.37-.38-8.93-9.54-12.43-27.53C199.23,456,199.74,429,220.1,392.5c16.41-29.39,43.55-49.15,80.67-58.72,29.08-7.5,56-6.31,64.79-5.92l1,0c16.64.82,33.71,8,48.77,14.35,11.34,4.77,23.06,9.71,27.84,8.16a3.83,3.83,0,0,1,5,3,22.49,22.49,0,0,1,.16,7.35,3.83,3.83,0,0,1,5.4,3.5v6.71a5.16,5.16,0,0,0,.55.09,4.1,4.1,0,0,1,3.35-.77c1.74.36,3,1.68,3.68,3.91,1.6,5.09,1.86,19-6.57,30.28A33.23,33.23,0,0,1,462.74,435a1.6,1.6,0,0,1-.05.21,9.73,9.73,0,0,1-5.47,6.63c-4.51,1.91-9.3-.48-9.84-.75a3.84,3.84,0,0,1,3.57-6.81c.69.35,2.4.87,3.28.48.53-.22.86-1,1.06-1.62,3.62-15.67-7.75-25-8.23-25.45a3.85,3.85,0,0,1-.4-5.63c7.46-7.93,8.19-18.47,7.69-23.35a15.82,15.82,0,0,1-6.18-1.63,3.84,3.84,0,0,1-2.17-3.45v-5.45a14.71,14.71,0,0,1-4.85-2.76,3.84,3.84,0,0,1-.65-5.23,4.8,4.8,0,0,0,.32-1.84c-7.23-.08-16.87-4.14-28.48-9-14.48-6.1-30.88-13-46.14-13.75l-1-.05c-65.77-2.91-114.93,18.65-138.41,60.72-19.06,34.13-19.76,59.05-17,73.95,3,16,10.49,24.18,10.56,24.26a3.84,3.84,0,0,1-2.8,6.47Z" transform="translate(0)"/><path d="M377.47,631.14c-11.5,0-24.65-2.23-39.46-8a3.84,3.84,0,1,1,2.77-7.16c35.88,13.88,60.93,5.7,75.62-3.6,21.61-13.67,32.54-36.84,33.78-53.74,2.38-32.4-4.75-120.15-6.11-136.39-5.12-2-9.09-6.36-11.34-9.34-18.79,8.55-40.93,6.07-46.44,5.27-20.11,9.55-34.69,13.06-43.43,14.31-6.39.92-17.61,1.78-21-2.79a4.85,4.85,0,0,1,.38-6.3,7.29,7.29,0,0,0,1.34-2.41c-12,5.35-24.15,7.67-33.45,9.45-6.25,1.2-12.17,2.33-14.37,3.82-12.37,12.43-14.33,57.38-14,73.73a3.84,3.84,0,0,1-6.91,2.37l-2.67-3.55a3.84,3.84,0,0,1,.77-5.38,3.92,3.92,0,0,1,1.15-.59c.28-17,2.45-58.62,16.53-72.28a3.65,3.65,0,0,1,.36-.31c3.47-2.62,9.45-3.77,17.73-5.35,11.17-2.14,25.06-4.79,38-12.05a3.84,3.84,0,0,1,5.72,3.35A28.3,28.3,0,0,1,330,425.42c6.79.93,25.47-.91,54-14.64a3.86,3.86,0,0,1,2.34-.32c.26,0,26.51,4.52,45.83-5.81a3.83,3.83,0,0,1,5.11,1.43c1.39,2.31,6.09,8.56,11.08,9.51a3.83,3.83,0,0,1,3.1,3.44c.37,4.23,9,104,6.34,140.21-1.69,23-16.34,46.39-37.33,59.67A79.49,79.49,0,0,1,377.47,631.14Z" transform="translate(0)"/><path d="M243,572.56a7,7,0,0,1-2-.29,8.47,8.47,0,0,1-5-4.56,9.42,9.42,0,0,1-4.63,0,6.41,6.41,0,0,1-3.93-3.13c-2-3.58.33-9.79,6.86-18.47a3.84,3.84,0,0,1,6.14,4.62,49,49,0,0,0-5.62,9.34,10.81,10.81,0,0,0,1.68-.7,3.85,3.85,0,0,1,5.64,2.72,7.55,7.55,0,0,0,1,2.69,8.75,8.75,0,0,0,2.57-2.17,3.84,3.84,0,0,1,5.69,5.17C248.55,571,245.72,572.56,243,572.56Zm-8.63-10.95Z" transform="translate(0)"/><path d="M226.71,392.76a3.94,3.94,0,0,1-1.3-.22,8.57,8.57,0,0,1-4.92-4.44,6.51,6.51,0,0,1,.31-5.44c1.14-2.28,3.7-3.94,6.2-5.08-1.45-2.44-2.25-5.34-.54-8,1.95-3,7.19-4.07,15.57-3.2a3.84,3.84,0,1,1-.8,7.64,36.38,36.38,0,0,0-7.37,0,17.74,17.74,0,0,0,2.23,2.62,3.85,3.85,0,0,1-1.74,6.52,22.43,22.43,0,0,0-5.91,2.33,3.83,3.83,0,0,1-1.73,7.27Z" transform="translate(0)"/><path d="M323.85,506.94a3.83,3.83,0,0,1-3.61-5.16c.2-.54,5-13.28,16.53-13.84s18,11.51,18.23,12a3.84,3.84,0,1,1-6.78,3.6c0-.07-4.59-8.27-11.08-8s-9.65,8.73-9.69,8.82A3.84,3.84,0,0,1,323.85,506.94Z" transform="translate(0)"/><path d="M430.79,509.72a3.83,3.83,0,0,1-3.82-3.55c-.24-3-2-11.11-7.08-13a3.51,3.51,0,0,0-2.95,0c-2.37,1.11-4.08,4.78-4.5,6a3.84,3.84,0,0,1-7.27-2.46c.26-.79,2.74-7.74,8.46-10.45a11.26,11.26,0,0,1,9-.25c10.72,4,12,19,12,19.63a3.85,3.85,0,0,1-3.54,4.12Z" transform="translate(0)"/><path d="M393.45,531.51a23.1,23.1,0,0,1-9.44-1.92,3.84,3.84,0,0,1,3.17-7c5.06,2.29,12.62,1.31,16.85-2.18,2.1-1.73,2.89-3.7,2.38-5.86a3.18,3.18,0,0,0-1.61-2.1c-4-2.37-13.28-1.17-18.21.14a3.84,3.84,0,0,1-2-7.42c1.63-.44,16.08-4.11,24.12.68a10.89,10.89,0,0,1,5.16,6.91c1.2,5-.6,10-4.95,13.57A24.79,24.79,0,0,1,393.45,531.51Z" transform="translate(0)"/><path d="M368.4,598.59c-11.94,0-23.75-2-33.6-6.48-19.85-9.11-22-21.23-21.45-27.64,1-12.06,11.94-22.17,22-25,7.72-2.15,20.42-1,33.87.31,10.86,1,22.09,2.08,28.58.94h0c8.91-1.56,20.11-2.54,27.81,3.71,5.16,4.18,7.92,11,8.23,20.16.25,7.48-4.3,14.54-13.14,20.42C408.5,593.16,388.27,598.59,368.4,598.59ZM346.66,546a36.55,36.55,0,0,0-9.23.9c-7.37,2.06-15.74,9.59-16.42,18.19-.61,7.73,5.26,14.66,17,20,23.27,10.68,60.62,5.38,78.47-6.49,4.54-3,9.91-7.86,9.71-13.76-.23-6.88-2-11.74-5.39-14.46-5.29-4.29-14.35-3.38-21.65-2.1h0c-7.5,1.31-18.73.26-30.62-.86C360.84,546.73,353,546,346.66,546Zm51.82-1.46h0Z" transform="translate(0)"/><path d="M341.4,594.46a3.84,3.84,0,0,1-3.85-3.84V542.15a3.85,3.85,0,0,1,7.69,0v48.47A3.84,3.84,0,0,1,341.4,594.46Z" transform="translate(0)"/><path d="M369.48,598.56a3.84,3.84,0,0,1-3.84-3.84v-51a3.84,3.84,0,0,1,7.68,0v51A3.84,3.84,0,0,1,369.48,598.56Z" transform="translate(0)"/><path d="M401.27,593.62a3.84,3.84,0,0,1-3.84-3.84V544.07a3.84,3.84,0,1,1,7.68,0v45.71A3.84,3.84,0,0,1,401.27,593.62Z" transform="translate(0)"/><path d="M366.29,573.76a343.13,343.13,0,0,1-49.77-3.58,3.84,3.84,0,0,1,1.22-7.59c.63.1,63.94,10,110.94-4.51a3.84,3.84,0,1,1,2.27,7.34C410.07,571.88,386.55,573.76,366.29,573.76Z" transform="translate(0)"/><path d="M344.83,467.83c.06,0,0,0,0,0l-.1,0-.26-.1-.57-.19c-.39-.13-.81-.25-1.23-.35a24.45,24.45,0,0,0-2.58-.48,21.54,21.54,0,0,0-5.26,0,19.09,19.09,0,0,0-9.74,4,29.72,29.72,0,0,0-7.44,9c-.49.89-1,1.82-1.43,2.74s-.86,1.9-1.26,2.87-.78,2-1.14,2.95l-1,3,0,0a1.53,1.53,0,0,1-3-.65,58,58,0,0,1,2.82-13.24c.43-1.07.77-2.19,1.3-3.24l.75-1.61.86-1.57a31,31,0,0,1,4.3-5.93,27.4,27.4,0,0,1,13.05-7.86,30.77,30.77,0,0,1,7.69-1,31.68,31.68,0,0,1,3.89.2c.65.07,1.3.16,2,.28l1,.2.53.13.29.07.37.11a5.7,5.7,0,0,1-3.79,10.75Z" transform="translate(0)"/><path d="M401.87,456c.43-.16.66-.23,1-.33l.86-.26c.57-.16,1.13-.29,1.69-.41a30.33,30.33,0,0,1,3.42-.51,30.76,30.76,0,0,1,6.91.15,28,28,0,0,1,12.91,5.13,30,30,0,0,1,5,4.73A30.69,30.69,0,0,1,437.3,470a36.93,36.93,0,0,1,3.83,12.17,1.27,1.27,0,0,1-1.09,1.44,1.3,1.3,0,0,1-1.31-.67h0a59.73,59.73,0,0,0-6.26-9.81,28,28,0,0,0-8.07-7,20.9,20.9,0,0,0-4.69-2,25.71,25.71,0,0,0-5-1,30.07,30.07,0,0,0-5.2-.07c-.87,0-1.74.15-2.6.27-.43.06-.86.13-1.27.21l-.62.11-.48.09-1.12.05a4,4,0,0,1-1.54-7.84Z" transform="translate(0)"/><path d="M246.94,528.32a3.83,3.83,0,0,1-3.4-2.05c-.08-.16-5.28-9.62-16-11.86a3.84,3.84,0,1,1,1.57-7.52c14.44,3,21,15.29,21.28,15.81a3.85,3.85,0,0,1-3.41,5.62Z" transform="translate(0)"/><path d="M230.54,524.93a4.17,4.17,0,0,1-1-.12,3.84,3.84,0,0,1-2.74-4.69c1.48-5.66,6.86-8.48,9.81-9.26a3.84,3.84,0,0,1,2,7.42c-.13,0-3.67,1.1-4.37,3.78A3.84,3.84,0,0,1,230.54,524.93Z" transform="translate(0)"/><path d="M422,660.42a3.77,3.77,0,0,1-1.69-.39c-26-12.81-36.84-30.5-37.29-31.25a3.84,3.84,0,0,1,6.58-4c.13.21,10.3,16.59,34.1,28.32a3.84,3.84,0,0,1-1.7,7.28Z" transform="translate(0)"/></g></svg>