<svg id="Layer_1" data-name="Layer 1" xmlns="http://www.w3.org/2000/svg" xmlns:xlink="http://www.w3.org/1999/xlink" viewBox="0 0 896.45 1080"><defs><style>.cls-1{fill:none;}.cls-2{fill:#72c4ee;}.cls-3{fill:#ea2438;}.cls-4{fill:#83ad40;}.cls-5{fill:#fff;}.cls-6{fill:#fafafa;}.cls-7{fill:#28abe2;}.cls-8{fill:#1a2e35;}.cls-9{clip-path:url(#clip-path);}.cls-10{fill:#606060;}.cls-11{fill:#edb98a;}.cls-12{fill:#1e1e1d;}.cls-13{fill:#231f20;}.cls-14{fill:#d08b5b;}.cls-15{clip-path:url(#clip-path-2);}.cls-16{fill:#bdebf9;}.cls-17{fill:#ffdbb4;}.cls-18{fill:#d4af37;}.cls-19{fill:#f1f2f2;}</style><clipPath id="clip-path" transform="translate(-183.55 0)"><rect class="cls-1" x="392.6" y="32.54" width="478.34" height="834.15"/></clipPath><clipPath id="clip-path-2" transform="translate(-183.55 0)"><rect class="cls-1" x="689.93" y="71.74" width="143.1" height="200.76"/></clipPath></defs><title>emam-contact-us</title><circle class="cls-2" cx="448.22" cy="540" r="448.22"/><rect class="cls-3" x="209.05" y="32.54" width="478.34" height="834.15"/><path class="cls-4" d="M870.79,841H392.69V987.88a56,56,0,0,0,55.94,56l366.21.21a56,56,0,0,0,56-56Z" transform="translate(-183.55 0)"/><path class="cls-5" d="M615,990.37v14.46h-1.06V991.32H610.4v-1Z" transform="translate(-183.55 0)"/><path class="cls-5" d="M618.65,997.6c0-4.53,2.34-7.34,5.67-7.34s5.66,2.81,5.66,7.34-2.34,7.34-5.66,7.34S618.65,1002.13,618.65,997.6Zm10.27,0c0-4-1.88-6.37-4.6-6.37s-4.61,2.34-4.61,6.37,1.88,6.37,4.61,6.37S628.92,1001.63,628.92,997.6Z" transform="translate(-183.55 0)"/><path class="cls-5" d="M632.33,994.83a.87.87,0,1,1,1.73,0,.87.87,0,1,1-1.73,0Zm0,9.2a.87.87,0,1,1,1.73,0,.87.87,0,1,1-1.73,0Z" transform="translate(-183.55 0)"/><path class="cls-5" d="M636.4,997.6c0-4.53,2.33-7.34,5.66-7.34s5.66,2.81,5.66,7.34-2.33,7.34-5.66,7.34S636.4,1002.13,636.4,997.6Zm10.27,0c0-4-1.88-6.37-4.61-6.37s-4.61,2.34-4.61,6.37,1.88,6.37,4.61,6.37S646.67,1001.63,646.67,997.6Z" transform="translate(-183.55 0)"/><path class="cls-5" d="M662.08,1000.83h-3v4h-1v-4h-8.25v-.77l7.85-9.69h1.18l-7.71,9.52H658v-3.53h1v3.53h3Z" transform="translate(-183.55 0)"/><rect class="cls-6" x="257.98" y="909.6" width="55.62" height="55.62" rx="4.45"/><path class="cls-5" d="M816.33,961.42H785.46a12.09,12.09,0,0,1-12.07-12.08V918.47a12.08,12.08,0,0,1,12.07-12.07h30.87a12.09,12.09,0,0,1,12.08,12.07v30.87A12.09,12.09,0,0,1,816.33,961.42Zm-30.87-53.74a10.8,10.8,0,0,0-10.79,10.79v30.87a10.8,10.8,0,0,0,10.79,10.79h30.87a10.8,10.8,0,0,0,10.79-10.79V918.47a10.8,10.8,0,0,0-10.79-10.79Z" transform="translate(-183.55 0)"/><path class="cls-7" d="M479.49,928.35h-20.3a2.66,2.66,0,0,0-2.66,2.66v13.4a2.66,2.66,0,0,0,2.66,2.66h1.72V953l6.85-5.91h11.73a2.66,2.66,0,0,0,2.66-2.66V931A2.66,2.66,0,0,0,479.49,928.35ZM462.9,940.18a2,2,0,1,1,2-2A2,2,0,0,1,462.9,940.18Zm6.17,0a2,2,0,1,1,2-2A2,2,0,0,1,469.07,940.18Zm6.61,0a2,2,0,1,1,2-2A2,2,0,0,1,475.68,940.18Z" transform="translate(-183.55 0)"/><path class="cls-5" d="M793.85,941a.65.65,0,0,1-.64-.57c-1.53-12.79,8-16.88,8.13-16.92a.64.64,0,0,1,.84.35.65.65,0,0,1-.35.84c-.36.14-8.75,3.78-7.34,15.58a.66.66,0,0,1-.57.72Z" transform="translate(-183.55 0)"/><path class="cls-5" d="M793.85,941a.62.62,0,0,1-.49-.23L789.31,936a.65.65,0,0,1,.07-.91.66.66,0,0,1,.91.07l3.53,4.15,3.11-4.11a.64.64,0,1,1,1,.77l-3.59,4.75a.61.61,0,0,1-.49.26Z" transform="translate(-183.55 0)"/><path class="cls-5" d="M800.21,944.36a.64.64,0,0,1-.25-1.23c.36-.15,8.76-3.79,7.35-15.59a.63.63,0,0,1,.56-.71.65.65,0,0,1,.71.56c1.53,12.8-8,16.89-8.13,16.93A.64.64,0,0,1,800.21,944.36Z" transform="translate(-183.55 0)"/><path class="cls-5" d="M804.36,932.86a.61.61,0,0,1-.39-.13.65.65,0,0,1-.13-.9l3.59-4.75a.65.65,0,0,1,.5-.26h0a.62.62,0,0,1,.48.23l4.05,4.75a.65.65,0,0,1-1,.84L808,928.49l-3.11,4.12A.63.63,0,0,1,804.36,932.86Z" transform="translate(-183.55 0)"/><path class="cls-8" d="M827.76,778.24" transform="translate(-183.55 0)"/><circle class="cls-3" cx="808.18" cy="793.26" r="34.03" transform="translate(-288.3 1463.32) rotate(-80.74)"/><path class="cls-5" d="M808.18,800.91a6.14,6.14,0,0,1-6.14-6.14V781.4a6.14,6.14,0,0,1,12.27,0v13.37A6.14,6.14,0,0,1,808.18,800.91Zm0-24.36a4.86,4.86,0,0,0-4.86,4.85v13.37a4.86,4.86,0,0,0,9.71,0V781.4A4.86,4.86,0,0,0,808.18,776.55Z" transform="translate(-183.55 0)"/><path class="cls-5" d="M808.18,805.21c-3.67,0-6.57-1.15-8.62-3.4-3.91-4.32-3.28-11.11-3.25-11.4a.64.64,0,0,1,1.28.13c0,.07-.6,6.52,2.93,10.41a9.88,9.88,0,0,0,7.66,3,10.33,10.33,0,0,0,7.76-3c3.75-3.91,3.54-10.38,3.53-10.45a.64.64,0,0,1,.62-.66.67.67,0,0,1,.67.61c0,.29.24,7.09-3.9,11.39A11.52,11.52,0,0,1,808.18,805.21Z" transform="translate(-183.55 0)"/><path class="cls-5" d="M808.18,814.62a.65.65,0,0,1-.65-.64v-9.41a.65.65,0,0,1,1.29,0V814A.64.64,0,0,1,808.18,814.62Z" transform="translate(-183.55 0)"/><circle class="cls-3" cx="451.72" cy="934.51" r="43.89"/><path class="cls-5" d="M631.36,922.37c-3.69-2.85-9.33-1.81-11.35,2.31a4.56,4.56,0,0,0,1,5.71c4,4,12.5,11.9,16.18,15.34a9.13,9.13,0,0,0,7.52,2.44,7.89,7.89,0,0,0,5.33-3.3c4.15-5.7-5.8-10.14-5.8-10.14l-4.35,4.56-10.15-9.78,4.45-4.91Z" transform="translate(-183.55 0)"/><path class="cls-8" d="M815.38.22,448.44,0a79.93,79.93,0,0,0-80,79.92l-.18,919.92a79.92,79.92,0,0,0,79.88,79.94l366.94.22a79.92,79.92,0,0,0,80-79.91l.18-919.93A79.92,79.92,0,0,0,815.38.22Zm55.38,986.44a56,56,0,0,1-56,56l-366.2-.21a56,56,0,0,1-55.95-56l.18-897.91a56,56,0,0,1,56-56l62.26,0,25,0a18,18,0,0,1,2.09.14H743.42l.43,0,71.14,0a56,56,0,0,1,56,56Z" transform="translate(-183.55 0)"/><g class="cls-9"><path class="cls-10" d="M506.7,209.72s-26.53-3.52-35.6,4.74-9.72,14-9.72,14-23.59,1.35-28.49,14.93-.19,23,5.12,24.89c0,0-24.2,23-38,56.31-6.88,16.62-7.4,52.46-8.49,57.93s-12.6,53.73-12.09,65.31,1.09,14.87,1.09,14.87H653s-3.47-49.55-9.17-64.72,1.51-79.52-17-114.66c-15.62-30.64-30.41-36.94-30.41-36.94s-5.6-20.5-15.75-22S506.7,209.72,506.7,209.72Z" transform="translate(-183.55 0)"/><path class="cls-11" d="M503.08,169.63s-5.5-13.83-23.22-4.67c-3.41,1.75,0,11.48,2.37,15.12s-1.3,9.43.18,11.66,6.2,6.45,15,4.38c0,0,9.09,16.37,16.57,20.14,0,0-4,9.47-8.18,13.37,0,0,26.75,34.47,36.89,34.39s28.17-27.47,28.17-27.47l-3.77-7.41s29-4.76,35.92-35.1c4.55-18.32-3.74-31.36-3.74-31.36l-3-37.1s-38.75-37.11-75.55-7.23S503.08,169.63,503.08,169.63Z" transform="translate(-183.55 0)"/><path d="M482.63,163.15s-3.73-5.73,0-8.42c0,0-5.63-3.84-3.43-9.95,0,0-3.58-5.43,1-8.47,0,0-4.17-4.54,0-8.19,0,0-3.2-7.71,3.71-11.12,0,0-.4-10,5.71-10.71,0,0,.74-8.67,7.05-7.89,0,0,3.36-7.4,8.39-7,0,0,1.38-7.6,10.84-6.34a11.29,11.29,0,0,1,11.61-3s4.36-5.25,10.26-2c0,0,8.81-4.21,15,.9,0,0,6.31-2.55,9.56,1.7,0,0,8.76-1,11.21,4.86,0,0,7.18.68,9.35,6.6,0,0,6.82,1.21,7.77,8,0,0,7.28-1.43,6,6.88,0,0,4.92,1.59,4.16,9.46,0,0,2.26,3.65.52,6.56,0,0,3.92,4.93-.08,8,0,0-.9,4.27-2.76,4.77l-1.9-13s-3.8,2.25-7.16-1.85c0,0-4.94.3-6.6-2.55a7,7,0,0,1-7.06-1.76s-4.32,2.63-7.14-.48a14.76,14.76,0,0,1-9.57-.22c-5.07-1.9-.21-.17-.21-.17a10.42,10.42,0,0,1-8.22.9,7.39,7.39,0,0,1-8.36,1.32s-2,4.31-8.2,2.26c0,0-1.35,3.65-6,2.65,0,0-1.55,3.21-7.16,2.9,0,0-2.06,3.55-6,3.73,0,0-.14,4.23-3.4,6,0,0,.5,5.55-1.75,7.81,0,0,2.5,5.7-1.45,9.36,0,0,2.65,4.7-1,7L503.53,169S496.87,156.13,482.63,163.15Z" transform="translate(-183.55 0)"/><path d="M528.3,151.62A16.2,16.2,0,0,1,530,149.2a21.07,21.07,0,0,1,2-2.11,22.41,22.41,0,0,1,4.84-3.4c.45-.23.91-.44,1.37-.65s.93-.38,1.42-.54a17.59,17.59,0,0,1,3-.76,15.37,15.37,0,0,1,6.19.15,2.37,2.37,0,0,1-.46,4.68h-.13a35.22,35.22,0,0,0-4.72.41c-.39.06-.78.15-1.18.22s-.78.16-1.17.27c-.78.2-1.57.43-2.35.7a40.61,40.61,0,0,0-4.71,1.93c-1.57.74-3.16,1.59-4.74,2.46l0,0a.72.72,0,0,1-1-.28A.73.73,0,0,1,528.3,151.62Z" transform="translate(-183.55 0)"/><path d="M590.53,150.31c-.63-.34-1.29-.72-1.93-1s-1.29-.63-1.94-.9a31,31,0,0,0-3.88-1.38c-.32-.11-.66-.17-1-.25l-.49-.14-.49-.1c-.33-.07-.66-.13-1-.21l-1-.17-.5-.09c-.16,0-.33,0-.5-.07l-1-.16c-.68-.1-1.36-.15-2.05-.31l-.27-.06a2.37,2.37,0,0,1-1.78-2.84,2.4,2.4,0,0,1,2-1.82c.42-.06.83-.09,1.25-.12a10.6,10.6,0,0,1,1.26,0c.42,0,.84,0,1.26.08a9.07,9.07,0,0,1,1.26.17l1.25.25,1.22.37a6,6,0,0,1,.6.2l.6.24c.39.18.78.32,1.16.52a16.75,16.75,0,0,1,4.14,2.9,12,12,0,0,1,2.91,4.12.71.71,0,0,1-.39.93.69.69,0,0,1-.61,0Z" transform="translate(-183.55 0)"/><path d="M506.39,231.36a1.7,1.7,0,0,1-1.11-.4,1.72,1.72,0,0,1-.22-2.44c1.72-2.06,6.08-7.72,7.43-11.26-3.32-2.61-13.94-11.57-17-21.46a1.73,1.73,0,0,1,3.31-1c3.19,10.42,16.56,20.33,16.69,20.43a1.76,1.76,0,0,1,.67,1.77c-1.07,4.78-7.72,12.85-8.48,13.75A1.71,1.71,0,0,1,506.39,231.36Z" transform="translate(-183.55 0)"/><path d="M492.31,198.11c-4.05,0-9.22-.82-10.85-4.76a8,8,0,0,1,0-6.86,4.28,4.28,0,0,0,0-4.1,22.41,22.41,0,0,0-2-3.41c-2.12-3.14-4.31-6.38-1.7-12.77,1.38-3.39,4.5-5.56,9-6.26s10.25.32,11.74,2.1a1.73,1.73,0,0,1-2.62,2.26c-.77-.59-5.5-1.78-9.83-.68-2.6.65-4.32,2-5.1,3.88-1.91,4.69-.61,6.61,1.36,9.53a25,25,0,0,1,2.32,3.93,7.64,7.64,0,0,1,.07,6.77,4.72,4.72,0,0,0,0,4.29c1.26,3,8.78,2.84,12.23,2.26a1.73,1.73,0,0,1,.57,3.41A32.75,32.75,0,0,1,492.31,198.11Zm3.54-33.85v0Z" transform="translate(-183.55 0)"/><path d="M500.38,179.2a1.72,1.72,0,0,1-1.27-.55c-.18-.2-4.33-4.48-12-4.25a1.73,1.73,0,1,1-.1-3.46,19.72,19.72,0,0,1,14.64,5.36,1.73,1.73,0,0,1-1.27,2.9Z" transform="translate(-183.55 0)"/><path d="M438,270a1.34,1.34,0,0,1-.35,0c-3.65-.75-6.56-3.94-8-8.75-2.09-7-1.06-17.72,6.12-24.9,6.94-6.94,13.5-7.29,18.29-7.55,2.38-.13,4.26-.24,5.5-1.07,1.48-1,2.29-2.72,3.31-4.91,1.62-3.47,3.64-7.8,9.48-11.27,9.48-5.62,33.47-3.63,34.49-3.54a1.73,1.73,0,0,1-.3,3.45c-.24,0-23.89-2-32.42,3.07-4.92,2.92-6.62,6.56-8.11,9.76-1.15,2.46-2.24,4.78-4.52,6.32-2,1.36-4.56,1.5-7.24,1.64-4.47.25-10,.55-16,6.55S431.12,254,433,260.22c1.07,3.56,3,5.87,5.39,6.36A1.73,1.73,0,0,1,438,270Z" transform="translate(-183.55 0)"/><path d="M528.11,273.56l-.31,0c-16.86-3.06-44.17-32-44.43-32.24-1.78-2-5-.89-5-.88a1.73,1.73,0,0,1-1.16-3.26c.22-.08,5.44-1.9,8.78,1.83s28.34,28.58,42.47,31.14a1.73,1.73,0,0,1-.31,3.43Z" transform="translate(-183.55 0)"/><path d="M380.54,464.43a1.73,1.73,0,0,1-1.69-1.36c-3.91-17.83,2.69-45.19,7.5-65.18,1.22-5.06,2.28-9.43,3-13,1.28-6.3,1.67-13.26,2.09-20.64.73-12.94,1.56-27.6,7.62-41.87,13.12-30.88,34.14-52.38,49.47-65,16.61-13.65,29.93-19.91,30.49-20.17a1.73,1.73,0,0,1,1.46,3.14c-.14.06-13.56,6.38-29.84,19.78-15,12.33-35.57,33.38-48.39,63.58-5.82,13.71-6.6,27.43-7.35,40.71-.43,7.5-.83,14.59-2.16,21.13-.74,3.65-1.8,8.05-3,13.14-4.74,19.66-11.23,46.58-7.49,63.63a1.72,1.72,0,0,1-1.32,2.06A1.55,1.55,0,0,1,380.54,464.43Z" transform="translate(-183.55 0)"/><path d="M441.81,464.43h-.19a1.72,1.72,0,0,1-1.53-1.91c.1-.85,9.49-85.9,1.85-114.09a1.73,1.73,0,0,1,3.34-.9c7.81,28.82-1.35,111.86-1.75,115.38A1.73,1.73,0,0,1,441.81,464.43Z" transform="translate(-183.55 0)"/><path d="M470.65,464.43a2.19,2.19,0,0,1-.36,0,1.73,1.73,0,0,1-1.34-2c1.11-5.3,4.87-22.78,6.61-25.15a21.7,21.7,0,0,1,1.76-1.91c5.23-5.36,21.16-21.67,20.28-41a1.74,1.74,0,0,1,1.64-1.81l81.39-4.35a1.74,1.74,0,0,1,1.66,1c.11.23,11.44,23.87,22.06,29.39,1.18.61,2.62,2.14,4.24,8.87.89,3.7,1.76,8.65,2.59,14.71,1.4,10.28,2.2,20.37,2.2,20.47a1.73,1.73,0,1,1-3.45.27c0-.1-.78-9.87-2.14-19.92-2.57-19.11-4.81-21.17-5.06-21.34-10.39-5.4-20.66-25.08-23.06-29.92l-78.57,4.2c0,20.05-16,36.38-21.3,41.85-.64.66-1.31,1.34-1.45,1.54-.94,1.42-3.79,13.23-6,23.81A1.73,1.73,0,0,1,470.65,464.43Z" transform="translate(-183.55 0)"/><path d="M631,464.43h-.1a1.73,1.73,0,0,1-1.63-1.83c1.08-18.6-4.55-45.48-9.06-67.07-3-14.51-5.66-27-5.66-34-.29-10.81,1.72-66.79,1.81-69.17a1.73,1.73,0,0,1,3.46.13c0,.58-2.1,58.33-1.81,69v.05c0,6.61,2.58,19,5.58,33.33,4.56,21.79,10.24,48.92,9.14,68A1.73,1.73,0,0,1,631,464.43Z" transform="translate(-183.55 0)"/><path d="M653,464.43a1.72,1.72,0,0,1-1.73-1.68c0-.35-1-34.85-8.05-60-3.42-12.19-3.95-27.38-4.5-43.46-.65-18.75-1.33-38.14-6.32-56.81-4.79-17.91-14.57-31.81-21.92-40.31a99.78,99.78,0,0,0-15-14.37,1.74,1.74,0,0,1-.68-1.07c0-.17-3.46-17-14.6-20.69a1.73,1.73,0,0,1,1.09-3.29c11.82,3.91,16,19.2,16.76,22.65a105.42,105.42,0,0,1,15,14.42c7.62,8.8,17.74,23.18,22.72,41.77,5.09,19,5.8,39.52,6.43,57.58.54,15.87,1.06,30.85,4.37,42.64,7.19,25.59,8.17,60.52,8.18,60.87a1.73,1.73,0,0,1-1.69,1.77Z" transform="translate(-183.55 0)"/><path d="M560.37,274.46a1.73,1.73,0,0,1-.46-3.4c21.76-6,29.25-20.58,29.33-20.73a1.73,1.73,0,0,1,3.09,1.55c-.32.66-8.27,16.08-31.49,22.52A1.89,1.89,0,0,1,560.37,274.46Z" transform="translate(-183.55 0)"/><path d="M545.13,464.43a1.72,1.72,0,0,1-1.73-1.73v-190a1.73,1.73,0,0,1,3.46,0v190A1.72,1.72,0,0,1,545.13,464.43Z" transform="translate(-183.55 0)"/><path d="M484.33,160.89c-2.05-1-2.22-3.88.21-4.61,1.71-.52,2.29-3.14.53-4-1.42-.71-3.26-1.46-4-2.95s.8-2.79.9-4.41a3.87,3.87,0,0,0-.57-2.27c-.29-.49-.82-.89-1-1.46a2,2,0,0,1,1.08-2.35c1.67-.59,2.34-3.13.53-4.06s-2.4-3.63-.12-4.5a2.29,2.29,0,0,0,1-3.78,4.18,4.18,0,0,1,2.25-7,2.35,2.35,0,0,0,1.6-2.83c-.52-2.69-.29-7.47,3.38-7.78a2.32,2.32,0,0,0,2.29-2.29c-.18-2.41.57-7,4.08-5.87,1.56.52,2.71-.83,2.88-2.2a6,6,0,0,1,5.74-4.89,2.34,2.34,0,0,0,2.28-2.28c.39-4.24,6.41-4,9.35-3.66a2.23,2.23,0,0,0,2-1.13,5.69,5.69,0,0,1,7.56-2.31,2.31,2.31,0,0,0,3.11-.82,5.83,5.83,0,0,1,8.42-1.19,2.27,2.27,0,0,0,2.73-.35,8.48,8.48,0,0,1,11.26.7,2.31,2.31,0,0,0,3.21,0c1.75-1.61,4.57-.64,5.49,1.36A2.27,2.27,0,0,0,563,85a7.91,7.91,0,0,1,9.52,3.8,2.18,2.18,0,0,0,1.92,1.1,6.16,6.16,0,0,1,6.38,5.24,2.17,2.17,0,0,0,1.54,1.55c2.34.52,7.45,1.62,6.08,5.11-.71,1.8,1.66,3.31,3.16,2.43,2.57-1.53,4.85,1.33,3.23,3.67a2.07,2.07,0,0,0,1.23,3,4.24,4.24,0,0,1,2.46,6.17,2.08,2.08,0,0,0,.74,2.82,2.27,2.27,0,0,1,.21,3.84,2.1,2.1,0,0,0,.42,3.28c2.05,1,2,3.64-.29,4.28a2.13,2.13,0,0,0-1.47,2.57,1.5,1.5,0,0,1-.51,1.71c-2.14,1.53-.1,5.11,2.09,3.57a5.8,5.8,0,0,0,2.46-6.39l-1.46,2.57A6.39,6.39,0,0,0,602,123.43l.43,3.28c3.36-2.64,2.64-8.43-1.09-10.35l.74,2.82A8.42,8.42,0,0,0,597.2,107l1.23,3a6.64,6.64,0,0,0-9-9.46l3.15,2.42a6.81,6.81,0,0,0-1.56-7c-1.92-2.11-4.79-2.92-7.48-3.53L585.13,94a10.59,10.59,0,0,0-10.65-8.52l1.93,1.11a12.34,12.34,0,0,0-14.57-5.9l2.55,1c-2.19-4.77-8.87-5.7-12.6-2.28H555a13.1,13.1,0,0,0-17.66-.69h3.19a10.37,10.37,0,0,0-15.08,2.44l3.12-.82a10.3,10.3,0,0,0-13.8,3.93l2-1.13c-3.21-.34-6.66-.3-9.52,1.39a8.72,8.72,0,0,0-4.38,6.84l2.27-2.27a10.61,10.61,0,0,0-10.29,9.44l2.88-2.19a7.23,7.23,0,0,0-7.54,2.12c-2,2.18-2.54,5.28-2.33,8.14l2.29-2.29a8.56,8.56,0,0,0-6.87,4.38c-1.59,2.83-1.54,6.11-.94,9.2l1.6-2.83a8.77,8.77,0,0,0-4.22,14.62l1-3.78c-5.55,2.17-6.6,9.85-.92,12.69l.53-4.05a6.41,6.41,0,0,0-4.14,4.3A6.62,6.62,0,0,0,476,142a5.85,5.85,0,0,0,.52,1.45c.18.34.93,1,.94,1.33,0,.1-.5.81-.59,1a5.83,5.83,0,0,0-.55,2,6.68,6.68,0,0,0,.77,3.5c1.19,2.3,3.47,3.62,5.71,4.73l.53-4c-5.75,1.75-6.88,9.82-1.13,12.43,2.38,1.08,4.5-2.34,2.09-3.57Z" transform="translate(-183.55 0)"/><path d="M559.73,230.88a74.67,74.67,0,0,1-18.94-2.65,1.73,1.73,0,1,1,.88-3.35c16.56,4.36,30.42,3.1,41.18-3.75,14.22-9,18-24.58,18.85-29.13,1.93-10.62-.21-16.58-2.09-21.83-1.1-3.08-2.14-6-2.15-9.31v0c.3-14.54-3-35.83-3-36a1.73,1.73,0,0,1,3.42-.52c.14.88,3.32,21.77,3,36.62,0,2.73.91,5.23,2,8.13,1.93,5.38,4.33,12.09,2.23,23.62-.89,4.9-5,21.63-20.39,31.43C577.55,228.6,569.2,230.88,559.73,230.88Z" transform="translate(-183.55 0)"/><path d="M595.12,123.44c-.79.8-3.4-.29-3.52-1.31a1.91,1.91,0,0,0-2.83-1.63,2.5,2.5,0,0,1-3.57-1.11,2,2,0,0,0-3.26-.86c-1.53,1.47-3.7-.87-4.72-1.88a2,2,0,0,0-2.75,0,2.72,2.72,0,0,1-4.19,0,2,2,0,0,0-2.36-.31,9.06,9.06,0,0,1-7.65-.25,2,2,0,0,0-1.95,0,6.56,6.56,0,0,1-4.36,1.3c-1.61-.13-3-1-4.59-.35-1.33.57-2.09,1.68-3.66,1.74s-2.65-1-4.15-.6-1.8,1.82-3,2.29-2.76-.39-4.06-.41a3.63,3.63,0,0,0-3.23,1.88,1.83,1.83,0,0,1-2.86.52,1.92,1.92,0,0,0-2.63.68,3.61,3.61,0,0,1-4.85,2.08,1.94,1.94,0,0,0-2.37,1.35,3.46,3.46,0,0,1-4.26,2.89,2,2,0,0,0-2.17,2.83,2.36,2.36,0,0,1-1.57,3.18c-1.38.18-2.54,1.55-1.68,2.94a4.48,4.48,0,0,1-1.17,6,2.1,2.1,0,0,0,0,2.92,3.45,3.45,0,0,1,.26,4.15c-1.17,1.69-2.78,2.74-1.82,5.07.3.74,1,1.34.68,2.19s-1.19,1-1.71,1.56a3.76,3.76,0,0,0-1,2.71c0,.34.24,2.89.17,2.88a2.14,2.14,0,0,0-2.39,3.1l-.16.11,2.61-1.47c.2.08-.34-1.56-.42-1.79a5,5,0,0,0-1.47-2,3.36,3.36,0,0,0-4.66.06h3l-1-1.23c-1.78-2.12-4.93,1-3.06,3.07l1.05,1.19a2.17,2.17,0,0,0,3,0c-1-.13-1.32,0-.86.46.06.24.13.47.2.7a9.18,9.18,0,0,0,.57,1.51,4.28,4.28,0,0,0,2.48,2.15,2.17,2.17,0,0,0,2.61-1.48,4,4,0,0,0-.28-3.37l-2.38,3.1c3.13.64,5.29-1.86,5.35-4.85a8.48,8.48,0,0,0-.09-1.23c0-.21.07-1.19-.22-.7.24-.42,1.13-.78,1.5-1.18a5.66,5.66,0,0,0,1.4-3.83,5.57,5.57,0,0,0-.38-1.93,7.36,7.36,0,0,0-.44-.89c-.27-.44-.37.26-.11-.1.82-1.16,1.73-2,2.17-3.38a7.72,7.72,0,0,0-1.73-7.46v2.92a8.46,8.46,0,0,0,1.63-10.88l-1.17,2.87c4.13-.57,6.15-5.44,4.37-9l-2.17,2.82a7.32,7.32,0,0,0,9-5.58l-2.36,1.34a7.35,7.35,0,0,0,9.19-3.85l-2.63.69c2.57,1.91,5.88,1,7.76-1.34.19-.23.23-.45.46-.51s.71.19.93.24a9.56,9.56,0,0,0,2.5.24,5.84,5.84,0,0,0,2.36-.6c.73-.39,1.12-1.1,1.77-1.51.18-.11.21-.27.36-.29a5.7,5.7,0,0,1,1.12.38,7.76,7.76,0,0,0,4.88-.39c.7-.29,1.24-.82,1.9-1.15.84-.41,0-.18.79-.1.45.06.9.27,1.34.35a10,10,0,0,0,2.67.14,10.29,10.29,0,0,0,5-1.8h-1.95a13.27,13.27,0,0,0,11.57.27l-2.36-.3a6.59,6.59,0,0,0,9.69,0h-2.75c2.71,2.68,6.9,5.18,10.23,1.89l-3.27-.87a6.39,6.39,0,0,0,9.24,3.32l-2.76-1.12c.58,4.18,7,6.14,9.58,2.64,1-1.4-1.19-3-2.37-1.83Z" transform="translate(-183.55 0)"/><path d="M569.77,186.11c-4.43,0-9.19-3-9.81-3.38a1.73,1.73,0,0,1,1.88-2.91c1.61,1,6.42,3.54,9.29,2.65a3,3,0,0,0,1.91-1.86,4.9,4.9,0,0,0,.18-4c-1-2.4-4.1-3.55-4.13-3.56a1.73,1.73,0,0,1,1.18-3.26c.18.07,4.46,1.65,6.11,5.42a8.26,8.26,0,0,1-.14,6.72,6.42,6.42,0,0,1-4.09,3.82A7.88,7.88,0,0,1,569.77,186.11Z" transform="translate(-183.55 0)"/><path d="M566.19,206c-.21,0-.43,0-.65,0-7-.45-10.79-6.14-10.95-6.39a1.73,1.73,0,0,1,2.9-1.9c0,.08,3.07,4.5,8.28,4.84,5,.33,8-5.4,8-5.46a1.73,1.73,0,1,1,3.09,1.56C576.68,198.89,573,206,566.19,206Z" transform="translate(-183.55 0)"/><ellipse cx="358.37" cy="160.55" rx="3.91" ry="6.2"/><ellipse cx="398.62" cy="160.23" rx="3.61" ry="5.73"/><path d="M543,265.11c-2.84,0-6.6-1.94-11.46-5.93a134,134,0,0,1-13.1-12.72C510,237.34,502.8,228,502.73,228a1.73,1.73,0,0,1,.31-2.43,1.74,1.74,0,0,1,2.43.31c10.75,13.91,30.35,35.81,37.47,35.81h.12c7.91-.3,23.05-20.15,28.21-27.77a1.73,1.73,0,0,1,2.87,1.94,179.06,179.06,0,0,1-11,14.27c-8.51,9.92-15,14.83-20,15Z" transform="translate(-183.55 0)"/><path d="M571.31,238.56a1.72,1.72,0,0,1-.9-.25c-4.08-2.48-4.92-8.78-5-9.49a1.73,1.73,0,0,1,3.44-.4h0c.17,1.47,1.11,5.57,3.36,6.93a1.73,1.73,0,0,1-.9,3.21Z" transform="translate(-183.55 0)"/><path class="cls-12" d="M425.61,442.49,415.16,453l-.4,2S367,469.8,357.63,477s-37.09,55-45.75,105.69a818.64,818.64,0,0,0-10.19,98.94H580.16s.38-140.73-16.56-173.56-29.38-33.9-52.8-42.72l1.43-6-10.05-10.84s-16.85,12.5-26.77,13.45a41.51,41.51,0,0,0-.51,18.09L468,492.56l-12-15s1.74-16.07.5-18S430.34,448.53,425.61,442.49Z" transform="translate(-183.55 0)"/><path class="cls-11" d="M431.56,447s5.19-9.81,4.68-15-17.62-27.12-17.62-27.12-19.8-3.22-18.69-23.9c.93-13.79,19-12.53,23.93-5.2l9.25.27s-5.88-18.59-2.17-25.73,6.42-14.08,5.75-19.36c0,0,46.81-19.05,83.68-2.77,0,0,13.18,62.41,10.45,80.61s-25,34.19-38.05,35.53l4.16,7.86s-15.12,8.6-21,9.78-1.07,18.8-1.07,18.8l-6.67,11.47L455.63,478s2.87-15.91.95-18.52S431.56,447,431.56,447Z" transform="translate(-183.55 0)"/><path d="M403.19,373.46s-24.27-53.17,10.51-62.77c0,0,14.88-39.36,68.74-26.58,0,0,46,18.34,51.7,15.91l-4.48,7.35,3.78,3.47L528.79,315s2.57,21.53-3.78,30.88l-4.64-17.69s-37.5-17-83.68,2.77c0,0-.29,11.36-5.75,19.36-2.78,3.81,2.17,25.73,2.17,25.73l-9.25-.27S414.77,366.4,403.19,373.46Z" transform="translate(-183.55 0)"/><path d="M450.87,364.51a20,20,0,0,1,3.95-5,23.8,23.8,0,0,1,5.25-3.74c.48-.25,1-.48,1.48-.71s1-.43,1.56-.6a18.68,18.68,0,0,1,3.25-.84,16.79,16.79,0,0,1,6.77.19,2.76,2.76,0,0,1-.52,5.44h-.17a42.48,42.48,0,0,0-5.06.47c-.84.14-1.68.31-2.52.52s-1.69.45-2.53.74a45.83,45.83,0,0,0-5.1,2c-1.71.78-3.44,1.68-5.17,2.59l-.07,0a.83.83,0,0,1-1.12-1.14Z" transform="translate(-183.55 0)"/><path d="M518.3,363.16c-.68-.35-1.41-.75-2.11-1.08s-1.41-.65-2.12-.93a36.44,36.44,0,0,0-4.19-1.44c-.34-.11-.71-.17-1.06-.26l-.52-.14c-.17-.05-.35-.07-.53-.11-.35-.07-.7-.14-1-.23l-1.07-.17-.53-.11-.54-.07c-.36-.05-.72-.1-1.08-.17-.72-.11-1.45-.17-2.2-.35L501,358a2.76,2.76,0,0,1,.25-5.41c.45-.07.9-.11,1.36-.15a12.54,12.54,0,0,1,1.37,0l1.38.09a9,9,0,0,1,1.37.19c.46.08.91.17,1.36.27s.9.27,1.34.4a12.12,12.12,0,0,1,1.31.49c.42.19.85.35,1.26.57a18,18,0,0,1,4.51,3.21,13,13,0,0,1,3.11,4.55.83.83,0,0,1-.48,1.08.85.85,0,0,1-.68,0Z" transform="translate(-183.55 0)"/><path d="M495.86,402.06c-4.85,0-10-3.24-10.71-3.68a2,2,0,1,1,2.18-3.38c1.73,1.11,6.9,3.8,10,2.85a3.07,3.07,0,0,0,2-1.94,5.19,5.19,0,0,0,.19-4.22c-1.11-2.52-4.35-3.76-4.39-3.77a2,2,0,0,1,1.37-3.78c.2.07,4.89,1.81,6.7,5.94a9.08,9.08,0,0,1-.15,7.39,7.1,7.1,0,0,1-4.52,4.22A8.81,8.81,0,0,1,495.86,402.06Z" transform="translate(-183.55 0)"/><path d="M492,423.57l-.72,0c-7.64-.5-11.8-6.72-12-7a2,2,0,0,1,.58-2.78,2,2,0,0,1,2.79.57c0,.07,3.28,4.82,8.86,5.18,5.34.35,8.49-5.78,8.52-5.84a2,2,0,1,1,3.59,1.81C503.46,415.84,499.48,423.57,492,423.57Z" transform="translate(-183.55 0)"/><ellipse cx="282.12" cy="374.23" rx="4.23" ry="6.72"/><ellipse cx="325.74" cy="373.88" rx="3.91" ry="6.21"/><path d="M468,494.57a2,2,0,0,1-1.86-1.25c-.9-2.21-3-4.28-5.21-6.47a44.79,44.79,0,0,1-4.61-5,10.42,10.42,0,0,1-3.17,4.41,7.4,7.4,0,0,1-6.1,1.27l-.06,0c-21.08-5-33.58-32.15-34.11-33.3a2,2,0,0,1,.67-2.47c2.81-2,8.53-8.28,10.5-10.53a2,2,0,0,1,2.82-.21,94.58,94.58,0,0,0,29.36,15.93c4,1.27,3,7.06,2,12.66-.38,2.13-.9,5.05-.67,6a.19.19,0,0,0,0,.07c.88,3.16,3.57,5.82,6.18,8.4,2.4,2.38,4.89,4.84,6.11,7.81a2,2,0,0,1-1.11,2.62A1.84,1.84,0,0,1,468,494.57Zm-20.12-11a3.32,3.32,0,0,0,2.83-.54c1.95-1.48,2.72-5.23,2.88-6.79-.33-1.77.14-4.39.68-7.38.41-2.31,1.26-7.06.64-8.15a97.71,97.71,0,0,1-29.11-15.43,108,108,0,0,1-8.56,8.65C420.09,459.44,431.37,479.61,447.92,483.55Z" transform="translate(-183.55 0)"/><path d="M476.79,685.42a2,2,0,0,1-2-2c0-.3-.24-30.85-1.88-51.75s-.08-89,0-92.29c0-12.51-3.16-26.68-5.25-36.06-.41-1.84-.8-3.57-1.11-5.07-1.23-5.88,1.51-10.28,3.71-13.82,1.58-2.54,2.95-4.73,2.59-6.83,0-.2-.08-.48-.15-.82-1.09-5.63-1.91-11.84.33-15.14a4.86,4.86,0,0,1,3.11-2.1,62.16,62.16,0,0,0,25.32-12.49,2,2,0,1,1,2.69,3A65.33,65.33,0,0,1,477,463.48h-.07a.83.83,0,0,0-.57.41c-1.06,1.57-1,5.64.29,12.11.07.38.13.68.17.91.61,3.62-1.3,6.68-3.14,9.64-2.11,3.38-4.09,6.57-3.19,10.87.31,1.47.69,3.19,1.1,5,2.13,9.56,5.35,24,5.35,37v0c0,.71-1.65,71,0,91.9,1.65,21,1.89,51.74,1.89,52a2,2,0,0,1-2,2Z" transform="translate(-183.55 0)"/><path d="M489.86,490.53a13.14,13.14,0,0,1-2.55-.26c-8-1.62-13.84-10.38-14.09-10.75a2,2,0,0,1,3.37-2.21c.05.08,5.16,7.74,11.53,9a8.55,8.55,0,0,0,6.74-1.46c8.72-5.85,14.18-20.15,15.63-24.34a104.66,104.66,0,0,1-8.86-10.31,2,2,0,0,1,3.23-2.41,94.7,94.7,0,0,0,9.3,10.64,2,2,0,0,1,.57,2.08c-.25.81-6.23,20-17.62,27.68A12.81,12.81,0,0,1,489.86,490.53Z" transform="translate(-183.55 0)"/><path d="M301.69,683.67h-.07a2,2,0,0,1-1.94-2.08c.95-28.68,6.14-75.39,6.19-75.86,7-54.58,34.74-122.74,54-132.64,25-12.82,54.94-19.9,55.24-20a2,2,0,0,1,.92,3.92c-.3.07-29.77,7-54.32,19.63-16.52,8.47-44.65,72.81-51.88,129.54-.05.44-5.22,47-6.17,75.52A2,2,0,0,1,301.69,683.67Z" transform="translate(-183.55 0)"/><path d="M580.16,685.42a2,2,0,0,1-2-2V627.53a667.54,667.54,0,0,0-5.2-69.09c-4.82-35.65-12.58-59.32-22.44-68.45-23.61-21.85-39.6-22.6-39.76-22.6a2,2,0,1,1,.12-4c.71,0,17.67.8,42.37,23.66,22.24,20.58,27.68,96.81,28.94,140.41v56A2,2,0,0,1,580.16,685.42Z" transform="translate(-183.55 0)"/><path d="M549.13,685.42a2,2,0,0,1-2-1.77c0-.36-4.36-36.45-4-66.14a199.57,199.57,0,0,1,8.14-53.93,2,2,0,1,1,3.82,1.26,195.76,195.76,0,0,0-7.93,52.72c-.32,29.42,4,65.25,4,65.61a2,2,0,0,1-1.75,2.24Z" transform="translate(-183.55 0)"/><path d="M363.73,685.42h-.11a2,2,0,0,1-1.9-2.13c0-.34,2-34,8.26-59.57,6.15-25.14,8.6-76.85,8.62-77.37a2,2,0,0,1,4,.18c-.1,2.14-2.49,52.62-8.73,78.15-6.16,25.16-8.13,58.51-8.15,58.84A2,2,0,0,1,363.73,685.42Z" transform="translate(-183.55 0)"/><circle class="cls-13" cx="291.05" cy="495.81" r="2.05"/><circle class="cls-13" cx="297.36" cy="533.62" r="2.05"/><circle class="cls-13" cx="297.36" cy="577.34" r="2.05"/><circle class="cls-13" cx="296.8" cy="617.36" r="2.05"/><circle class="cls-13" cx="299.41" cy="657.39" r="2.05"/><path d="M516.18,581.4a2.1,2.1,0,0,1-1.15-.35l-17.78-12.26a2,2,0,0,1-.87-1.66V533.62a2,2,0,0,1,.73-1.55,2,2,0,0,1,1.65-.43c.18,0,18.28,3.26,34.81,0a2,2,0,0,1,1.66.42,2,2,0,0,1,.74,1.55v34.75a2,2,0,0,1-1,1.71l-17.78,11A2.05,2.05,0,0,1,516.18,581.4Zm-15.77-15.32L516.23,577l15.71-9.74V536c-13.1,2.12-26.26.7-31.53,0Z" transform="translate(-183.55 0)"/><path d="M515.79,547.67a66,66,0,0,1-18-2.24,2,2,0,1,1,1.19-3.85h0c.15,0,15.31,4.59,34.49,0a2,2,0,0,1,.95,3.91A79.53,79.53,0,0,1,515.79,547.67Z" transform="translate(-183.55 0)"/><path d="M482.61,447.3a62.54,62.54,0,0,1-24.18-5,2,2,0,0,1,1.56-3.71c15.68,6.58,32.08,6.25,46.17-.93,11.4-5.8,19.64-15.41,22.07-25.7,5.06-21.54-9.66-82.68-9.81-83.29a2,2,0,1,1,3.91-.95c.62,2.54,15.1,62.69,9.81,85.16-2.68,11.43-11.71,22-24.15,28.37A55.6,55.6,0,0,1,482.61,447.3Z" transform="translate(-183.55 0)"/><path d="M431.71,449a2,2,0,0,1-1-.28A2,2,0,0,1,430,446h0c0-.08,4.72-8,4.21-13.48-.27-2.86-4.24-8.05-8.09-13.06a100.08,100.08,0,0,1-8.77-12.71,24.52,24.52,0,0,1-8.5-2.92c-4.51-2.59-10.05-7.93-10.84-18.61-.62-8.38,3-14.26,10-16.12,6.73-1.8,15.16.79,17.34,5.32a2,2,0,1,1-3.62,1.75c-1.11-2.3-7.23-4.64-12.68-3.18-3.53.94-7.62,3.78-7,11.94,1.25,16.9,16.09,17.89,16.72,17.92a2,2,0,0,1,1.7,1.12c2,4.11,5.51,8.65,8.88,13,4.57,6,8.52,11.12,8.9,15.13.64,6.75-4.54,15.54-4.76,15.91A2,2,0,0,1,431.71,449Z" transform="translate(-183.55 0)"/><path d="M420,395a2,2,0,0,1-1.84-1.19c-.05-.12-3.58-7.81-9-9.49a2,2,0,1,1,1.19-3.84c7.19,2.22,11.31,11.3,11.48,11.69A2,2,0,0,1,420,395Z" transform="translate(-183.55 0)"/><path d="M411.72,391a1.92,1.92,0,0,1-.74-.15,2,2,0,0,1-1.13-2.61c1.28-3.2,5.15-3.75,5.58-3.81a2,2,0,0,1,.49,4c-.62.08-2,.51-2.33,1.3A2,2,0,0,1,411.72,391Z" transform="translate(-183.55 0)"/><path d="M429.52,378.49c-2,0-4.26-.17-5.85-.33a2,2,0,1,1,.38-4,58.61,58.61,0,0,0,6.77.28c-.15-.82-.4-1.92-.63-2.95-1.56-7-4.18-18.82.91-26.31,5.58-8.23,3.58-12.69,3.39-13.07a1.92,1.92,0,0,1-.2-1.62,2,2,0,0,1,1.15-1.22,133.62,133.62,0,0,1,27.75-7.77c15-2.6,37.16-3.87,58,4.8A2,2,0,0,1,519.6,330c-19.91-8.3-41.29-7.06-55.72-4.56a138.09,138.09,0,0,0-25.15,6.82c.57,2.75.57,8-4.3,15.16-4.11,6.05-1.64,17.2-.31,23.18,1,4.46,1.45,6.5-.54,7.38A11.86,11.86,0,0,1,429.52,378.49Z" transform="translate(-183.55 0)"/><path d="M403.37,375.89a2,2,0,0,1-1.85-1.22c-.61-1.41-14.71-34.82-4.75-53.61,3.16-6,8.38-9.8,15.51-11.43A54.86,54.86,0,0,1,440,283.51c16.14-6.71,35.52-5.48,57.59,3.67,31.81,13,36.51,10.83,36.7,10.73a2,2,0,0,1,2.72,2.72,27.34,27.34,0,0,1-4.93,6.72,5.94,5.94,0,0,0,1.93,1,2,2,0,0,1,1.41,3.24,21.09,21.09,0,0,1-4.18,4.05c.43,4.95,1.36,22.41-5.15,32.28a2,2,0,1,1-3.36-2.22c6.69-10.13,4.41-30.71,4.39-30.92a2,2,0,0,1,1.15-2.06,8.8,8.8,0,0,0,2.16-1.62,23.26,23.26,0,0,1-3.18-2.38,2,2,0,0,1-.62-2,2,2,0,0,1,1.43-1.48c.87-.25,2.14-1.58,3.34-3.23-6.57-.49-18.4-4.22-35.34-11.13-25.47-10.55-46.73-10.2-63.22,1a51.42,51.42,0,0,0-17.3,20.21,2,2,0,0,1-1.48,1.21c-6.5,1.26-11,4.4-13.75,9.59-9.07,17.1,4.75,49.81,4.89,50.14a2,2,0,0,1-1.85,2.8Z" transform="translate(-183.55 0)"/><path d="M497.16,454.71a2,2,0,0,1-1.77-1.06l-4.49-8.38a2,2,0,0,1,3.55-1.9l4.48,8.38a2,2,0,0,1-1.77,3Z" transform="translate(-183.55 0)"/><path class="cls-11" d="M752.55,440.18s6.64-12.74,5.23-19.74c0,0-12.91-10.14-16.28-21.3,0,0-16.71,5.67-18.79-13s12.79-20.41,18.69-15.51l6.07-20.87s10.65-11.38,12.34-21.49c0,0,38.61-27.07,86.38-6.68,0,0,14,65.21-1.7,95.89,0,0-10.9,17.06-31.47,17.66l4.06,8.83s-22,8.87-22.88,9.94-2,14.92-.11,17.32l-6.86,13.38-13.3-15.22,1.07-18Z" transform="translate(-183.55 0)"/><path d="M728,369.6S708,305,740.8,296c0,0,13.6-22.46,35.41-24.47l.82,2.27s18.64-4.36,23.64-1.5l12.66,3.21s24.73,1.61,29.82,11.23l-1.41,1.7s12.68,11.16,12,24.69l-2.56.67s.92,11-2.93,15.07l-2.07-7.33s-47.09-20.48-86.38,6.68c0,0-3.22,12.51-9.34,17.37s-7.76,25.63-7.76,25.63S736.84,364.66,728,369.6Z" transform="translate(-183.55 0)"/><path class="cls-12" d="M743.41,434l-10.66,10.77-.41,2.08s-48.75,15-58.26,22.38S636.25,525.29,627.42,577A835.21,835.21,0,0,0,617,677.93H901s.39-143.53-16.89-177-30-34.58-53.84-43.57l1.45-6.11-10.24-11.06s-17.19,12.76-27.31,13.72a42.24,42.24,0,0,0-.51,18.46l-7,12.71-12.2-15.34s1.77-16.39.51-18.36S748.23,440.16,743.41,434Z" transform="translate(-183.55 0)"/><path d="M786.69,487a1.88,1.88,0,0,1-1.75-1.17c-.93-2.29-3.08-4.41-5.35-6.66a44,44,0,0,1-4.86-5.36,10.65,10.65,0,0,1-3.29,4.7,7.36,7.36,0,0,1-6.08,1.27l-.06,0c-21.43-5.07-34.15-32.7-34.68-33.87a1.89,1.89,0,0,1,.63-2.32c3.47-2.47,10.66-10.69,10.74-10.77a1.89,1.89,0,0,1,2.65-.19,96.41,96.41,0,0,0,30,16.27c4,1.26,2.94,7.09,1.93,12.73-.41,2.32-.93,5.19-.68,6.16l0,.08c.91,3.26,3.67,6,6.35,8.63,2.44,2.42,5,4.92,6.19,7.92a1.89,1.89,0,0,1-1,2.46A1.76,1.76,0,0,1,786.69,487ZM766.14,476a3.51,3.51,0,0,0,3-.58c2-1.55,2.84-5.46,3-7.06-.34-1.78.13-4.44.68-7.5.44-2.44,1.34-7.48.6-8.47a99.78,99.78,0,0,1-29.82-15.82,108.41,108.41,0,0,1-8.91,9C737.49,451.1,749.07,472,766.14,476Z" transform="translate(-183.55 0)"/><path d="M795.61,681.6a1.89,1.89,0,0,1-1.89-1.87c0-.32-.24-31.48-1.92-52.8s0-92.45,0-94.1c0-12.78-3.23-27.25-5.37-36.82-.41-1.87-.81-3.64-1.13-5.17-1.24-5.93,1.54-10.39,3.77-14,1.63-2.62,3-4.88,2.67-7.09,0-.2-.09-.49-.16-.84-1.11-5.71-1.94-12,.31-15.31a4.78,4.78,0,0,1,3.07-2.08,63.71,63.71,0,0,0,25.9-12.78,1.89,1.89,0,0,1,2.53,2.82,66.66,66.66,0,0,1-27.63,13.66h-.06a1,1,0,0,0-.68.49c-1.11,1.63-1,5.83.27,12.47.07.38.13.7.17.93.61,3.62-1.32,6.72-3.18,9.71-2.07,3.33-4.21,6.76-3.28,11.21.32,1.5.71,3.26,1.12,5.12,2.17,9.74,5.46,24.46,5.46,37.66v0c0,.72-1.68,72.45,0,93.74,1.69,21.46,1.93,52.76,1.93,53.07a1.89,1.89,0,0,1-1.88,1.9Z" transform="translate(-183.55 0)"/><path d="M808.94,482.83a13.26,13.26,0,0,1-2.57-.26c-8.11-1.64-14-10.51-14.26-10.89a1.89,1.89,0,1,1,3.16-2.07c.05.07,5.3,7.94,11.86,9.26a8.89,8.89,0,0,0,7-1.52c9-6,14.6-20.84,16-25a103.83,103.83,0,0,1-9.09-10.56,1.89,1.89,0,1,1,3-2.27,97,97,0,0,0,9.51,10.88,1.86,1.86,0,0,1,.54,1.95c-.25.83-6.34,20.38-17.91,28.15A12.92,12.92,0,0,1,808.94,482.83Z" transform="translate(-183.55 0)"/><path d="M617,679.82H617a1.89,1.89,0,0,1-1.82-2c1-29.25,6.26-76.88,6.31-77.36,7.1-55.62,35.38-125.08,55-135.15,25.49-13.07,56-20.28,56.3-20.35a1.89,1.89,0,0,1,.86,3.68c-.3.07-30.37,7.18-55.43,20-16.89,8.66-45.62,74.34-53,132.24-.05.45-5.32,47.94-6.29,77A1.88,1.88,0,0,1,617,679.82Z" transform="translate(-183.55 0)"/><path d="M901,681.6a1.89,1.89,0,0,1-1.89-1.89v-57a680.63,680.63,0,0,0-5.31-70.48c-4.92-36.4-12.85-60.58-22.93-69.91-24.12-22.33-40.5-23.09-40.66-23.09a1.89,1.89,0,0,1,.12-3.78c.72,0,18,.82,43.1,24.09,22.63,20.95,28.17,98.64,29.46,143.09v57.07A1.88,1.88,0,0,1,901,681.6Z" transform="translate(-183.55 0)"/><path d="M869.39,681.6a1.88,1.88,0,0,1-1.87-1.66c0-.37-4.44-37.16-4.11-67.43a203.26,203.26,0,0,1,8.29-55,1.88,1.88,0,0,1,2.38-1.2,1.9,1.9,0,0,1,1.21,2.39,199.55,199.55,0,0,0-8.11,53.81c-.32,30,4.05,66.57,4.09,66.94a1.89,1.89,0,0,1-1.65,2.1Z" transform="translate(-183.55 0)"/><path d="M771.76,353.6a16.52,16.52,0,0,1,1.83-2.64,23.75,23.75,0,0,1,2.19-2.3,24.17,24.17,0,0,1,5.29-3.71c.48-.26,1-.48,1.48-.71s1-.42,1.56-.6a19.85,19.85,0,0,1,3.25-.83,16.92,16.92,0,0,1,6.76.17,2.59,2.59,0,0,1-.51,5.11h-.14a36.77,36.77,0,0,0-5.15.45c-.43.06-.85.16-1.28.23s-.86.18-1.28.3c-.86.22-1.72.47-2.57.76A46.53,46.53,0,0,0,778,352c-1.71.81-3.44,1.74-5.16,2.69l0,0a.79.79,0,0,1-1.07-.31A.8.8,0,0,1,771.76,353.6Z" transform="translate(-183.55 0)"/><path d="M839.69,352.17c-.68-.37-1.4-.79-2.1-1.13s-1.41-.69-2.12-1a33.53,33.53,0,0,0-4.24-1.5c-.35-.12-.71-.19-1.07-.28l-.53-.14c-.17-.05-.36-.07-.54-.11l-1.07-.24c-.36-.06-.72-.11-1.08-.18l-.54-.11-.55-.07c-.36-.05-.73-.1-1.09-.17-.74-.11-1.49-.16-2.24-.34l-.29-.06a2.59,2.59,0,0,1,.22-5.09c.45-.06.91-.1,1.36-.13a10.6,10.6,0,0,1,1.38,0l1.37.09a9.34,9.34,0,0,1,1.38.19c.45.08.91.17,1.36.27l1.33.4.66.22.65.26c.42.19.86.35,1.27.57a18.21,18.21,0,0,1,4.52,3.17,13.3,13.3,0,0,1,3.18,4.49.78.78,0,0,1-.43,1,.75.75,0,0,1-.67,0Z" transform="translate(-183.55 0)"/><path d="M817,391.25c-4.83,0-10-3.25-10.71-3.69a1.89,1.89,0,0,1,2-3.17c1.76,1.13,7,3.85,10.15,2.88a3.24,3.24,0,0,0,2.09-2,5.37,5.37,0,0,0,.18-4.35c-1.14-2.6-4.46-3.86-4.5-3.87a1.89,1.89,0,0,1,1.29-3.56c.2.07,4.87,1.8,6.67,5.91a9,9,0,0,1-.16,7.34,7,7,0,0,1-4.46,4.17A8.7,8.7,0,0,1,817,391.25Z" transform="translate(-183.55 0)"/><path d="M813.13,412.91l-.71,0c-7.63-.49-11.78-6.71-11.95-7a1.89,1.89,0,0,1,3.16-2.08c0,.08,3.34,4.91,9,5.28,5.42.35,8.68-5.9,8.71-6a1.89,1.89,0,0,1,3.38,1.71C824.58,405.2,820.6,412.91,813.13,412.91Z" transform="translate(-183.55 0)"/><ellipse cx="603.08" cy="363.35" rx="4.26" ry="6.77"/><ellipse cx="647.02" cy="363" rx="3.94" ry="6.26"/><path d="M753.2,441.46a1.9,1.9,0,0,1-1.65-2.81c.07-.13,5.84-10.73,4-18.42a1.89,1.89,0,0,1,3.67-.89c2.23,9.14-4.07,20.66-4.34,21.14A1.87,1.87,0,0,1,753.2,441.46Z" transform="translate(-183.55 0)"/><path d="M762.82,424.52a1.9,1.9,0,0,1-.58-.09c-.53-.18-12.74-4.33-22-23.48-2.61.62-7.79,1.31-12.27-1.42-4-2.42-6.38-6.85-7.16-13.17-1.31-10.61,2.59-15.63,6.09-18,4.65-3.11,10.18-2.67,12.45-1.39a1.89,1.89,0,0,1-1.85,3.3c-1-.58-5.07-1.07-8.5,1.23-3.75,2.52-5.29,7.49-4.44,14.37.64,5.12,2.44,8.62,5.37,10.41,4.61,2.81,10.62.64,10.68.62a1.9,1.9,0,0,1,2.38,1c8.56,18.77,20.28,22.88,20.4,22.92a1.89,1.89,0,0,1-.59,3.69Z" transform="translate(-183.55 0)"/><path d="M744.79,385.94a1.88,1.88,0,0,1-1.59-.86c-.21-.32-5.14-7.7-11.33-4a1.89,1.89,0,1,1-1.93-3.24c7.46-4.46,14,1.44,16.43,5.18a1.89,1.89,0,0,1-.56,2.62A1.92,1.92,0,0,1,744.79,385.94Z" transform="translate(-183.55 0)"/><path d="M728.11,371.76a1.89,1.89,0,0,1-1.8-1.32c-.55-1.73-13.35-42.61-1.39-64.21a23.75,23.75,0,0,1,14.68-11.82c2.45-3.73,15.28-21.78,35.24-24.1.75-.09,3-.35,3.91,1.25,5.27-1,16.67-2.86,22-1.23a3,3,0,0,1,2.18,1.77c3.49-.21,8.68-.22,11,1.22l.19.13a3.72,3.72,0,0,1,.71.74c5.36.23,20.6,1.67,29.59,10.47l0,.06c1.34,1.42,1.72,2.74,1.12,3.92a2.61,2.61,0,0,1-.3.46c3.1,3.27,8.07,10.2,10.3,22.68a.13.13,0,0,0,0,.06c.12.82.48,3.35-1.4,4.26a2.23,2.23,0,0,1-.88.24c.19,4.64-.17,12.63-4.49,15.58a1.89,1.89,0,1,1-2.13-3.13c3-2.06,3.21-10.48,2.61-15.3a1.9,1.9,0,0,1,2.37-2.06c-3.14-15.95-11.08-21.49-11.16-21.55a1.89,1.89,0,0,1,.37-3.33c-9.93-8.69-27.75-8.62-27.94-8.62h0a1.89,1.89,0,0,1-1.87-1.62s0-.08,0-.12c-2.21-.55-7-.5-10.84-.07a1.89,1.89,0,0,1-2-1.32,1.84,1.84,0,0,1,0-1.16c-5.61-.78-16.95,1.22-21.22,2.15a1.89,1.89,0,0,1-2-1,1.6,1.6,0,0,1-.22-.69c-19.61,2.67-32.13,22.68-32.25,22.88a1.89,1.89,0,0,1-1.14.84,20.2,20.2,0,0,0-13,10.19c-11.17,20.19,1.56,60.82,1.69,61.23a1.91,1.91,0,0,1-1.23,2.38A1.88,1.88,0,0,1,728.11,371.76Zm84.26-97.54Z" transform="translate(-183.55 0)"/><path d="M808.14,437c-1.52,0-3.07,0-4.64-.16a80.83,80.83,0,0,1-22.25-4.72,1.89,1.89,0,0,1,1.39-3.51,78.72,78.72,0,0,0,21.21,4.47c15.5,1,27.62-3.19,36-12.5,19.15-21.22,6.44-88.7,4.65-97.65-25.15-10-46.38-7.74-59.83-4a78.91,78.91,0,0,0-23.22,10.45c-.66,2.66-3.33,11.83-9.75,17.65-5.3,4.81-7,19.73-7.21,25.07a1.89,1.89,0,0,1-3.57.78,10,10,0,0,0-2.89-2.26,1.89,1.89,0,1,1,1.85-3.3c.24.13.65.37,1.13.69.63-6.38,2.55-18.7,8.15-23.78,6.52-5.91,8.74-16.26,8.76-16.36a2,2,0,0,1,.7-1.12c.38-.28,9.42-7.11,24.87-11.42,14.22-4,36.75-6.4,63.38,4.5a1.88,1.88,0,0,1,1.13,1.35,326.71,326.71,0,0,1,5.58,41.57c1.94,29.88-1.74,50.2-10.93,60.38C834.44,432.26,822.57,437,808.14,437Z" transform="translate(-183.55 0)"/><path d="M817.64,445.47a1.92,1.92,0,0,1-1.15-.39,16.66,16.66,0,0,1-5.8-9.81,1.89,1.89,0,1,1,3.73-.59,13,13,0,0,0,4.38,7.4,1.89,1.89,0,0,1,.34,2.65A1.86,1.86,0,0,1,817.64,445.47Z" transform="translate(-183.55 0)"/><path d="M680.31,681.6h-.11a1.89,1.89,0,0,1-1.78-2c0-.34,2.05-34.71,8.41-60.72,6.28-25.66,8.78-78.42,8.8-79a1.89,1.89,0,0,1,3.78.18c0,.53-2.55,53.65-8.91,79.67-6.28,25.68-8.29,59.7-8.31,60A1.88,1.88,0,0,1,680.31,681.6Z" transform="translate(-183.55 0)"/><circle class="cls-13" cx="609.83" cy="488.38" r="2.09"/><circle class="cls-13" cx="616.26" cy="526.95" r="2.09"/><circle class="cls-13" cx="616.26" cy="571.54" r="2.09"/><circle class="cls-13" cx="615.7" cy="612.36" r="2.09"/><circle class="cls-13" cx="618.35" cy="653.18" r="2.09"/><path d="M835.78,575.52a1.89,1.89,0,0,1-1.07-.34l-18.14-12.5a1.87,1.87,0,0,1-.81-1.55V527a1.9,1.9,0,0,1,.67-1.46,1.93,1.93,0,0,1,1.55-.4c.19,0,18.68,3.33,35.57,0A1.9,1.9,0,0,1,855.8,527v35.44a1.92,1.92,0,0,1-.89,1.61l-18.14,11.23A1.87,1.87,0,0,1,835.78,575.52Zm-16.25-15.39,16.3,11.24,16.19-10V529.21c-13.56,2.23-27.23.71-32.49-.05Z" transform="translate(-183.55 0)"/><path d="M835.38,541.12a66.46,66.46,0,0,1-18.29-2.29,1.89,1.89,0,1,1,1.11-3.61c.2.06,15.68,4.69,35.27,0a1.89,1.89,0,1,1,.88,3.68A81.41,81.41,0,0,1,835.38,541.12Z" transform="translate(-183.55 0)"/><path class="cls-12" d="M610.4,384.65s-34.64-3-42.88,8-6,12.13-9,13.88-23.92.16-31.06,16,.77,25.59,6.18,28.55c0,0-35.64,33.23-47.09,75.41,0,0-4.13,40.73-4.76,45.89s-14.57,64.4-14.52,75.38,1.29,21.46,1.29,21.46H774.89s-4-53.75-10.09-71.78c0,0-4.74-31.81-4.38-54.12s-2.23-84.11-49.12-117.38c0,0-4.38-22.18-20.35-30S610.4,384.65,610.4,384.65Z" transform="translate(-183.55 0)"/><path class="cls-11" d="M612.47,409l9.67-14.32s-18.58-16.23-19.27-23.57c0,0-7,4.3-8.59,2.84s-2.3-10-3.69-12.67-12.35-5.62-9.2-19.56,17.8-4.6,22.17.21l.76.73s3.43-11,3.09-17.2,10.21-19,8.29-34.66c0,0,10.82-9.43,23-9.34s24.53,7.34,35.61,6.16,15.95-6,20.52-5.59,9.37,2.68,9.48,3.27,9,62.07,9.19,76-15,33.11-19.66,37.4A107.46,107.46,0,0,1,680.35,409c-1.06.51-2.6,1.18-2.6,1.18l4.09,5.11S662.46,444.51,651.37,445,612.47,409,612.47,409Z" transform="translate(-183.55 0)"/><path d="M647.74,366.18s37.65-2.56,39.8,0-1.55,19.63-18,20S648,375.6,647.74,366.18Z" transform="translate(-183.55 0)"/><path class="cls-5" d="M653.32,365c0,.6-.52,5.4,1.49,6.8s23.22,2.45,29.42-2.18c1.39-.63.58-4.06.58-4.06Z" transform="translate(-183.55 0)"/><path d="M586.05,335.34s-5.93-22.88,0-36l-5.61-.17s12.3-39,61-55c44.35-13.43,56.21,13.3,56.21,13.3s9-2.9,14.83,12.21c2.73,8.14-5.68,28.23-5.68,28.23l-2.45-12.61s-5.73-4.35-9.83-4-14,6.2-20.17,6.33-28.54-7.72-36.05-6.31-23.52,8.3-23.52,8.3,2.71,17.71-8,33.06l-2.5,20S593.25,331.4,586.05,335.34Z" transform="translate(-183.55 0)"/><path d="M533.16,452.54a1.84,1.84,0,0,1-.41-.05c-4.13-.85-7.42-4.46-9-9.89-2.35-7.85-1.19-20,6.9-28.07,7.82-7.81,15.21-8.22,20.61-8.51,2.67-.14,4.78-.26,6.15-1.18,1.66-1.12,2.56-3,3.7-5.5,1.83-3.91,4.11-8.79,10.7-12.7,10.68-6.34,37.67-4.1,38.82-4a2,2,0,1,1-.35,4c-.27,0-26.85-2.23-36.42,3.45-5.52,3.28-7.42,7.35-9.1,10.95-1.29,2.77-2.52,5.39-5.1,7.13-2.29,1.54-5.15,1.7-8.18,1.86-5,.27-11.25.61-18,7.34s-8,17.12-5.89,24.07c1.18,4,3.37,6.56,6,7.1a2,2,0,0,1-.4,4Z" transform="translate(-183.55 0)"/><path d="M634.49,456.53l-.36,0c-19-3.44-49.72-35.95-50-36.27-2-2.2-5.55-1-5.59-1a2,2,0,1,1-1.36-3.78c.25-.09,6.16-2.15,10,2.07s31.85,32.13,47.72,35a2,2,0,0,1-.35,4Z" transform="translate(-183.55 0)"/><path d="M468.52,671.19a2,2,0,0,1-2-1.59c-4.4-20.06,3-50.85,8.44-73.33,1.37-5.69,2.55-10.6,3.38-14.64,1.43-7.08,1.88-14.91,2.35-23.2.82-14.56,1.76-31.06,8.57-47.11,14.76-34.75,38.41-58.93,55.65-73.09,18.69-15.36,33.68-22.4,34.31-22.7a2,2,0,0,1,1.69,3.65c-.15.07-15.24,7.18-33.54,22.24-16.86,13.87-40,37.53-54.4,71.48-6.54,15.4-7.42,30.83-8.26,45.76-.48,8.44-.93,16.41-2.43,23.77-.84,4.11-2,9.06-3.41,14.79-5.32,22.09-12.62,52.36-8.42,71.52a2,2,0,0,1-1.53,2.4A2.2,2.2,0,0,1,468.52,671.19Z" transform="translate(-183.55 0)"/><path d="M537.43,671.19l-.22,0a2,2,0,0,1-1.78-2.22c.11-1,10.67-96.59,2.09-128.28a2,2,0,1,1,3.88-1c8.78,32.42-1.52,125.82-2,129.78A2,2,0,0,1,537.43,671.19Z" transform="translate(-183.55 0)"/><path d="M569.86,671.19a1.84,1.84,0,0,1-.41-.05,2,2,0,0,1-1.56-2.38c1.25-6,5.48-25.63,7.44-28.31a25.1,25.1,0,0,1,2-2.15c5.88-6,23.77-24.35,22.78-46a2,2,0,0,1,1.91-2.1l91.53-4.9a2,2,0,0,1,1.93,1.15c.13.27,12.86,26.83,24.78,33,1.35.7,3,2.43,4.8,10,1,4.17,2,9.74,2.92,16.56,1.57,11.55,2.47,22.9,2.48,23a2,2,0,0,1-4,.31c0-.11-.88-11.06-2.4-22.34-2.89-21.44-5.4-23.81-5.67-24-11.68-6.07-23.2-28.13-25.94-33.64l-88.26,4.73c0,22.53-18,40.89-24,47-.72.74-1.46,1.5-1.63,1.73-1.05,1.61-4.25,14.87-6.74,26.75A2,2,0,0,1,569.86,671.19Z" transform="translate(-183.55 0)"/><path d="M750.23,671.19h-.12a2,2,0,0,1-1.89-2.12c1.21-20.92-5.12-51.14-10.2-75.42-3.41-16.31-6.36-30.41-6.36-38.27-.33-12.15,1.94-75.11,2-77.79a2,2,0,0,1,4,.15c0,.65-2.36,65.6-2,77.56v.06c0,7.43,2.9,21.35,6.27,37.47,5.13,24.51,11.52,55,10.28,76.47A2,2,0,0,1,750.23,671.19Z" transform="translate(-183.55 0)"/><path d="M774.88,671.19a2,2,0,0,1-2-2c0-.39-1.1-39.19-9-67.49-3.85-13.72-4.44-30.8-5.07-48.88-.73-21.09-1.49-42.89-7.1-63.87-10.33-38.64-41.23-61.24-41.54-61.46a2.05,2.05,0,0,1-.8-1.26c0-.2-4.19-20.91-16.68-25a2,2,0,0,1,1.26-3.82c13.38,4.43,18.28,23.2,19.21,27.33A118.76,118.76,0,0,1,730,441c8.58,9.89,20,26.08,25.57,47,5.73,21.42,6.53,44.45,7.23,64.77.62,17.83,1.2,34.68,4.92,47.93,8.08,28.79,9.19,68.08,9.2,68.47a2,2,0,0,1-2,2.07Z" transform="translate(-183.55 0)"/><path d="M670.77,457.55a2,2,0,0,1-.54-4c24.33-6.74,32.86-23.12,32.94-23.28a2,2,0,0,1,3.6,1.8c-.37.74-9.32,18.11-35.47,25.36A2,2,0,0,1,670.77,457.55Z" transform="translate(-183.55 0)"/><path d="M653.63,671.19a2,2,0,0,1-2-2V455.53a2,2,0,0,1,4,0V669.17A2,2,0,0,1,653.63,671.19Z" transform="translate(-183.55 0)"/><path d="M651,447c-2.49,0-9.17-1.14-27.46-21-9.44-10.25-17.54-20.7-17.62-20.81a2,2,0,0,1,3.18-2.46C621.15,418.37,643.18,443,651.15,443h.15c8.86-.33,25.87-22.64,31.67-31.2a2,2,0,1,1,3.33,2.26c-2.25,3.32-22.37,32.49-34.85,33Z" transform="translate(-183.55 0)"/><path d="M613.34,411a2,2,0,0,1-1.62-3.2,111.39,111.39,0,0,0,7.92-12.48A67.27,67.27,0,0,1,602.05,374c-2.7,1.58-7.23,3.5-10.06.79-2.29-2.19-2.54-6.06-2.75-9.17a16.27,16.27,0,0,0-.42-3.42,15.23,15.23,0,0,0-1.62-1.15c-3.76-2.48-11.58-7.62-7.73-20,1.87-6,5.47-7.86,8.15-8.36,6.77-1.23,14.38,4.73,15.26,5.85a2,2,0,0,1-3.13,2.54c-1-1-7.23-5.41-11.68-4.37-2.2.52-3.76,2.33-4.76,5.53-2.94,9.46,2.28,12.9,6.1,15.41,1.43.95,2.46,1.63,3,2.65a14.08,14.08,0,0,1,.87,5c.16,2.41.35,5.41,1.51,6.52.88.84,4.43-.62,6.9-2.44a2,2,0,0,1,3,.79c6.48,14.13,18.47,22.67,18.59,22.76a2,2,0,0,1,.71,2.39c-2.1,5.24-8.75,14.37-9,14.76A2,2,0,0,1,613.34,411Zm-13.63-69.91,0,0Z" transform="translate(-183.55 0)"/><path d="M603.39,357.19a2,2,0,0,1-2-1.59c-.06-.25-1.25-4.73-9.17-7a2,2,0,1,1,1.1-3.88c10.49,3,12,9.75,12,10a2,2,0,0,1-1.58,2.37A1.72,1.72,0,0,1,603.39,357.19Z" transform="translate(-183.55 0)"/><path d="M706.57,300.4a2.13,2.13,0,0,1-.88-.2,2,2,0,0,1-.93-2.69c.09-.19,9.29-19.48,4.19-30.16-4.75-10-10.57-8.05-10.62-8a2,2,0,0,1-2.57-1.24,2,2,0,0,1,1.24-2.56c.37-.14,9.29-3.08,15.58,10.1,5.94,12.42-3.78,32.78-4.2,33.64A2,2,0,0,1,706.57,300.4Z" transform="translate(-183.55 0)"/><path d="M586.05,337.36a2,2,0,0,1-1.86-1.24c-5.47-13.21-3-27.38-1.24-34.25a4.18,4.18,0,0,1-3.23-.53c-.92-.65-1.88-2-1.24-4.92l0-.11c1.81-6.34,8.81-18.14,22.55-30.54,10.27-9.26,27.27-21.35,49.91-26.39,21.51-4.79,34.59,2.21,41.77,8.94a40.37,40.37,0,0,1,10.52,16,2,2,0,1,1-3.85,1.18,36.88,36.88,0,0,0-9.55-14.36c-9.41-8.72-22.2-11.36-38-7.83-21.78,4.85-38.17,16.52-48.08,25.45-12.24,11-19.54,22.3-21.36,28.6a3.75,3.75,0,0,0-.09.54,10.44,10.44,0,0,0,2.72-1.22,2,2,0,0,1,3,2.41c-.07.18-6.89,19.06-.08,35.48a2,2,0,0,1-1.09,2.63A1.9,1.9,0,0,1,586.05,337.36Z" transform="translate(-183.55 0)"/><path d="M668.6,414c-18.53,0-24.68-8.07-24.93-8.42a2,2,0,1,1,3.24-2.38s5.4,6.77,21.69,6.77c11.87,0,22.9-11.11,28.41-17.73,8.41-10.11,13.68-21,14.38-26.09,1.42-10.43-7.34-71.42-8.51-79.49-6.71-4.38-10.78-2.65-16.34-.27a34.69,34.69,0,0,1-10.68,3.16c-5.77.55-12.94-1.34-19.87-3.16-7.14-1.88-14.53-3.82-19.79-2.93-8.28,1.41-16.38,5.58-19.43,7.27,2.6,11.64-2,20.4-5.4,26.87-1.78,3.4-3.32,6.33-3,8.21,1.36,7.43-2,17.05-2.18,17.45a2,2,0,0,1-3.29.78l-2.56-2.44a2,2,0,1,1,2.78-2.91l.19.17c.83-3.18,1.84-8.27,1.1-12.32-.6-3.25,1.24-6.76,3.37-10.81,3.41-6.5,7.65-14.59,4.7-25.46a2,2,0,0,1,.89-2.25c.44-.27,10.93-6.62,22.13-8.53,6.12-1,13.93,1,21.48,3,6.59,1.73,13.41,3.52,18.47,3.05A31,31,0,0,0,685,282.7c5.89-2.51,12-5.1,20.93,1.16a2,2,0,0,1,.84,1.36c.42,2.85,10.24,69.82,8.65,81.49-.92,6.77-7.35,18.59-15.28,28.12C694.14,402,682.12,414,668.6,414Z" transform="translate(-183.55 0)"/><path d="M653.32,340.43a2,2,0,0,1-1.94-1.49A6.91,6.91,0,0,0,645,334c-5.36-.19-8,4.41-8.08,4.45a2,2,0,1,1-3.49-2c.16-.28,4-6.75,11.71-6.49a10.93,10.93,0,0,1,10.14,7.9,2,2,0,0,1-1.43,2.46A1.86,1.86,0,0,1,653.32,340.43Z" transform="translate(-183.55 0)"/><path d="M683.59,340.43h-.08a2,2,0,0,1-1.93-2.09,8.68,8.68,0,0,1,3.5-6.4c2.75-1.91,6.64-2.06,11.59-.44a2,2,0,0,1-1.25,3.82c-3.63-1.18-6.41-1.21-8-.07a4.66,4.66,0,0,0-1.78,3.24A2,2,0,0,1,683.59,340.43Z" transform="translate(-183.55 0)"/><path d="M630.41,324.23a20.27,20.27,0,0,1,1.86-2.5,25.25,25.25,0,0,1,2.19-2.2,24.32,24.32,0,0,1,8.16-4.84,23.83,23.83,0,0,1,3.14-.85,21.3,21.3,0,0,1,6.52-.26,2.5,2.5,0,0,1-.49,5h0a29,29,0,0,0-5.27,0,24.82,24.82,0,0,0-5.25,1.11,30,30,0,0,0-5.1,2.21,35.35,35.35,0,0,0-4.77,3.14l0,0a.62.62,0,0,1-.92-.81Z" transform="translate(-183.55 0)"/><path d="M699.77,322.42c-1.56-.74-3.09-1.44-4.6-2.05s-3-1.17-4.52-1.63l-.56-.18-.56-.16c-.38-.1-.75-.22-1.12-.31-.76-.18-1.49-.39-2.25-.54-1.49-.36-3-.56-4.52-.91l-.2-.05a2.59,2.59,0,0,1,.48-5.11,18,18,0,0,1,5.57.61,20.17,20.17,0,0,1,2.66.87c.44.17.85.39,1.28.58l.63.3.6.34a21.36,21.36,0,0,1,4.45,3.25,16.48,16.48,0,0,1,3.35,4.33.49.49,0,0,1-.21.67.49.49,0,0,1-.44,0Z" transform="translate(-183.55 0)"/><path d="M672.54,361c-4.87,0-9.58-3.79-10.15-4.27a2,2,0,0,1,2.58-3.09c1.31,1.09,5.38,3.8,8.37,3.27a4,4,0,0,0,2.81-2.16,4.5,4.5,0,0,0,.73-3.58c-.62-2.06-3.38-3.43-4.56-4-.62-.31-2.27-1.13-1.7-2.85a2,2,0,0,1,2.55-1.28,2,2,0,0,1,.67.39l.27.13c1.65.82,5.51,2.73,6.63,6.47a8.38,8.38,0,0,1-1.12,6.76,8,8,0,0,1-5.59,4.09A8.33,8.33,0,0,1,672.54,361Zm1.9-15.42Zm.09-.4a2.59,2.59,0,0,1-.09.4A3.24,3.24,0,0,0,674.53,345.17Z" transform="translate(-183.55 0)"/><path d="M667.72,388.27c-6.75,0-12.14-2-16-5.89-6.28-6.31-6.23-15.3-6.23-15.68a2.06,2.06,0,0,1,.58-1.39c.64-.64,1.7-1.72,14.42-2.19,6.75-.25,14.72-.23,20.3.07,6.77.35,7.7.91,8.36,1.73,1.43,1.8,1.32,7.42-1,12.25-2.38,5-7.81,11-20.14,11.1Zm-18.15-20.2c.23,2.42,1.19,7.68,5,11.49,3.15,3.16,7.66,4.74,13.4,4.68,7.26-.06,12.48-2.41,15.51-7a15.17,15.17,0,0,0,2.48-9.55c-2.17-.43-9.23-.81-18.38-.73S652,367.56,649.57,368.07Zm36.27-.84Z" transform="translate(-183.55 0)"/><path class="cls-12" d="M745.5,614.5s-28.51-3.77-41,5.31-4.9,13.6-11.06,17-24,.75-31,13.94-5.7,26.6,4.19,33c0,0-39.9,36.8-49.49,83.91l-4.58,48.42s-18,67-12.7,92.68H916.65s-3.18-57.33-11.14-77.63,5.94-77.79-18.3-129.05c-15.88-33.47-35.62-44.32-35.62-44.32s-.56-19-16.13-24.86S745.5,614.5,745.5,614.5Z" transform="translate(-183.55 0)"/><path d="M725.6,565.91s-21.48-63.09,22.29-69.28c0,0,16.35-43,56.86-36.82s63.43,39.31,58.25,78c0,0-5.6,6.49-11.41,5.4V527.8s-36.82-24.27-92.11,4.1c0,0-.58,29-16.41,42.74C743.06,574.64,733.75,562.47,725.6,565.91Z" transform="translate(-183.55 0)"/><path class="cls-11" d="M746,636.76s9-9.74,9.68-14c0,0-12.22-10.22-19.61-22.45s-.51-.3-.51-.3-8.15-.25-9.16-3.19-1.44-6.41-2.8-9.85-6.56-19.57,2.75-21.75,16.29,8.88,16.29,8.88,16.3-9.78,17.46-41.67c0,0,47.79-29.1,91.53-4.59,0,0-.81,47.13,0,59.36s-2,44.78-27.69,53.07l-1.57.61v3.5s-19.68,30.87-33.06,32S746,636.76,746,636.76Z" transform="translate(-183.55 0)"/><path d="M666.75,684.7a2,2,0,0,1-.41,0c-4.23-.88-7.62-4.59-9.3-10.18-2.42-8.09-1.22-20.6,7.12-29,8.07-8.06,15.69-8.47,21.26-8.78,2.77-.15,5-.27,6.4-1.23,1.72-1.16,2.66-3.17,3.85-5.71,1.88-4,4.23-9.07,11-13.1,11-6.54,38.91-4.23,40.09-4.13a2,2,0,1,1-.34,4c-.28,0-27.78-2.3-37.69,3.58-5.73,3.4-7.7,7.62-9.44,11.34-1.33,2.86-2.59,5.56-5.25,7.35-2.35,1.58-5.3,1.74-8.42,1.91-5.19.28-11.66.64-18.63,7.61s-8.27,17.74-6.11,25c1.23,4.13,3.52,6.82,6.26,7.39a2,2,0,0,1-.41,4Z" transform="translate(-183.55 0)"/><path d="M771.51,688.84a2.2,2.2,0,0,1-.36,0c-19.61-3.54-51.36-37.14-51.66-37.47-2.06-2.31-5.82-1-5.86-1a2,2,0,0,1-1.35-3.79c.26-.09,6.32-2.2,10.21,2.13s33,33.23,49.38,36.2a2,2,0,0,1-.36,4Z" transform="translate(-183.55 0)"/><path d="M599.94,910.75a2,2,0,0,1-2-1.59c-4.54-20.73,3.13-52.55,8.73-75.78,1.41-5.88,2.64-11,3.49-15.14,1.49-7.32,1.95-15.42,2.43-24,.85-15,1.82-32.09,8.86-48.68,15.26-35.91,39.69-60.9,57.51-75.54,19.31-15.87,34.8-23.15,35.45-23.45a2,2,0,0,1,1.7,3.65c-.16.07-15.76,7.42-34.69,23C664,687.57,640.1,712,625.19,747.15c-6.77,15.93-7.68,31.89-8.55,47.32-.49,8.73-1,17-2.51,24.57-.86,4.25-2.09,9.36-3.52,15.29-5.51,22.85-13.05,54.14-8.71,74a2,2,0,0,1-1.53,2.4A2.18,2.18,0,0,1,599.94,910.75Z" transform="translate(-183.55 0)"/><path d="M671.18,910.74H671a2,2,0,0,1-1.78-2.22c.11-1,11-99.87,2.16-132.64a2,2,0,1,1,3.88-1c9.08,33.5-1.58,130-2,134.14A2,2,0,0,1,671.18,910.74Z" transform="translate(-183.55 0)"/><path d="M704.7,910.75a2,2,0,0,1-2-2.43c1.29-6.16,5.65-26.48,7.68-29.24a24.86,24.86,0,0,1,2.05-2.21c6.08-6.24,24.59-25.2,23.57-47.66a2,2,0,0,1,1.91-2.1L832.57,822a2,2,0,0,1,1.92,1.15c.13.28,13.31,27.75,25.65,34.17,1.38.71,3.05,2.49,4.93,10.32,1,4.3,2,10.05,3,17.1,1.63,11.94,2.56,23.68,2.57,23.79a2,2,0,0,1-4,.32c0-.11-.91-11.48-2.48-23.16-3-22.21-5.6-24.61-5.89-24.81-12.08-6.28-24-29.16-26.81-34.79L740.1,831c0,23.3-18.55,42.3-24.76,48.66-.75.76-1.52,1.55-1.69,1.78-1.09,1.66-4.41,15.38-7,27.68A2,2,0,0,1,704.7,910.75Z" transform="translate(-183.55 0)"/><path d="M891.16,910.74h-.11a2,2,0,0,1-1.9-2.12c1.25-21.64-5.29-52.88-10.54-78-3.53-16.87-6.58-31.44-6.57-39.56-.34-12.56,2-77.64,2.1-80.41a2,2,0,1,1,4,.14c0,.68-2.44,67.83-2.1,80.19v.06c0,7.69,3,22.08,6.49,38.75,5.3,25.34,11.9,56.87,10.62,79A2,2,0,0,1,891.16,910.74Z" transform="translate(-183.55 0)"/><path d="M916.65,910.74a2,2,0,0,1-2-2c0-.4-1.14-40.51-9.35-69.78-4-14.17-4.59-31.83-5.24-50.52-.76-21.8-1.54-44.35-7.34-66-10.69-40-42.65-63.35-43-63.58a2,2,0,0,1-.83-1.51c0-.18-1.32-18.34-14.09-22.57a2,2,0,0,1,1.27-3.82c13.66,4.52,16.3,21,16.75,25.19a122.94,122.94,0,0,1,17.34,16.69c8.86,10.22,20.64,26.95,26.42,48.56,5.92,22.14,6.75,45.94,7.47,66.94.64,18.45,1.24,35.87,5.09,49.57,8.35,29.76,9.49,70.36,9.51,70.77a2,2,0,0,1-2,2.06Z" transform="translate(-183.55 0)"/><path d="M809,689.88a2,2,0,0,1-.53-4c25.29-7,34-23.93,34.09-24.1a2,2,0,1,1,3.6,1.8c-.38.76-9.61,18.69-36.62,26.18A2,2,0,0,1,809,689.88Z" transform="translate(-183.55 0)"/><path d="M791.29,910.74a2,2,0,0,1-2-2V687.87a2,2,0,0,1,4,0V908.73A2,2,0,0,1,791.29,910.74Z" transform="translate(-183.55 0)"/><path d="M788.77,679c-3.31,0-7.67-2.25-13.33-6.89a157,157,0,0,1-15.23-14.79c-9.76-10.6-18.13-21.41-18.22-21.51a2,2,0,0,1,3.19-2.47c12.57,16.26,35.57,41.95,43.71,41.64,9.19-.35,26.79-23.43,32.8-32.3a2,2,0,0,1,3.33,2.26c-.06.09-5.69,8.37-12.75,16.6-9.9,11.53-17.5,17.24-23.23,17.46Z" transform="translate(-183.55 0)"/><path d="M745.5,639.16a2,2,0,0,1-1.55-.74,2,2,0,0,1,.28-2.83A37.68,37.68,0,0,0,753.76,622a2,2,0,1,1,3.73,1.51,41.13,41.13,0,0,1-10.71,15.24A2.06,2.06,0,0,1,745.5,639.16Z" transform="translate(-183.55 0)"/><path d="M759.47,627.17a2,2,0,0,1-1-.26c-.62-.35-15.16-8.74-22.68-24-.74-1.37-2.46-1.71-5-2.08-2-.28-4.05-.58-5.39-2-1.69-1.76-2-4.26-2.36-6.46a12.91,12.91,0,0,0-.72-3.25l0,0c-6-12.82-3.73-19.45-.8-22.76,5.45-6.12,13.75-2,17.38,1a2,2,0,0,1-2.58,3.09c-.31-.26-7.57-6.18-11.79-1.43-3,3.39-2.51,9.92,1.44,18.37l0,0a16,16,0,0,1,1.06,4.38c.23,1.68.48,3.42,1.27,4.24.39.41,1.93.63,3.06.79,2.63.38,6.24.89,8,4.21l0,.05c7,14.14,20.94,22.22,21.08,22.3a2,2,0,0,1-1,3.76Z" transform="translate(-183.55 0)"/><path d="M738.52,587.6a2,2,0,0,1-2-1.59c-.06-.25-1.24-4.79-8.89-7.24a2,2,0,1,1,1.23-3.83c10.09,3.23,11.55,10,11.6,10.25a2,2,0,0,1-1.58,2.37A1.72,1.72,0,0,1,738.52,587.6Z" transform="translate(-183.55 0)"/><path d="M725.33,567.92a2,2,0,0,1-1.9-1.36c-.52-1.5-12.4-36.92.68-57.8,4.88-7.78,12.58-12.5,22.89-14a59.82,59.82,0,0,1,12-19.86c8.45-9.29,23.85-19.68,49.2-16.46C829,461.05,845.5,472.25,856,490.81c8.82,15.63,11,32.05,10.84,39.29-.09,5.39-1.72,9.46-4.85,12.09-4.66,3.91-10.83,3-11.09,3a2,2,0,1,1,.62-4s4.67.66,7.9-2.08c2.18-1.85,3.33-4.9,3.4-9.06.12-6.83-1.93-22.37-10.33-37.25-10-17.64-25.05-27.87-44.83-30.38-19-2.41-34.35,2.69-45.72,15.17a54.78,54.78,0,0,0-11.45,19.52,2,2,0,0,1-1.7,1.45c-9.7,1.18-16.84,5.34-21.24,12.35-12.07,19.25-.41,54-.3,54.37a2,2,0,0,1-1.25,2.55A1.81,1.81,0,0,1,725.33,567.92Z" transform="translate(-183.55 0)"/><path d="M806.24,644.87c-13.38,0-21.93-5.68-22.44-6a2,2,0,0,1,2.27-3.33,35,35,0,0,0,11.14,4.33c9.25,2,18.77.94,28.3-3.2,17.19-7.47,25.24-25.68,23.93-54.1-.7-15.13,0-47.34.11-54.2-22.89-10.88-45.66-9-60.84-5.43a112.52,112.52,0,0,0-27.23,10.17c-.44,28.6-16.43,42.51-17.12,43.1a2,2,0,0,1-2.93-.35,37.4,37.4,0,0,0-4.27-4.71,2,2,0,1,1,2.72-3,44.26,44.26,0,0,1,3.36,3.49c3.91-4.2,14.22-17.39,14.22-39.74a2,2,0,0,1,1-1.73A111.28,111.28,0,0,1,787.79,519c16.07-3.77,40.35-5.73,64.69,6.3a2,2,0,0,1,1.12,1.85c0,.39-.91,38.45-.14,55.21.56,12-.56,22.51-3.33,31.18-4.13,12.94-11.87,22-23,26.8A52,52,0,0,1,806.24,644.87Z" transform="translate(-183.55 0)"/><path d="M780.19,578.87h-.09a2,2,0,0,1-1.92-2.09c0-.39.49-9.69,7.57-12,5.93-1.9,10.25,3.51,11.86,7a2,2,0,1,1-3.65,1.69c0-.09-3-6.16-7-4.86-4.39,1.4-4.77,8.23-4.77,8.3A2,2,0,0,1,780.19,578.87Z" transform="translate(-183.55 0)"/><path d="M835.59,573.66a2,2,0,0,1-2-1.54c0-.08-.92-3.49-3.43-3.67-2.69-.19-4.34,2.8-4.36,2.83a2,2,0,0,1-3.56-1.88c.12-.22,2.89-5.35,8.21-5,4.38.32,6.49,4.4,7,6.75a2,2,0,0,1-1.49,2.43A2.5,2.5,0,0,1,835.59,573.66Z" transform="translate(-183.55 0)"/><path d="M817.82,593.15c-5.08,0-10.47-3.94-11.14-4.45a2,2,0,0,1,2.42-3.21c1.66,1.24,6.64,4.3,9.81,3.52a3.39,3.39,0,0,0,2.29-2.07,5.09,5.09,0,0,0,.36-4.32c-1.12-2.62-4.72-3.84-4.75-3.85a2,2,0,0,1,1.25-3.83c.22.07,5.33,1.78,7.19,6.07a9,9,0,0,1-.41,7.64,7.4,7.4,0,0,1-5,4.27A8.83,8.83,0,0,1,817.82,593.15Z" transform="translate(-183.55 0)"/><path d="M811.51,614c-.49,0-1,0-1.49-.08-8.16-.8-12.17-9.41-12.34-9.78a2,2,0,0,1,3.66-1.67c0,.07,3.24,6.87,9.08,7.45s10.4-4,10.44-4a2,2,0,0,1,2.94,2.75C823.58,608.84,818.7,614,811.51,614Z" transform="translate(-183.55 0)"/><path d="M772.44,562.35a19.23,19.23,0,0,1,1-3.48,22.64,22.64,0,0,1,1.54-3.27,21.85,21.85,0,0,1,4.66-5.82,19,19,0,0,1,6.79-3.9,18.21,18.21,0,0,1,7.87-.77,3.43,3.43,0,0,1-.45,6.84h-.13a22.27,22.27,0,0,0-5.44.44,17.83,17.83,0,0,0-5.16,2.07,25.34,25.34,0,0,0-4.76,3.68c-.74.73-1.48,1.5-2.18,2.32s-1.39,1.69-2,2.53l0,.06a.91.91,0,0,1-1.63-.7Z" transform="translate(-183.55 0)"/><path d="M821.7,544.42h1c.31,0,.6,0,.9.06.58,0,1.16.15,1.73.25a19.35,19.35,0,0,1,3.34,1,17.82,17.82,0,0,1,5.93,3.77,16.13,16.13,0,0,1,2.23,2.73l.45.74.4.77a14.58,14.58,0,0,1,.68,1.57,15.7,15.7,0,0,1,.89,6.45A.67.67,0,0,1,838,562h0a25.37,25.37,0,0,0-2.91-4.9,15.25,15.25,0,0,0-3.84-3.42,17.83,17.83,0,0,0-4.58-1.94c-.81-.21-1.64-.39-2.47-.52-.41-.07-.83-.12-1.24-.17l-.61-.06-.29,0a1.54,1.54,0,0,1-.2,0,3.24,3.24,0,0,1-.14-6.47Z" transform="translate(-183.55 0)"/><path d="M787.58,552.28c-10-.47-21.33,10.07-23.42,13s-5.77,2.76-5.76,5.93c-.21,4.57,6.72,5.8,6.72,5.8s3.26,20.07,21.07,17.75,20.54-10.25,20.95-22.58S797.54,552.75,787.58,552.28Zm-3.26,38.44c-19.38-1.83-16-18.64-13.09-23.13a32.68,32.68,0,0,1,6.81-6.46c11.35-6.73,19.73-1.58,23.22,3.75S803.7,592.55,784.32,590.72Z" transform="translate(-183.55 0)"/><path d="M857.42,556.94c-2.39-1.63-4.89-7.57-14.43-8.5-13.62-.87-20.37,14.61-20.37,14.61a26.42,26.42,0,0,0-16.74,1.38l-1.52,11.75,2.57-.44c7.72-11.22,14.8-6.41,14.87-4.9.18,4.72,6.06,21.95,20.37,19.73s16.59-19.49,17.64-21.35,5.26-3,5.26-6.29S859.81,558.56,857.42,556.94Zm-13.73,29c-7.57,2.56-15.54-4.66-16.36-10.13a21,21,0,0,1,10.25-21.36c7.44-4.56,15.95,2.58,17.28,6.64C857.13,568.05,851.25,583.42,843.69,586Z" transform="translate(-183.55 0)"/><path d="M712.92,575.3a2,2,0,0,1-1.35-3.51c1.7-1.52,6.29-3.54,26.47-3.61,10.81,0,21.09.53,21.2.54a2,2,0,0,1,1.89,2.12,2,2,0,0,1-2.12,1.9c-19.64-1.09-41.76-.63-44.75,2A2,2,0,0,1,712.92,575.3Z" transform="translate(-183.55 0)"/><path class="cls-14" d="M427.07,673.36s25-12.57,22-24.27-15.48-7.91-22-29.94c0,0-15.36,2.06-16.41-14.35s11.29-24.21,23.57-8c0,0-14.26-45.69,12.63-54.88s85.43-4.78,87.76,2.91a38.46,38.46,0,0,1,.93,15.71s4.72,62.61,2.59,67.66-6.72,25.26-34.31,32c0,0,5.4,7.91,19.73,18.4s-41.9,50.9-41.9,50.9L415.05,692Z" transform="translate(-183.55 0)"/><path class="cls-14" d="M327,793.49s-7.53,59.21,2.71,109.63h274s-10-71.16-8.71-104.71S327,793.49,327,793.49Z" transform="translate(-183.55 0)"/><path d="M427.08,669.51s-75.54-7.71-103.42,119.58c0,0,13.44,20.92,51.46,15,0,0-9.47,49.4,3.09,99H581.27l-9.21-95.72s19.8,2.62,36.58-9.25c0,0-24.74-91.57-47-110.45s-39.17-15.4-39.17-15.4-5.14,37.82-41.85,35.5S427.08,669.51,427.08,669.51Z" transform="translate(-183.55 0)"/><polygon points="246.87 628.23 243 629.75 240.93 626.81 237.35 626.62 241.43 618.71 243.66 620.75 246.87 628.23"/><path d="M413.88,592.4s-15.93-25.89,3.4-55.58c0,0-1.79-2.27-.92-4.3a5.82,5.82,0,0,1,3.32-2.8s-1.05-2.44-.61-3.37,3.33-2.71,7.51-1.75c0,0,32.43-26.73,72.33-18,0,0,28.9,11.47,33.41,10.82s-.2,4.63-.2,4.63l3.75.22.37,5.51,3.78-.1s.7,12.53-4.06,16.1c0,0,8.85,11.28,3.55,16.69s-4.6-.75-4.6-.75l-.35-8.21s-6.17-3.2-7.56-5.3c0,0-12.75,4.57-24.59,2.67,0,0-20.38,10.93-32.15,6.9a42.76,42.76,0,0,0,1.82-5.83s-22.69,7.38-28.2,7.41c0,0-9.59,17.31-8.78,38C435.1,595.37,420,581.86,413.88,592.4Z" transform="translate(-183.55 0)"/><path class="cls-5" d="M466.15,628.82s.5-12.39,15.51-12,32.53,0,32.53,0,10.77-.55,11.53,11.4-30,15.16-30,15.16S470,645.62,466.15,628.82Z" transform="translate(-183.55 0)"/><path d="M572.16,810.75a2,2,0,0,1,0-4,70.27,70.27,0,0,0,34.17-9.48c-3.17-11.72-25.6-92.31-47.44-109.27-18.87-14.66-30.82-14.53-34.5-14a44.5,44.5,0,0,1-5.9,17.14c-5.16,8.54-15.79,18.73-37.18,18.73C460.1,709.82,446,699,437.85,690a72.59,72.59,0,0,1-12.11-18.49c-4.55,0-21.17,1.13-39.84,13.07C365.74,697.46,339,726,325.78,788.79c.75,1.29,3.28,4.9,9.33,8.08,6.89,3.62,19.79,7.36,42.36,5l3.22-23.23a2,2,0,0,1,4,.55l-3.44,24.78a2,2,0,0,1-1.76,1.72,134.51,134.51,0,0,1-15.7,1c-34.49,0-41.65-16-42-16.76a2.11,2.11,0,0,1-.11-1.19c5.94-28.57,15.13-52.71,27.32-71.76,9.81-15.31,21.57-27.39,35-35.89,22.92-14.55,42.42-13.57,43.23-13.53a2,2,0,0,1,1.76,1.3,67.7,67.7,0,0,0,12,18.62c11,12.19,24.58,18.37,40.35,18.37s27-5.65,33.73-16.78a40.12,40.12,0,0,0,5.48-16.81,2,2,0,0,1,1.33-1.8c.59-.21,14.66-4.91,39.51,14.39,24.53,19,48.25,109,49.24,112.85a2,2,0,0,1-.79,2.16,71.83,71.83,0,0,1-37.6,11Z" transform="translate(-183.55 0)"/><path d="M581.27,905.14a2,2,0,0,1-2-1.69c-5.46-32.76-11.66-131.37-11.73-132.37a2,2,0,0,1,4-.25c.06,1,6.25,99.4,11.68,132a2,2,0,0,1-1.65,2.32Z" transform="translate(-183.55 0)"/><path d="M329.68,905.14a2,2,0,0,1-2-1.69c-9.92-61.21-3.22-110.2-3.16-110.68a2,2,0,0,1,4,.56c-.07.48-6.67,48.9,3.14,109.47a2,2,0,0,1-1.67,2.31A1.73,1.73,0,0,1,329.68,905.14Z" transform="translate(-183.55 0)"/><path d="M603.64,905.14a2,2,0,0,1-2-1.66,563.53,563.53,0,0,1-8.7-98.83,2,2,0,0,1,2-2h0a2,2,0,0,1,2,2.05,559.54,559.54,0,0,0,8.65,98A2,2,0,0,1,604,905.1,1.47,1.47,0,0,1,603.64,905.14Z" transform="translate(-183.55 0)"/><path d="M378.21,905.14a2,2,0,0,1-2-1.56,264.94,264.94,0,0,1-6.37-70.71c.82-17.85,3.17-28.76,3.27-29.22a2,2,0,0,1,3.94.86c-.1.44-9.39,44.24,3.08,98.16a2,2,0,0,1-1.51,2.41A1.74,1.74,0,0,1,378.21,905.14Z" transform="translate(-183.55 0)"/><path d="M428.41,673.1a2,2,0,0,1-.5-4c.22-.06,18-4.79,19.15-18.2-.06-2.54-3.38-5.61-7.22-9.16-5.6-5.19-12.57-11.64-14.73-21.17a2,2,0,1,1,3.92-.89c1.89,8.32,8.08,14,13.54,19.1,4.57,4.23,8.51,7.88,8.51,12.19v.15c-1.26,16.39-21.32,21.66-22.18,21.88A2.05,2.05,0,0,1,428.41,673.1Z" transform="translate(-183.55 0)"/><path d="M423.49,621.16a14.35,14.35,0,0,1-8.9-2.78c-3.6-2.82-5.4-7.51-5.36-13.94.06-9.69,3.29-16.33,8.86-18.21,5.22-1.76,11.44,1.19,16.63,7.91a2,2,0,0,1-3.19,2.46c-4.09-5.29-8.63-7.75-12.15-6.56-3.79,1.28-6.08,6.67-6.13,14.42,0,5.11,1.25,8.72,3.8,10.73,3.82,3,9.47,1.64,9.53,1.63a2,2,0,0,1,1,3.9A18.45,18.45,0,0,1,423.49,621.16Z" transform="translate(-183.55 0)"/><path d="M414,594.23a2,2,0,0,1-1.45-.62c-.19-.2-4.68-5-6.51-14.43-1.65-8.5-1.38-22.66,9.28-41.77,8.6-15.4,22.83-25.75,42.28-30.77a116.23,116.23,0,0,1,33.95-3.1l.52,0c8.72.43,17.66,4.19,25.55,7.52,5.95,2.5,12.09,5.09,14.6,4.28a2,2,0,0,1,1.65.18,2,2,0,0,1,.95,1.37,12,12,0,0,1,.08,3.85,2,2,0,0,1,2.83,1.83v3.52l.29,0a2.12,2.12,0,0,1,1.75-.41,2.66,2.66,0,0,1,1.93,2c.84,2.67,1,10-3.44,15.87a17.43,17.43,0,0,1,4.22,16l0,.11a5.08,5.08,0,0,1-2.87,3.47,6.54,6.54,0,0,1-5.15-.39,2,2,0,1,1,1.87-3.57,2.65,2.65,0,0,0,1.72.26,1.37,1.37,0,0,0,.55-.86,13.6,13.6,0,0,0-4.31-13.33,2,2,0,0,1-.21-3,16.25,16.25,0,0,0,4-12.24,8.23,8.23,0,0,1-3.24-.85,2,2,0,0,1-1.14-1.81v-2.86a7.86,7.86,0,0,1-2.54-1.44,2,2,0,0,1-.34-2.74,2.62,2.62,0,0,0,.17-1c-3.79,0-8.84-2.17-14.93-4.73-7.58-3.2-16.18-6.82-24.18-7.21l-.51,0c-34.46-1.53-60.23,9.77-72.53,31.82-10,17.89-10.35,30.94-8.9,38.75,1.56,8.38,5.49,12.67,5.53,12.71a2,2,0,0,1-1.47,3.39Z" transform="translate(-183.55 0)"/><path d="M497.77,662.47a57.2,57.2,0,0,1-20.68-4.17,2,2,0,0,1,1.46-3.76c18.8,7.28,31.92,3,39.62-1.88,11.33-7.17,17.05-19.31,17.7-28.16,1.25-17-2.48-63-3.2-71.48a14.81,14.81,0,0,1-5.94-4.89c-9.85,4.48-21.45,3.18-24.34,2.76-10.53,5-18.17,6.84-22.75,7.5-3.35.48-9.24.93-11-1.46a2.55,2.55,0,0,1,.21-3.31,4,4,0,0,0,.7-1.26c-6.27,2.8-12.66,4-17.53,5-3.28.62-6.38,1.22-7.53,2C438,565.83,437,589.38,437.11,598a2,2,0,0,1-3.62,1.25l-1.39-1.86a2,2,0,0,1,.4-2.82,1.81,1.81,0,0,1,.6-.31c.15-8.92,1.28-30.72,8.66-37.88l.19-.16c1.82-1.38,5-2,9.29-2.81,5.85-1.12,13.14-2.51,19.92-6.31a2,2,0,0,1,3,1.75,14.8,14.8,0,0,1-1.25,5.87c3.55.48,13.35-.48,28.31-7.68a2,2,0,0,1,1.22-.17c.14,0,13.89,2.37,24-3a2,2,0,0,1,2.68.75c.72,1.21,3.19,4.48,5.8,5a2,2,0,0,1,1.63,1.81c.19,2.21,4.71,54.5,3.32,73.47-.89,12-8.56,24.31-19.56,31.27A41.69,41.69,0,0,1,497.77,662.47Z" transform="translate(-183.55 0)"/><path d="M427.3,631.77a3.74,3.74,0,0,1-1-.15,4.41,4.41,0,0,1-2.63-2.39,5,5,0,0,1-2.43,0,3.34,3.34,0,0,1-2.06-1.63c-1-1.88.17-5.14,3.6-9.68a2,2,0,1,1,3.21,2.42,26.4,26.4,0,0,0-2.95,4.89,4.64,4.64,0,0,0,.89-.37,2,2,0,0,1,2.95,1.43,4.11,4.11,0,0,0,.55,1.41,4.51,4.51,0,0,0,1.35-1.14,2,2,0,0,1,3,2.71C430.21,630.93,428.73,631.77,427.3,631.77Z" transform="translate(-183.55 0)"/><path d="M418.76,537.55a2,2,0,0,1-.67-.12,4.48,4.48,0,0,1-2.58-2.32,3.4,3.4,0,0,1,.16-2.85,6.62,6.62,0,0,1,3.25-2.67,3.83,3.83,0,0,1-.29-4.17c1-1.57,3.77-2.13,8.16-1.68a2,2,0,0,1-.41,4,19.18,19.18,0,0,0-3.86,0,9.17,9.17,0,0,0,1.16,1.37,2,2,0,0,1-.91,3.42,11.7,11.7,0,0,0-3.1,1.22,2,2,0,0,1-.91,3.81Z" transform="translate(-183.55 0)"/><path d="M469.67,597.38a2.09,2.09,0,0,1-.69-.12,2,2,0,0,1-1.2-2.58c.11-.29,2.63-7,8.66-7.26s9.41,6,9.56,6.31a2,2,0,0,1-3.56,1.89s-2.39-4.34-5.8-4.17-5.06,4.57-5.08,4.62A2,2,0,0,1,469.67,597.38Z" transform="translate(-183.55 0)"/><path d="M525.71,598.84a2,2,0,0,1-2-1.86c-.13-1.55-1-5.82-3.71-6.82a1.84,1.84,0,0,0-1.55,0c-1.24.58-2.13,2.51-2.35,3.14a2,2,0,0,1-3.81-1.3c.13-.41,1.43-4,4.43-5.47a5.9,5.9,0,0,1,4.7-.13c5.62,2.11,6.28,10,6.3,10.28a2,2,0,0,1-1.85,2.16Z" transform="translate(-183.55 0)"/><path d="M506.14,610.26a12,12,0,0,1-4.94-1,2,2,0,0,1,1.66-3.66,9.24,9.24,0,0,0,8.83-1.15,2.92,2.92,0,0,0,1.24-3.07,1.64,1.64,0,0,0-.84-1.1c-2.35-1.4-7.81-.39-9.54.07a2,2,0,0,1-1-3.89c.85-.22,8.43-2.15,12.64.36a5.7,5.7,0,0,1,2.7,3.62,6.93,6.93,0,0,1-2.59,7.11A13,13,0,0,1,506.14,610.26Z" transform="translate(-183.55 0)"/><path d="M493,645.41a42.73,42.73,0,0,1-17.61-3.4c-10.4-4.77-11.51-11.12-11.24-14.48.5-6.32,6.26-11.62,11.54-13.09,4-1.13,10.7-.5,17.75.16,5.69.54,11.58,1.09,15,.5,4.67-.82,10.55-1.34,14.58,1.94,2.7,2.19,4.15,5.75,4.31,10.56.13,3.92-2.25,7.62-6.88,10.7C514,642.56,503.43,645.41,493,645.41Zm-11.39-27.56a19.23,19.23,0,0,0-4.84.47c-3.86,1.08-8.25,5-8.61,9.53-.32,4,2.76,7.69,8.91,10.5,12.19,5.6,31.77,2.82,41.12-3.4,2.38-1.58,5.19-4.12,5.09-7.21-.12-3.6-1.07-6.15-2.83-7.58-2.77-2.25-7.52-1.77-11.34-1.1h0c-3.93.69-9.82.14-16.05-.45C489.06,618.23,485,617.85,481.63,617.85Zm27.15-.77Z" transform="translate(-183.55 0)"/><path d="M478.87,643.24a2,2,0,0,1-2-2V615.84a2,2,0,1,1,4,0v25.39A2,2,0,0,1,478.87,643.24Z" transform="translate(-183.55 0)"/><path d="M493.58,645.39a2,2,0,0,1-2-2V616.64a2,2,0,1,1,4,0v26.74A2,2,0,0,1,493.58,645.39Z" transform="translate(-183.55 0)"/><path d="M510.24,642.81a2,2,0,0,1-2-2V616.84a2,2,0,0,1,4,0v23.95A2,2,0,0,1,510.24,642.81Z" transform="translate(-183.55 0)"/><path d="M491.91,632.4a178.82,178.82,0,0,1-26.08-1.88,2,2,0,1,1,.64-4c.33.05,33.51,5.25,58.14-2.37A2,2,0,1,1,525.8,628C514.85,631.41,502.53,632.4,491.91,632.4Z" transform="translate(-183.55 0)"/><path d="M480.67,576.89s0,0,0,0l-.05,0-.13-.06-.3-.1c-.21-.06-.43-.13-.65-.18a10.34,10.34,0,0,0-1.35-.25,11.59,11.59,0,0,0-2.76,0,9.92,9.92,0,0,0-5.1,2.11,15.47,15.47,0,0,0-3.9,4.7c-.26.47-.5,1-.75,1.44s-.45,1-.66,1.5-.41,1-.6,1.55l-.53,1.59v0a.8.8,0,0,1-1.56-.34,30,30,0,0,1,1.48-6.94c.22-.56.4-1.15.68-1.7l.39-.84.45-.82a16.26,16.26,0,0,1,2.25-3.11,14.43,14.43,0,0,1,6.84-4.12,16.73,16.73,0,0,1,4-.55,19.88,19.88,0,0,1,2,.11l1,.15.53.1.28.07.15,0,.19,0a3,3,0,1,1-2,5.64Z" transform="translate(-183.55 0)"/><path d="M510.56,570.66l.51-.17.45-.14c.29-.08.59-.15.88-.21a15.79,15.79,0,0,1,1.79-.27,16.24,16.24,0,0,1,3.62.08,14.51,14.51,0,0,1,6.77,2.69,15.44,15.44,0,0,1,2.62,2.48,16.22,16.22,0,0,1,1.93,2.92,19.33,19.33,0,0,1,2,6.38.67.67,0,0,1-.57.75.66.66,0,0,1-.68-.35h0a30.89,30.89,0,0,0-3.28-5.14,14.58,14.58,0,0,0-4.22-3.67,10.89,10.89,0,0,0-2.46-1.06,13.76,13.76,0,0,0-2.63-.52,15.43,15.43,0,0,0-2.72,0c-.46,0-.92.08-1.37.14l-.66.11-.33.05-.25.06-.58,0a2.12,2.12,0,0,1-.81-4.11Z" transform="translate(-183.55 0)"/><path d="M429.37,608.59a2,2,0,0,1-1.78-1.08,13.47,13.47,0,0,0-8.41-6.21,2,2,0,1,1,.82-3.94,17.29,17.29,0,0,1,11.15,8.28,2,2,0,0,1-.85,2.72A2.06,2.06,0,0,1,429.37,608.59Z" transform="translate(-183.55 0)"/><path d="M420.77,606.81a2.22,2.22,0,0,1-.51-.06,2,2,0,0,1-1.44-2.46,7.3,7.3,0,0,1,5.15-4.85,2,2,0,0,1,1,3.89c-.07,0-1.92.57-2.29,2A2,2,0,0,1,420.77,606.81Z" transform="translate(-183.55 0)"/><path d="M521.12,677.81a2,2,0,0,1-.89-.2c-13.62-6.71-19.31-16-19.54-16.38a2,2,0,0,1,3.45-2.08c.07.12,5.4,8.7,17.87,14.85a2,2,0,0,1-.89,3.81Z" transform="translate(-183.55 0)"/><path class="cls-11" d="M481.33,791.18s-7.63,60.08,2.76,111.24H762s-10.15-72.2-8.83-106.24S481.33,791.18,481.33,791.18Z" transform="translate(-183.55 0)"/><path class="cls-11" d="M584.27,668.43s22-9.34,25.24-26c0,0-20.67-9.2-21.8-30.67,0,0-20.14-.59-19-17.75s17.08-16,24.07-12.27c0,0,.07-14.35,4.31-17.9s11.63-11.75,13.62-17.36c0,0,36.21-31.61,81.3-5.16,0,0,5,22.36,5.43,38.72,0,7.27,6.35,20.14,6.45,27.82s-3.09,33.74-35.72,44c0,0,3.92,15.8,11.37,19.92,0,0-2.68,31.81-42.26,32.46S584.27,668.43,584.27,668.43Z" transform="translate(-183.55 0)"/><path d="M577.62,580.28s-6.22-14.12-6.27-25.21l-1.8,1.16s-4.51-24.56,15.6-30.41c0,0,16.33-46.55,56-41.57l-7,4.23s37.3.44,50.76,11.21l-3.4,2.76s23.67,20.83,24.37,36.2L699.62,540l-3.37,17.61L692,541.28s-39.38-27.64-81.3,5.16c0,0-3.78,10.89-9.36,13.95s-8.73,13.79-8,20.77C593.38,581.16,582.31,577.39,577.62,580.28Z" transform="translate(-183.55 0)"/><path d="M582.91,665.4S506.26,657.58,478,786.72c0,0,13.63,21.23,52.21,15.21,0,0-9.61,50.12,3.13,100.49h206L730,805.3s20.08,2.66,37.1-9.39c0,0-25.09-92.9-47.64-112s-39.74-15.63-39.74-15.63-5.21,38.37-42.46,36S582.91,665.4,582.91,665.4Z" transform="translate(-183.55 0)"/><image width="4500" height="4135" transform="translate(483.17 736.02) scale(0.01)" xlink:href="../../Brand/Logo_Emam/emam_Logo_Vertical_2.png"/><path d="M584.27,670.44a2,2,0,0,1-.66-3.91h0c.2-.07,19.4-6.83,23.55-22.86a33.84,33.84,0,0,1-9.54-6.07c-5.13-4.63-11.27-13.12-11.45-27.31a2,2,0,0,1,2-2h0a2,2,0,0,1,2,2c.31,24.29,19.68,30.16,19.88,30.21a2,2,0,0,1,1.42,2.31c-3.64,19.55-25.64,27.26-26.58,27.58A2,2,0,0,1,584.27,670.44Z" transform="translate(-183.55 0)"/><path d="M585.57,612.89c-2.55,0-8.81-.48-13.47-4.77-3.6-3.3-5.42-8.06-5.42-14.15s1.82-10.6,5.41-13.45c6-4.74,14.56-2.8,14.93-2.71a2,2,0,0,1-.92,3.92c-.07,0-7.08-1.58-11.53,2-2.56,2-3.86,5.5-3.86,10.28s1.37,8.66,4.09,11.17c4.55,4.21,11.52,3.7,11.59,3.7a2,2,0,0,1,.34,4C586.65,612.86,586.24,612.89,585.57,612.89Z" transform="translate(-183.55 0)"/><path d="M652.13,655.79a92.54,92.54,0,0,1-12.36-.87,2,2,0,0,1,.54-4c18.15,2.45,32.88-.52,43.78-8.85,14.7-11.22,17.36-28.36,17.62-30.28.64-4.81-.9-9.76-2.68-15.49-1.53-5-3.28-10.58-3.67-16.83v0c-1.24-29.92-5.07-37.08-5.11-37.15a2,2,0,0,1,.68-2.75,2,2,0,0,1,2.78.69c.44.73,4.38,8,5.67,39,.36,5.76,2,10.9,3.5,15.87,1.84,5.92,3.57,11.52,2.82,17.21-.28,2.09-3.17,20.74-19.16,32.95C677.38,652.27,665.84,655.79,652.13,655.79Z" transform="translate(-183.55 0)"/><path d="M679.26,673.8a2.05,2.05,0,0,1-1.11-.33c-9.83-6.49-11.16-19.63-11.21-20.19a2,2,0,1,1,4-.37h0c0,.11,1.23,11.78,9.43,17.2a2,2,0,0,1-1.11,3.69Z" transform="translate(-183.55 0)"/><path d="M730.1,808.66a2,2,0,0,1,0-4A71.31,71.31,0,0,0,764.78,795c-3.2-11.82-26-93.68-48.15-110.91-19.18-14.9-31.33-14.74-35-14.22a45.31,45.31,0,0,1-6,17.4c-5.23,8.66-16,19-37.7,19-21.48,0-35.81-10.92-44-20.09a73.84,73.84,0,0,1-12.29-18.77c-4.59.05-21.47,1.13-40.45,13.26-20.46,13.08-47.62,42-61,105.77.77,1.3,3.33,5,9.49,8.21,7,3.67,20.1,7.48,43,5l3.28-23.59a2,2,0,0,1,4,.56l-3.5,25.14a2,2,0,0,1-1.76,1.72,138.25,138.25,0,0,1-15.92,1c-35,0-42.23-16.21-42.56-17a2,2,0,0,1-.11-1.19c6-29,15.35-53.47,27.72-72.79,9.94-15.53,21.87-27.78,35.45-36.41,23.24-14.75,43-13.76,43.85-13.71a2,2,0,0,1,1.76,1.29,68.41,68.41,0,0,0,12.15,18.9c11.17,12.37,24.95,18.65,41,18.65s27.43-5.73,34.25-17a40.49,40.49,0,0,0,5.56-17.07,2,2,0,0,1,1.33-1.8c.6-.21,14.86-5,40.06,14.6C744,700.24,768,791.53,769.05,795.41a2,2,0,0,1-.79,2.15,72.74,72.74,0,0,1-38.14,11.1Z" transform="translate(-183.55 0)"/><path d="M739.34,904.43a2,2,0,0,1-2-1.68c-5.54-33.24-11.83-133.29-11.9-134.3a2,2,0,0,1,4-.25c.06,1,6.34,100.85,11.85,133.89a2,2,0,0,1-1.65,2.31Z" transform="translate(-183.55 0)"/><path d="M484.08,904.43a2,2,0,0,1-2-1.69C472,840.65,478.83,791,478.9,790.46a2,2,0,0,1,4,.56c-.07.49-6.77,49.62,3.18,111.07a2,2,0,0,1-1.66,2.31Z" transform="translate(-183.55 0)"/><path d="M762,904.43a2,2,0,0,1-2-1.66,571.73,571.73,0,0,1-8.83-100.27,2,2,0,0,1,4,.09A568.24,568.24,0,0,0,764,902.06a2,2,0,0,1-1.63,2.34A2,2,0,0,1,762,904.43Z" transform="translate(-183.55 0)"/><path d="M533.32,904.43a2,2,0,0,1-2-1.56,269,269,0,0,1-6.46-71.73c.83-18.1,3.22-29.18,3.32-29.64a2,2,0,0,1,3.93.86c-.09.45-9.52,44.89,3.13,99.6a2,2,0,0,1-1.5,2.42A2.49,2.49,0,0,1,533.32,904.43Z" transform="translate(-183.55 0)"/><path d="M597.49,598.77a2,2,0,0,1-1.6-.8c-.21-.27-4.73-5.87-15.49-3.44a2,2,0,1,1-.89-3.92c13.46-3.05,19.35,4.62,19.6,4.95a2,2,0,0,1-1.62,3.21Z" transform="translate(-183.55 0)"/><path d="M584.5,600.64a2,2,0,0,1-2-1.59c-1-4.63,3.79-8.35,4.34-8.75a2,2,0,1,1,2.41,3.22c-.86.65-3.2,2.88-2.81,4.68a2,2,0,0,1-1.54,2.39A2.18,2.18,0,0,1,584.5,600.64Z" transform="translate(-183.55 0)"/><path d="M577.63,582a2,2,0,0,1-1.79-1.07c-.27-.52-5.79-11.18-5.87-22.11h0a2,2,0,0,1-2,.31,2,2,0,0,1-1.25-1.63,49.18,49.18,0,0,1,.9-14.82c2.25-10,7.78-16.36,16-18.54a80.68,80.68,0,0,1,12.62-22.33c12.18-15.09,28.15-22.06,46.2-20.17a2,2,0,0,1,.83,3.73L640.52,487c11.25,0,32.09,1.58,47.6,12.37a2,2,0,0,1,.83,2,2,2,0,0,1-1.47,1.59l-2.54.67a77.19,77.19,0,0,1,23.34,32.57c.87,2.34.17,3.75-.57,4.53-1.55,1.62-4.44,1.51-6.76,1.07a65.82,65.82,0,0,1-3.22,17.71,2,2,0,1,1-3.8-1.33A65,65,0,0,0,697,539.26a2,2,0,0,1,.82-1.64,2,2,0,0,1,1.8-.3,12.56,12.56,0,0,0,5,.68,3.39,3.39,0,0,0-.11-.37c-8.64-22.58-25.09-33.05-25.25-33.15a2,2,0,0,1,.55-3.66l2.14-.56c-20.46-11.56-48.69-9-49-8.93a2,2,0,0,1-1.24-3.73l3.74-2.26c-14.06.31-26.18,6.67-36.12,19a76.25,76.25,0,0,0-12.28,22.11,2,2,0,0,1-1.5,1.36c-13.41,2.86-15.05,18.1-15.05,25.37l.53-.43a2,2,0,0,1,2.28-.19,2,2,0,0,1,1,2.07c-1.82,11.08,5,24.3,5.1,24.43a2,2,0,0,1-.85,2.72A2,2,0,0,1,577.63,582Z" transform="translate(-183.55 0)"/><path d="M593.27,584.05a2,2,0,0,1-1.17-.38,12,12,0,0,0-4.87-1.7,2,2,0,1,1,.38-4,17.24,17.24,0,0,1,3.63.82c.15-5.41,1.27-15.53,7.35-19.09C605,555.92,609,545.14,609.08,545a2,2,0,0,1,.61-.86,77.23,77.23,0,0,1,25-12.65c13.95-4.18,35.4-6.19,58.36,8.05a2,2,0,0,1-2.12,3.42c-17.37-10.77-35.85-13.34-54.93-7.65A75.78,75.78,0,0,0,612.65,547c-1,2.45-5.19,12.2-12,16.21-5,2.93-5.55,14.54-5.34,18.77a2,2,0,0,1-1,1.86A1.94,1.94,0,0,1,593.27,584.05Z" transform="translate(-183.55 0)"/><path d="M627.57,585.55l-.36,0a2,2,0,0,1-1.62-2.34c.52-2.9,3.23-8.47,9.76-8.73a9.7,9.7,0,0,1,10.07,7.26,2,2,0,0,1-3.92.93,5.65,5.65,0,0,0-6-4.16c-5,.19-5.91,5.2-6,5.41A2,2,0,0,1,627.57,585.55Z" transform="translate(-183.55 0)"/><path d="M685.71,584.79a2,2,0,0,1-2-2c0-.48-.18-4.65-4-5.49s-6.17,4.12-6.19,4.17a2,2,0,0,1-3.69-1.62c1.23-2.79,5.05-7.73,10.74-6.49s7.17,6.71,7.17,9.42A2,2,0,0,1,685.71,584.79Z" transform="translate(-183.55 0)"/><path d="M664.19,606.28c-5.16,0-9.6-4.57-9.79-4.76a2,2,0,1,1,2.91-2.79c1,1,4.18,3.64,7.08,3.52a4.94,4.94,0,0,0,3.69-2.09,4.43,4.43,0,0,0,1.26-3.82c-.55-2.42-3.76-4.45-4.84-5a2,2,0,1,1,1.74-3.64c.6.3,6,3,7,7.72.38,1.69.33,4.32-2,7.24a8.86,8.86,0,0,1-6.67,3.57Z" transform="translate(-183.55 0)"/><path d="M661.22,624.94a23.41,23.41,0,0,1-7.88-1.53,2,2,0,0,1,1.36-3.79c9.15,3.29,12.31-.69,12.44-.86l1.63,1.18,1.65,1.15C670.28,621.3,667.64,624.94,661.22,624.94Z" transform="translate(-183.55 0)"/><path d="M650.83,631.56a2,2,0,0,1-1-.28,2,2,0,0,1-.72-2.76c5.32-9.06-1.68-16.47-2-16.78a2,2,0,0,1,2.88-2.81c3.31,3.37,8.09,12.23,2.57,21.63A2,2,0,0,1,650.83,631.56Z" transform="translate(-183.55 0)"/><path d="M620.16,572.75a12.9,12.9,0,0,1,1-2.93,16.2,16.2,0,0,1,1.54-2.67,17.26,17.26,0,0,1,4.53-4.4,17,17,0,0,1,2.9-1.52,16.57,16.57,0,0,1,3.16-.92,15.16,15.16,0,0,1,6.44.21,2.77,2.77,0,0,1-.54,5.44H639a40.23,40.23,0,0,0-4.66.45,21,21,0,0,0-2.22.52,20.14,20.14,0,0,0-2.17.78,23.54,23.54,0,0,0-4.25,2.4,40.29,40.29,0,0,0-4.09,3.35l-.07.06a.83.83,0,0,1-1.18,0A.81.81,0,0,1,620.16,572.75Z" transform="translate(-183.55 0)"/><path d="M687.6,571.37a39.08,39.08,0,0,0-4.1-3.35,24.15,24.15,0,0,0-4.24-2.41c-.72-.3-1.45-.56-2.17-.78s-1.48-.37-2.22-.52a40.27,40.27,0,0,0-4.66-.44h-.14a2.77,2.77,0,0,1-.55-5.44,15.5,15.5,0,0,1,6.44-.21,17.43,17.43,0,0,1,3.17.92,17.66,17.66,0,0,1,2.89,1.52,17.18,17.18,0,0,1,4.54,4.41,16.42,16.42,0,0,1,1.54,2.66,13.6,13.6,0,0,1,1,2.93.84.84,0,0,1-.67,1,.83.83,0,0,1-.72-.2Z" transform="translate(-183.55 0)"/></g><rect class="cls-5" x="506.38" y="71.74" width="143.1" height="200.76"/><g class="cls-15"><path class="cls-16" d="M694.26,259.13a24.77,24.77,0,0,0,3.53,1.2c.1,8,.17,15.63.17,15.63H805.54l-.85-9.43c4.11,2.24,19.55,6.33,22.4,1.2.32-1,.61-1.94.86-3h.17c2.54-.11,4-2.9,3.9-5.19s-1.71-7.5-1.4-8.83,3.32-3,3.64-5.82c.47-5.12-5.76-6.87-5.76-6.87h0C825.08,211,812.59,180.4,805,175.81c-10.74-6.5-27.3-10.36-27.3-10.36l-5.49-5.9-14.81,8.14.35,8.38-5.93,7.25-3.23-5.88c1.07-2.21,0-8.41,0-8.41-5.62-1.15-13.5-6.52-13.5-6.52l-4.85,5.29,1,2.63s-14.51,2.93-21.64,13.16c-9.7,13.42-12.1,55.39-11.93,65.31,0,.23,0,.46,0,.69-1.16-.21-2.37-.46-3.64-.78a24.31,24.31,0,0,0,.74,5C695.26,255,694.26,259.13,694.26,259.13ZM828,264.55a52,52,0,0,0,1.28-9.16,7.87,7.87,0,0,1,.35,1.34c.37,2.75-1.35,7.78-1.35,7.78Z" transform="translate(-183.55 0)"/><path class="cls-17" d="M742,228.85s-2.64-2.85-2.41-4.61,1.55-1.71,1.55-1.71-1.86-2.73-1-4.57,3.58-2.46,3.58-2.46-1.92-1.5-1.15-2.93.37-2,.37-2l-1.84-2.1s5-3.12,7.41-2.32,5.58,4.81,5.58,4.81,4.28.91,5.52,2.21,8.69,13.3,10.92,14.36c.75.36,1.52.77,2.3,1.12a1.76,1.76,0,0,1,.32-.5c.07,0,1.25.52,3.08,1.33a2.94,2.94,0,0,0,.92-.26s.05.26.13.72c7.41,3.27,22.18,9.9,22.18,9.9l4.83,1.28a16.88,16.88,0,0,1,14.85,1.5c7.87,4.67,10.62,14.49,10.62,14.49s.78,13.57-9.49,13.18-19.66-6-25.11-9.62a3.45,3.45,0,0,1-1.35-1.85A187.12,187.12,0,0,0,775,247.61l0,0-.42-.26c-5-2.63-8.52-4.24-8.52-4.24-2.88-.62-10.5-1.63-11.44-2.1s-6.73-7.48-8.5-7.78-5-2-5.07-3.12A1.19,1.19,0,0,1,742,228.85Z" transform="translate(-183.55 0)"/><path d="M782.08,125.71s8.49-13.22,3.88-23.51c-3.1-6-5.74-5.24-5.74-5.24s-7.07-18.41-24.65-19.25l.87,2.12s-14.3-2.4-22.11,2.41c0,0,1.79,1.32,1.71,1.32s-13.12,5.26-16.31,13.07l2.91,1.06s-1,8.74.83,12l1.47-4.85s14.82-9.15,35.36.65c0,0,4.67,5.64,7.55,7l-.16,14.67,4.71-.35S775,120.89,782.08,125.71Z" transform="translate(-183.55 0)"/><path class="cls-17" d="M768.8,162s-2.87-3.62-2.8-7,9-15,9-15,9.06-1.43,8.73-9.33-8-8.4-11.61-4.55l-4.48,1,.16-14.67s-5.88-3.83-7.38-6.79c0,0-17.33-9.4-35.53-.86,0,0-6.21,31.51-4.39,38.41s7.07,13.94,19.11,16.21c0,0-.4,3-2.15,4.47,0,0,6.89,4.35,11.07,5.15a20.17,20.17,0,0,1,0,8.41l3.23,5.88,5.93-7.25-.35-8.38Z" transform="translate(-183.55 0)"/><path class="cls-5" d="M741.13,208.47s-16.73-1.19-23.19,2.23c0,0-2.57,22.17,5.76,28.32,4.2,2.8,13.85,1.95,17.58.23,0,0,3.36-3.81,2.85-6.14,0,0-3.57-1.19-3.12-3.28a1.56,1.56,0,0,1,1.18-1.22s-3-2.29-2.63-4.06,1.57-1.76,1.57-1.76-1.87-2.31-1.09-4.41,3.71-2.88,3.71-2.88-1.44-1.78-1.06-3.11.87-1.4.87-1.4Z" transform="translate(-183.55 0)"/><polygon class="cls-13" points="599.77 233 592.43 248.14 586.67 244.85 593.73 230.18 599.77 233"/><circle class="cls-18" cx="593.3" cy="238.94" r="5.15"/><circle class="cls-19" cx="593.3" cy="238.94" r="3.67"/><path class="cls-17" d="M714.14,259.09S709,263.17,698,260.31L698,276h14.7Z" transform="translate(-183.55 0)"/><path d="M744.3,160.7A23,23,0,0,0,755.57,158a.9.9,0,0,0-.88-1.56c-6.45,3.64-15.85,3.31-23.39-.82-6.07-3.32-9.74-8.5-10-14.21-.8-14.51,4.51-36.27,4.56-36.49a.9.9,0,0,0-.66-1.09.89.89,0,0,0-1.08.66c-.06.22-5.43,22.24-4.61,37,.35,6.34,4.35,12.06,11,15.69A29.24,29.24,0,0,0,744.3,160.7Z" transform="translate(-183.55 0)"/><path d="M768.51,162.9a.88.88,0,0,0,.51-.16.9.9,0,0,0,.23-1.25c0-.06-2.61-3.83-2.34-6.88.21-2.31,5.4-9.68,8.84-14.07a.9.9,0,0,0-1.41-1.11c-.91,1.16-8.89,11.44-9.21,15s2.52,7.89,2.64,8.06A.92.92,0,0,0,768.51,162.9Z" transform="translate(-183.55 0)"/><path d="M774.46,140.73c.35,0,9.65-.11,10.19-9.29.23-3.86-1.34-6.77-4.31-8a7.89,7.89,0,0,0-8.61,1.71.9.9,0,1,0,1.34,1.19,6.2,6.2,0,0,1,6.59-1.24c2.25.93,3.39,3.14,3.2,6.24a7.25,7.25,0,0,1-4.31,6.66,10.55,10.55,0,0,1-4.08.93.9.9,0,0,0,0,1.8Z" transform="translate(-183.55 0)"/><path d="M774.35,135.2a.89.89,0,0,0,.87-.72,7.3,7.3,0,0,1,4.18-4.58.9.9,0,0,0-.78-1.62,9.08,9.08,0,0,0-5.16,5.85.92.92,0,0,0,.71,1.06Z" transform="translate(-183.55 0)"/><path d="M777.92,132.87a.88.88,0,0,0,.44-.12.9.9,0,0,0,.35-1.22,4.15,4.15,0,0,0-2-1.45.9.9,0,0,0-.59,1.69,2.81,2.81,0,0,1,1.06.64A.91.91,0,0,0,777.92,132.87Z" transform="translate(-183.55 0)"/><path d="M782.26,126.81a.89.89,0,0,0,.79-.46c.3-.56,7.52-13.83,4.3-23.13a11.56,11.56,0,0,0-6.43-6.93,37.9,37.9,0,0,0-5.85-9.65c-5.48-6.56-12.46-10-20.19-9.83a.89.89,0,0,0-.8.53.91.91,0,0,0,.13,1l.35.4c-4.3-.45-13.6-.85-21.32,2.74a.89.89,0,0,0,0,1.62l.77.37c-3.75,1.42-11.39,5.17-15.25,13.17a.9.9,0,0,0,.69,1.28l2.36.32c-.35,2.31-1,8.35,1,12.75a.9.9,0,0,0,1.64-.74c-2.2-4.91-.71-12.52-.7-12.59a.9.9,0,0,0-.76-1.07l-2-.27c5-9,15.55-11.79,15.66-11.82a.88.88,0,0,0,.67-.78.9.9,0,0,0-.5-.9l-1-.46c9.39-3.49,20.69-1.56,20.81-1.54a.9.9,0,0,0,.83-1.47l-.55-.65c6.44.42,12.08,3.49,16.81,9.14a36.13,36.13,0,0,1,5.68,9.48.9.9,0,0,0,.49.52,9.9,9.9,0,0,1,5.79,6c3,8.56-4.11,21.55-4.19,21.69a.89.89,0,0,0,.36,1.21A.81.81,0,0,0,782.26,126.81Z" transform="translate(-183.55 0)"/><path d="M767.5,128h.06l4.9-.35a.88.88,0,0,0,.83-1,.9.9,0,0,0-.95-.84l-3.91.28.47-13.55a.89.89,0,0,0-.48-.82s-5-2.68-6.86-6.78a.9.9,0,0,0-.44-.44A53.72,53.72,0,0,0,749,101c-6.46-1.14-16-1.57-24.51,2.89a.9.9,0,0,0,.83,1.59c8.1-4.23,17.18-3.81,23.37-2.71a53.87,53.87,0,0,1,11.36,3.3c1.85,3.71,5.64,6.21,7,7l-.49,14a.92.92,0,0,0,.9.93Z" transform="translate(-183.55 0)"/><path d="M737.18,164.78a.86.86,0,0,0,.51-.16,7.24,7.24,0,0,0,2.87-5.15.9.9,0,1,0-1.79-.11,5.48,5.48,0,0,1-2.1,3.78.9.9,0,0,0-.22,1.25A.89.89,0,0,0,737.18,164.78Z" transform="translate(-183.55 0)"/><path d="M751.56,184.42a.89.89,0,0,1-.49-1.17A12.14,12.14,0,0,1,754,179.5c1.27-1.26,2.58-2.56,3-4.1v0a11.76,11.76,0,0,0-.32-2.92c-.48-2.68-1-5.45.91-6a45.72,45.72,0,0,0,14.24-7.73.9.9,0,0,1,1.25.1,48.91,48.91,0,0,0,5.1,5.11.91.91,0,0,1,.3,1.1c-.25.55-6.29,13.66-16.46,16.07h0a3.48,3.48,0,0,1-2.88-.6,4.92,4.92,0,0,1-1.56-2.23,21.35,21.35,0,0,1-2.31,2.54,10.89,10.89,0,0,0-2.54,3.16.9.9,0,0,1-.83.56A.83.83,0,0,1,751.56,184.42Zm25-19.55a51.1,51.1,0,0,1-4.23-4.28,47.43,47.43,0,0,1-14.15,7.51c-.35.47.08,2.86.28,4a11.6,11.6,0,0,1,.33,3.56c.08.79.45,2.62,1.42,3.35a1.66,1.66,0,0,0,1.43.27C769.75,177.38,775.25,167.47,776.57,164.87Z" transform="translate(-183.55 0)"/><path d="M746.39,206.49a.91.91,0,0,0,.89-.75,97.59,97.59,0,0,1,3.22-12.17c.86-2.77,1.67-5.37,2.06-7.24.59-2.82-.73-4.93-1.79-6.63-.77-1.25-1.44-2.32-1.27-3.37,0-.09,0-.23.08-.39.52-2.71.92-5.7-.15-7.27a2.25,2.25,0,0,0-1.46-1,30.32,30.32,0,0,1-12.29-6.06.9.9,0,0,0-1.2,1.33,31.64,31.64,0,0,0,13.11,6.49h0a.49.49,0,0,1,.33.23c.52.78.48,2.77-.13,5.93,0,.18-.06.32-.08.43-.29,1.72.62,3.19,1.51,4.61,1,1.58,2,3.21,1.55,5.32-.37,1.79-1.17,4.36-2,7.08a98.76,98.76,0,0,0-3.29,12.41.91.91,0,0,0,.75,1Z" transform="translate(-183.55 0)"/><path d="M741.34,182.53a5.69,5.69,0,0,0,1.22-.13c3.85-.77,6.65-5,6.77-5.16a.9.9,0,1,0-1.5-1s-2.52,3.77-5.63,4.4a4.23,4.23,0,0,1-3.32-.72c-4.27-2.87-6.93-9.89-7.61-11.87a48.84,48.84,0,0,0,4.31-5,.89.89,0,0,0-.18-1.25.9.9,0,0,0-1.26.18,44.81,44.81,0,0,1-4.51,5.16.88.88,0,0,0-.25.93c.12.39,3,9.67,8.5,13.36A6.12,6.12,0,0,0,741.34,182.53Z" transform="translate(-183.55 0)"/><path d="M818.66,271.21a15.31,15.31,0,0,0,4.53-.64,8.5,8.5,0,0,0,5.51-4.78v0a33.64,33.64,0,0,0,2-8.09.89.89,0,1,0-1.77-.23A32.48,32.48,0,0,1,827,265.1a6.6,6.6,0,0,1-4.39,3.75c-5.19,1.63-12.74-.58-17.51-3.6h0l-8.94-5.33-20.73-13a40.73,40.73,0,0,0-7-3.7,46.75,46.75,0,0,0-8.25-1.92,27.6,27.6,0,0,1-5.16-1.17,16.25,16.25,0,0,1-2.67-2.65c-1.64-1.84-3.49-3.93-5.58-4.87a10.42,10.42,0,0,0-1.43-.47c-1.33-.38-3.34-.94-3.46-2.06,0-.17,0-.21.06-.24.43-.39,2.06-.38,3.31-.13a.88.88,0,0,0,1.05-.7.9.9,0,0,0-.69-1.06c-.58-.11-3.54-.64-4.87.56a2,2,0,0,0-.64,1.75c.24,2.33,3,3.1,4.75,3.6a8.5,8.5,0,0,1,1.14.37h0c1.74.78,3.47,2.72,5,4.43a16.46,16.46,0,0,0,3.08,3c.86.52,2.75.87,5.78,1.4a44.89,44.89,0,0,1,7.88,1.83,39.36,39.36,0,0,1,6.67,3.52l0,0,20.76,13h0l8.94,5.33A29,29,0,0,0,818.66,271.21Z" transform="translate(-183.55 0)"/><path d="M829.42,239.37h.12a.88.88,0,0,0,.77-1C827,212,813.53,179,804.2,174.23c-12.09-6.2-26.57-9.62-26.72-9.65a.89.89,0,1,0-.41,1.74c.15,0,14.42,3.41,26.31,9.51,8,4.11,21.65,35.28,25.15,62.76A.9.9,0,0,0,829.42,239.37Z" transform="translate(-183.55 0)"/><path d="M801.28,238.65c-1-.49-1-1.19-1-1.47a1.23,1.23,0,0,1,.68-.86,16,16,0,0,1-1.12-2c-.88-1.93-1.64-18.25-1.79-21.5a.89.89,0,0,1,.86-.93.88.88,0,0,1,.93.85c.41,9.26,1.13,19.71,1.63,20.83a12.59,12.59,0,0,0,1.69,2.75.92.92,0,0,1,.15.94.89.89,0,0,1-.78.55.94.94,0,0,1-.08.43.91.91,0,0,1-.81.52A.85.85,0,0,1,801.28,238.65Zm.54-.74Z" transform="translate(-183.55 0)"/><path d="M791.93,213a.9.9,0,0,0,0-1.79c-.14,0-14.55-.8-19.58-2.6a.9.9,0,1,0-.6,1.69c5.27,1.89,19.49,2.67,20.09,2.7Z" transform="translate(-183.55 0)"/><path d="M740.74,223.2a.94.94,0,0,0,.57-.2.89.89,0,0,0,.12-1.26,3.49,3.49,0,0,1,0-4.2c1.21-1.63,6-1,8.81-.29a.9.9,0,0,0,.47-1.73c-.86-.24-8.4-2.17-10.72.95a5.22,5.22,0,0,0,.11,6.4A.87.87,0,0,0,740.74,223.2Z" transform="translate(-183.55 0)"/><path d="M741.62,229.18a.88.88,0,0,0,.75-.41.89.89,0,0,0-.27-1.24s-1.88-1.26-1.77-3a.93.93,0,0,1,.41-.7c1.3-.94,5.06-.51,7.13,0a.89.89,0,1,0,.41-1.74c-.62-.15-6.21-1.42-8.6.31a2.69,2.69,0,0,0-1.13,2c-.19,2.79,2.47,4.54,2.58,4.61A.87.87,0,0,0,741.62,229.18Z" transform="translate(-183.55 0)"/><path d="M754.18,212a.94.94,0,0,0,.5-.15.89.89,0,0,0,.24-1.24c-.38-.57-3.8-5.52-6.9-5.34a18.87,18.87,0,0,0-4.64,1c-2.83,1-3,1.62-3.11,1.93s-.37,1.26,2.74,3.62a.9.9,0,0,0,1.09-1.43,13.68,13.68,0,0,1-1.89-1.69,17.52,17.52,0,0,1,5.92-1.64c1.63-.11,4.28,3,5.3,4.55A.91.91,0,0,0,754.18,212Z" transform="translate(-183.55 0)"/><path d="M731.06,241.64c.74,0,1.46,0,2.14-.06,3.34-.19,7.54-.89,8.5-1.68a10.07,10.07,0,0,0,3.32-7.26.9.9,0,0,0-1.8.07,8.35,8.35,0,0,1-2.65,5.8,26.59,26.59,0,0,1-7.64,1.29c-4.4.23-7.68-.35-9-1.59-7.2-7-5.59-23.78-5.23-26.83,7.07-3.1,22.22-2,22.37-2a.9.9,0,0,0,.13-1.79c-.67-.05-16.43-1.14-23.72,2.42a.89.89,0,0,0-.49.68c-.12.84-2.85,20.54,5.7,28.86C724.49,241.2,727.92,241.64,731.06,241.64Z" transform="translate(-183.55 0)"/><path d="M755.6,229.89a.9.9,0,0,1-.13-1.26,3.46,3.46,0,0,0,.3-1.84,5.67,5.67,0,0,1,.13-1.52,6.47,6.47,0,0,1,1-1.8,5.57,5.57,0,0,0,.68-1.09c0-.16,0-.39-.07-.64a4,4,0,0,1,.18-2.57.9.9,0,1,1,1.58.86,3,3,0,0,0,0,1.44,6.4,6.4,0,0,1,.1.94,4.07,4.07,0,0,1-1,2.1,6,6,0,0,0-.75,1.24,4.41,4.41,0,0,0-.07,1.05,4.55,4.55,0,0,1-.7,3,.87.87,0,0,1-.69.33A.94.94,0,0,1,755.6,229.89Zm2-7.53Z" transform="translate(-183.55 0)"/><path d="M805.54,276.86h.06a.9.9,0,0,0,.84-1l-.61-9.14a.9.9,0,0,0-1.79.12l.61,9.14A.9.9,0,0,0,805.54,276.86Z" transform="translate(-183.55 0)"/><path d="M697.64,249.8a.89.89,0,0,0,.89-.87,326,326,0,0,1,2.52-33.47c2.34-17.27,6.1-28.74,10.89-33.17,11.45-10.6,19.22-11,19.29-11a.9.9,0,1,0-.05-1.79c-.34,0-8.53.38-20.46,11.43-10.74,9.94-13.37,46.81-14,67.9a.91.91,0,0,0,.87.93Z" transform="translate(-183.55 0)"/><path d="M712.65,276.86a.9.9,0,0,0,.89-.79,293,293,0,0,0,2-32A96.32,96.32,0,0,0,711.56,218a.89.89,0,0,0-1.13-.57.9.9,0,0,0-.58,1.13,94.34,94.34,0,0,1,3.85,25.54,292.75,292.75,0,0,1-1.94,31.76.9.9,0,0,0,.78,1Z" transform="translate(-183.55 0)"/><path d="M747.65,267.22a.84.84,0,0,0,.27,0,.89.89,0,0,0,.58-1.12c-2.35-7.38-1.28-23.08-1.27-23.24a.89.89,0,0,0-.83-1,.91.91,0,0,0-1,.83c0,.66-1.1,16.21,1.35,23.91A.9.9,0,0,0,747.65,267.22Z" transform="translate(-183.55 0)"/><ellipse cx="567.46" cy="123.93" rx="1.66" ry="2.93"/><ellipse cx="546.5" cy="123.93" rx="1.66" ry="2.93"/><path d="M743.38,129.64a12,12,0,0,1-3.5-9.59h0c.25-3.07,6.47-4.32,8.37-4.64,5.7-.93,12.12-.32,13.62,3.15a11.49,11.49,0,0,1-.77,10.17,9.52,9.52,0,0,1-7.62,4.65c-.32,0-.65,0-1,0A12.82,12.82,0,0,1,743.38,129.64Zm5.16-12.46c-4.58.76-6.81,2.25-6.87,3h0a10.26,10.26,0,0,0,3,8.18,11.06,11.06,0,0,0,8.69,3.21,7.75,7.75,0,0,0,6.21-3.79,9.6,9.6,0,0,0,.66-8.53c-.74-1.72-3.83-2.45-7.3-2.45A28,28,0,0,0,748.54,117.18Z" transform="translate(-183.55 0)"/><path d="M723.42,131.79a8.45,8.45,0,0,1-6.66-4.12,11,11,0,0,1-.83-9.68c1.39-3.39,7.22-3.75,11.79-3,3.66.58,7.64,2,7.83,4.43l-.9.07.9-.07a11.66,11.66,0,0,1-3.33,9.15,11.25,11.25,0,0,1-7.93,3.3C724,131.83,723.71,131.81,723.42,131.79Zm-5.83-13.12a9.18,9.18,0,0,0,.7,8.06,6.61,6.61,0,0,0,5.27,3.27,9.41,9.41,0,0,0,7.39-2.74,9.85,9.85,0,0,0,2.81-7.74c-.06-.77-2.29-2.16-6.32-2.79a22.56,22.56,0,0,0-3.55-.29C720.88,116.44,718.23,117.11,717.59,118.67Z" transform="translate(-183.55 0)"/><path d="M740.78,121a.89.89,0,0,0,.68-.31.9.9,0,0,0-.11-1.27c-.08-.07-2.24-1.84-6.88-.87a.89.89,0,1,0,.37,1.75c3.73-.78,5.34.48,5.36.49A.88.88,0,0,0,740.78,121Z" transform="translate(-183.55 0)"/><path d="M786.84,125.12a.89.89,0,0,0,.84-.59,2.57,2.57,0,0,0-1.62-3.37c-3.07-1.08-22.17-.62-24.33-.56a.9.9,0,0,0-.88.92.91.91,0,0,0,.92.87c8.38-.22,21.6-.27,23.69.46a.77.77,0,0,1,.54,1.06.9.9,0,0,0,.53,1.15A.85.85,0,0,0,786.84,125.12Z" transform="translate(-183.55 0)"/><path d="M716.58,119.72a.9.9,0,0,0,.09-1.79l-2.17-.23a.9.9,0,1,0-.19,1.78l2.17.23Z" transform="translate(-183.55 0)"/><path d="M736,136.58a3.82,3.82,0,0,1-2.55-1.8l0,0c-.84-1.5-.56-3.23.79-4.85a9.93,9.93,0,0,1,2.11-1.87.9.9,0,1,1,1,1.52s-3.44,2.2-2.29,4.31a2,2,0,0,0,1.36,1c1.47.3,3.45-.8,4.09-1.25a.9.9,0,1,1,1,1.47,9.28,9.28,0,0,1-4.6,1.62A4.27,4.27,0,0,1,736,136.58Zm-1.79-2.27Z" transform="translate(-183.55 0)"/><path d="M738.66,146.82a8.28,8.28,0,0,0,5.43-2.49.89.89,0,0,0,0-1.26.9.9,0,0,0-1.27,0h0a6.45,6.45,0,0,1-4.32,1.92,5.34,5.34,0,0,1-3.87-2.37.89.89,0,0,0-1.41,1.1,7,7,0,0,0,5.21,3.06Z" transform="translate(-183.55 0)"/><path d="M758.1,119.07a13.59,13.59,0,0,0-2.16-2.13c-.19-.16-.4-.31-.6-.46s-.42-.29-.63-.43a7.16,7.16,0,0,0-.66-.39c-.22-.13-.45-.25-.68-.36a12.48,12.48,0,0,0-2.94-1l-.76-.14-.78-.08-.39,0h-1.18a.81.81,0,0,0,0,1.61h.08l.68,0h.34l.33,0,.68.09.66.14a18.42,18.42,0,0,1,2.59.89,5.11,5.11,0,0,1,.64.27c.22.09.43.17.64.28.43.18.85.39,1.27.6.84.43,1.67.93,2.46,1.44h0a.31.31,0,0,0,.42-.45Z" transform="translate(-183.55 0)"/><path d="M726,118.26c.13-.11.27-.24.42-.35l.44-.33c.31-.21.62-.41.94-.59s.65-.34,1-.49l.5-.22.5-.19a5.08,5.08,0,0,1,.51-.17,5,5,0,0,1,.51-.16l.52-.15.53-.1a9.17,9.17,0,0,1,1.05-.16,4.9,4.9,0,0,1,.54,0l.53,0h.08a1,1,0,0,0,.92-1,1,1,0,0,0-1-.93h-.07c-.41.06-.82.09-1.23.17s-.81.16-1.2.28a11,11,0,0,0-2.29.91,9.93,9.93,0,0,0-2,1.39,9.33,9.33,0,0,0-1.62,1.81.31.31,0,0,0,.46.4Z" transform="translate(-183.55 0)"/><path d="M705.85,251.23a23.51,23.51,0,0,0,9.1-1.51.9.9,0,0,0-.75-1.64h0c-.07,0-6.44,2.82-17.3.24.26,0,.56-.09.88-.12a.9.9,0,1,0-.19-1.79c-3.09.34-4.05,1.3-4.21,1.49a.89.89,0,0,0-.18.84.86.86,0,0,0,.6.6A41.88,41.88,0,0,0,705.85,251.23Z" transform="translate(-183.55 0)"/><path d="M705.56,262.25a16.25,16.25,0,0,0,9.08-2.41.9.9,0,0,0,.25-1.24.88.88,0,0,0-1.24-.25c-6.13,4.06-15.74,1.12-18.42.18.34-1.58.86-4.74,0-6.14-.54-.86-.45-2.75-.27-3.74a.9.9,0,0,0-.72-1.05.89.89,0,0,0-1,.72c-.07.33-.58,3.3.51,5,.45.71.15,3.42-.39,5.52a.9.9,0,0,0,.53,1.05A34.61,34.61,0,0,0,705.56,262.25Z" transform="translate(-183.55 0)"/><path d="M698.1,276.86h0a.88.88,0,0,0,.85-.93c-.31-6.6,0-15.47,0-15.56a.9.9,0,0,0-1.8-.06c0,.09-.31,9,0,15.7A.91.91,0,0,0,698.1,276.86Z" transform="translate(-183.55 0)"/><path d="M771.25,238.94a5.61,5.61,0,1,1,5.6,5.61A5.6,5.6,0,0,1,771.25,238.94Zm.9,0a4.71,4.71,0,1,0,4.7-4.7A4.71,4.71,0,0,0,772.15,238.94Z" transform="translate(-183.55 0)"/><path d="M772.91,238.94a3.95,3.95,0,1,1,3.94,3.95A3.95,3.95,0,0,1,772.91,238.94Zm.54,0a3.41,3.41,0,1,0,3.4-3.4A3.41,3.41,0,0,0,773.45,238.94Z" transform="translate(-183.55 0)"/><path d="M776.07,248.32l.08,0a.25.25,0,0,0,.16-.14l1.91-3.94a.28.28,0,0,0-.13-.36.27.27,0,0,0-.36.12l-1.79,3.71-5.5-2.66,1.83-3.8a.27.27,0,0,0-.12-.36.28.28,0,0,0-.36.13l-1.95,4a.27.27,0,0,0,.12.36l6,2.89A.27.27,0,0,0,776.07,248.32Z" transform="translate(-183.55 0)"/><path d="M781.61,236.85a.28.28,0,0,0,.24-.15l1.79-3.71a.3.3,0,0,0,0-.21.26.26,0,0,0-.14-.15l-6-2.89a.26.26,0,0,0-.36.12l-1.8,3.71a.28.28,0,0,0,.13.36.27.27,0,0,0,.36-.12l1.67-3.47L783,233l-1.68,3.46a.28.28,0,0,0,.25.39Z" transform="translate(-183.55 0)"/><path d="M775.8,241.48a.36.36,0,0,0,.32-.21l1.06-2.17a.39.39,0,0,0,0-.35.37.37,0,0,0-.31-.16h-1.44a.36.36,0,1,0,0,.71h.87l-.81,1.66a.37.37,0,0,0,.17.48A.42.42,0,0,0,775.8,241.48Z" transform="translate(-183.55 0)"/><path d="M809.22,244.13a.9.9,0,0,0,.27-1.75c-.1,0-10.33-3.24-16.18-5.67s-15.63-7.33-15.73-7.38l0,0c-1.88-.83-7-3.35-8.31-5.06-1.05-1.43-2-2.79-3-4.11-2.93-4.12-5-7.1-7-8.16-2.13-1.17-10.51-3.8-14.8-2.37a4.07,4.07,0,0,0-2.56,2.12c-.8,1.81.41,3.52,1.24,4.24a.9.9,0,1,0,1.18-1.36s-1.24-1.11-.78-2.14a2.26,2.26,0,0,1,1.48-1.16c3.68-1.22,11.55,1.24,13.37,2.24,1.57.86,3.8,4,6.38,7.63.94,1.33,1.91,2.7,3,4.14,1.76,2.38,8.17,5.26,9,5.62.51.26,10,5,15.82,7.43s16.23,5.69,16.33,5.72A.84.84,0,0,0,809.22,244.13Z" transform="translate(-183.55 0)"/><path d="M828.12,265.66h0a3.83,3.83,0,0,0,3.64-4.19.34.34,0,0,0,0-.1,35.17,35.17,0,0,0-3.41-9.94c-3.53-6.76-8.8-10.85-15.24-11.82a19.71,19.71,0,0,0-9.72.68.89.89,0,0,0-.5,1.16.91.91,0,0,0,1.17.5h0a18.38,18.38,0,0,1,8.78-.56c5.93.89,10.62,4.55,13.92,10.87a34.2,34.2,0,0,1,3.22,9.33,2.06,2.06,0,0,1-1.92,2.28.9.9,0,0,0,0,1.79Z" transform="translate(-183.55 0)"/><path d="M830.65,263.86a.92.92,0,0,0,.76-.41,9.49,9.49,0,0,0,.3-9,4.24,4.24,0,0,1,1.7-5.65,1,1,0,0,0,.25-.22c.11-.14,2.69-3.52,1-6.93-2.21-4.36-10.31-6.37-24.1-6-9.54.31-10.7,4.06-10.8,4.48l1.74.42v0s1-2.88,9.13-3.14c7.27-.21,12.94.26,16.84,1.4,2.93.86,4.82,2.06,5.59,3.58,1.08,2.11-.31,4.38-.68,4.92a6,6,0,0,0-2.23,7.88,7.78,7.78,0,0,1-.2,7.22.89.89,0,0,0,.27,1.24A.92.92,0,0,0,830.65,263.86Z" transform="translate(-183.55 0)"/><path d="M830.9,250.8a.69.69,0,0,0,.2,0,.62.62,0,0,0,.4-.79,15.17,15.17,0,0,0-10.64-9.47.63.63,0,1,0-.29,1.22,14.18,14.18,0,0,1,9.74,8.64A.62.62,0,0,0,830.9,250.8Z" transform="translate(-183.55 0)"/><path d="M709.12,256.61a10,10,0,0,0,5.67-1.51.63.63,0,1,0-.74-1h0s-2.73,1.91-7.39,1a.63.63,0,0,0-.23,1.24A14.78,14.78,0,0,0,709.12,256.61Z" transform="translate(-183.55 0)"/></g></svg>