<svg xmlns="http://www.w3.org/2000/svg" width="148" height="148" viewBox="0 0 148 148">
  <path id="emam-linkedin" d="M76.77,0a74,74,0,1,0,74,74A74.008,74.008,0,0,0,76.77,0Zm-21.5,111.867H37.244V57.646H55.266Zm-9.01-61.624h-.118c-6.047,0-9.958-4.163-9.958-9.366,0-5.321,4.03-9.369,10.2-9.369s9.96,4.048,10.078,9.369C56.453,46.08,52.546,50.243,46.256,50.243Zm74,61.624H102.231V82.861c0-7.29-2.6-12.262-9.131-12.262a9.858,9.858,0,0,0-9.246,6.591,12.33,12.33,0,0,0-.593,4.4v30.285H65.241s.236-49.135,0-54.221h18.02v7.674c2.4-3.7,6.681-8.95,16.242-8.95,11.858,0,20.749,7.749,20.749,24.4Z" transform="translate(-2.77)" fill="#26abe2"/>
</svg>
