<svg id="Layer_1" data-name="Layer 1" xmlns="http://www.w3.org/2000/svg" viewBox="0 0 500 120.89"><defs><style>.cls-1{fill:#22b251;}.cls-2{fill:#fff;fill-rule:evenodd;}</style></defs><title>grabfood-emam</title><rect class="cls-1" width="500" height="120.89" rx="57.74"/><path class="cls-2" d="M285.23,261.7H264.07v23.42h-10.4l0-60h33.67v10.17H264.06v16.26h21.16Zm41.11-3.54c0-7.57-5.3-12.68-12.65-12.68s-12.64,5.11-12.64,12.68v4c0,7.57,5.3,13,12.65,13s12.64-5.4,12.64-13Zm10.78,0v4c0,13.72-9.2,23-23.42,23s-23.43-9.27-23.43-23v-4c0-13.72,9.2-22.81,23.42-22.82s23.42,9.08,23.43,22.8Zm39,0c0-7.57-5.3-12.68-12.65-12.68s-12.64,5.11-12.64,12.68v4c0,7.57,5.3,13,12.65,13s12.65-5.4,12.64-13Zm10.78,0v4c0,13.72-9.2,23-23.41,23s-23.44-9.27-23.44-23v-4c0-13.72,9.21-22.81,23.42-22.82s23.43,9.08,23.43,22.8Zm-150-15.91a22.06,22.06,0,0,0-15.61-6.48,21.34,21.34,0,0,0-10.92,3.14c-4.87,3.22-8.89,6.72-16.11,16v6.65c6.13-7.92,11.93-14.16,16.33-17.59a17.55,17.55,0,0,1,28.37,13.76v4a17.25,17.25,0,0,1-5.24,12.41,17.63,17.63,0,0,1-12.41,5.1,17.24,17.24,0,0,1-16.67-12.66l-3.16,3.8c2.31,7.66,10.64,13.31,19.83,13.31a22.07,22.07,0,0,0,15.6-6.49,21.73,21.73,0,0,0,6.53-15.47v-4A21.7,21.7,0,0,0,236.87,242.24Zm-96.06-2a16.05,16.05,0,0,1,8.06,2,40.72,40.72,0,0,1,3.09-3.34c-2.52-1.91-6.78-3.09-11.15-3.09a22.22,22.22,0,0,0-15.92,6.28,21.91,21.91,0,0,0-6.21,15.68v26h4.48v-26c0-10.31,7.26-17.51,17.65-17.51Zm42.63,43.45v-26a14.36,14.36,0,0,0-28.71,0v4A14.49,14.49,0,0,0,169.08,276c2.14,0,5-.53,6.81-2V269.3a11.2,11.2,0,0,1-6.81,2.22,9.73,9.73,0,0,1-9.87-9.79v-4a9.87,9.87,0,0,1,19.74,0v26ZM63.31,255.18v1.44a28.32,28.32,0,0,0,28.5,28.52A31.55,31.55,0,0,0,108,281a18.72,18.72,0,0,0,5.62-4.72V252.37H90.71v4.45h18.45v18.11h0c-2.16,2.16-7.29,5.75-17.35,5.75a23.72,23.72,0,0,1-24-24.07v-1.44a23.34,23.34,0,0,1,7.69-16.88,26.84,26.84,0,0,1,18.32-7.21c6.36,0,10.79,1,14.35,3.09v-5c-3.71-1.57-8.14-2.27-14.35-2.27C77.27,226.94,63.31,239.88,63.31,255.18ZM140.82,248a9.94,9.94,0,0,1,4.29.83,26.36,26.36,0,0,1,2-3.9c-1.22-.86-4.12-1.38-6.25-1.38a14,14,0,0,0-14.35,14.24v26H131v-26C131,252,135,248,140.82,248Zm-32.66-5.21v-5.25c-4-2.16-8.48-3.12-14.35-3.12a23.61,23.61,0,0,0-16,6.13,19.85,19.85,0,0,0-6.72,14.68v1.44a20.78,20.78,0,0,0,20.7,20.8c9.29,0,13.1-3,14.07-4V260.1H90.71v4.45h11v6.68h0A24.37,24.37,0,0,1,91.8,273a16,16,0,0,1-11.47-4.74,16.34,16.34,0,0,1-4.75-11.61v-1.44c0-8.87,8.35-16.36,18.23-16.36,6.83,0,10.88,1.09,14.35,3.92ZM214,251.09a10.47,10.47,0,0,1,7.25-3.16,9.72,9.72,0,0,1,9.87,9.77v4a9.72,9.72,0,0,1-9.86,9.79c-2.68,0-5.27-1.45-7.3-4.1a15.89,15.89,0,0,1-3.14-8.32l-3.63,4.4a16.75,16.75,0,0,0,5,8.84,13.59,13.59,0,0,0,9.08,3.63,14.31,14.31,0,0,0,14.35-14.24v-4a14.1,14.1,0,0,0-4.28-10,14.29,14.29,0,0,0-10.08-4.24c-2.37,0-6.14.85-10.63,4.86h0c-1.21,1.19-4,4-5.75,6-2.88,3.12-7.07,7.84-10.64,12.56v6.94c4-5.05,6.24-7.88,10-12.15A133,133,0,0,1,214,251.09Zm-67.08,10.65a21.7,21.7,0,0,0,6.55,15.47,22.05,22.05,0,0,0,15.6,6.47,16.23,16.23,0,0,0,6.8-1.4v-4.44a18.67,18.67,0,0,1-6.8,1.4,17.84,17.84,0,0,1-17.67-17.5v-4a17.82,17.82,0,0,1,17.65-17.51,17.62,17.62,0,0,1,12.52,5.09,17.32,17.32,0,0,1,5.14,12.41v26h4.49V256.86a22.11,22.11,0,0,0-37.75-14.59,21.69,21.69,0,0,0-6.53,15.46v4Zm51.9-17.23a35.45,35.45,0,0,1,4.48-4.7V216.32h-4.48v28.19Zm7.78-6.52V216.32h4.48v18.62a27.27,27.27,0,0,0-4.48,3.05Zm186.14,24.57c0,13.48,8.61,22.58,22,22.58s21.91-9.12,21.91-22.59l0-43.3H426.5v43.3c0,7.43-4.8,12.64-11.74,12.64s-11.83-5.2-11.84-12.63v-4c0-7.34,4.9-12.36,11.83-12.36s11.75,4.64,11.75,11.52V241c-1.48-2.23-6.2-4.73-11.75-4.73-13.41,0-22,8.93-22,22.31Z" transform="translate(0 -190.28)"/></svg>