<svg id="Layer_1" data-name="Layer 1" xmlns="http://www.w3.org/2000/svg" xmlns:xlink="http://www.w3.org/1999/xlink" viewBox="0 0 1080 1088.02"><defs><style>.cls-1{fill:none;}.cls-2{fill:#b4d333;}.cls-3{clip-path:url(#clip-path);}.cls-4{fill:#1e1e1d;}.cls-5{fill:#edb98a;}.cls-6{fill:#fff;}.cls-7{fill:#231f20;}.cls-8{fill:#606060;}</style><clipPath id="clip-path" transform="translate(0)"><circle class="cls-1" cx="540" cy="540" r="540"/></clipPath></defs><title>emam-team-product</title><circle class="cls-2" cx="540" cy="540" r="540"/><g class="cls-3"><path class="cls-4" d="M540,346.14s-50.28-4.33-62.24,11.58-8.68,17.61-13.11,20.14S430,378.1,419.62,401s1.12,37.14,9,41.44c0,0-51.72,48.22-68.34,109.43,0,0-6,59.11-6.91,66.6S332.19,712,332.28,727.91s1.86,31.15,1.86,31.15h444.6s-5.77-78-14.63-104.18c0,0-6.88-46.16-6.35-78.54S754.51,454.27,686.46,406c0,0-6.35-32.19-29.53-43.59S540,346.14,540,346.14Z" transform="translate(0)"/><path class="cls-5" d="M543,381.41l14-20.78s-26.95-23.56-28-34.2c0,0-10.14,6.24-12.47,4.12s-3.33-14.51-5.35-18.4-17.92-8.16-13.35-28.38,25.83-6.67,32.17.3l1.11,1.06s5-16,4.48-25,14.82-27.62,12-50.3c0,0,15.71-13.68,33.45-13.55s35.6,10.65,51.69,8.93,23.15-8.65,29.77-8.1,13.6,3.88,13.76,4.74S689.46,292,689.73,312.24s-21.8,48.06-28.53,54.28a156,156,0,0,1-19.66,14.89c-1.53.74-3.77,1.7-3.77,1.7l5.94,7.42s-28.13,42.49-44.22,43.2S543,381.41,543,381.41Z" transform="translate(0)"/><path d="M594.22,319.33s54.64-3.71,57.77,0-2.26,28.5-26.17,29.07S594.56,333,594.22,319.33Z" transform="translate(0)"/><path class="cls-6" d="M602.33,317.57c0,.86-.76,7.83,2.15,9.87s33.7,3.55,42.69-3.17c2-.91.85-5.89.85-5.89Z" transform="translate(0)"/><path d="M504.7,274.59s-8.61-33.21,0-52.3l-8.14-.25s17.84-56.55,88.54-79.84c64.35-19.49,81.57,19.29,81.57,19.29s13-4.2,21.52,17.72c4,11.83-8.23,41-8.23,41l-3.57-18.3s-8.31-6.31-14.27-5.82-20.27,9-29.26,9.18-41.43-11.19-52.33-9.15-34.13,12-34.13,12,3.93,25.7-11.56,48l-3.63,29S515.14,268.86,504.7,274.59Z" transform="translate(0)"/><path d="M427.93,444.66a2.88,2.88,0,0,1-.59-.06c-6-1.24-10.77-6.47-13.13-14.36-3.41-11.38-1.73-29,10-40.73,11.34-11.34,22.07-11.93,29.91-12.35,3.87-.21,6.93-.38,8.92-1.72,2.4-1.62,3.71-4.42,5.37-8,2.66-5.69,6-12.76,15.52-18.44,15.5-9.19,54.68-5.95,56.34-5.8a2.92,2.92,0,0,1-.5,5.82c-.39,0-39-3.24-52.86,5-8,4.75-10.77,10.66-13.2,15.88-1.88,4-3.66,7.83-7.41,10.35-3.33,2.24-7.48,2.46-11.87,2.7-7.27.4-16.33.89-26.09,10.65-9.6,9.61-11.57,24.84-8.56,34.93,1.73,5.76,4.9,9.52,8.72,10.31a2.92,2.92,0,0,1-.59,5.78Z" transform="translate(0)"/><path d="M575,450.46a3,3,0,0,1-.52,0c-27.56-5-72.15-52.17-72.57-52.64-2.86-3.19-8.06-1.44-8.12-1.42a2.92,2.92,0,1,1-2-5.49c.36-.14,8.94-3.13,14.43,3,5.37,6,46.23,46.62,69.27,50.79a2.92,2.92,0,0,1-.52,5.79Z" transform="translate(0)"/><path d="M334.13,762a2.92,2.92,0,0,1-2.85-2.29c-6.38-29.13,4.39-73.81,12.25-106.43,2-8.26,3.71-15.39,4.9-21.25,2.09-10.27,2.73-21.64,3.41-33.67,1.2-21.12,2.56-45.07,12.45-68.36,21.42-50.43,55.74-85.52,80.76-106.08,27.12-22.29,48.87-32.51,49.78-32.93a2.92,2.92,0,1,1,2.47,5.29c-.22.1-22.12,10.41-48.69,32.27-24.46,20.13-58,54.46-78.94,103.73-9.5,22.36-10.77,44.75-12,66.41-.7,12.25-1.35,23.82-3.52,34.5-1.22,6-3,13.15-5,21.46-7.73,32.07-18.32,76-12.22,103.81a2.91,2.91,0,0,1-2.23,3.47A2.7,2.7,0,0,1,334.13,762Z" transform="translate(0)"/><path d="M434.14,762a1.83,1.83,0,0,1-.33,0,2.92,2.92,0,0,1-2.58-3.22c.16-1.4,15.48-140.19,3-186.17A2.92,2.92,0,0,1,439.9,571c12.74,47.06-2.22,182.6-2.86,188.35A2.92,2.92,0,0,1,434.14,762Z" transform="translate(0)"/><path d="M481.2,762a3.05,3.05,0,0,1-.6-.06,2.91,2.91,0,0,1-2.26-3.46c1.81-8.65,7.94-37.19,10.79-41.08a38.49,38.49,0,0,1,2.89-3.12c8.54-8.74,34.5-35.34,33.07-66.83a2.92,2.92,0,0,1,2.76-3l132.84-7.11a2.92,2.92,0,0,1,2.8,1.66c.18.39,18.66,38.94,36,47.93,2,1,4.32,3.53,7,14.54,1.45,6,2.87,14.13,4.22,24,2.28,16.77,3.59,33.25,3.6,33.41a2.92,2.92,0,1,1-5.82.46c0-.16-1.27-16.06-3.48-32.43-4.19-31.12-7.83-34.55-8.23-34.84-16.94-8.81-33.67-40.82-37.64-48.81L531,650.06c-.06,32.71-26.07,59.35-34.79,68.28-1,1.07-2.12,2.18-2.36,2.5-1.52,2.34-6.18,21.59-9.79,38.82A2.91,2.91,0,0,1,481.2,762Z" transform="translate(0)"/><path d="M743,762h-.17a2.93,2.93,0,0,1-2.75-3.09c1.75-30.36-7.42-74.21-14.79-109.44-5-23.68-9.24-44.14-9.23-55.55-.48-17.64,2.8-109,2.94-112.89a2.92,2.92,0,1,1,5.84.22c0,.95-3.42,95.2-2.94,112.55v.09c0,10.78,4.21,31,9.1,54.38,7.45,35.58,16.71,79.85,14.91,111A2.91,2.91,0,0,1,743,762Z" transform="translate(0)"/><path d="M778.74,762a2.92,2.92,0,0,1-2.92-2.84c0-.57-1.6-56.87-13.12-97.94-5.59-19.91-6.45-44.7-7.36-70.94-1.06-30.61-2.16-62.25-10.3-92.7-7.82-29.21-23.76-51.88-35.76-65.76-13.06-15.09-24.41-23.35-24.52-23.43a2.92,2.92,0,0,1-1.16-1.82c-.06-.3-6.09-30.36-24.22-36.35a2.92,2.92,0,0,1,1.84-5.55c19.41,6.42,26.53,33.66,27.87,39.66a172.9,172.9,0,0,1,24.49,23.53c12.44,14.37,29,37.86,37.1,68.21,8.32,31.09,9.48,64.51,10.5,94,.89,25.89,1.74,50.34,7.14,69.57,11.73,41.78,13.33,98.79,13.34,99.36a2.91,2.91,0,0,1-2.84,3Z" transform="translate(0)"/><path d="M627.64,451.93a2.92,2.92,0,0,1-.78-5.73c35.31-9.79,47.68-33.56,47.8-33.79a2.92,2.92,0,0,1,5.22,2.61c-.53,1.07-13.51,26.29-51.46,36.81A3,3,0,0,1,627.64,451.93Z" transform="translate(0)"/><path d="M602.76,762a2.92,2.92,0,0,1-2.92-2.92V449a2.92,2.92,0,1,1,5.84,0v310A2.92,2.92,0,0,1,602.76,762Z" transform="translate(0)"/><path d="M598.91,436.67c-3.61,0-13.31-1.66-39.85-30.48C545.35,391.3,533.6,376.13,533.48,376a2.92,2.92,0,0,1,4.62-3.57c17.54,22.67,49.5,58.41,61.08,58.41h.2c12.86-.49,37.54-32.86,46-45.29a2.92,2.92,0,0,1,4.84,3.27c-3.27,4.83-32.47,47.16-50.58,47.85Z" transform="translate(0)"/><path d="M544.3,384.33a2.92,2.92,0,0,1-2.36-4.64c.09-.12,8-11,11.5-18.13a97.45,97.45,0,0,1-25.52-30.87c-3.92,2.29-10.49,5.08-14.61,1.14-3.32-3.18-3.69-8.79-4-13.3a23.49,23.49,0,0,0-.62-5,20.08,20.08,0,0,0-2.35-1.68c-5.45-3.59-16.8-11.06-11.22-29,2.72-8.73,7.94-11.41,11.83-12.13,9.83-1.79,20.87,6.87,22.14,8.49a2.92,2.92,0,0,1-4.54,3.68c-1.43-1.48-10.49-7.85-16.94-6.34-3.2.75-5.46,3.38-6.91,8-4.27,13.73,3.31,18.72,8.85,22.37,2.08,1.36,3.58,2.35,4.32,3.84.91,1.82,1.08,4.36,1.27,7.3.23,3.5.51,7.85,2.19,9.46,1.28,1.23,6.44-.89,10-3.53a2.94,2.94,0,0,1,2.47-.48,2.9,2.9,0,0,1,1.92,1.61c9.42,20.52,26.82,32.91,27,33a2.92,2.92,0,0,1,1,3.48c-3,7.6-12.7,20.85-13.11,21.41A2.9,2.9,0,0,1,544.3,384.33ZM524.51,282.87l0,.05Z" transform="translate(0)"/><path d="M529.86,306.29A2.93,2.93,0,0,1,527,304c-.09-.36-1.82-6.87-13.31-10.13a2.92,2.92,0,0,1,1.59-5.62c15.23,4.32,17.36,14.15,17.44,14.57a2.91,2.91,0,0,1-2.29,3.43A2.83,2.83,0,0,1,529.86,306.29Z" transform="translate(0)"/><path d="M679.6,223.87a2.87,2.87,0,0,1-1.27-.29,2.92,2.92,0,0,1-1.36-3.9c.14-.28,13.49-28.27,6.08-43.77-6.78-14.19-15.11-11.76-15.46-11.65a2.89,2.89,0,0,1-3.7-1.8,2.93,2.93,0,0,1,1.81-3.72c.55-.2,13.49-4.47,22.62,14.65,8.62,18-5.49,47.58-6.09,48.83A2.92,2.92,0,0,1,679.6,223.87Z" transform="translate(0)"/><path d="M504.7,277.51a2.93,2.93,0,0,1-2.7-1.8c-7.95-19.17-4.4-39.73-1.81-49.7a6.05,6.05,0,0,1-4.68-.77c-1.34-.94-2.74-3-1.8-7.14a.94.94,0,0,1,0-.16c2.63-9.21,12.78-26.33,32.73-44.32,14.9-13.44,39.57-31,72.42-38.31,31.22-6.95,50.2,3.22,60.63,13a58.6,58.6,0,0,1,15.27,23.23,2.92,2.92,0,0,1-5.59,1.71,53.58,53.58,0,0,0-13.86-20.85c-13.66-12.65-32.22-16.48-55.18-11.36-31.61,7-55.39,24-69.78,36.94-17.75,16-28.35,32.35-31,41.5a6.71,6.71,0,0,0-.13.79,15.22,15.22,0,0,0,4-1.77,2.92,2.92,0,0,1,4.29,3.49c-.1.27-10,27.66-.12,51.5a2.92,2.92,0,0,1-1.57,3.82A3,3,0,0,1,504.7,277.51Z" transform="translate(0)"/><path d="M624.5,388.77c-26.89,0-35.82-11.72-36.18-12.22a2.92,2.92,0,1,1,4.7-3.46c.06.08,7.84,9.83,31.48,9.83,17.23,0,33.22-16.12,41.22-25.74,12.21-14.66,19.86-30.45,20.87-37.86,2.07-15.13-10.65-103.64-12.35-115.35-9.73-6.36-15.64-3.84-23.7-.4-4.43,1.88-9.44,4-15.51,4.59-8.38.79-18.78-1.94-28.84-4.59-10.36-2.73-21.08-5.55-28.71-4.25-12,2-23.78,8.09-28.21,10.55,3.77,16.89-2.9,29.61-7.83,39-2.58,4.93-4.82,9.19-4.32,11.92,2,10.78-3,24.74-3.16,25.33a2.92,2.92,0,0,1-4.77,1.13l-3.71-3.55a2.92,2.92,0,1,1,4-4.22l.27.25c1.21-4.62,2.67-12,1.6-17.89-.87-4.71,1.8-9.79,4.89-15.68,5-9.43,11.11-21.17,6.82-37a2.92,2.92,0,0,1,1.29-3.26c.64-.39,15.87-9.61,32.12-12.38,8.87-1.51,20.21,1.47,31.18,4.36,9.56,2.52,19.46,5.12,26.8,4.43,5.17-.49,9.54-2.36,13.76-4.16,8.54-3.64,17.37-7.4,30.38,1.69a2.93,2.93,0,0,1,1.22,2c.6,4.13,14.85,101.33,12.54,118.27-1.34,9.82-10.66,27-22.17,40.81C661.56,371.32,644.11,388.77,624.5,388.77Z" transform="translate(0)"/><path d="M602.32,282a2.92,2.92,0,0,1-2.81-2.16,10.07,10.07,0,0,0-9.28-7.14c-7.76-.27-11.68,6.4-11.72,6.47a2.92,2.92,0,1,1-5.07-2.9c.22-.39,5.51-9.42,16.31-9.42h.68a15.84,15.84,0,0,1,14.72,11.47,2.92,2.92,0,0,1-2.08,3.57A3.22,3.22,0,0,1,602.32,282Z" transform="translate(0)"/><path d="M646.25,282h-.12a2.91,2.91,0,0,1-2.8-3,12.66,12.66,0,0,1,5.08-9.28c4-2.77,9.64-3,16.82-.65a2.93,2.93,0,0,1-1.82,5.56c-5.26-1.72-9.3-1.76-11.67-.11a6.83,6.83,0,0,0-2.58,4.71A2.92,2.92,0,0,1,646.25,282Z" transform="translate(0)"/><path d="M569.08,258.46a25.62,25.62,0,0,1,2.7-3.62,34.29,34.29,0,0,1,3.17-3.21,37.09,37.09,0,0,1,7.55-5.17,39,39,0,0,1,4.29-1.85,35.22,35.22,0,0,1,4.56-1.23,30.64,30.64,0,0,1,9.46-.37,3.62,3.62,0,0,1-.71,7.21H600a42.49,42.49,0,0,0-7.65,0,37.13,37.13,0,0,0-7.62,1.62,44,44,0,0,0-7.4,3.2,53,53,0,0,0-6.92,4.56l-.05,0a.9.9,0,0,1-1.32-1.17Z" transform="translate(0)"/><path d="M669.73,255.83c-2.26-1.07-4.48-2.09-6.68-3s-4.37-1.69-6.56-2.36l-.8-.27-.83-.22c-.54-.15-1.08-.32-1.62-.46-1.09-.25-2.16-.56-3.26-.77-2.16-.53-4.35-.81-6.55-1.33l-.3-.07a3.76,3.76,0,0,1,.7-7.42,26.53,26.53,0,0,1,8.08.88,32.42,32.42,0,0,1,3.87,1.27c.63.25,1.23.56,1.85.84l.9.44.89.49a32,32,0,0,1,6.45,4.72,24,24,0,0,1,4.87,6.29.73.73,0,0,1-.31,1,.75.75,0,0,1-.64,0Z" transform="translate(0)"/><path d="M630.21,311.81c-7.07,0-13.9-5.51-14.72-6.2a2.92,2.92,0,1,1,3.74-4.48c1.9,1.57,7.81,5.5,12.15,4.74a5.86,5.86,0,0,0,4.07-3.13c1.16-2,1.51-3.69,1.06-5.19-.9-3-4.9-5-6.61-5.84-.91-.44-3.31-1.63-2.47-4.13a2.92,2.92,0,0,1,3.69-1.85,3.06,3.06,0,0,1,1,.56l.39.19c2.39,1.19,8,4,9.62,9.39.92,3.09.38,6.4-1.62,9.82a11.62,11.62,0,0,1-8.11,5.93A12.24,12.24,0,0,1,630.21,311.81ZM633,289.43Zm.13-.59a3.12,3.12,0,0,1-.13.59A2.61,2.61,0,0,0,633.1,288.84Z" transform="translate(0)"/><path d="M623.21,351.39c-9.78,0-17.61-2.87-23.25-8.55-9.12-9.16-9.05-22.2-9-22.75a2.93,2.93,0,0,1,.84-2c.92-.93,2.47-2.49,20.93-3.18,9.8-.36,21.37-.32,29.47.1,9.81.52,11.16,1.33,12.11,2.52,2.09,2.61,1.93,10.76-1.41,17.78-3.45,7.26-11.33,15.95-29.23,16.1Zm-26.34-29.31c.35,3.52,1.73,11.14,7.26,16.68,4.58,4.58,11.14,6.88,19.46,6.79,10.53-.09,18.11-3.5,22.51-10.13a22.08,22.08,0,0,0,3.59-13.86c-3.14-.63-13.4-1.18-26.67-1.06S600.42,321.35,596.87,322.08Zm-1.31.38Zm54.89-.7Zm-.93-.9Z" transform="translate(0)"/><path class="cls-5" d="M823.77,673.29S834,653.6,831.86,642.8c0,0-19.94-15.67-25.16-32.91,0,0-25.82,8.76-29-20.12s19.77-31.52,28.88-23.95l9.39-32.25S832.39,516,835,500.36c0,0,59.66-41.83,133.47-10.32,0,0,21.66,100.76-2.63,148.17,0,0-16.83,26.35-48.63,27.29l6.28,13.64s-33.94,13.7-35.36,15.36-3.15,23-.16,26.76l-10.6,20.66-20.56-23.51,1.66-27.82Z" transform="translate(0)"/><path d="M785.89,564.24S755,464.39,805.62,450.58c0,0,21-34.71,54.71-37.81l1.27,3.5s28.81-6.72,36.53-2.31l19.57,5s38.21,2.49,46.07,17.35l-2.18,2.62s19.59,17.25,18.57,38.16l-4,1s1.42,17-4.53,23.29L968.47,490S895.71,458.39,835,500.36c0,0-5,19.33-14.43,26.85s-12,39.6-12,39.6S799.5,556.61,785.89,564.24Z" transform="translate(0)"/><path class="cls-4" d="M809.66,663.75l-16.47,16.63-.63,3.22s-75.34,23.18-90,34.59-58.45,86.61-72.1,166.54-16,155.92-16,155.92h438.83s.6-221.78-26.1-273.51-46.29-53.42-83.2-67.32l2.25-9.43-15.83-17.1S903.77,693,888.13,694.5a65.44,65.44,0,0,0-.79,28.51l-10.81,19.65L857.67,719s2.75-25.33.8-28.37S817.11,673.27,809.66,663.75Z" transform="translate(0)"/><path d="M876.53,745.58a2.92,2.92,0,0,1-2.7-1.82c-1.45-3.53-4.76-6.81-8.27-10.28a68.38,68.38,0,0,1-7.51-8.28,16.52,16.52,0,0,1-5.08,7.26,11.4,11.4,0,0,1-9.4,2l-.09,0c-33.1-7.84-52.76-50.53-53.58-52.35a2.91,2.91,0,0,1,1-3.58c5.35-3.81,16.48-16.51,16.59-16.64a2.92,2.92,0,0,1,4.09-.3c.2.17,19.92,16.83,46.35,25.15,6.15,1.94,4.54,11,3,19.66-.64,3.59-1.44,8-1,9.53l0,.11c1.4,5,5.68,9.26,9.81,13.35,3.77,3.73,7.67,7.59,9.56,12.22a2.91,2.91,0,0,1-1.6,3.81A2.84,2.84,0,0,1,876.53,745.58ZM844.77,728.7a5.5,5.5,0,0,0,4.66-.88c3.16-2.39,4.38-8.35,4.65-10.93-.53-2.74.21-6.86,1-11.58.68-3.76,2.07-11.56.93-13.09C833.45,685.09,816,672.47,810,667.78a168.54,168.54,0,0,1-13.77,13.91C800.52,690.17,818.41,722.42,844.77,728.7Z" transform="translate(0)"/><path d="M890.31,1046.33a2.93,2.93,0,0,1-2.92-2.9c0-.49-.37-48.63-3-81.58s-.07-142.91,0-145.41c0-19.74-5-42.09-8.28-56.88-.65-2.89-1.26-5.62-1.75-8-1.92-9.16,2.37-16.05,5.82-21.59,2.52-4,4.69-7.54,4.12-11-.05-.31-.14-.75-.25-1.29-1.7-8.83-3-18.54.49-23.67a7.36,7.36,0,0,1,4.74-3.2,99,99,0,0,0,40-19.75,2.92,2.92,0,0,1,3.9,4.35,103.1,103.1,0,0,1-42.69,21.11l-.09,0a1.5,1.5,0,0,0-1.06.75c-1.71,2.53-1.57,9,.42,19.28.11.58.21,1.06.27,1.42.94,5.61-2,10.39-4.92,15-3.2,5.13-6.5,10.43-5.07,17.31.49,2.32,1.1,5,1.74,7.91,3.35,15.05,8.42,37.79,8.42,58.19v.07c0,1.11-2.59,111.94,0,144.84,2.61,33.16,3,81.51,3,82a2.92,2.92,0,0,1-2.9,2.94Z" transform="translate(0)"/><path d="M910.91,739.2a20,20,0,0,1-4-.41c-12.53-2.53-21.66-16.24-22-16.82a2.92,2.92,0,0,1,4.88-3.21c.08.12,8.2,12.28,18.33,14.31a13.72,13.72,0,0,0,10.82-2.34c13.88-9.32,22.56-32.21,24.79-38.64a161.56,161.56,0,0,1-14.06-16.33,2.92,2.92,0,0,1,4.68-3.5c.08.11,8.15,10.87,14.7,16.81a2.94,2.94,0,0,1,.83,3c-.4,1.28-9.8,31.48-27.68,43.49A19.94,19.94,0,0,1,910.91,739.2Z" transform="translate(0)"/><path d="M614.38,1043.57h-.1a2.91,2.91,0,0,1-2.82-3c1.5-45.19,9.67-118.79,9.76-119.53,11-85.94,54.66-193.26,85-208.83,39.38-20.2,86.53-31.34,87-31.45a2.92,2.92,0,1,1,1.33,5.69c-.47.11-46.94,11.09-85.66,30.95-26.08,13.38-70.48,114.87-81.9,204.33-.07.69-8.22,74.07-9.72,119A2.91,2.91,0,0,1,614.38,1043.57Z" transform="translate(0)"/><path d="M1053.21,1046.33a2.92,2.92,0,0,1-2.92-2.92V955.35c-1.18-40.71-3.94-77.35-8.21-108.91-7.6-56.24-19.85-93.6-35.44-108-37-34.29-62.58-35.67-62.83-35.68a2.92,2.92,0,0,1,.1-5.84H944c1.12,0,27.75,1.26,66.61,37.23,35,32.37,43.53,152.41,45.52,221.09v88.19A2.92,2.92,0,0,1,1053.21,1046.33Z" transform="translate(0)"/><path d="M1004.32,1046.33a2.92,2.92,0,0,1-2.9-2.57c-.07-.57-6.85-57.43-6.35-104.19.5-47,12.69-84.54,12.81-84.92a2.92,2.92,0,1,1,5.55,1.83c-.12.36-12,37.08-12.52,83.15-.5,46.39,6.24,102.86,6.31,103.43a2.93,2.93,0,0,1-2.55,3.25Z" transform="translate(0)"/><path d="M853.47,539.51a27.43,27.43,0,0,1,2.81-4.07,35.7,35.7,0,0,1,3.4-3.56,37.75,37.75,0,0,1,8.16-5.73c.75-.4,1.53-.74,2.3-1.1s1.58-.65,2.4-.92a29.67,29.67,0,0,1,5-1.28,25.87,25.87,0,0,1,10.44.26,4,4,0,0,1-.78,7.89H887a58.57,58.57,0,0,0-8,.7c-.66.1-1.32.25-2,.36s-1.33.28-2,.47c-1.32.33-2.65.72-4,1.17a71.85,71.85,0,0,0-8,3.25c-2.64,1.26-5.32,2.69-8,4.16l-.07,0a1.22,1.22,0,0,1-1.65-1.65Z" transform="translate(0)"/><path d="M958.42,537.31c-1-.58-2.16-1.22-3.24-1.75S953,534.49,951.9,534a51.19,51.19,0,0,0-6.54-2.33c-.54-.19-1.11-.28-1.66-.43l-.81-.22c-.28-.07-.56-.11-.84-.17-.55-.12-1.1-.23-1.65-.37s-1.12-.17-1.68-.28c-.28,0-.55-.1-.83-.16s-.57-.07-.85-.11c-.56-.08-1.13-.16-1.69-.26-1.14-.17-2.29-.26-3.45-.53l-.45-.1a4,4,0,0,1,.33-7.86c.7-.1,1.41-.15,2.11-.2A16.68,16.68,0,0,1,936,521c.71,0,1.42.08,2.13.14a13.85,13.85,0,0,1,2.12.29c.71.13,1.41.26,2.11.42s1.37.41,2.06.62c.34.11.68.21,1,.34l1,.41c.66.29,1.33.54,2,.87a28.37,28.37,0,0,1,7,4.9,20.47,20.47,0,0,1,4.91,6.94,1.21,1.21,0,0,1-1.7,1.52Z" transform="translate(0)"/><path d="M923.42,597.7c-7.47,0-15.51-5-16.55-5.71a2.92,2.92,0,1,1,3.17-4.9c2.71,1.75,10.83,6,15.67,4.46a5,5,0,0,0,3.23-3.14,8.26,8.26,0,0,0,.29-6.71c-1.76-4-6.91-6-7-6a2.92,2.92,0,0,1,2-5.49c.31.11,7.52,2.79,10.31,9.13a14,14,0,0,1-.25,11.34,10.86,10.86,0,0,1-6.89,6.46A14.13,14.13,0,0,1,923.42,597.7Z" transform="translate(0)"/><path d="M917.38,631.16l-1.1,0c-11.79-.76-18.2-10.37-18.46-10.78a2.92,2.92,0,1,1,4.88-3.2c.06.08,5.14,7.58,14,8.15l.69,0c8,0,12.72-9.13,12.77-9.23a2.92,2.92,0,0,1,5.22,2.63C935.07,619.24,928.93,631.16,917.38,631.16Z" transform="translate(0)"/><ellipse cx="876.45" cy="554.58" rx="6.59" ry="10.46"/><ellipse cx="944.34" cy="554.04" rx="6.09" ry="9.67"/><path d="M824.78,675.27a2.92,2.92,0,0,1-2.55-4.33c.12-.21,9-16.59,6.14-28.46a2.92,2.92,0,1,1,5.67-1.39c3.44,14.12-6.28,31.92-6.7,32.67A2.91,2.91,0,0,1,824.78,675.27Z" transform="translate(0)"/><path d="M839.65,649.1a2.83,2.83,0,0,1-.9-.15c-.82-.26-19.68-6.68-34-36.27-4,1-12,2-19-2.2-6.13-3.73-9.85-10.58-11.06-20.35-2-16.38,4-24.14,9.41-27.77,7.18-4.81,15.73-4.13,19.24-2.15a2.92,2.92,0,0,1-2.86,5.09c-1.59-.9-7.83-1.64-13.13,1.91-5.8,3.89-8.17,11.57-6.86,22.2,1,7.92,3.77,13.33,8.3,16.08,7.12,4.34,16.41,1,16.5,1A2.93,2.93,0,0,1,809,608c13.23,29,31.34,35.36,31.52,35.42a2.93,2.93,0,0,1-.91,5.7Z" transform="translate(0)"/><path d="M811.79,589.48a2.89,2.89,0,0,1-2.45-1.32c-.33-.5-7.94-11.89-17.51-6.18a2.92,2.92,0,0,1-3-5c11.53-6.88,21.65,2.23,25.4,8a2.91,2.91,0,0,1-2.45,4.5Z" transform="translate(0)"/><path d="M786,567.57a2.92,2.92,0,0,1-2.78-2c-.85-2.67-20.62-65.83-2.15-99.21a36.76,36.76,0,0,1,22.69-18.26c3.79-5.77,23.61-33.65,54.45-37.23,1.16-.14,4.61-.55,6,1.93,8.15-1.56,25.76-4.43,33.92-1.91a4.69,4.69,0,0,1,3.37,2.73c5.39-.31,13.41-.34,17,1.89l.29.2a5.84,5.84,0,0,1,1.1,1.15c8.29.36,31.83,2.58,45.72,16.18l.08.09c2.07,2.19,2.65,4.23,1.73,6.05a3.73,3.73,0,0,1-.47.72c4.8,5,12.47,15.76,15.91,35a.29.29,0,0,1,0,.09c.19,1.29.75,5.18-2.16,6.6a3.84,3.84,0,0,1-1.36.37c.29,7.16-.26,19.51-6.94,24.06a2.92,2.92,0,0,1-3.29-4.83c4.68-3.18,5-16.19,4-23.64a2.92,2.92,0,0,1,1.65-3,2.84,2.84,0,0,1,2-.18c-4.84-24.64-17.12-33.21-17.24-33.3a2.92,2.92,0,0,1,.58-5.15c-15.32-13.39-42.9-13.32-43.17-13.31h0a2.92,2.92,0,0,1-2.89-2.52,1,1,0,0,1,0-.17c-3.41-.86-10.79-.78-16.76-.12a2.92,2.92,0,0,1-3.09-3.83c-8.66-1.2-26.18,1.89-32.77,3.32a2.92,2.92,0,0,1-3.52-2.53c-30.36,4.13-49.64,35-49.83,35.36a3,3,0,0,1-1.76,1.3,31.2,31.2,0,0,0-20.16,15.73c-17.26,31.2,2.41,94,2.61,94.62a2.93,2.93,0,0,1-1.9,3.67A3.06,3.06,0,0,1,786,567.57Z" transform="translate(0)"/><path d="M909.68,668.42c-2.35,0-4.74-.09-7.18-.25a125.33,125.33,0,0,1-34.38-7.29,2.92,2.92,0,0,1,2.16-5.43,121.11,121.11,0,0,0,32.77,6.9c24,1.58,42.68-4.92,55.68-19.31,29.59-32.78,10-137.06,7.2-150.88-38.87-15.49-71.68-12-92.46-6.22-19.7,5.45-32.6,13.86-35.87,16.15-1,4.11-5.15,18.28-15.07,27.28-8.19,7.43-10.82,30.48-11.14,38.73a2.92,2.92,0,0,1-5.52,1.21c-.41-.8-2.7-2.51-4.46-3.5a2.92,2.92,0,0,1,2.85-5.1c.37.21,1,.58,1.75,1.07,1-9.86,3.94-28.89,12.59-36.74,10.08-9.13,13.51-25.12,13.55-25.28a2.85,2.85,0,0,1,1.08-1.72c.58-.45,14.55-11,38.41-17.65,22-6.12,56.8-9.89,97.94,6.95a2.92,2.92,0,0,1,1.75,2.09A505.09,505.09,0,0,1,980,553.65c3,46.17-2.68,77.56-16.89,93.3C950.32,661.06,932,668.42,909.68,668.42Z" transform="translate(0)"/><path d="M924.36,681.47a2.91,2.91,0,0,1-1.78-.61c-7.42-5.71-8.91-14.77-9-15.15a2.92,2.92,0,0,1,5.77-.91c0,.15,1.26,7.2,6.76,11.43a2.92,2.92,0,0,1-1.78,5.24Z" transform="translate(0)"/><path d="M712.15,1046.33H712a2.9,2.9,0,0,1-2.74-3.08c0-.53,3.16-53.64,13-93.83,9.7-39.66,13.56-121.16,13.6-122a2.92,2.92,0,0,1,5.84.27c0,.82-3.93,82.9-13.76,123.1-9.7,39.66-12.81,92.25-12.84,92.77A2.93,2.93,0,0,1,712.15,1046.33Z" transform="translate(0)"/><circle class="cls-7" cx="886.87" cy="747.77" r="3.23"/><circle class="cls-7" cx="896.81" cy="807.36" r="3.23"/><circle class="cls-7" cx="896.81" cy="876.26" r="3.23"/><circle class="cls-7" cx="895.93" cy="939.33" r="3.23"/><circle class="cls-7" cx="900.04" cy="1002.4" r="3.23"/><path d="M952.38,882.41a2.88,2.88,0,0,1-1.66-.52l-28-19.31a2.92,2.92,0,0,1-1.27-2.41V807.36a2.92,2.92,0,0,1,3.45-2.87c.28,0,28.85,5.15,55,0a2.91,2.91,0,0,1,3.48,2.86v54.77a2.91,2.91,0,0,1-1.38,2.48l-28,17.36A3,3,0,0,1,952.38,882.41Zm-25.1-23.77L952.47,876l25-15.5V810.86c-21,3.45-42.07,1.1-50.2-.08Z" transform="translate(0)"/><path d="M951.77,829.26c-16.61,0-27.59-3.32-28.27-3.53a2.92,2.92,0,1,1,1.73-5.58c.3.09,24.22,7.24,54.49,0a2.92,2.92,0,1,1,1.36,5.68A125.15,125.15,0,0,1,951.77,829.26Z" transform="translate(0)"/><path class="cls-4" d="M214.08,623.81s-40.36-5.35-58,7.5-6.93,19.26-15.65,24-33.92,1.06-43.81,19.73-8.06,37.65,5.93,46.69c0,0-56.46,52.08-70,118.75L26,909.06s-25.53,94.8-18,131.16H456.3s-4.5-81.14-15.77-109.86,8.4-110.1-25.9-182.65C392.16,700.33,364.22,685,364.22,685s-.79-26.91-22.83-35.19S214.08,623.81,214.08,623.81Z" transform="translate(0)"/><path d="M185.91,555s-30.39-89.28,31.55-98c0,0,23.14-60.85,80.47-52.11s89.77,55.63,82.44,110.39c0,0-7.92,9.19-16.15,7.64l0-21.81s-52.1-34.35-130.35,5.8c0,0-.83,41.06-23.23,60.5C210.62,567.39,197.44,550.16,185.91,555Z" transform="translate(0)"/><path class="cls-5" d="M214.7,655.31s12.71-13.79,13.7-19.88c0,0-17.29-14.45-27.75-31.77s-.71-.42-.71-.42-11.53-.36-13-4.52-2-9.07-4-13.93-9.29-27.71,3.89-30.79S210,566.57,210,566.57s23.06-13.84,24.71-59c0,0,67.64-41.18,129.53-6.5,0,0-1.14,66.72,0,84s-2.81,63.38-39.18,75.12l-2.24.87V666S295,709.72,276,711.37,214.7,655.31,214.7,655.31Z" transform="translate(0)"/><path d="M102.62,723.16a2.93,2.93,0,0,1-.58-.06c-6-1.24-10.79-6.49-13.16-14.41-3.43-11.45-1.73-29.16,10.08-41,11.41-11.41,22.21-12,30.09-12.42,3.92-.22,7-.39,9-1.75,2.44-1.65,3.77-4.49,5.44-8.08,2.68-5.72,6-12.84,15.61-18.54,15.6-9.26,55.07-6,56.74-5.84a2.85,2.85,0,1,1-.49,5.67c-.39,0-39.31-3.26-53.34,5.07-8.1,4.8-10.89,10.78-13.35,16-1.89,4-3.68,7.87-7.44,10.39-3.33,2.25-7.5,2.47-11.91,2.71-7.35.4-16.5.9-26.37,10.77-9.71,9.71-11.7,25.11-8.65,35.31,1.75,5.84,5,9.66,8.86,10.46a2.85,2.85,0,0,1-.58,5.64Z" transform="translate(0)"/><path d="M250.88,729a3.14,3.14,0,0,1-.51,0c-27.75-5-72.68-52.56-73.1-53-2.93-3.26-8.23-1.47-8.29-1.45a2.85,2.85,0,0,1-1.92-5.36c.36-.13,8.95-3.13,14.45,3s46.62,47,69.88,51.24a2.85,2.85,0,0,1-.51,5.65Z" transform="translate(0)"/><path d="M8.06,1043.07a2.85,2.85,0,0,1-2.78-2.24c-6.43-29.34,4.42-74.37,12.35-107.25,2-8.33,3.74-15.52,4.94-21.43,2.11-10.35,2.75-21.82,3.44-33.95,1.21-21.29,2.58-45.42,12.54-68.89,21.59-50.83,56.18-86.2,81.39-106.91,27.33-22.46,49.25-32.77,50.17-33.19a2.85,2.85,0,1,1,2.41,5.16c-.22.11-22.31,10.5-49.1,32.54C98.74,727.21,64.9,761.84,43.8,811.53c-9.58,22.56-10.86,45.15-12.1,67-.7,12.35-1.36,24-3.55,34.77-1.22,6-3,13.25-5,21.63-7.79,32.34-18.47,76.63-12.31,104.69a2.86,2.86,0,0,1-2.18,3.4A3.15,3.15,0,0,1,8.06,1043.07Z" transform="translate(0)"/><path d="M108.88,1043.07a1.77,1.77,0,0,1-.32,0,2.84,2.84,0,0,1-2.51-3.14c.16-1.41,15.61-141.35,3-187.73a2.84,2.84,0,0,1,5.49-1.49c12.85,47.42-2.23,184.06-2.88,189.85A2.85,2.85,0,0,1,108.88,1043.07Z" transform="translate(0)"/><path d="M156.33,1043.07a3,3,0,0,1-.59-.06,2.84,2.84,0,0,1-2.2-3.37c1.82-8.72,8-37.48,10.86-41.38a39,39,0,0,1,2.91-3.14c8.61-8.82,34.81-35.65,33.36-67.45a2.85,2.85,0,0,1,2.7-3l133.93-7.16a2.82,2.82,0,0,1,2.72,1.62c.19.39,18.83,39.28,36.3,48.36,1.95,1,4.31,3.53,7,14.6,1.47,6.09,2.9,14.23,4.26,24.21,2.3,16.9,3.62,33.5,3.63,33.67a2.85,2.85,0,0,1-5.68.45c0-.16-1.29-16.24-3.52-32.78-4.24-31.44-7.92-34.83-8.33-35.11-17.1-8.89-34-41.27-37.94-49.23l-129.29,6.91c0,33-26.26,59.86-35,68.86-1.06,1.08-2.15,2.2-2.39,2.53-1.54,2.34-6.24,21.77-9.89,39.18A2.84,2.84,0,0,1,156.33,1043.07Z" transform="translate(0)"/><path d="M420.23,1043.07h-.17a2.85,2.85,0,0,1-2.68-3c1.77-30.62-7.48-74.84-14.92-110.36-5-23.88-9.31-44.5-9.3-56-.48-17.78,2.83-109.9,3-113.81a2.85,2.85,0,1,1,5.69.2c0,1-3.45,96-3,113.49v.08c0,10.89,4.24,31.26,9.18,54.85,7.5,35.86,16.84,80.48,15,111.86A2.85,2.85,0,0,1,420.23,1043.07Z" transform="translate(0)"/><path d="M456.3,1043.07a2.84,2.84,0,0,1-2.84-2.77c0-.57-1.62-57.35-13.24-98.76-5.63-20.06-6.5-45-7.41-71.51-1.07-30.85-2.18-62.76-10.39-93.47-7.89-29.47-24-52.34-36.08-66.34-13.17-15.22-24.62-23.55-24.74-23.63a2.86,2.86,0,0,1-1.17-2.14c0-.26-1.87-26-19.94-31.94a2.85,2.85,0,0,1,1.79-5.41c19.34,6.39,23.07,29.71,23.71,35.65a174.27,174.27,0,0,1,24.54,23.61c12.54,14.47,29.21,38.15,37.39,68.73,8.38,31.33,9.55,65,10.58,94.75.9,26.1,1.76,50.76,7.2,70.16,11.82,42.1,13.44,99.57,13.45,100.15a2.85,2.85,0,0,1-2.77,2.92Z" transform="translate(0)"/><path d="M304,730.49a2.85,2.85,0,0,1-.75-5.59c35.64-9.89,48.13-33.88,48.25-34.12a2.85,2.85,0,0,1,5.09,2.55c-.54,1.08-13.61,26.46-51.82,37.06A2.91,2.91,0,0,1,304,730.49Z" transform="translate(0)"/><path d="M278.89,1043.07a2.84,2.84,0,0,1-2.85-2.85V727.64a2.85,2.85,0,1,1,5.69,0v312.58A2.84,2.84,0,0,1,278.89,1043.07Z" transform="translate(0)"/><path d="M275.32,715.09c-4.69,0-10.86-3.19-18.87-9.75A221.49,221.49,0,0,1,234.9,684.4c-13.82-15-25.67-30.29-25.79-30.44a2.85,2.85,0,0,1,4.51-3.49c17.69,22.88,49.94,58.93,61.65,58.93h.21c13-.49,37.92-33.16,46.42-45.7a2.85,2.85,0,0,1,4.72,3.2c-.08.11-8.05,11.84-18.05,23.48-14,16.32-24.76,24.41-32.87,24.72Z" transform="translate(0)"/><path d="M214.08,658.7a2.85,2.85,0,0,1-1.81-5.05,53.33,53.33,0,0,0,13.5-19.29,2.85,2.85,0,0,1,5.28,2.14,58,58,0,0,1-15.17,21.56A2.83,2.83,0,0,1,214.08,658.7Z" transform="translate(0)"/><path d="M233.84,641.74a2.76,2.76,0,0,1-1.4-.38c-.87-.49-21.45-12.36-32.1-34-1-1.95-3.47-2.43-7.05-2.94-2.81-.4-5.72-.82-7.62-2.81-2.39-2.49-2.9-6-3.34-9.14a17.8,17.8,0,0,0-1-4.6l0,0c-8.46-18.14-5.28-27.52-1.12-32.2,7.7-8.67,19.45-2.85,24.58,1.43a2.85,2.85,0,0,1-3.65,4.38c-.43-.36-10.71-8.74-16.68-2-4.27,4.81-3.55,14,2,26l0,0a21.88,21.88,0,0,1,1.5,6.21c.34,2.37.69,4.83,1.81,6,.54.57,2.73.88,4.32,1.11,3.73.53,8.83,1.27,11.3,6l0,.07c9.88,20.07,29.62,31.45,29.82,31.56a2.85,2.85,0,0,1-1.41,5.33Z" transform="translate(0)"/><path d="M204.19,585.73a2.84,2.84,0,0,1-2.78-2.26c-.08-.35-1.75-6.76-12.58-10.23a2.85,2.85,0,1,1,1.74-5.43c14.28,4.58,16.34,14.11,16.42,14.51a2.85,2.85,0,0,1-2.24,3.35A2.67,2.67,0,0,1,204.19,585.73Z" transform="translate(0)"/><path d="M185.53,557.88a2.85,2.85,0,0,1-2.7-1.93c-.72-2.12-17.54-52.25,1-81.8,6.9-11,17.79-17.69,32.39-19.87a84.44,84.44,0,0,1,16.9-28.11c12-13.14,33.77-27.85,69.63-23.29,29.47,3.75,52.87,19.6,67.7,45.86,12.49,22.12,15.53,45.36,15.35,55.61-.13,7.63-2.44,13.39-6.87,17.11-6.59,5.54-15.33,4.25-15.7,4.19a2.85,2.85,0,0,1,.88-5.63c.06,0,6.61.93,11.19-2.95,3.08-2.61,4.7-6.93,4.8-12.82.17-9.67-2.72-31.65-14.61-52.71-14.11-25-35.45-39.45-63.45-43-26.85-3.41-48.62,3.81-64.7,21.47a77.73,77.73,0,0,0-16.22,27.63,2.83,2.83,0,0,1-2.39,2.05c-13.73,1.68-23.85,7.56-30.07,17.49-17.08,27.24-.59,76.44-.42,76.94a2.85,2.85,0,0,1-1.77,3.62A3,3,0,0,1,185.53,557.88Z" transform="translate(0)"/><path d="M300,666.79c-18.93,0-31-8-31.76-8.54a2.85,2.85,0,0,1,3.21-4.71,49.48,49.48,0,0,0,15.77,6.12c13.09,2.86,26.57,1.34,40.05-4.52,24.33-10.58,35.73-36.35,33.87-76.58-1-21.41-.06-67,.15-76.7-32.39-15.4-64.62-12.72-86.11-7.68a159.67,159.67,0,0,0-38.54,14.38c-.61,40.48-23.24,60.18-24.22,61a2.84,2.84,0,0,1-2.18.66,2.8,2.8,0,0,1-2-1.15,53.26,53.26,0,0,0-6-6.66,2.85,2.85,0,0,1,3.84-4.2,60.48,60.48,0,0,1,4.76,4.93c5.54-5.94,20.13-24.61,20.13-56.25a2.84,2.84,0,0,1,1.38-2.44c.68-.41,17-10.05,41.54-15.82,22.76-5.33,57.11-8.12,91.57,8.92a2.84,2.84,0,0,1,1.58,2.62c0,.54-1.29,54.41-.2,78.13.79,17-.8,31.85-4.72,44.13-5.83,18.31-16.79,31.07-32.57,37.93A73.61,73.61,0,0,1,300,666.79Z" transform="translate(0)"/><path d="M263.17,573.37H263a2.86,2.86,0,0,1-2.72-3c0-.56.7-13.72,10.71-16.92,8.4-2.69,14.51,5,16.8,9.92a2.85,2.85,0,0,1-5.17,2.4c0-.09-4.17-8.73-9.89-6.9-6.22,2-6.75,11.65-6.76,11.75A2.85,2.85,0,0,1,263.17,573.37Z" transform="translate(0)"/><path d="M341.58,566a2.85,2.85,0,0,1-2.77-2.18c0-.1-1.28-4.94-4.85-5.19-3.79-.28-6.14,4-6.17,4a2.85,2.85,0,1,1-5-2.66c.17-.31,4.09-7.57,11.62-7,6.2.45,9.19,6.22,10,9.56a2.85,2.85,0,0,1-2.11,3.43A3,3,0,0,1,341.58,566Z" transform="translate(0)"/><path d="M316.43,593.59c-7.2,0-14.82-5.58-15.77-6.3a2.85,2.85,0,1,1,3.43-4.54c2.34,1.76,9.4,6.08,13.88,5a4.8,4.8,0,0,0,3.24-2.92c1.11-2.35,1.27-4.36.5-6.14-1.59-3.68-6.66-5.41-6.71-5.43a2.85,2.85,0,0,1,1.76-5.42c.31.1,7.55,2.52,10.18,8.59,1.44,3.32,1.25,7-.57,10.82a10.49,10.49,0,0,1-7,6A11.8,11.8,0,0,1,316.43,593.59Z" transform="translate(0)"/><path d="M307.49,623.05c-.68,0-1.38,0-2.1-.11-11.55-1.13-17.23-13.32-17.47-13.84a2.85,2.85,0,0,1,5.19-2.36c0,.09,4.58,9.72,12.84,10.53,8.46.84,14.72-5.64,14.78-5.7a2.84,2.84,0,0,1,4.15,3.89C324.58,615.79,317.67,623.05,307.49,623.05Z" transform="translate(0)"/><path d="M252.2,550a27.7,27.7,0,0,1,1.36-4.92,34.85,34.85,0,0,1,2.17-4.64,31.48,31.48,0,0,1,6.6-8.23,26.9,26.9,0,0,1,9.62-5.52,26.07,26.07,0,0,1,11.13-1.09,4.86,4.86,0,0,1-.63,9.68h-.19a31.69,31.69,0,0,0-7.7.63,25.14,25.14,0,0,0-7.29,2.92,35.16,35.16,0,0,0-6.75,5.22c-1,1-2.09,2.12-3.08,3.28s-2,2.39-2.86,3.58l-.07.09a1.3,1.3,0,0,1-2.31-1Z" transform="translate(0)"/><path d="M321.92,524.62c.37,0,.53,0,.78,0l.65,0c.43,0,.85,0,1.26.08a24.69,24.69,0,0,1,2.46.36,27,27,0,0,1,4.73,1.38,24.82,24.82,0,0,1,8.39,5.33,22.72,22.72,0,0,1,3.15,3.86l.64,1c.2.36.38.73.57,1.09a19.82,19.82,0,0,1,1,2.22,22.4,22.4,0,0,1,1.27,9.12,1,1,0,0,1-1,.88.94.94,0,0,1-.8-.54v0a35.76,35.76,0,0,0-4.13-6.94,21.41,21.41,0,0,0-5.42-4.83,25.3,25.3,0,0,0-6.49-2.75,33.78,33.78,0,0,0-3.49-.74c-.59-.1-1.18-.17-1.76-.24l-.86-.09-.41,0a1.86,1.86,0,0,1-.28,0,4.58,4.58,0,1,1-.2-9.15Z" transform="translate(0)"/><path d="M273.63,535.74c-14.08-.66-30.18,14.25-33.15,18.33s-8.16,3.91-8.15,8.4c-.29,6.47,9.51,8.2,9.51,8.2s4.61,28.41,29.82,25.12,29.07-14.5,29.65-32S287.72,536.4,273.63,535.74ZM269,590.15c-27.43-2.6-22.65-26.39-18.53-32.75,1.36-2.1,5.19-5.8,9.64-9.14,16.06-9.51,27.92-2.22,32.86,5.31S296.45,592.74,269,590.15Z" transform="translate(0)"/><path d="M372.47,542.33c-3.37-2.31-6.92-10.71-20.42-12C332.77,529.07,323.22,551,323.22,551a37.38,37.38,0,0,0-23.69,2l-2.15,16.63L301,569c10.93-15.88,20.95-9.07,21.06-6.93.24,6.67,8.56,31.05,28.82,27.92s23.48-27.59,25-30.23,7.45-4.2,7.45-8.9S375.85,544.64,372.47,542.33ZM353,583.43c-10.7,3.63-22-6.59-23.14-14.33s.25-21.5,14.5-30.23c10.53-6.45,22.58,3.65,24.46,9.39C372.06,558.06,363.74,579.81,353,583.43Z" transform="translate(0)"/><path d="M168,568.32a2.85,2.85,0,0,1-1.9-5c2.4-2.14,8.9-5,37.46-5.1,15.29,0,29.85.75,30,.76a2.85,2.85,0,1,1-.31,5.69c-27.81-1.55-59.1-.89-63.35,2.9A2.8,2.8,0,0,1,168,568.32Z" transform="translate(0)"/><path class="cls-8" d="M520.16,669.25s-43.61-5.8-58.52,7.79-16,23-16,23-38.78,2.21-46.83,24.54-.32,37.79,8.41,40.92c0,0-39.78,37.84-62.44,92.58-11.3,27.33-12.17,86.25-14,95.24s-20.73,88.35-19.89,107.37,1.8,24.46,1.8,24.46H760.62s-5.7-81.47-15.07-106.41S748,848,717.66,790.25c-25.68-50.37-50-60.74-50-60.74s-9.2-33.7-25.89-36.17S520.16,669.25,520.16,669.25Z" transform="translate(0)"/><path class="cls-5" d="M514.21,603.33s-9.05-22.74-38.18-7.68c-5.6,2.88,0,18.88,3.9,24.87s-2.14,15.5.3,19.16,10.19,10.62,24.72,7.2c0,0,14.94,26.92,27.25,33.11,0,0-6.59,15.57-13.46,22,0,0,44,56.67,60.66,56.54s46.31-45.16,46.31-45.16l-6.2-12.19s47.62-7.83,59.06-57.7c7.49-30.12-6.14-51.57-6.14-51.57l-4.88-61s-63.71-61-124.2-11.89S514.21,603.33,514.21,603.33Z" transform="translate(0)"/><path d="M480.59,592.67s-6.13-9.42,0-13.83c0,0-9.25-6.31-5.63-16.35,0,0-5.9-8.94,1.66-13.94,0,0-6.86-7.46.06-13.47,0,0-5.26-12.67,6.1-18.27,0,0-.66-16.38,9.38-17.61,0,0,1.22-14.26,11.59-13,0,0,5.54-12.16,13.8-11.57,0,0,2.26-12.5,17.82-10.44a18.57,18.57,0,0,1,19.09-4.85s7.16-8.65,16.87-3.38c0,0,14.49-6.91,24.61,1.48,0,0,10.37-4.2,15.72,2.8,0,0,14.4-1.65,18.43,8,0,0,11.8,1.13,15.36,10.85,0,0,11.23,2,12.79,13.14,0,0,12-2.34,9.8,11.32,0,0,8.09,2.61,6.84,15.54,0,0,3.72,6,.87,10.79,0,0,6.44,8.11-.15,13.15,0,0-1.48,7-4.52,7.84L668,529.57s-6.25,3.7-11.77-3.05c0,0-8.12.49-10.85-4.2,0,0-5.86,2.39-11.62-2.88,0,0-7.09,4.33-11.73-.8a24.3,24.3,0,0,1-15.73-.35c-8.34-3.13-.35-.28-.35-.28s-6.52,4-13.51,1.48c0,0-5.85,6-13.74,2.16,0,0-3.29,7.09-13.49,3.72,0,0-2.22,6-9.88,4.36,0,0-2.55,5.27-11.77,4.77,0,0-3.39,5.83-9.8,6.13,0,0-.24,7-5.59,9.84,0,0,.82,9.14-2.88,12.84,0,0,4.12,9.38-2.38,15.39,0,0,4.36,7.73-1.73,11.52l-6.17,12S504,581.14,480.59,592.67Z" transform="translate(0)"/><path d="M555.68,573.72a26.1,26.1,0,0,1,2.74-4,35,35,0,0,1,3.31-3.47,36.75,36.75,0,0,1,8-5.59c.73-.38,1.49-.72,2.24-1.07s1.54-.63,2.34-.89a27.94,27.94,0,0,1,4.9-1.25,25.44,25.44,0,0,1,10.17.25,3.9,3.9,0,0,1-.75,7.69h-.21a57.37,57.37,0,0,0-7.77.68c-.64.1-1.28.24-1.93.36s-1.29.27-1.93.45q-1.93.48-3.87,1.14a70,70,0,0,0-7.74,3.17c-2.58,1.22-5.19,2.62-7.78,4l-.07,0a1.18,1.18,0,0,1-1.61-1.6Z" transform="translate(0)"/><path d="M658,571.57c-1-.56-2.11-1.19-3.16-1.71s-2.12-1-3.2-1.48a50.65,50.65,0,0,0-6.38-2.27c-.52-.18-1.08-.27-1.61-.42l-.79-.21c-.27-.07-.55-.11-.82-.17-.54-.11-1.08-.22-1.61-.35l-1.63-.28-.82-.15c-.27-.06-.55-.07-.82-.12-.55-.07-1.1-.15-1.65-.25-1.11-.17-2.23-.25-3.37-.51l-.44-.1a3.9,3.9,0,0,1,.33-7.66c.68-.1,1.37-.15,2.06-.2a15.86,15.86,0,0,1,2.07-.06c.69,0,1.38.08,2.07.14a16.32,16.32,0,0,1,2.07.28c.68.13,1.37.26,2.05.42s1.34.39,2,.6c.33.1.67.2,1,.33l1,.39c.64.29,1.29.53,1.91.86a27.55,27.55,0,0,1,6.81,4.77,19.78,19.78,0,0,1,4.78,6.77,1.17,1.17,0,0,1-1.65,1.48Z" transform="translate(0)"/><path d="M519.65,704.83a2.84,2.84,0,0,1-2.19-4.67c2.84-3.4,10-12.7,12.22-18.52-5.46-4.29-22.92-19-27.9-35.28a2.85,2.85,0,1,1,5.44-1.67c5.25,17.14,27.22,33.44,27.44,33.6a2.86,2.86,0,0,1,1.1,2.91c-1.75,7.86-12.69,21.12-13.93,22.61A2.84,2.84,0,0,1,519.65,704.83Z" transform="translate(0)"/><path d="M496.5,650.16c-6.66,0-15.15-1.36-17.83-7.82a13.18,13.18,0,0,1,0-11.29c.85-2.18,1.41-3.62,0-6.74a38.07,38.07,0,0,0-3.33-5.61c-3.49-5.15-7.09-10.48-2.8-21,2.27-5.57,7.4-9.12,14.83-10.27s16.85.51,19.29,3.44a2.84,2.84,0,0,1-4.3,3.72c-1.27-1-9-2.93-16.17-1.13-4.27,1.08-7.09,3.23-8.38,6.39-3.14,7.7-1,10.87,2.24,15.66a41.9,41.9,0,0,1,3.81,6.46c2.39,5.29,1.13,8.53.12,11.14-.85,2.17-1.46,3.74-.09,7,2.08,5,14.45,4.66,20.11,3.72a2.84,2.84,0,0,1,1,5.61A53.46,53.46,0,0,1,496.5,650.16Zm5.82-55.65,0,0Z" transform="translate(0)"/><path d="M509.77,619.07a2.83,2.83,0,0,1-2.08-.9c-.3-.32-7.1-7.38-19.73-7a2.85,2.85,0,0,1-.17-5.69c15.35-.45,23.72,8.44,24.07,8.82a2.84,2.84,0,0,1-2.09,4.77Z" transform="translate(0)"/><path d="M407.23,768.36a2.84,2.84,0,0,1-.58-.05c-6-1.24-10.79-6.49-13.15-14.4-3.43-11.44-1.74-29.13,10.07-40.94,11.4-11.4,22.19-12,30.06-12.41,3.92-.22,7-.39,9-1.75,2.44-1.64,3.77-4.48,5.45-8.07,2.67-5.72,6-12.83,15.59-18.53,15.59-9.25,55-6,56.69-5.83a2.85,2.85,0,1,1-.48,5.67c-.39,0-39.28-3.26-53.3,5.06-8.1,4.8-10.89,10.77-13.35,16-1.88,4-3.67,7.86-7.42,10.38-3.33,2.24-7.5,2.47-11.91,2.71-7.34.4-16.49.9-26.35,10.76-9.7,9.7-11.69,25.09-8.64,35.28,1.75,5.84,5,9.65,8.85,10.45a2.84,2.84,0,0,1-.57,5.63Z" transform="translate(0)"/><path d="M555.37,774.21a2.94,2.94,0,0,1-.51-.05c-27.73-5-72.62-52.52-73.05-53-2.92-3.26-8.24-1.47-8.29-1.45a2.85,2.85,0,0,1-1.91-5.36c.36-.13,8.94-3.12,14.44,3,6.41,7.15,46.53,47,69.82,51.19a2.85,2.85,0,0,1-.5,5.65Z" transform="translate(0)"/><path d="M312.74,1088a2.85,2.85,0,0,1-2.77-2.24c-6.43-29.32,4.41-74.31,12.33-107.16,2-8.32,3.74-15.51,4.94-21.42,2.1-10.35,2.75-21.8,3.44-33.93,1.21-21.27,2.57-45.38,12.53-68.83,21.57-50.78,56.13-86.12,81.33-106.82,27.3-22.44,49.2-32.74,50.12-33.16a2.85,2.85,0,1,1,2.4,5.16c-.22.1-22.28,10.49-49.05,32.51-24.66,20.29-58.47,54.89-79.56,104.54-9.57,22.53-10.85,45.1-12.09,66.93-.7,12.33-1.36,24-3.54,34.74-1.22,6-3,13.24-5,21.61-7.78,32.32-18.45,76.57-12.3,104.61a2.85,2.85,0,0,1-2.17,3.39A3.37,3.37,0,0,1,312.74,1088Z" transform="translate(0)"/><path d="M413.48,1088l-.32,0a2.86,2.86,0,0,1-2.51-3.15c.16-1.4,15.6-141.23,3.05-187.57a2.84,2.84,0,1,1,5.49-1.48c12.83,47.38-2.23,183.9-2.88,189.69A2.85,2.85,0,0,1,413.48,1088Z" transform="translate(0)"/><path d="M460.89,1088a2.38,2.38,0,0,1-.59-.07,2.84,2.84,0,0,1-2.2-3.36c1.82-8.72,8-37.45,10.86-41.35a38.1,38.1,0,0,1,2.9-3.14c8.61-8.81,34.78-35.62,33.34-67.39a2.85,2.85,0,0,1,2.69-3l133.82-7.16a2.84,2.84,0,0,1,2.72,1.62c.19.39,18.82,39.25,36.27,48.32,1.95,1,4.31,3.53,7,14.59,1.46,6.08,2.89,14.22,4.25,24.19,2.3,16.89,3.62,33.48,3.63,33.65a2.84,2.84,0,1,1-5.67.44c0-.16-1.29-16.23-3.52-32.75-4.24-31.41-7.92-34.8-8.32-35.08-17.09-8.89-34-41.24-37.92-49.19L511,975.28c0,33-26.23,59.81-35,68.8-1.06,1.08-2.15,2.2-2.39,2.53-1.54,2.34-6.23,21.75-9.88,39.14A2.85,2.85,0,0,1,460.89,1088Z" transform="translate(0)"/><path d="M724.58,1088h-.17a2.85,2.85,0,0,1-2.68-3c1.77-30.6-7.48-74.78-14.91-110.28-5-23.85-9.3-44.46-9.29-55.93-.48-17.77,2.82-109.8,3-113.72a2.85,2.85,0,0,1,5.69.21c0,1-3.44,95.91-3,113.39v.08c0,10.88,4.24,31.24,9.18,54.81,7.49,35.82,16.82,80.41,15,111.76A2.84,2.84,0,0,1,724.58,1088Z" transform="translate(0)"/><path d="M760.62,1088a2.85,2.85,0,0,1-2.85-2.78c0-.56-1.61-57.29-13.22-98.68-5.63-20-6.49-45-7.41-71.44-1.07-30.83-2.17-62.71-10.38-93.4-7.88-29.44-24-52.3-36-66.28-13.15-15.22-24.6-23.54-24.71-23.62a2.82,2.82,0,0,1-1.13-1.76c-.06-.28-5.68-28-24-34a2.84,2.84,0,0,1,1.79-5.4c19.44,6.43,26.25,31.55,27.56,37.23a173,173,0,0,1,24.68,23.71c12.53,14.46,29.18,38.11,37.36,68.67,8.38,31.31,9.54,65,10.57,94.67.9,26.08,1.76,50.72,7.2,70.1,11.81,42.08,13.42,99.5,13.43,100.08a2.83,2.83,0,0,1-2.77,2.91Z" transform="translate(0)"/><path d="M608.41,775.69a2.85,2.85,0,0,1-.76-5.59c35.77-9.92,48.09-33.84,48.21-34.08a2.84,2.84,0,1,1,5.09,2.54c-.54,1.08-13.6,26.44-51.78,37A2.89,2.89,0,0,1,608.41,775.69Z" transform="translate(0)"/><path d="M583.35,1088a2.85,2.85,0,0,1-2.85-2.85V772.84a2.85,2.85,0,0,1,5.69,0v312.33A2.85,2.85,0,0,1,583.35,1088Z" transform="translate(0)"/><path d="M483.39,589c-3.37-1.73-3.65-6.38.34-7.58,2.8-.85,3.76-5.17.86-6.61-2.32-1.16-5.34-2.4-6.58-4.85-1.34-2.65,1.31-4.58,1.48-7.24a6.43,6.43,0,0,0-.93-3.73c-.49-.82-1.35-1.48-1.64-2.41a3.28,3.28,0,0,1,1.78-3.86c2.75-1,3.85-5.15.87-6.67s-3.94-6-.19-7.41c2.63-1,3.65-4,1.64-6.21-3.8-4.14-1.58-10.18,3.69-11.48a3.86,3.86,0,0,0,2.64-4.65c-.85-4.41-.47-12.28,5.55-12.79,1.91-.17,3.93-1.6,3.77-3.77-.3-4,.94-11.57,6.71-9.65,2.56.85,4.45-1.36,4.74-3.61.59-4.54,5-8,9.43-8a3.83,3.83,0,0,0,3.74-3.74c.65-7,10.54-6.56,15.38-6a3.66,3.66,0,0,0,3.24-1.86A9.34,9.34,0,0,1,552.33,463a3.83,3.83,0,0,0,5.13-1.34c3-4.72,9.6-5.22,13.83-2,1.36,1.05,3.35.39,4.49-.58,5.32-4.52,13.77-3.74,18.52,1.16a3.8,3.8,0,0,0,5.26,0c2.89-2.66,7.53-1.07,9.05,2.23a3.7,3.7,0,0,0,4.18,1.7,13,13,0,0,1,15.65,6.25,3.63,3.63,0,0,0,3.17,1.82,10.11,10.11,0,0,1,10.47,8.6,3.56,3.56,0,0,0,2.55,2.55c3.85.87,12.24,2.67,10,8.41-1.17,3,2.72,5.44,5.18,4,4.24-2.51,8,2.2,5.32,6.05-1.26,1.81,0,4.45,2,5a7,7,0,0,1,4,10.14,3.43,3.43,0,0,0,1.22,4.64,3.71,3.71,0,0,1,.35,6.3c-1.7,1.32-1.12,4.5.7,5.4,3.36,1.67,3.34,6-.49,7a3.5,3.5,0,0,0-2.41,4.23,2.49,2.49,0,0,1-.84,2.81c-3.51,2.52-.17,8.41,3.44,5.88a9.57,9.57,0,0,0,4-10.52L674.78,547c9.36-2.46,11-15.24,2.14-19.6l.69,5.4c5.53-4.34,4.35-13.85-1.79-17l1.22,4.64c4.5-7.45.35-17.88-8.09-20.1l2,5a10.92,10.92,0,0,0-14.73-15.57l5.19,4c1.59-3.94.22-8.45-2.57-11.51-3.16-3.47-7.87-4.8-12.3-5.8l2.55,2.55a17.41,17.41,0,0,0-17.5-14l3.16,1.82a20.3,20.3,0,0,0-23.95-9.7l4.19,1.7c-3.6-7.85-14.58-9.38-20.71-3.75h5.26c-7.75-8-20.64-8.2-29-1.13h5.24a17.05,17.05,0,0,0-24.79,4l5.12-1.35c-7.88-4.3-18.32-1.49-22.68,6.47l3.24-1.86c-5.28-.56-10.95-.5-15.66,2.29a14.32,14.32,0,0,0-7.2,11.25l3.74-3.75a17.45,17.45,0,0,0-16.92,15.53l4.74-3.61a11.92,11.92,0,0,0-12.4,3.5c-3.3,3.58-4.17,8.67-3.83,13.37l3.76-3.76a14.07,14.07,0,0,0-11.29,7.21c-2.62,4.64-2.53,10-1.55,15.12l2.64-4.65a14.41,14.41,0,0,0-6.94,24l1.64-6.21c-9.12,3.58-10.85,16.2-1.51,20.88l.87-6.67a10.53,10.53,0,0,0-6.8,7.07,10.78,10.78,0,0,0-.21,5.14,9.71,9.71,0,0,0,.87,2.4c.29.55,1.52,1.66,1.54,2.18,0,.16-.82,1.33-1,1.67a9.69,9.69,0,0,0-.9,3.38,11,11,0,0,0,1.26,5.74c2,3.8,5.71,6,9.4,7.79l.87-6.61c-9.45,2.88-11.32,16.14-1.86,20.44,3.92,1.77,7.39-3.85,3.44-5.88Z" transform="translate(0)"/><path d="M607.35,704a122.44,122.44,0,0,1-31.15-4.37,2.84,2.84,0,0,1,1.45-5.5c27.24,7.17,50,5.09,67.71-6.17,23.38-14.88,29.62-40.41,31-47.88,3.18-17.47-.33-27.26-3.43-35.91-1.81-5.05-3.51-9.82-3.53-15.3v-.06c.49-23.91-4.85-58.91-4.9-59.26a2.84,2.84,0,1,1,5.62-.87c.23,1.45,5.46,35.8,5,60.21,0,4.49,1.49,8.6,3.19,13.37,3.17,8.85,7.12,19.87,3.67,38.84-1.46,8-8.2,35.54-33.53,51.66C636.65,700.29,622.91,704,607.35,704Z" transform="translate(0)"/><path d="M665.54,527.4c-1.3,1.3-5.6-.48-5.8-2.16-.26-2.24-2.44-4-4.65-2.67-2,1.16-5,.49-5.86-1.83a3.26,3.26,0,0,0-5.37-1.42c-2.51,2.41-6.07-1.43-7.75-3.09a3.24,3.24,0,0,0-4.53,0,4.46,4.46,0,0,1-6.88-.05,3.28,3.28,0,0,0-3.88-.5,15,15,0,0,1-12.58-.41,3.18,3.18,0,0,0-3.21,0,10.86,10.86,0,0,1-7.17,2.13c-2.65-.22-4.88-1.7-7.54-.57-2.2.93-3.44,2.75-6,2.85-2.42.09-4.36-1.64-6.82-1-2.27.61-3,3-4.93,3.76-2.12.84-4.55-.64-6.67-.68-2.47,0-4,1.17-5.33,3.1-1.24,1.75-2.88,2.2-4.7.84a3.15,3.15,0,0,0-4.31,1.14,6,6,0,0,1-8,3.41,3.16,3.16,0,0,0-3.88,2.21,5.7,5.7,0,0,1-7,4.77,3.2,3.2,0,0,0-3.57,4.64c.93,1.86-.36,5-2.58,5.24s-4.18,2.54-2.77,4.82a7.36,7.36,0,0,1-1.92,9.86c-1.48,1.19-1.11,3.54,0,4.79a5.68,5.68,0,0,1,.43,6.82c-1.92,2.78-4.56,4.51-3,8.34.5,1.21,1.62,2.21,1.11,3.61-.44,1.22-1.94,1.68-2.81,2.56a6.13,6.13,0,0,0-1.63,4.46c0,.55.38,4.75.27,4.73a3.51,3.51,0,0,0-3.92,5.09l-.27.19,4.28-2.43c.33.13-.55-2.56-.69-2.93a8,8,0,0,0-2.4-3.35,5.51,5.51,0,0,0-7.66.09h5c-.57-.67-1.13-1.34-1.69-2-2.91-3.49-8.1,1.6-5,5l1.74,2a3.57,3.57,0,0,0,5,0c-1.7-.21-2.17,0-1.42.77.1.38.21.76.32,1.14a16,16,0,0,0,.95,2.49,7,7,0,0,0,4.07,3.53c1.89.72,3.65-.83,4.28-2.44a6.54,6.54,0,0,0-.45-5.54l-3.92,5.1c5.16,1.05,8.71-3,8.81-8a17,17,0,0,0-.14-2c0-.35.1-2-.38-1.15.4-.69,1.87-1.28,2.46-1.95a9.31,9.31,0,0,0,2.32-6.29,9,9,0,0,0-.63-3.17,10.47,10.47,0,0,0-.73-1.46c-.44-.73-.6.41-.18-.18,1.35-1.9,2.84-3.21,3.58-5.55a12.71,12.71,0,0,0-2.85-12.26v4.79a13.88,13.88,0,0,0,2.67-17.88l-1.92,4.71c6.79-.94,10.11-8.94,7.19-14.73L531,543.35c6.46,1.69,13.59-2.47,14.78-9.19l-3.89,2.21A12.09,12.09,0,0,0,557,530l-4.32,1.13c4.22,3.14,9.67,1.63,12.76-2.2.31-.38.37-.75.75-.84s1.17.31,1.53.39a15.8,15.8,0,0,0,4.11.4,9.69,9.69,0,0,0,3.88-1c1.2-.63,1.85-1.81,2.91-2.48.3-.18.34-.44.6-.48a10.13,10.13,0,0,1,1.84.64,12.62,12.62,0,0,0,4.06.32,12.9,12.9,0,0,0,4-1c1.15-.49,2-1.36,3.11-1.89,1.4-.69.09-.31,1.31-.17.73.09,1.47.43,2.21.57a15.69,15.69,0,0,0,4.38.22,17,17,0,0,0,8.16-2.94H605a21.88,21.88,0,0,0,19,.44l-3.88-.5a10.84,10.84,0,0,0,15.94.06h-4.53c4.45,4.42,11.35,8.53,16.82,3.11L643,522.45c2.32,6,9.51,9,15.18,5.45l-4.54-1.84c1,6.88,11.5,10.1,15.76,4.35,1.71-2.3-1.95-5-3.89-3Z" transform="translate(0)"/><path d="M623.86,630.43c-7.28,0-15.12-4.9-16.13-5.56a2.85,2.85,0,1,1,3.09-4.78c2.65,1.71,10.56,5.81,15.27,4.35a4.9,4.9,0,0,0,3.15-3.06,8.05,8.05,0,0,0,.28-6.54c-1.71-3.94-6.73-5.84-6.78-5.86a2.85,2.85,0,0,1,1.94-5.35c.3.11,7.33,2.72,10.05,8.9a13.59,13.59,0,0,1-.24,11.05,10.55,10.55,0,0,1-6.72,6.29A13.11,13.11,0,0,1,623.86,630.43Z" transform="translate(0)"/><path d="M618,663.05c-.36,0-.71,0-1.07,0-11.5-.74-17.74-10.1-18-10.49a2.84,2.84,0,0,1,4.75-3.13c.08.12,5,7.39,13.61,7.94l.66,0c7.77,0,12.42-8.91,12.47-9a2.85,2.85,0,0,1,5.08,2.57C635.22,651.43,629.23,663.05,618,663.05Z" transform="translate(0)"/><ellipse cx="578.08" cy="588.4" rx="6.42" ry="10.2"/><ellipse cx="644.25" cy="587.87" rx="5.93" ry="9.42"/><path d="M579.78,760.3c-4.68,0-10.85-3.19-18.85-9.74a222.2,222.2,0,0,1-21.54-20.92c-13.8-15-25.64-30.27-25.76-30.42a2.84,2.84,0,1,1,4.5-3.48c17.68,22.85,49.9,58.87,61.61,58.87H580c13-.5,37.88-33.13,46.38-45.66a2.84,2.84,0,1,1,4.71,3.19,295,295,0,0,1-18,23.46c-14,16.31-24.74,24.39-32.85,24.7Z" transform="translate(0)"/><path d="M626.38,716.67a2.83,2.83,0,0,1-1.47-.42c-6.72-4.07-8.09-14.43-8.23-15.6a2.85,2.85,0,1,1,5.66-.66h0c.28,2.41,1.83,9.16,5.52,11.4a2.85,2.85,0,0,1-1.48,5.28Z" transform="translate(0)"/></g></svg>