<svg id="Layer_1" data-name="Layer 1" xmlns="http://www.w3.org/2000/svg" viewBox="0 0 1080 964.87"><defs><style>.cls-1{fill:#cbde68;}.cls-2{fill:#febc4c;}.cls-3{fill:#ffecb5;}.cls-4{fill:#ea9e2f;}.cls-5{fill:#ffb27d;}.cls-6{fill:#faab18;}.cls-7{fill:#ea860f;}.cls-8{fill:#233862;}.cls-9{fill:#1880c4;}.cls-10{fill:#10699b;}.cls-11{fill:#ed985f;}.cls-12{fill:#231f20;}.cls-13{fill:#28aae1;}.cls-14{fill:#e82537;}.cls-15{fill:#c62127;}.cls-16{fill:#2c3a64;}</style></defs><title>emam-vision</title><circle class="cls-1" cx="540" cy="480.47" r="462.55"/><path class="cls-2" d="M6,867S-57.71,512.76,531.45,512.76,1075.24,867,1075.24,867s-29,209.07-535.24,209.07S6,867,6,867Z" transform="translate(0 -115.13)"/><path d="M540,1080c-115.81,0-216.08-11-298-32.8-65.77-17.47-120-41.87-161.18-72.52C10.82,922.6,2.53,870.85,2.07,867.6c-.35-2-4.75-28.47.45-66.75A275.71,275.71,0,0,1,64.33,660.92c37.77-45.17,91.27-80.86,159-106.1,81.92-30.52,185.58-46,308.12-46,123,0,227.8,15.6,311.44,46.35,69.07,25.39,124.34,61.29,164.3,106.69a291.43,291.43,0,0,1,68.15,139.21c7.2,38.77,3.94,65.31,3.8,66.42-.31,2.24-8.3,54.55-79.34,107.2-41.36,30.64-95.72,55-161.6,72.51C756.14,1069,655.81,1080,540,1080ZM9.87,866.46c.07.52,7.84,51.8,76.41,102.49C150,1016,280.35,1072.13,540,1072.13c260.42,0,391.23-56.43,455.11-103.77,68.41-50.69,76.16-101.41,76.23-101.91,0-.22,3.24-26.65-3.81-64.32a283.7,283.7,0,0,0-66.38-135.21C913.32,567.24,755.29,516.7,531.45,516.7,308.33,516.7,153.2,566.92,70.37,666a267.88,267.88,0,0,0-60,135.94C5.2,839.69,9.79,866,9.84,866.29Z" transform="translate(0 -115.13)"/><path class="cls-3" d="M605.85,645.14s-12.32,11.19-13,21.41c-.43,7,1.91,12.77,8.82,13.14,6,.32,11.29-3.27,10.92-12.89C612.34,658.9,605.85,645.14,605.85,645.14Z" transform="translate(0 -115.13)"/><path class="cls-4" d="M602.46,681.4l-.83,0a10.17,10.17,0,0,1-7.35-3.29c-2.31-2.6-3.37-6.63-3.06-11.63.66-10.79,13-22.08,13.5-22.55a1.64,1.64,0,0,1,1.46-.41,1.68,1.68,0,0,1,1.2.93c.27.58,6.63,14.17,7,22.31.19,5-1.08,9-3.68,11.54A11.36,11.36,0,0,1,602.46,681.4Zm2.85-33.35c-3.29,3.39-10.28,11.39-10.73,18.6-.25,4.09.52,7.27,2.22,9.18a6.79,6.79,0,0,0,5,2.17,8.37,8.37,0,0,0,6.47-2.14c1.9-1.87,2.83-5,2.67-9C610.74,661.22,607.1,652.18,605.31,648.05Z" transform="translate(0 -115.13)"/><path class="cls-3" d="M525,676.93s3.73,16.22,12.33,21.77c5.87,3.79,12.07,4.58,15.78-1.26,3.2-5.06,2.67-11.45-5.9-15.83C540.21,678,525,676.93,525,676.93Z" transform="translate(0 -115.13)"/><path class="cls-4" d="M545.88,703.37a17.79,17.79,0,0,1-9.42-3.25c-9.08-5.86-12.9-22.12-13.06-22.81a1.68,1.68,0,0,1,1.76-2.06c.64,0,15.6,1.14,22.86,4.85,4.44,2.28,7.3,5.34,8.26,8.85a11.61,11.61,0,0,1-1.71,9.39,9.94,9.94,0,0,1-8.69,5Zm-18.57-24.54c1.34,4.52,4.9,14.53,11,18.45,3.44,2.23,6.58,3.11,9.09,2.56a6.81,6.81,0,0,0,4.34-3.31,8.41,8.41,0,0,0,1.3-6.69c-.7-2.57-3-4.9-6.54-6.73C541.46,680.54,531.79,679.29,527.31,678.83Z" transform="translate(0 -115.13)"/><path class="cls-3" d="M442.63,706.05s3.72,16.21,12.33,21.77c5.86,3.79,12.07,4.58,15.77-1.27,3.21-5,2.68-11.44-5.9-15.83C457.8,707.13,442.63,706.05,442.63,706.05Z" transform="translate(0 -115.13)"/><path class="cls-4" d="M463.46,732.49a17.79,17.79,0,0,1-9.42-3.25c-9.07-5.86-12.9-22.13-13.06-22.82a1.7,1.7,0,0,1,1.77-2.06c.63,0,15.59,1.15,22.85,4.86,4.44,2.28,7.3,5.34,8.26,8.85a11.57,11.57,0,0,1-1.7,9.39,10,10,0,0,1-8.7,5ZM444.89,708c1.35,4.52,4.91,14.53,11,18.45,3.44,2.22,6.58,3.11,9.09,2.56a6.85,6.85,0,0,0,4.35-3.31,8.45,8.45,0,0,0,1.3-6.69c-.71-2.58-3-4.9-6.55-6.73C459,709.65,449.37,708.41,444.89,708Z" transform="translate(0 -115.13)"/><path class="cls-3" d="M449,752.54s-16.61-1-24.38,5.63c-5.3,4.55-7.82,10.27-3.27,15.48,3.93,4.51,10.21,5.82,16.85-1.15C443.62,766.78,449,752.54,449,752.54Z" transform="translate(0 -115.13)"/><path class="cls-4" d="M428.78,779.07h-.22a11.55,11.55,0,0,1-8.51-4.31,10.13,10.13,0,0,1-2.76-7.56c.25-3.48,2.39-7,6.2-10.31,8.2-7,24.87-6.08,25.58-6a1.69,1.69,0,0,1,1.31.77,1.72,1.72,0,0,1,.17,1.51c-.23.6-5.54,14.63-11.16,20.53C436,777.2,432.36,779.07,428.78,779.07Zm17.72-24.9c-4.72,0-15.32.57-20.81,5.28-3.11,2.67-4.85,5.43-5,8a6.79,6.79,0,0,0,1.93,5.1,8.39,8.39,0,0,0,6,3.15c2.66,0,5.55-1.45,8.32-4.36C440.84,767.25,444.79,758.33,446.5,754.17Z" transform="translate(0 -115.13)"/><path class="cls-3" d="M313.6,811.68s16.59,1.3,24.47-5.24c5.37-4.47,8-10.15,3.52-15.43-3.87-4.57-10.12-6-16.88.89C319.18,797.53,313.6,811.68,313.6,811.68Z" transform="translate(0 -115.13)"/><path class="cls-4" d="M317.11,813.48c-2.07,0-3.44-.1-3.64-.12a1.67,1.67,0,0,1-1.43-2.3c.23-.59,5.76-14.53,11.47-20.35,3.5-3.56,7.28-5.37,10.92-5.23a11.54,11.54,0,0,1,8.44,4.44,10.13,10.13,0,0,1,2.64,7.61c-.3,3.47-2.5,7-6.36,10.2C333.1,812.76,322.64,813.48,317.11,813.48Zm-1-3.39c4.72.07,15.33-.33,20.89-5,3.15-2.62,4.93-5.36,5.16-7.91a6.83,6.83,0,0,0-1.85-5.14,8.45,8.45,0,0,0-6-3.24c-2.67-.11-5.57,1.37-8.38,4.23C322,797.11,317.88,806,316.1,810.09Z" transform="translate(0 -115.13)"/><path class="cls-3" d="M124.2,693s3.86-10.21,1.19-16.37c-1.82-4.2-4.92-6.89-9.07-5.05-3.59,1.59-5.62,5.27-2.54,10.79C116.31,686.87,124.2,693,124.2,693Z" transform="translate(0 -115.13)"/><path class="cls-4" d="M124.2,694.66a1.72,1.72,0,0,1-1-.35c-.33-.26-8.18-6.37-10.85-11.14-2.12-3.8-1.9-6.61-1.33-8.3a8.22,8.22,0,0,1,4.66-4.85,7.17,7.17,0,0,1,5.72-.27c2.28.88,4.2,3,5.58,6.19,2.91,6.71-1,17.19-1.16,17.63a1.72,1.72,0,0,1-1.12,1A1.88,1.88,0,0,1,124.2,694.66Zm-5.31-22a4.57,4.57,0,0,0-1.88.44,5,5,0,0,0-2.83,2.83c-.5,1.51-.13,3.44,1.08,5.59,1.6,2.86,5.67,6.54,8.09,8.58.91-3.18,2.15-9,.49-12.82-1-2.28-2.31-3.84-3.71-4.39A3.29,3.29,0,0,0,118.89,672.66Z" transform="translate(0 -115.13)"/><path class="cls-3" d="M199.82,682.66s5.1,12.28,12.62,15.51c5.12,2.2,10.12,2,12.26-3.1,1.85-4.41.57-9.37-6.77-11.69C211.91,681.49,199.82,682.66,199.82,682.66Z" transform="translate(0 -115.13)"/><path class="cls-4" d="M218.11,701.19a16.18,16.18,0,0,1-6.34-1.47c-8.06-3.46-13.29-15.88-13.51-16.41a1.69,1.69,0,0,1,1.39-2.33c.51-.05,12.52-1.18,18.79.8,4.93,1.55,7,4.14,7.9,6.05a9.69,9.69,0,0,1-.09,7.89,8.43,8.43,0,0,1-4.64,4.83A9.47,9.47,0,0,1,218.11,701.19Zm-15.72-17c1.77,3.52,5.72,10.32,10.71,12.46,2.93,1.25,5.43,1.53,7.24.8a5.14,5.14,0,0,0,2.8-3,6.4,6.4,0,0,0,.14-5.17c-.86-1.85-2.88-3.32-5.85-4.26C213.36,683.72,206.14,683.94,202.39,684.16Z" transform="translate(0 -115.13)"/><path class="cls-3" d="M298,740.4s11.48-6.71,13.67-14.59c1.49-5.38.62-10.3-4.72-11.74-4.62-1.23-9.37.69-10.67,8.28C295.21,728.57,298,740.4,298,740.4Z" transform="translate(0 -115.13)"/><path class="cls-4" d="M298,742.09a1.7,1.7,0,0,1-.66-.14,1.68,1.68,0,0,1-1-1.16c-.12-.5-2.86-12.24-1.74-18.73.87-5.09,3.16-7.5,4.93-8.64a9.61,9.61,0,0,1,7.83-1,8.49,8.49,0,0,1,5.41,4c1.43,2.5,1.6,5.9.51,9.86-2.35,8.45-13.95,15.31-14.45,15.59A1.61,1.61,0,0,1,298,742.09Zm6.42-26.68a5.54,5.54,0,0,0-3.05.86c-1.72,1.09-2.9,3.3-3.43,6.36-.72,4.2.47,11.33,1.2,15,3.25-2.23,9.45-7.07,10.9-12.29.85-3.07.79-5.59-.18-7.29a5.14,5.14,0,0,0-3.35-2.37A8.17,8.17,0,0,0,304.42,715.41Z" transform="translate(0 -115.13)"/><path class="cls-3" d="M358.21,740.4s11.48-6.71,13.67-14.59c1.49-5.38.62-10.3-4.72-11.74-4.62-1.23-9.37.69-10.67,8.28C355.42,728.57,358.21,740.4,358.21,740.4Z" transform="translate(0 -115.13)"/><path class="cls-4" d="M358.21,742.09a1.75,1.75,0,0,1-.67-.14,1.67,1.67,0,0,1-1-1.16c-.12-.5-2.86-12.24-1.75-18.73.88-5.09,3.17-7.5,4.94-8.64a9.59,9.59,0,0,1,7.83-1,8.49,8.49,0,0,1,5.41,4c1.42,2.5,1.6,5.9.5,9.86-2.34,8.45-13.95,15.31-14.44,15.59A1.61,1.61,0,0,1,358.21,742.09Zm6.42-26.68a5.54,5.54,0,0,0-3.05.86c-1.72,1.09-2.9,3.3-3.43,6.36-.72,4.2.47,11.33,1.2,15,3.25-2.23,9.45-7.07,10.9-12.29.85-3.07.79-5.59-.18-7.29a5.17,5.17,0,0,0-3.35-2.37A8.17,8.17,0,0,0,364.63,715.41Z" transform="translate(0 -115.13)"/><path class="cls-3" d="M607.07,742s10.45,8.22,18.59,7.37c5.55-.59,9.81-3.2,9.18-8.7-.54-4.75-4.07-8.46-11.61-6.89C617.05,735.09,607.07,742,607.07,742Z" transform="translate(0 -115.13)"/><path class="cls-4" d="M624.45,751.14c-8.42,0-18-7.46-18.42-7.79a1.7,1.7,0,0,1-.64-1.38,1.67,1.67,0,0,1,.72-1.34c.42-.29,10.34-7.14,16.78-8.48,5.06-1.06,8.15.19,9.85,1.42a9.72,9.72,0,0,1,3.78,6.93,8.42,8.42,0,0,1-1.7,6.48c-1.8,2.24-4.91,3.66-9,4.09C625.38,751.11,624.92,751.14,624.45,751.14Zm-14.4-9.07c3.26,2.21,10,6.21,15.43,5.64,3.17-.33,5.49-1.32,6.71-2.84a5.18,5.18,0,0,0,1-4,6.37,6.37,0,0,0-2.41-4.57c-1.65-1.2-4.14-1.5-7.18-.86C619.41,736.32,613.21,740,610.05,742.07Z" transform="translate(0 -115.13)"/><path class="cls-3" d="M694.63,724.26s-13.18-1.78-19.76,3.09c-4.48,3.32-6.82,7.74-3.5,12.16,2.88,3.81,7.81,5.22,13.5,0C689.55,735.31,694.63,724.26,694.63,724.26Z" transform="translate(0 -115.13)"/><path class="cls-4" d="M677.6,744.61a6.8,6.8,0,0,1-.8,0,9.67,9.67,0,0,1-6.77-4.05,8.41,8.41,0,0,1-1.83-6.44c.41-2.85,2.37-5.64,5.67-8.08,7-5.22,20.42-3.49,21-3.41a1.66,1.66,0,0,1,1.25.86,1.7,1.7,0,0,1,.06,1.52c-.22.46-5.28,11.4-10.15,15.83C682.64,743.86,679.68,744.61,677.6,744.61Zm11.42-19c-4.15,0-9.72.54-13.14,3.07-2.56,1.89-4.06,3.91-4.34,5.85a5.14,5.14,0,0,0,1.18,3.93,6.38,6.38,0,0,0,4.4,2.72c2,.2,4.32-.81,6.62-2.91,3.15-2.86,6.6-9.22,8.3-12.57C691.19,725.68,690.16,725.64,689,725.64Z" transform="translate(0 -115.13)"/><path class="cls-3" d="M764,747.71s-13.17-1.79-19.75,3.08c-4.49,3.32-6.83,7.74-3.5,12.16,2.88,3.82,7.81,5.22,13.5,0C758.88,758.75,764,747.71,764,747.71Z" transform="translate(0 -115.13)"/><path class="cls-4" d="M746.94,768.05a6.69,6.69,0,0,1-.8,0,9.54,9.54,0,0,1-6.78-4,8.43,8.43,0,0,1-1.82-6.44c.41-2.85,2.37-5.64,5.66-8.08,7-5.22,20.42-3.48,21-3.41a1.7,1.7,0,0,1,1.31,2.38c-.22.47-5.28,11.41-10.15,15.83C752,767.3,749,768.05,746.94,768.05Zm11.41-19c-4.14,0-9.72.54-13.14,3.07-2.55,1.89-4.05,3.92-4.33,5.85a5.09,5.09,0,0,0,1.18,3.93,6.35,6.35,0,0,0,4.4,2.72c2,.2,4.31-.81,6.62-2.91,3.15-2.86,6.6-9.22,8.29-12.57C760.52,749.12,759.49,749.08,758.35,749.08Z" transform="translate(0 -115.13)"/><path class="cls-3" d="M679.66,706.74s.9-13.27-4.4-19.51c-3.61-4.25-8.17-6.29-12.36-2.68-3.62,3.13-4.69,8.14.86,13.48C668.3,702.4,679.66,706.74,679.66,706.74Z" transform="translate(0 -115.13)"/><path class="cls-4" d="M679.66,708.43a1.83,1.83,0,0,1-.61-.11c-.47-.19-11.73-4.51-16.47-9.08-3.71-3.58-4.43-6.83-4.37-8.93a9.53,9.53,0,0,1,3.59-7,8.47,8.47,0,0,1,6.31-2.26c2.87.23,5.78,2,8.44,5.12,5.67,6.69,4.83,20.14,4.79,20.71a1.69,1.69,0,0,1-.77,1.31A1.67,1.67,0,0,1,679.66,708.43Zm-12.17-24.06a5.24,5.24,0,0,0-3.48,1.46,6.39,6.39,0,0,0-2.43,4.57c-.05,2,1.1,4.25,3.34,6.41,3.07,3,9.64,6,13.1,7.44,0-3.94-.53-11.79-4-15.92-2.06-2.43-4.18-3.79-6.13-3.94Z" transform="translate(0 -115.13)"/><path class="cls-3" d="M753.7,829.33s10.36-8.33,11.36-16.45c.68-5.54-.91-10.28-6.41-10.91-4.75-.54-9.16,2.07-9.33,9.76C749.19,818,753.7,829.33,753.7,829.33Z" transform="translate(0 -115.13)"/><path class="cls-4" d="M753.7,831a1.54,1.54,0,0,1-.43-.06,1.68,1.68,0,0,1-1.14-1c-.19-.48-4.64-11.68-4.49-18.26.11-5.17,2-7.9,3.6-9.28a9.54,9.54,0,0,1,7.6-2.12,8.4,8.4,0,0,1,5.93,3.11c1.78,2.26,2.46,5.6,2,9.67-1.06,8.71-11.53,17.21-12,17.57A1.68,1.68,0,0,1,753.7,831Zm3.77-27.43a6,6,0,0,0-4,1.38c-1.54,1.33-2.38,3.69-2.45,6.8-.09,4.25,2.14,11.13,3.41,14.67,2.88-2.68,8.3-8.38,9-13.77.39-3.16,0-5.64-1.26-7.17a5.13,5.13,0,0,0-3.66-1.85A7.74,7.74,0,0,0,757.47,803.59Z" transform="translate(0 -115.13)"/><path class="cls-3" d="M671,823.79s-12.55-4.39-20-.95c-5.07,2.36-8.25,6.21-5.87,11.21,2.05,4.31,6.59,6.68,13.21,2.75C663.82,833.58,671,823.79,671,823.79Z" transform="translate(0 -115.13)"/><path class="cls-4" d="M652.12,840.48a8.94,8.94,0,0,1-2.64-.38,9.69,9.69,0,0,1-5.83-5.33,8.46,8.46,0,0,1-.49-6.68c1-2.7,3.46-5.05,7.17-6.78,7.95-3.69,20.71.7,21.25.89a1.68,1.68,0,0,1,1,1.09,1.71,1.71,0,0,1-.25,1.5c-.3.41-7.47,10.11-13.13,13.47A14,14,0,0,1,652.12,840.48Zm6-17.28a15.3,15.3,0,0,0-6.37,1.17c-2.89,1.34-4.76,3-5.43,4.87a5.17,5.17,0,0,0,.37,4.08,6.42,6.42,0,0,0,3.76,3.55c1.95.6,4.39.07,7.07-1.52,3.66-2.17,8.32-7.7,10.66-10.65A40.79,40.79,0,0,0,658.13,823.2Z" transform="translate(0 -115.13)"/><path class="cls-3" d="M774.19,692.39s5.13-12.26,2.13-19.88c-2-5.19-5.7-8.6-10.83-6.53-4.43,1.79-7.07,6.19-3.54,13C764.84,684.62,774.19,692.39,774.19,692.39Z" transform="translate(0 -115.13)"/><path class="cls-4" d="M774.19,694.08a1.7,1.7,0,0,1-1.08-.39c-.39-.33-9.65-8.05-12.66-13.91-2.37-4.59-2-7.9-1.26-9.86a9.68,9.68,0,0,1,5.67-5.5,8.4,8.4,0,0,1,6.7-.09c2.64,1.13,4.83,3.75,6.33,7.56,3.22,8.16-1.93,20.63-2.15,21.15a1.66,1.66,0,0,1-1.15,1A1.83,1.83,0,0,1,774.19,694.08Zm-5.77-27a6.15,6.15,0,0,0-2.3.49,6.43,6.43,0,0,0-3.77,3.54c-.71,1.91-.33,4.38,1.1,7.15,1.95,3.79,7.19,8.77,10,11.27,1.25-3.73,3.3-11.33,1.31-16.38-1.16-3-2.73-4.93-4.53-5.7A4.43,4.43,0,0,0,768.42,667.06Z" transform="translate(0 -115.13)"/><path class="cls-3" d="M759.62,623.42s-13.28.8-18.79,6.85c-3.76,4.12-5.2,8.91-1.08,12.6,3.56,3.19,8.66,3.61,13.25-2.57C756.77,635.24,759.62,623.42,759.62,623.42Z" transform="translate(0 -115.13)"/><path class="cls-4" d="M745.21,646.83a9.9,9.9,0,0,1-6.59-2.71,8.47,8.47,0,0,1-3-6c-.14-2.87,1.24-6,4-9,5.91-6.48,19.37-7.36,19.94-7.39a1.64,1.64,0,0,1,1.39.6,1.69,1.69,0,0,1,.35,1.48c-.12.49-3,12.21-6.9,17.49-3.08,4.15-6.22,5.27-8.31,5.48A7.87,7.87,0,0,1,745.21,646.83Zm12.15-21.47c-3.9.52-11.63,2-15.28,6-2.14,2.35-3.22,4.63-3.13,6.58a5.16,5.16,0,0,0,1.92,3.63,6.44,6.44,0,0,0,4.84,1.82c2-.2,4.08-1.63,5.94-4.13C754.19,635.88,756.34,629,757.36,625.36Z" transform="translate(0 -115.13)"/><path class="cls-3" d="M816.14,681.38s10.16-8.58,11-16.72c.54-5.56-1.17-10.25-6.67-10.75-4.77-.42-9.11,2.29-9.09,10C811.36,670.21,816.14,681.38,816.14,681.38Z" transform="translate(0 -115.13)"/><path class="cls-4" d="M816.14,683.07a1.58,1.58,0,0,1-.38,0,1.7,1.7,0,0,1-1.17-1c-.2-.47-4.92-11.56-4.94-18.14,0-5.17,1.83-7.95,3.38-9.36a9.57,9.57,0,0,1,7.55-2.32,8.45,8.45,0,0,1,6,3c1.84,2.21,2.6,5.54,2.2,9.62-.85,8.73-11.11,17.48-11.55,17.85A1.67,1.67,0,0,1,816.14,683.07Zm3.35-27.51a6,6,0,0,0-4.18,1.47c-1.5,1.38-2.29,3.75-2.28,6.87,0,4.25,2.41,11.08,3.77,14.58,2.81-2.75,8.09-8.59,8.62-14,.31-3.16-.19-5.63-1.44-7.14a5.17,5.17,0,0,0-3.7-1.76C820,655.57,819.76,655.56,819.49,655.56Z" transform="translate(0 -115.13)"/><path class="cls-3" d="M843.55,696.45s13.05-2.53,17.73-9.25c3.18-4.58,4-9.51-.58-12.63-4-2.7-9.06-2.45-12.8,4.27C844.83,684.36,843.55,696.45,843.55,696.45Z" transform="translate(0 -115.13)"/><path class="cls-4" d="M843.55,698.14a1.7,1.7,0,0,1-1.68-1.87c0-.51,1.35-12.49,4.55-18.25,2.51-4.51,5.47-6,7.51-6.51a9.56,9.56,0,0,1,7.72,1.67,8.44,8.44,0,0,1,3.8,5.52c.52,2.83-.45,6.1-2.79,9.47-5,7.19-18.23,9.83-18.79,9.93A1.22,1.22,0,0,1,843.55,698.14Zm12.37-23.49a5.11,5.11,0,0,0-1.21.14c-2,.47-3.83,2.15-5.34,4.87-2.07,3.72-3.3,10.85-3.84,14.57,3.8-1,11.26-3.54,14.36-8,1.82-2.61,2.59-5,2.24-6.93a5.15,5.15,0,0,0-2.38-3.35A7,7,0,0,0,855.92,674.65Z" transform="translate(0 -115.13)"/><path class="cls-3" d="M962.36,721.28s13.24,1.26,19.62-3.86c4.35-3.5,6.51-8,3-12.29-3-3.7-8-4.91-13.49.49C967,710.05,962.36,721.28,962.36,721.28Z" transform="translate(0 -115.13)"/><path class="cls-4" d="M966,723.11c-2.13,0-3.59-.13-3.77-.15a1.7,1.7,0,0,1-1.29-.81,1.68,1.68,0,0,1-.11-1.51c.19-.47,4.82-11.61,9.52-16.22,3.68-3.62,6.95-4.24,9-4.13a9.57,9.57,0,0,1,6.94,3.78,8.47,8.47,0,0,1,2.08,6.36c-.3,2.86-2.15,5.73-5.35,8.3C978.36,722.49,970.59,723.11,966,723.11Zm-1.08-3.39c3.94.09,11.8-.22,16-3.62,2.48-2,3.9-4.07,4.1-6a5.16,5.16,0,0,0-1.33-3.88,6.39,6.39,0,0,0-4.51-2.54c-2-.09-4.28,1-6.5,3.16C969.65,709.81,966.45,716.3,964.89,719.72Z" transform="translate(0 -115.13)"/><path class="cls-3" d="M881.41,705.84s-12.67,4-16.54,11.22c-2.64,4.91-2.88,9.91,2,12.48,4.23,2.23,9.29,1.39,12.23-5.72C881.53,718,881.41,705.84,881.41,705.84Z" transform="translate(0 -115.13)"/><path class="cls-4" d="M871,732.33a10.5,10.5,0,0,1-4.89-1.3,8.4,8.4,0,0,1-4.4-5c-.84-2.75-.26-6.12,1.68-9.73,4.15-7.73,17-11.86,17.53-12a1.71,1.71,0,0,1,1.5.24,1.66,1.66,0,0,1,.69,1.35c0,.51.09,12.57-2.42,18.65-2,4.77-4.75,6.62-6.72,7.34A8.84,8.84,0,0,1,871,732.33Zm8.7-24.07c-3.65,1.46-10.77,4.81-13.34,9.59-1.5,2.81-2,5.28-1.42,7.15a5.13,5.13,0,0,0,2.74,3,6.38,6.38,0,0,0,5.14.58c1.92-.69,3.56-2.58,4.75-5.45C879.18,719.25,879.59,712,879.69,708.26Z" transform="translate(0 -115.13)"/><path class="cls-3" d="M999.22,653.87c-2-3.2-14-4.49-27.47,8.84C971.75,662.71,1006,664.52,999.22,653.87Z" transform="translate(0 -115.13)"/><path class="cls-4" d="M977.67,664.54c-2.73,0-4.93-.09-6-.15a1.69,1.69,0,0,1-1.1-2.89c11.89-11.74,21.69-11.65,24.41-11.35s4.71,1.31,5.67,2.82h0c1.7,2.66,1.21,4.66.51,5.87C998.29,663.73,985.67,664.54,977.67,664.54Zm-1.73-3.39c9.26.09,20.5-.95,22.29-4,.14-.24.51-.88-.43-2.36-.22-.34-1.16-1-3.21-1.27S985.31,653.22,975.94,661.15Z" transform="translate(0 -115.13)"/><path class="cls-3" d="M918,599.54s-6.09,9.7-4.61,15.13,5.59,7.4,8.88,7.24,7.73-2.47,6.58-8.56S918,599.54,918,599.54Z" transform="translate(0 -115.13)"/><path class="cls-4" d="M921.87,623.6c-4,0-8.54-2.57-10.15-8.49s4.14-15.41,4.81-16.47a1.66,1.66,0,0,1,1.14-.77,1.7,1.7,0,0,1,1.34.35c.41.33,10.21,8.19,11.46,14.82a8.72,8.72,0,0,1-1.45,7.3,9.14,9.14,0,0,1-6.7,3.25Zm-3.47-21.48c-1.78,3.28-4.29,8.91-3.42,12.11,1.26,4.62,4.65,6.11,7.17,6a5.83,5.83,0,0,0,4.21-2,5.46,5.46,0,0,0,.79-4.58C926.44,609.9,921.49,604.85,918.4,602.12Z" transform="translate(0 -115.13)"/><path class="cls-3" d="M843.23,594.19s-9.5-10.36-15.42-12.58-12.09-2.6-13.94,1.85,3,8,8.63,9.13S843.23,594.19,843.23,594.19Z" transform="translate(0 -115.13)"/><path class="cls-4" d="M843.23,595.88h-.05c-.63,0-15.26-.51-21-1.64-4.54-.89-8.14-3.08-9.63-5.87a6.31,6.31,0,0,1-.24-5.56c2-4.78,8-5.82,16.09-2.78,6.23,2.33,15.68,12.58,16.07,13a1.69,1.69,0,0,1-1.24,2.83Zm-23-14.18c-2.23,0-4.05.66-4.78,2.41a3,3,0,0,0,.1,2.67c1,1.85,3.86,3.47,7.31,4.15,3.63.71,11.39,1.17,16.24,1.4-3.19-3.15-8.3-7.81-11.85-9.14A21,21,0,0,0,820.2,581.7Z" transform="translate(0 -115.13)"/><path class="cls-3" d="M674.66,599.21s6.91-14.31,13.16-17.44,12.25-3.21,14.72,0-1.15,10-6.17,12.17S674.66,599.21,674.66,599.21Z" transform="translate(0 -115.13)"/><path class="cls-4" d="M674.66,600.89a1.69,1.69,0,0,1-1.52-2.42c.29-.6,7.23-14.86,13.92-18.21,7.11-3.55,13.86-3.36,16.82.48a6.62,6.62,0,0,1,.84,5.83A14.27,14.27,0,0,1,697,595.5c-5.13,2.18-21.37,5.24-22.06,5.37Zm22-19.8a18.87,18.87,0,0,0-8.09,2.19c-3.74,1.87-8.2,8.88-10.8,13.6,5.11-1,14.51-3,17.94-4.49a10.83,10.83,0,0,0,5.75-6.67,3.62,3.62,0,0,0-.26-2.92C700.33,581.66,698.7,581.09,696.66,581.09Z" transform="translate(0 -115.13)"/><path class="cls-3" d="M624.48,606s-15.54-3-20.23-8.76a8.27,8.27,0,0,1,1-12c1.35-.87,6.41-3.58,12.09,2.59S624.48,606,624.48,606Z" transform="translate(0 -115.13)"/><path class="cls-4" d="M624.48,607.72a1.63,1.63,0,0,1-.31,0c-.66-.12-16.21-3.15-21.23-9.35a9.93,9.93,0,0,1,1.39-14.46c1.72-1.09,7.82-4.11,14.24,2.87,6,6.5,7.53,18.57,7.59,19.08a1.68,1.68,0,0,1-1.68,1.89ZM609.7,585.65a6.67,6.67,0,0,0-3.56,1.08,6.94,6.94,0,0,0-2.25,4.06,6.73,6.73,0,0,0,1.67,5.42c3,3.69,11.71,6.41,16.84,7.64-.73-3.67-2.55-10.72-6.31-14.81C613.7,586.45,611.5,585.65,609.7,585.65Z" transform="translate(0 -115.13)"/><path class="cls-3" d="M532.08,587.9s-5.93,11.65-3.09,17.3,8,9.47,13.7,7.62S546.63,602,544.41,599,532.08,587.9,532.08,587.9Z" transform="translate(0 -115.13)"/><path class="cls-4" d="M539.79,615c-4.82,0-9.42-3.28-12.31-9-3.13-6.23,2.45-17.56,3.09-18.83a1.69,1.69,0,0,1,2.56-.55c1.06.85,10.35,8.37,12.63,11.41a14.84,14.84,0,0,1,2,11.75,6.85,6.85,0,0,1-4.5,4.68A10.74,10.74,0,0,1,539.79,615Zm-7.1-24.4c-1.67,3.86-3.87,10.52-2.19,13.86,2.11,4.19,6.42,8.49,11.66,6.78a3.53,3.53,0,0,0,2.33-2.5,11.58,11.58,0,0,0-1.43-8.71C541.62,598.1,536.08,593.37,532.69,590.58Z" transform="translate(0 -115.13)"/><path class="cls-3" d="M492.84,608.13s-10,11.35-9,18,5.42,9.5,9,9.63,9.5-3.95,9-10.37S492.84,608.13,492.84,608.13Z" transform="translate(0 -115.13)"/><path class="cls-4" d="M493,637.46h-.22c-4.49-.15-9.51-3.63-10.61-11.06-1.07-7.23,8.33-18.15,9.4-19.37a1.62,1.62,0,0,1,1.32-.57,1.69,1.69,0,0,1,1.28.64c.36.46,8.83,11.34,9.36,18.18a11.13,11.13,0,0,1-3.15,8.65A11,11,0,0,1,493,637.46Zm-.23-26.61c-3,3.82-7.88,10.91-7.27,15,.82,5.5,4.31,8.08,7.4,8.18a7.51,7.51,0,0,0,5-2.5,7.73,7.73,0,0,0,2.23-6.05C499.85,621.43,495.48,614.6,492.77,610.85Z" transform="translate(0 -115.13)"/><path class="cls-3" d="M474.83,622s-34.05-3.7-30.23,8.88C450.65,648.72,474.83,622,474.83,622Z" transform="translate(0 -115.13)"/><path class="cls-4" d="M451.87,638.68a9.18,9.18,0,0,1-1.89-.19c-3.26-.68-5.61-3.07-7-7.12a6.69,6.69,0,0,1,1.1-6.51c5.87-7.09,28.37-4.86,30.91-4.59a1.71,1.71,0,0,1,1.4,1.08,1.69,1.69,0,0,1-.33,1.73C474.56,624.77,461.69,638.68,451.87,638.68Zm12.64-15.56c-7.18,0-15.25.81-17.81,3.89a3.25,3.25,0,0,0-.48,3.33c.95,2.82,2.41,4.42,4.45,4.85,5.79,1.2,15.25-6.68,20.49-11.85C469.2,623.21,466.91,623.12,464.51,623.12Z" transform="translate(0 -115.13)"/><path class="cls-3" d="M377.24,608.13s5.76-12.54,13.16-16,13.65-2,15.46,1.32.17,9-6.25,11.75S377.24,608.13,377.24,608.13Z" transform="translate(0 -115.13)"/><path class="cls-4" d="M377.24,609.82a1.69,1.69,0,0,1-1.54-2.39c.25-.54,6.11-13.15,14-16.83,8.55-4,15.48-1.93,17.66,2a8.34,8.34,0,0,1,.37,6.71,12.87,12.87,0,0,1-7.44,7.4c-6.64,2.83-22.35,3.06-23,3.07Zm21.27-18a17.68,17.68,0,0,0-7.4,1.83c-4.84,2.26-9.05,9-11.07,12.7,4.8-.2,14.45-.82,18.91-2.71,3.78-1.61,5.11-4.08,5.57-5.41a5,5,0,0,0-.14-4C403.67,593,401.58,591.83,398.51,591.83Z" transform="translate(0 -115.13)"/><path class="cls-3" d="M299.1,627.34s-29.28-7.08-29.61,3.78C269.49,645.43,299.1,627.34,299.1,627.34Z" transform="translate(0 -115.13)"/><path class="cls-4" d="M275.23,638.29a8.71,8.71,0,0,1-4.27-.95c-1.44-.81-3.16-2.54-3.16-6.22a6.53,6.53,0,0,1,2.64-5.15c7.05-5.38,26.82-.81,29.06-.27a1.69,1.69,0,0,1,.48,3.08C298.15,629.9,284.12,638.29,275.23,638.29Zm6.22-11.54c-3.77,0-7.13.5-9,1.9a3.08,3.08,0,0,0-1.3,2.52c0,2.17.82,2.88,1.43,3.23,3.77,2.11,14.13-2.16,21.8-6.31A76,76,0,0,0,281.45,626.75Z" transform="translate(0 -115.13)"/><path class="cls-3" d="M308.89,593.7s-13.25,1.23-18.92,8.39c-2.39,3.11-2.06,6.82,0,8.63s8.14,1.32,10.45-.33C304.94,606.61,308.89,593.7,308.89,593.7Z" transform="translate(0 -115.13)"/><path class="cls-4" d="M294.35,613.54a8.55,8.55,0,0,1-5.5-1.55c-2.88-2.54-3-7.34-.22-10.93,6.07-7.66,19.53-9,20.1-9a1.67,1.67,0,0,1,1.47.61,1.69,1.69,0,0,1,.3,1.56c-.42,1.37-4.23,13.51-9,17.5l-.1.08A13.46,13.46,0,0,1,294.35,613.54Zm12.07-17.77c-4,.75-11.43,2.71-15.13,7.36-1.85,2.43-1.57,5.13-.21,6.33s6.43.87,8.31-.4C302.11,606.72,304.89,600.06,306.42,595.77Z" transform="translate(0 -115.13)"/><path class="cls-3" d="M270.64,600.85s-31.58-5.76-30.43,5.92S270.64,600.85,270.64,600.85Z" transform="translate(0 -115.13)"/><path class="cls-4" d="M245.35,612.43a8.41,8.41,0,0,1-3.76-.75,5.57,5.57,0,0,1-3.06-4.74,6.55,6.55,0,0,1,2.11-5.66c6.7-6.17,27.91-2.52,30.3-2.09a1.71,1.71,0,0,1,1.36,1.36,1.68,1.68,0,0,1-.79,1.75C269.56,603.47,254.36,612.43,245.35,612.43Zm9.76-11.31c-5.15,0-10,.64-12.19,2.64a3.17,3.17,0,0,0-1,2.85,2.24,2.24,0,0,0,1.21,2c3.76,1.89,14.42-2.56,22.44-6.86A90.46,90.46,0,0,0,255.11,601.12Z" transform="translate(0 -115.13)"/><path class="cls-3" d="M171.12,608.58s32.9.17,25.82,10.53C186.42,633.42,171.12,608.58,171.12,608.58Z" transform="translate(0 -115.13)"/><path class="cls-4" d="M189.4,625.24H189c-9.73-.4-18.91-15.13-19.3-15.76a1.69,1.69,0,0,1,1.44-2.57h0c4,0,24.41.46,27.94,7.19.66,1.27,1.08,3.33-.72,6C195.8,623.52,192.8,625.24,189.4,625.24Zm-15.05-14.89c3.34,4.56,9.39,11.29,14.77,11.51,2.42.1,4.54-1.13,6.46-3.75,1-1.47.63-2.18.49-2.45C194.37,612.43,183.27,610.72,174.35,610.35Z" transform="translate(0 -115.13)"/><path class="cls-3" d="M354,537s-32.24-2-29.44,9.21S354,537,354,537Z" transform="translate(0 -115.13)"/><path class="cls-4" d="M329.12,551.26a7.44,7.44,0,0,1-2.47-.38,5.68,5.68,0,0,1-3.69-4.23,6.24,6.24,0,0,1,1.25-5.72c5.7-6.86,27.47-5.74,29.94-5.59a1.69,1.69,0,0,1,.92,3C353.2,539.8,338,551.26,329.12,551.26Zm19.55-12.69c-7.66,0-18.8.82-21.87,4.52a2.87,2.87,0,0,0-.57,2.74,2.31,2.31,0,0,0,1.53,1.86c4,1.41,13.91-4.06,21.27-9.12Z" transform="translate(0 -115.13)"/><path class="cls-3" d="M422.48,524.36s2.46,20.23,18.42,15.63S422.48,524.36,422.48,524.36Z" transform="translate(0 -115.13)"/><path class="cls-4" d="M436.41,542.36a12.73,12.73,0,0,1-7.17-2.12c-7-4.64-8.38-15.23-8.44-15.68a1.69,1.69,0,0,1,2.19-1.81c7.19,2.31,23.91,8.3,23.82,14.12,0,3.18-4.11,4.35-5.44,4.74A18,18,0,0,1,436.41,542.36Zm-11.7-15.47c.8,3.1,2.62,8.05,6.4,10.54,2.53,1.68,5.67,2,9.32.94,2.48-.72,3-1.44,3-1.55C443.47,534.92,434.84,530.41,424.71,526.89Z" transform="translate(0 -115.13)"/><path class="cls-3" d="M500,537.35s20.72-18.09,29.61-9.21S500,537.35,500,537.35Z" transform="translate(0 -115.13)"/><path class="cls-4" d="M500,539a1.69,1.69,0,0,1-1.11-3c.89-.78,22-19,31.91-9.13,2.13,2.13,2,3.94,1.55,5.09-2.57,6.26-25.4,6.94-32.34,7Zm23.2-11.65c-5.66,0-13.11,4.41-18.21,8.15,11.71-.5,23.23-2.34,24.23-4.78.14-.32-.33-1-.81-1.42A7,7,0,0,0,523.16,527.39Z" transform="translate(0 -115.13)"/><path class="cls-3" d="M617.08,542s-31.56-11-18.26-19.08S617.08,542,617.08,542Z" transform="translate(0 -115.13)"/><path class="cls-4" d="M617.08,543.65a1.49,1.49,0,0,1-.55-.1c-3.64-1.26-21.82-8-22.64-15.7-.17-1.7.38-4.19,4.06-6.41,3.2-1.94,6.28-2.27,9.16-1,8.36,3.76,11.5,20.49,11.63,21.2a1.69,1.69,0,0,1-1.66,2Zm-13.51-20.58a7.57,7.57,0,0,0-3.87,1.25c-1.74,1-2.56,2.12-2.45,3.17.39,3.66,9.68,8.71,17.5,11.8-1.39-5.34-4.43-13.69-9-15.75A5.29,5.29,0,0,0,603.57,523.07Z" transform="translate(0 -115.13)"/><path class="cls-3" d="M746.87,576.18s-32.57-15.8-16.94-23.69S746.87,576.18,746.87,576.18Z" transform="translate(0 -115.13)"/><path class="cls-4" d="M746.87,577.86a1.57,1.57,0,0,1-.73-.17c-2.26-1.09-22.07-11-22.14-19.85,0-2.81,1.72-5.11,5.17-6.86,3.67-1.85,7-1.94,9.9-.24,8.55,5,9.46,24.54,9.49,25.37a1.67,1.67,0,0,1-1.69,1.75Zm-12.25-25a8.85,8.85,0,0,0-3.93,1.08c-3.33,1.69-3.32,3.29-3.32,3.82,0,4.6,9.92,11.4,17.59,15.5-.65-6.28-2.71-16.79-7.6-19.66A5.39,5.39,0,0,0,734.62,552.91Z" transform="translate(0 -115.13)"/><path class="cls-3" d="M241.36,555.12s30.1.82,30.1-8.22C272.12,530.28,241.36,555.12,241.36,555.12Z" transform="translate(0 -115.13)"/><path class="cls-4" d="M243.74,556.84c-1.19,0-2.05,0-2.43,0a1.7,1.7,0,0,1-1.55-1.15,1.67,1.67,0,0,1,.54-1.85c3.65-2.95,22.22-17.46,29.74-13.68,1.51.76,3.28,2.56,3.11,6.83a5.79,5.79,0,0,1-1.92,4.21C266,556.31,250.07,556.84,243.74,556.84Zm23.23-14c-4.45,0-13.42,5.3-20.63,10.58,7.61-.19,19-1.23,22.54-4.67a2.48,2.48,0,0,0,.9-1.85c.08-2.06-.34-3.29-1.25-3.75A3.5,3.5,0,0,0,267,542.84Z" transform="translate(0 -115.13)"/><path class="cls-3" d="M161.74,587.53s-35.53,9.51-25.17,23.26C149.24,626.35,161.74,587.53,161.74,587.53Z" transform="translate(0 -115.13)"/><path class="cls-4" d="M142.82,616.16c-2.69,0-5.23-1.44-7.56-4.3s-2.82-6-1.78-9c3.58-10.41,26.84-16.75,27.82-17a1.69,1.69,0,0,1,2,2.15c-.86,2.65-8.67,26-19.08,28A8,8,0,0,1,142.82,616.16Zm16.24-26.08c-7.48,2.41-20.24,7.69-22.39,13.93-.66,1.9-.25,3.78,1.25,5.76,1.89,2.33,3.78,3.3,5.73,2.94C149.89,611.53,156.13,598,159.06,590.08Z" transform="translate(0 -115.13)"/><path class="cls-3" d="M706.9,531.67s-12.83-20.23-24.51-14.39C667.25,528.38,706.9,531.67,706.9,531.67Z" transform="translate(0 -115.13)"/><path class="cls-4" d="M706.9,533.36h-.14c-4.53-.37-27.23-2.63-29.33-10.08-.69-2.44.64-4.92,4-7.35a1.58,1.58,0,0,1,.24-.15c12.9-6.45,26.14,14.12,26.69,15a1.69,1.69,0,0,1-1.42,2.59Zm-23.63-14.64c-1.17.88-2.93,2.43-2.59,3.63.87,3.1,11.82,6,22.68,7.27C699.47,524.55,690.87,515.07,683.27,518.72Z" transform="translate(0 -115.13)"/><path class="cls-5" d="M701.29,230s-5.72-10.17,0-12.24,8.32-.16,8.59,2.16-2.18,11.44-2.18,11.44Z" transform="translate(0 -115.13)"/><path d="M708.51,232.7l-8-1.69-.25-.44c-.39-.7-3.81-7-2.3-11a4.68,4.68,0,0,1,2.9-2.83c4.29-1.55,6.74-.91,8.05-.11a4.31,4.31,0,0,1,2,3.2c.29,2.46-2,10.91-2.22,11.86ZM702,229l4.84,1c.91-3.51,2-8.6,1.88-10a2,2,0,0,0-1-1.55c-.72-.44-2.47-1-6.09.32a2.43,2.43,0,0,0-1.57,1.49C699.22,222.75,701,227.07,702,229Z" transform="translate(0 -115.13)"/><path class="cls-6" d="M705.88,295.06A185.88,185.88,0,0,1,677.2,298a162.27,162.27,0,0,1-22.05-1c-1.74-.2-3.4-.43-5-.67-16.89-2.56-26.22-7.1-26.22-7.1s15.43-32.31,27.9-31.07c14.63,1.45,39.42,14.58,41.88,10.9,2.77-4.15,5.1-39.72,5.1-39.72,6.48-4.44,10.35.24,10.35.24S721.83,292.18,705.88,295.06Z" transform="translate(0 -115.13)"/><path class="cls-7" d="M705.88,295.06A185.88,185.88,0,0,1,677.2,298a162.27,162.27,0,0,1-22.05-1c-3.89-12.38-6.69-25,1.13-17.4C670.09,293.06,705.88,295.06,705.88,295.06Z" transform="translate(0 -115.13)"/><path class="cls-8" d="M622.76,555.93s-1.11,12.85,1.6,14.18l34.75-.07s0-4-5.58-4.9-15.39-4.16-17-11.44S622.76,555.93,622.76,555.93Z" transform="translate(0 -115.13)"/><path d="M624.1,571.24l-.24-.12c-3.07-1.51-2.58-11.19-2.22-15.29l0-.48.38-.3c.85-.67,8.42-6.49,12.8-4.95a4.29,4.29,0,0,1,2.72,3.35c1.84,8.07,14.67,10.35,16.12,10.58,5.17.82,6.53,4.29,6.53,6v1.12Zm-.26-14.72c-.46,5.84-.06,11.48.87,12.47l33-.07c-.44-.95-1.55-2.22-4.34-2.67-7.26-1.16-16.32-5.07-18-12.3-.29-1.24-.87-1.58-1.28-1.73C631.79,551.41,626.75,554.31,623.84,556.52Z" transform="translate(0 -115.13)"/><path class="cls-9" d="M648.27,400.48c-.18,8.39-.58,17.06-1.37,24.84-3.75,36.95-5.07,81.59-5.61,90.19-.94,14.94-3.89,38.81-3.89,38.81s-5.85,5.56-17.26,2.9c0,0-9.45-34.37-11.57-70.57l-.09-1.78c-.25-4.79-.5-10.26-.76-16.16-1.74-39.52-3.63-98.23-3.63-98.23l43.6-10.24S648.69,379.54,648.27,400.48Z" transform="translate(0 -115.13)"/><path d="M626.15,559.07a28,28,0,0,1-6.27-.75l-.65-.15-.18-.65c-.09-.34-9.5-34.9-11.6-70.8l-.09-1.8c-.25-4.78-.51-10.26-.77-16.16-1.72-39.08-3.61-97.66-3.63-98.24l0-.92,45.81-10.76.07,1.34c0,.2,1,19.58.58,40.32-.19,9.5-.66,17.89-1.37,24.94-2.93,28.84-4.36,62-5.12,79.78-.22,4.92-.37,8.47-.49,10.36-.92,14.81-3.86,38.64-3.89,38.88l0,.4-.29.28C638,555.33,633.92,559.07,626.15,559.07Zm-5.1-2.8c9,1.87,14.05-1.54,15.29-2.52.4-3.31,3-24.67,3.83-38.31.11-1.87.27-5.41.48-10.31.77-17.83,2.2-51,5.13-79.92.71-7,1.17-15.32,1.36-24.76h0c.36-17.52-.3-34.07-.51-38.8l-41.39,9.71c.25,7.64,2,60.93,3.6,97.3.26,5.9.52,11.37.76,16.15l.1,1.78C611.62,519.53,619.75,551.36,621.05,556.27Z" transform="translate(0 -115.13)"/><path class="cls-10" d="M648.27,400.48c-11,19.06-32.12,54.19-40.55,68.23-1.74-39.52-3.63-98.23-3.63-98.23l43.6-10.24S648.69,379.54,648.27,400.48Z" transform="translate(0 -115.13)"/><path class="cls-5" d="M537.86,363.54s-7.09,8.35-7.73,10.66-1.78,10.65-1.17,13.16,5.33-7,7-8-1.29,3.77-.71,4.57,4-2.79,5.3-4,1.19-7.76,2.78-11.63S537.86,363.54,537.86,363.54Z" transform="translate(0 -115.13)"/><path d="M529.35,388.9l-.27,0a1.53,1.53,0,0,1-1.21-1.26c-.68-2.8.5-11.27,1.18-13.72s6.74-9.66,8-11.08l.39-.47.6.08c.49.06,4.84.66,6.27,3.1a3.49,3.49,0,0,1,.15,3.19,29,29,0,0,0-1.39,6.35c-.45,3.06-.74,4.82-1.67,5.68-.23.21-.53.51-.87.84-2.68,2.59-4,3.66-5.07,3.57a1.36,1.36,0,0,1-1-.56,1.61,1.61,0,0,1-.3-1l-.24.38C531.67,387.33,530.58,388.9,529.35,388.9Zm9-24.15c-2.69,3.21-6.7,8.32-7.1,9.75a56.06,56.06,0,0,0-1.29,11.27c.66-.87,1.48-2.12,2.06-3,1.57-2.39,2.58-3.87,3.45-4.39a1.42,1.42,0,0,1,1.78,0c.82.7.41,1.74-.22,3.31,0,0,0,.07,0,.11.72-.64,1.51-1.4,2-1.85l.92-.88c.39-.41.72-2.68,1-4.34a30.89,30.89,0,0,1,1.53-6.89,1.19,1.19,0,0,0,0-1.19C541.76,365.69,539.76,365,538.31,364.75Z" transform="translate(0 -115.13)"/><path class="cls-8" d="M536.2,541.33s-6.19,5.65-5,9.66,6.79,6.68,7.54,11.58,3.77,7.58,6.49,7.58h12.94s2-3.45-2.83-4.49-6.64-6.8-6.34-12.15a94.72,94.72,0,0,0-.45-12.47l-10.26-2.38Z" transform="translate(0 -115.13)"/><path d="M558.84,571.27H545.25c-3.12,0-6.74-2.93-7.6-8.53-.36-2.36-2.12-4.25-3.82-6.07-1.51-1.63-3.07-3.31-3.69-5.36-1.33-4.43,4.29-9.87,5.23-10.74l2.5-3.17,11.73,2.72.09.8a93.59,93.59,0,0,1,.45,12.66c-.27,4.82,1.31,10.09,5.46,11,2,.42,3.26,1.29,3.83,2.57a4.23,4.23,0,0,1-.26,3.58Zm-20.09-31.35L537,542.16c-1.47,1.35-5.48,5.79-4.66,8.5.46,1.55,1.78,3,3.18,4.47,1.84,2,3.93,4.23,4.39,7.27.67,4.35,3.21,6.62,5.38,6.62h12.17a1.54,1.54,0,0,0,0-1c-.33-.72-1.4-1.09-2.24-1.27-5.82-1.26-7.54-8-7.23-13.31a88.13,88.13,0,0,0-.38-11.5Z" transform="translate(0 -115.13)"/><path class="cls-9" d="M640.82,371.37S600,458.71,578.28,497s-28.51,49-28.51,49-12.44-4.9-13.57-8.24c0,0,8.3-74,22.85-92,8.22-10.18,17.87-40.76,18.33-51.46s10-36.22,10-36.22Z" transform="translate(0 -115.13)"/><path d="M550.23,547.43l-.87-.34c-2.16-.85-13-5.28-14.23-8.93l-.08-.24,0-.25c.34-3,8.51-74.51,23.09-92.59,8.17-10.13,17.64-40.33,18.08-50.81.46-10.74,9.67-35.51,10.06-36.56l.35-.94,55.76,13.84-.58,1.24c-.41.87-41.09,87.81-62.58,125.73s-28.47,48.95-28.54,49.06Zm-12.88-9.8c1,1.88,7.23,5.07,12,7,1.91-3.1,9.67-15.86,28-48.17,20.05-35.37,56.86-113.54,61.92-124.33l-51.15-12.7c-1.71,4.69-9.18,25.68-9.57,34.93-.45,10.74-10.18,41.71-18.57,52.12C546.2,463.5,537.94,532.56,537.35,537.63Z" transform="translate(0 -115.13)"/><path class="cls-6" d="M652.75,375.49a70.77,70.77,0,0,1-39.2,9.85c-10.08-.44-30.08-3.3-33.31-11.32-.76-1.88-.2-4.27.93-7.94,3-9.53,9.83-27.68,7.76-67.92a65.18,65.18,0,0,1,.27-10.56c2.16-19.82,13.52-31.56,24.5-35.39,26.77-9.36,35.7,3.6,35.7,3.6s11.84,9.38,13.62,28.95C666.58,323.9,652.75,375.49,652.75,375.49Z" transform="translate(0 -115.13)"/><path class="cls-5" d="M621.54,250s12.29,7.47,25.61,5.36c0,0,2.64-.67,1.34-3.76a38.79,38.79,0,0,0,1.19-4.13,60.89,60.89,0,0,0,1.52-6.73l-7.56-7.95-7.16-7.6C634.5,243.31,621.54,250,621.54,250Z" transform="translate(0 -115.13)"/><path class="cls-11" d="M635.33,232s4.12,11,14.35,15.39c1.17-4.27,1.93-8.74,1.93-8.74l-8-5.94Z" transform="translate(0 -115.13)"/><path class="cls-5" d="M659.69,240.31s-23.45,2.94-25.1-11.48-5.78-23.73,9.12-26.22,18.45,2.7,20.18,7.38S665.74,239.18,659.69,240.31Z" transform="translate(0 -115.13)"/><path class="cls-12" d="M627.19,200.27c-.21-.25-.69-.46-1.77-.56a4.46,4.46,0,0,1,2.05-.5c.28-1.5,1.19-4.14,3.81-4.69a3.27,3.27,0,0,0-1.67,2.29c3.13-3,9.67-5,27.48-2.9,23.47,2.75,15.14,17.52,12,19.21s-10.6-3.54-16.29-3.3-7.09,8.4-9.06,9.45-1.13-.91-3.7-2.18-3,3-2.32,5.86-3.08,6.41-3.08,6.41l-3.47-4c-3.47-4-6.26-20.68-4.48-24.13Z" transform="translate(0 -115.13)"/><polygon class="cls-13" points="698.81 108.15 658.99 108.5 658.72 102.51 698.41 99.44 698.81 108.15"/><path d="M659,224.75a1.12,1.12,0,0,1-1.12-1.07l-.27-6a1.11,1.11,0,0,1,1-1.17l39.68-3.08a1.16,1.16,0,0,1,.84.28,1.13,1.13,0,0,1,.37.79l.4,8.71a1.15,1.15,0,0,1-.31.83,1.11,1.11,0,0,1-.8.35l-39.82.35Zm.91-6.07.17,3.81,37.56-.33-.29-6.39Z" transform="translate(0 -115.13)"/><polygon class="cls-13" points="728.86 109.15 685.51 109.77 685.02 98.89 728.24 95.54 728.86 109.15"/><path d="M685.51,226a1.13,1.13,0,0,1-1.12-1.08l-.5-10.89a1.14,1.14,0,0,1,1-1.17l43.22-3.35a1.16,1.16,0,0,1,.84.28,1.19,1.19,0,0,1,.38.79l.61,13.61a1.11,1.11,0,0,1-.3.83,1.16,1.16,0,0,1-.8.35l-43.35.63Zm.68-11,.4,8.71,41.09-.59-.51-11.3Z" transform="translate(0 -115.13)"/><polygon class="cls-9" points="758.09 110 721.53 110.05 720.87 95.35 757.27 92.03 758.09 110"/><path d="M721.53,226.3a1.12,1.12,0,0,1-1.12-1.07l-.67-14.71a1.14,1.14,0,0,1,1-1.17L757.17,206a1.15,1.15,0,0,1,.84.27,1.18,1.18,0,0,1,.39.8l.81,18a1.18,1.18,0,0,1-.31.83,1.11,1.11,0,0,1-.81.34l-36.55.05Zm.51-14.8.57,12.55,34.3,0-.71-15.62Z" transform="translate(0 -115.13)"/><path class="cls-9" d="M758.61,227.61h0a2,2,0,0,0,1.95-2.13l-.86-18.89a2,2,0,0,0-2.13-2h0a2,2,0,0,0-2,2.14l.85,18.88A2.05,2.05,0,0,0,758.61,227.61Z" transform="translate(0 -115.13)"/><path d="M758.51,228.74a3.17,3.17,0,0,1-3.16-3l-.86-18.88a3.17,3.17,0,0,1,6.33-.29l.86,18.88a3.16,3.16,0,0,1-3,3.31h-.15Zm-.85-23h0a.92.92,0,0,0-.88,1l.86,18.88a.92.92,0,0,0,.3.64,1,1,0,0,0,.66.24h0a1,1,0,0,0,.64-.3.89.89,0,0,0,.23-.66l-.85-18.89A.93.93,0,0,0,757.66,205.76Z" transform="translate(0 -115.13)"/><path class="cls-13" d="M658.87,224.91h0a1.83,1.83,0,0,1-1.9-1.74l-.22-4.9a1.8,1.8,0,0,1,1.73-1.89h0a1.81,1.81,0,0,1,1.9,1.73l.22,4.9A1.82,1.82,0,0,1,658.87,224.91Z" transform="translate(0 -115.13)"/><path d="M658.79,226a2.94,2.94,0,0,1-2.94-2.8l-.22-4.9a2.9,2.9,0,0,1,.76-2.12,3,3,0,0,1,2-1,2.92,2.92,0,0,1,2.12.77,2.89,2.89,0,0,1,1,2l.23,4.9a3,3,0,0,1-2.81,3.07Zm-.22-8.53h0a.71.71,0,0,0-.48.23.72.72,0,0,0-.18.49l.23,4.9a.69.69,0,0,0,.72.66h0a.69.69,0,0,0,.66-.72l-.22-4.9a.71.71,0,0,0-.23-.48A.67.67,0,0,0,658.57,217.5Z" transform="translate(0 -115.13)"/><path class="cls-7" d="M581.17,366.08c3-9.53,9.83-27.68,7.76-67.92a65.18,65.18,0,0,1,.27-10.56h0c8.81-.76,22.28,8.77,22.28,8.77S603.18,346.94,581.17,366.08Z" transform="translate(0 -115.13)"/><path class="cls-6" d="M621.54,250s-22.59,3.88-34.38,18.27S556.42,302.9,551.94,310,535,365.45,535,365.45s.82,1.56,4.25,2.46a8.07,8.07,0,0,0,5.67-.48s16.48-28.21,22.69-42.3c2.57-5.86,47.15-29.05,63.91-26.65C638.12,299.43,621.54,250,621.54,250Z" transform="translate(0 -115.13)"/><path class="cls-5" d="M698.57,212.85s4.86,3,7.77,1.71,2.65-2.41,2.65-2.41S700.2,209.72,698.57,212.85Z" transform="translate(0 -115.13)"/><path d="M704.66,216c-3,0-6.24-1.92-6.68-2.19l-.89-.55.48-.93c2-3.75,10.11-1.71,11.72-1.26l.65.18.15.66c.1.48.18,2.18-3.31,3.69A5.4,5.4,0,0,1,704.66,216Zm-4.07-3.36c1.61.74,3.89,1.5,5.3.89a8.07,8.07,0,0,0,1.25-.66C704.82,212.39,702.09,212.15,700.59,212.64Z" transform="translate(0 -115.13)"/><path class="cls-14" d="M643.47,265.72s-9.92,62.6-80.27,80.83l-7.66,15.12L569,364s80.09-23.21,79-99.34Z" transform="translate(0 -115.13)"/><polygon class="cls-15" points="641.93 140.6 638.68 140.92 638.68 145.62 643.47 150.59 648.02 149.49 648.02 142.96 644.75 140.6 641.93 140.6"/><path class="cls-7" d="M629.19,243.28S626,244,618.86,250c0,0,7.15,15.17,22.22,17,0,0-.24-7,.85-11.22C641.93,255.73,630,251.45,629.19,243.28Z" transform="translate(0 -115.13)"/><path class="cls-7" d="M641.93,255.73s7.36,3.9,7.9,10c0,0,2.82-4.46,2-7.54a24.82,24.82,0,0,0-3.34-6.62S648.74,255.27,641.93,255.73Z" transform="translate(0 -115.13)"/><path class="cls-14" d="M439.69,131s-51.31-3.63-81.41,24-87.85,20.72-87.85,20.72,48.37,44.66,102.9,21.47,70.67-18,70.67-18" transform="translate(0 -115.13)"/><path d="M340.74,206.05a100.27,100.27,0,0,1-40.21-8.85,123.28,123.28,0,0,1-31.62-19.84,2.25,2.25,0,0,1,1.79-3.89c.57.07,57.08,6.45,86.06-20.15,30.46-28,81-24.74,83.09-24.59a2.25,2.25,0,0,1-.32,4.49c-.51,0-50.71-3.23-79.73,23.41-24.4,22.4-65.54,22.79-82.29,21.89C291.56,189,330.39,213,372.45,195.1,427.12,171.84,444,176.81,444.69,177a2.25,2.25,0,1,1-1.38,4.28c-.13,0-16.6-4.4-69.1,17.93A85.07,85.07,0,0,1,340.74,206.05Z" transform="translate(0 -115.13)"/><path class="cls-16" d="M476.93,551.69h0a2,2,0,0,0,2-2.2L440.27,117a2,2,0,0,0-2.19-1.84h0a2,2,0,0,0-1.84,2.19l38.7,432.52A2,2,0,0,0,476.93,551.69Z" transform="translate(0 -115.13)"/><path d="M541.35,369.27a9.85,9.85,0,0,1-7.18-3.08,1.11,1.11,0,0,1-.25-1c2.83-13.21,14.76-52.86,17.13-55.91.32-.4.75-1,1.29-1.71a220.24,220.24,0,0,1,18.26-21.78c4.41-4.62,7.47-8.48,10.18-11.89,4.16-5.23,7.44-9.37,13.45-13.77,9.9-7.25,24-10.64,24.63-10.78a1.13,1.13,0,0,1,.52,2.19c-.14,0-14.29,3.43-23.82,10.41-5.76,4.22-9,8.25-13,13.35-2.73,3.44-5.83,7.35-10.32,12a219.32,219.32,0,0,0-18.07,21.57l-1.32,1.76c-1.77,2.27-13.28,39.42-16.58,54.39a7.73,7.73,0,0,0,7.91,1.43c7.15-12.7,20.59-36.93,21.64-40.06,1.39-4.18,7.67-10.83,44.13-25.27a1.13,1.13,0,0,1,1.46.63,1.12,1.12,0,0,1-.63,1.46c-27,10.7-41,18.52-42.83,23.9-1.38,4.14-21.17,39.31-22,40.81a1.14,1.14,0,0,1-.57.49A10.84,10.84,0,0,1,541.35,369.27Z" transform="translate(0 -115.13)"/><path d="M569,365.07h-.19l-13.46-2.28a1.11,1.11,0,0,1-.82-.6,1.14,1.14,0,0,1,0-1L562.2,346a1.08,1.08,0,0,1,.72-.58c67.65-17.46,79.33-79.31,79.44-79.94a1.13,1.13,0,0,1,2.22.39c-.12.66-3,16.18-14.37,34.14-10.49,16.5-30.48,38.08-66.24,47.46l-6.74,13.31,11.69,2a137.73,137.73,0,0,0,39.61-21.08c18-13.88,39.24-38.5,38.36-77.07a1.13,1.13,0,0,1,1.1-1.15h0a1.11,1.11,0,0,1,1.12,1.1c.9,39.53-20.87,64.75-39.3,78.94A139.48,139.48,0,0,1,569.32,365,1.17,1.17,0,0,1,569,365.07Z" transform="translate(0 -115.13)"/><path d="M619.21,386.53h-.09c-15,0-34.17-2.12-39.85-11.95-1.3-2.05.23-7.22,2.36-13.77l.5-1.56a1.12,1.12,0,1,1,2.14.69l-.5,1.57c-1,3.16-3.44,10.55-2.58,11.91,4,7,17.5,10.82,37.93,10.86h.09c15.39,0,30.11-8.1,32.59-9.53,10.25-34.7,10.68-76.58,10.68-77a1.1,1.1,0,0,1,.38-.83,1.13,1.13,0,0,1,.86-.28c6.9.7,39.41.16,44.56-4.05,8.32-6.44,2.77-46.89-.15-62.42-3.24-2.91-7-1-8.24-.19-1.77,27.36-4,38.67-5.59,40.12-.63.6-3.68,2.18-16.15-3.06a143.44,143.44,0,0,0-26.51-7.75,1.14,1.14,0,0,1-.92-1.31,1.13,1.13,0,0,1,1.31-.91,146.14,146.14,0,0,1,27,7.9c9.92,4.16,13.1,3.64,13.73,3.45.49-1,2.9-7.3,4.93-39.13a1.12,1.12,0,0,1,.44-.82c2.24-1.72,7.59-3.85,11.83.33a1.08,1.08,0,0,1,.32.59c.44,2.3,10.56,56.33-.59,65-5.68,4.65-36.43,5.12-45,4.62-.15,7.18-1.4,45.07-10.88,76.84a1.09,1.09,0,0,1-.49.64C652.66,376.87,636.64,386.53,619.21,386.53Z" transform="translate(0 -115.13)"/><path d="M641.09,268.07H641c-14.86-1.33-22.81-16.95-23.14-17.61a1.12,1.12,0,0,1,.27-1.35,38.15,38.15,0,0,1,10.68-6.89,1.13,1.13,0,0,1,1,.1,1.15,1.15,0,0,1,.53.85c.74,7.5,11.88,11.46,12,11.49A1.14,1.14,0,0,1,643,256c-1,4.19-.82,10.86-.82,10.92a1.11,1.11,0,0,1-1.12,1.16Zm-20.81-17.85c1.71,3,8.58,13.75,19.66,15.46a54.8,54.8,0,0,1,.69-9.25c-2.74-1.12-10.63-4.89-12.3-11.54A39.54,39.54,0,0,0,620.28,250.22Z" transform="translate(0 -115.13)"/><path d="M649.83,266.84a1.33,1.33,0,0,1-.28,0,1.13,1.13,0,0,1-.84-1c-.5-5.36-7.24-9.07-7.31-9.1a1.14,1.14,0,0,1-.57-1.23,1.12,1.12,0,0,1,1-.88c5.57-.41,5.53-2.86,5.52-3a1.15,1.15,0,0,1,.73-1.12,1.12,1.12,0,0,1,1.27.33,21.86,21.86,0,0,1,3.3,6.23c1.46,4.33-1.77,9.08-1.91,9.28A1.11,1.11,0,0,1,649.83,266.84Zm-4.89-10.46a16.71,16.71,0,0,1,5.22,6.22,7.36,7.36,0,0,0,.38-4.81,19.13,19.13,0,0,0-1.75-3.77,1.88,1.88,0,0,1-.18.24A7.05,7.05,0,0,1,644.94,256.38Z" transform="translate(0 -115.13)"/><path d="M643.47,266.84a1.13,1.13,0,0,1-.81-.34l-2.36-2.45a1.12,1.12,0,0,1,1.62-1.56l1.92,2,3.08-.67v-2.69a1.13,1.13,0,0,1,2.25,0v3.59a1.12,1.12,0,0,1-.89,1.1l-4.57,1A1,1,0,0,1,643.47,266.84Z" transform="translate(0 -115.13)"/><path d="M588,337.65a1,1,0,0,1-.25,0,1.12,1.12,0,0,1-.85-1.35c1.24-5.4,1.31-24.54,1.31-24.73a1.12,1.12,0,0,1,1.12-1.12h0a1.12,1.12,0,0,1,1.12,1.13c0,.79-.08,19.58-1.37,25.22A1.12,1.12,0,0,1,588,337.65Z" transform="translate(0 -115.13)"/><path d="M629.53,244a1.13,1.13,0,0,1-.87-1.84,33.52,33.52,0,0,0,5.48-10.86,1.13,1.13,0,1,1,2.17.61,35,35,0,0,1-5.91,11.67A1.09,1.09,0,0,1,629.53,244Z" transform="translate(0 -115.13)"/><path d="M648.49,252.68a1.1,1.1,0,0,1-.31,0,1.13,1.13,0,0,1-.77-1.4c0-.06,1.76-6,2.83-11.05a1.12,1.12,0,1,1,2.2.47c-1.09,5.11-2.85,11.15-2.87,11.21A1.12,1.12,0,0,1,648.49,252.68Z" transform="translate(0 -115.13)"/><path d="M664.83,218.19a1.12,1.12,0,0,1-1.12-1.05c-.15-2.46-.33-4.13-.33-4.14a1.13,1.13,0,0,1,2.24-.24c0,.07.18,1.72.34,4.24a1.14,1.14,0,0,1-1.06,1.19Z" transform="translate(0 -115.13)"/><path d="M654.25,241.74A30.41,30.41,0,0,1,639,237.91a12,12,0,0,1-5.42-8.43,1.12,1.12,0,1,1,2.23-.25,10,10,0,0,0,4.35,6.76c4.06,2.45,11.46,4.52,20.06,3,2.36-.43,3.76-6.15,3.74-15.32a1.13,1.13,0,0,1,1.12-1.13h0a1.13,1.13,0,0,1,1.13,1.12c0,11.12-1.8,16.86-5.59,17.55A35.3,35.3,0,0,1,654.25,241.74Z" transform="translate(0 -115.13)"/><path d="M634.55,230.35a1.21,1.21,0,0,1-.58-.16c-.19-.12-1.91-1.21-4.28-5-2.63-4.23-3.77-11.1-4.46-16.61-.52-4.07-.12-6.41.36-7.71l-.23,0a1.12,1.12,0,0,1-1-.78,1.13,1.13,0,0,1,.36-1.22,3.92,3.92,0,0,1,1.85-.67c1.16-4.25,4.42-4.74,4.57-4.76a1.13,1.13,0,0,1,1,.44c4.21-2,10.06-2.41,19.52-1.6,13.24,1.14,17.06,3.06,20.62,6.94,2.19,2.4,2.13,6.26,1.34,9.06-.71,2.52-2.36,5.47-4.85,6.19-2.11.6-4.83-.44-7.69-1.54s-6.11-2.35-8.76-1.9-4,3-5.29,5.43c-1.08,2-2.1,4-4,4.26-1.36.18-2-1-2.47-1.7-.6-1-.78-1.17-1.35-1-.87.23-.62,2.74-.47,4.1a7.95,7.95,0,0,1-3.76,8.16A1,1,0,0,1,634.55,230.35ZM628,201.1s-1.2,1.55-.49,7.18c.66,5.28,1.74,11.84,4.14,15.71a18.94,18.94,0,0,0,3,3.82,6.61,6.61,0,0,0,2.07-3.81,8.4,8.4,0,0,0-.08-1.71c-.24-2.31-.6-5.79,2.14-6.51,2.31-.6,3.32,1.13,3.86,2.07.11.17.25.42.36.56.68-.27,1.42-1.68,2.14-3,1.4-2.66,3.15-6,6.9-6.6,3.25-.55,6.81.81,9.94,2,2.51,1,4.89,1.88,6.27,1.48s2.64-2.28,3.3-4.64.74-5.21-.83-6.93c-3.15-3.43-6.66-5.15-19.15-6.22-13.11-1.12-17.94.47-21.17,3.19a1.12,1.12,0,0,1-1.27.12,6.71,6.71,0,0,0-.49,1.63,4.62,4.62,0,0,0-.63,1.68Z" transform="translate(0 -115.13)"/><path d="M649.28,404.75,647,404.7c0-.22.42-22.69.22-26.43l2.25-.12C649.7,382,649.3,403.82,649.28,404.75Z" transform="translate(0 -115.13)"/><rect x="606.12" y="442.93" width="2.25" height="28.58" transform="translate(-18.43 -89.57) rotate(-2.38)"/></svg>