<svg id="Layer_1" data-name="Layer 1" xmlns="http://www.w3.org/2000/svg" viewBox="0 0 500 62.19"><defs><style>.cls-1{fill:#e52638;}.cls-2{fill:#f7a91a;}.cls-3{fill:#28a6de;}.cls-4{fill:#b2cf35;}</style></defs><title>emam-circle-ornament</title><path class="cls-1" d="M30.15,235.4a30.15,30.15,0,1,1,30.14-30.14A30.18,30.18,0,0,1,30.15,235.4Zm0-47.44a17.3,17.3,0,1,0,17.29,17.3A17.32,17.32,0,0,0,30.15,188Z" transform="translate(0 -173.21)"/><path class="cls-2" d="M118.09,235.4a30.15,30.15,0,1,1,30.14-30.14A30.18,30.18,0,0,1,118.09,235.4Zm0-47.44a17.3,17.3,0,1,0,17.3,17.3A17.32,17.32,0,0,0,118.09,188Z" transform="translate(0 -173.21)"/><path class="cls-3" d="M294,235.4a30.15,30.15,0,1,1,30.15-30.14A30.17,30.17,0,0,1,294,235.4ZM294,188a17.3,17.3,0,1,0,17.3,17.3A17.32,17.32,0,0,0,294,188Z" transform="translate(0 -173.21)"/><path class="cls-2" d="M196.16,233.5a6.44,6.44,0,0,1-2.78-.63,30.54,30.54,0,0,1,0-55.23,6.5,6.5,0,1,1,5.56,11.76,17.53,17.53,0,0,0,0,31.71,6.51,6.51,0,0,1-2.78,12.39Z" transform="translate(0 -173.21)"/><path class="cls-2" d="M215.9,233.5a6.51,6.51,0,0,1-2.78-12.39,17.54,17.54,0,0,0,0-31.71,6.5,6.5,0,1,1,5.56-11.76,30.55,30.55,0,0,1,0,55.23A6.44,6.44,0,0,1,215.9,233.5Z" transform="translate(0 -173.21)"/><path class="cls-3" d="M469.85,233.5A30.15,30.15,0,1,1,500,203.35,30.18,30.18,0,0,1,469.85,233.5Zm0-47.45a17.3,17.3,0,1,0,17.3,17.3A17.32,17.32,0,0,0,469.85,186.05Z" transform="translate(0 -173.21)"/><path class="cls-4" d="M372,231.59a6.49,6.49,0,0,1-2.77-.62,30.54,30.54,0,0,1,0-55.23,6.5,6.5,0,1,1,5.56,11.76,17.53,17.53,0,0,0,0,31.71A6.5,6.5,0,0,1,372,231.59Z" transform="translate(0 -173.21)"/><path class="cls-4" d="M391.78,231.59A6.5,6.5,0,0,1,389,219.21a17.53,17.53,0,0,0,0-31.71,6.5,6.5,0,0,1,5.56-11.76,30.54,30.54,0,0,1,0,55.23A6.54,6.54,0,0,1,391.78,231.59Z" transform="translate(0 -173.21)"/></svg>