<svg id="emam-whatsapp" xmlns="http://www.w3.org/2000/svg" width="148" height="148" viewBox="0 0 148 148">
  <path id="Path_57" data-name="Path 57" d="M74,0a74,74,0,1,0,74,74A74.008,74.008,0,0,0,74,0Zm1.569,117.084H75.55A44.263,44.263,0,0,1,54.384,111.7l-23.478,6.156,6.283-22.944a44.293,44.293,0,1,1,38.38,22.177Z" fill="#82ad40"/>
  <path id="Path_58" data-name="Path 58" d="M319.629,262.55a36.818,36.818,0,0,0-31.2,56.384l.876,1.392-3.721,13.58,13.933-3.655,1.346.8a36.746,36.746,0,0,0,18.736,5.129h.015a36.814,36.814,0,0,0,.015-73.629Zm21.652,52.622c-.922,2.583-5.344,4.943-7.47,5.261a15.177,15.177,0,0,1-6.97-.439,63.872,63.872,0,0,1-6.311-2.33c-11.1-4.8-18.351-15.966-18.9-16.7s-4.522-6-4.522-11.445a12.369,12.369,0,0,1,3.878-9.225,4.114,4.114,0,0,1,2.952-1.385c.737,0,1.476,0,2.12.038.685.034,1.592-.258,2.49,1.9.922,2.216,3.135,7.66,3.412,8.214a2.042,2.042,0,0,1,.093,1.939,31.384,31.384,0,0,1-2.767,3.784c-.491.608-1.131,1.151-.485,2.258a33.376,33.376,0,0,0,6.156,7.663,30.212,30.212,0,0,0,8.907,5.491c1.114.558,1.751.46,2.4-.274s2.767-3.23,3.5-4.337,1.476-.924,2.49-.548,6.454,3.045,7.562,3.6,1.843.83,2.12,1.292.271,2.663-.651,5.247Z" transform="translate(-244.046 -226.571)" fill="#82ad40"/>
</svg>
