<svg id="emam-instagram" xmlns="http://www.w3.org/2000/svg" width="148" height="148" viewBox="0 0 148 148">
  <path id="Path_54" data-name="Path 54" d="M464.968,450.8A14.164,14.164,0,1,1,450.8,436.64,14.164,14.164,0,0,1,464.968,450.8Z" transform="translate(-376.804 -376.804)" fill="#e82537"/>
  <path id="Path_55" data-name="Path 55" d="M353.751,295.575a14.071,14.071,0,0,0-8.065-8.065,23.386,23.386,0,0,0-7.889-1.462c-4.481-.2-5.825-.248-17.171-.248s-12.691.042-17.171.247a23.411,23.411,0,0,0-7.889,1.464,14.078,14.078,0,0,0-8.066,8.065,23.516,23.516,0,0,0-1.462,7.891c-.2,4.481-.248,5.824-.248,17.171s.044,12.69.248,17.171A23.476,23.476,0,0,0,287.5,345.7a14.073,14.073,0,0,0,8.065,8.063,23.5,23.5,0,0,0,7.891,1.464c4.48.2,5.823.248,17.169.248s12.692-.044,17.171-.248a23.483,23.483,0,0,0,7.891-1.464,14.067,14.067,0,0,0,8.065-8.063,23.43,23.43,0,0,0,1.464-7.891c.2-4.481.247-5.824.247-17.171s-.042-12.69-.247-17.171A23.47,23.47,0,0,0,353.751,295.575Zm-33.125,46.88a21.82,21.82,0,1,1,21.819-21.82,21.821,21.821,0,0,1-21.819,21.82Zm22.682-39.4a5.1,5.1,0,1,1,5.1-5.1,5.1,5.1,0,0,1-5.1,5.1Z" transform="translate(-246.626 -246.635)" fill="#e82537"/>
  <path id="Path_56" data-name="Path 56" d="M74,0a74,74,0,1,0,74,74A74.009,74.009,0,0,0,74,0Zm42.236,91.519a31.19,31.19,0,0,1-1.975,10.315,21.727,21.727,0,0,1-12.428,12.428,31.215,31.215,0,0,1-10.313,1.975c-4.522.207-5.979.256-17.519.256s-12.988-.049-17.52-.256a31.163,31.163,0,0,1-10.313-1.975A21.726,21.726,0,0,1,33.74,101.834,31.173,31.173,0,0,1,31.765,91.52C31.56,87,31.508,85.54,31.508,74s.049-12.987.256-17.519a31.145,31.145,0,0,1,1.975-10.315A21.74,21.74,0,0,1,46.166,33.74a31.154,31.154,0,0,1,10.315-1.975C61,31.56,62.46,31.509,74,31.509s12.987.049,17.519.256a31.184,31.184,0,0,1,10.315,1.973,21.737,21.737,0,0,1,12.428,12.428,31.193,31.193,0,0,1,1.976,10.315c.207,4.522.255,5.979.255,17.519S116.443,86.988,116.236,91.519Z" fill="#e82537"/>
</svg>
