<svg id="Layer_1" data-name="Layer 1" xmlns="http://www.w3.org/2000/svg" xmlns:xlink="http://www.w3.org/1999/xlink" viewBox="0 0 1080 1110.75"><defs><style>.cls-1{fill:none;}.cls-2{fill:#ea2438;}.cls-3{clip-path:url(#clip-path);}.cls-4{fill:#87ceeb;}.cls-5{fill:#ffdbb4;}.cls-6{fill:#fff;}.cls-7{fill:#231f20;}.cls-8{fill:#d4af37;}.cls-9{fill:#f1f2f2;}</style><clipPath id="clip-path" transform="translate(18.14)"><circle class="cls-1" cx="521.86" cy="540" r="540"/></clipPath></defs><title>emam-team-zaki</title><circle class="cls-2" cx="540" cy="540" r="540"/><g class="cls-3"><path class="cls-4" d="M874.32,986.39c2.78-6.4,4-27,4-27-6.85,1.7-13.4,3.08-19.65,4.19q0-1.89.06-3.72c.9-53.55-12.06-280.14-64.41-352.59-38.49-55.23-116.82-71-116.82-71L682.74,522l-26.18-28.57s-42.54,29-72.86,35.2c0,0-5.8,33.48,0,45.45l-17.43,31.71-32-39.13,1.88-45.27-79.93-43.9-29.64,31.84s-89.39,20.82-147.39,55.91c-41,24.81-108.48,190-126.94,336.08h0s-33.63,9.47-31.07,37.08c1.73,15,17.89,24.25,19.62,31.42s-7.25,35.39-7.53,47.71,7.34,27.37,21,28l.94,0q2,8.28,4.63,16c15.4,27.72,98.74,5.61,121-6.44l-4.62,50.88H857s.38-41.11.89-84.38a131.91,131.91,0,0,0,19.07-6.49S871.53,992.8,874.32,986.39Zm-720.93,57.72s-9.24-27.16-7.28-42a41.21,41.21,0,0,1,1.93-7.24,281.75,281.75,0,0,0,6.86,49.45Z" transform="translate(18.14)"/><path class="cls-5" d="M619.32,851.61s14.28-15.4,13-24.92-8.35-9.24-8.35-9.24,10-14.7,5.13-24.64-19.37-13.3-19.37-13.3,10.41-8.12,6.21-15.82-2-10.78-2-10.78l9.94-11.34s-27.16-16.84-40-12.55-30.1,26-30.1,26-23.1,4.9-29.82,11.9-46.9,71.82-58.94,77.56c-4,1.92-8.24,4.12-12.43,6-.93-1.72-1.54-2.68-1.73-2.66-.35,0-6.74,2.79-16.62,7.14a15.14,15.14,0,0,1-5-1.36s-.3,1.4-.72,3.87c-40,17.67-119.73,53.46-119.73,53.46l-26.1,6.88s-37.69-17.15-80.16,8.09-57.3,78.25-57.3,78.25-4.22,73.27,51.22,71.18S302.63,1043,332,1023.39a18.64,18.64,0,0,0,7.29-10c34.42-23.73,72.59-45.16,101.83-60.52a1.83,1.83,0,0,1,.13.16s.81-.52,2.23-1.4c27.13-14.17,46-22.85,46-22.85,15.54-3.36,56.7-8.82,61.74-11.34s36.38-40.38,45.91-42,26.7-11,27.35-16.83S619.32,851.61,619.32,851.61Z" transform="translate(18.14)"/><path d="M402.85,294.75s-45.86-71.36-21-126.92c16.72-32.26,31-28.27,31-28.27S451,40.14,546,35.6l-4.67,11.49s77.2-13,119.34,13c0,0-9.66,7.08-9.24,7.08s70.84,28.44,88.06,70.57l-15.68,5.73s5.46,47.18-4.48,64.54l-7.95-26.18s-80-49.42-190.92,3.5c0,0-25.2,30.45-40.74,37.8l.84,79.17-25.41-1.89S440.91,268.71,402.85,294.75Z" transform="translate(18.14)"/><path class="cls-5" d="M474.54,490.68s15.47-19.53,15.13-37.8-48.85-81.06-48.85-81.06-48.95-7.77-47.16-50.4,43-45.36,62.7-24.57l24.15,5.46-.84-79.17s31.76-20.7,39.82-36.7c0,0,93.59-50.73,191.84-4.6,0,0,33.51,170.1,23.67,207.34s-38.16,75.25-103.17,87.54c0,0,2.19,16,11.64,24.12,0,0-37.22,23.49-59.77,27.77,0,0-5.59,23.61,0,45.45l-17.43,31.71-32-39.13,1.88-45.27Z" transform="translate(18.14)"/><path class="cls-6" d="M623.94,741.57s90.3-6.44,125.16,12c0,0,13.86,119.7-31.08,152.88-22.68,15.12-74.76,10.5-94.92,1.26,0,0-18.11-20.58-15.36-33.18,0,0,19.23-6.42,16.8-17.7-1.58-6-6.34-6.6-6.34-6.6s16.39-12.34,14.22-21.88-8.48-9.54-8.48-9.54,10.08-12.46,5.88-23.8-20.07-15.54-20.07-15.54,7.77-9.59,5.72-16.77-4.69-7.59-4.69-7.59Z" transform="translate(18.14)"/><polygon class="cls-7" points="414.29 874.01 453.88 955.7 484.99 937.99 446.9 858.74 414.29 874.01"/><circle class="cls-8" cx="449.19" cy="906.07" r="27.83"/><circle class="cls-9" cx="449.19" cy="906.07" r="19.83"/><path class="cls-5" d="M769.61,1014.85s28,22,87,6.58l.37,84.48H777.64Z" transform="translate(18.14)"/><image width="4500" height="4135" transform="translate(654.68 785.67) scale(0.02)" xlink:href="../../Brand/Logo_Emam/emam_Logo_Vertical_1.png"/><path d="M606.79,483.67c-22.07,0-43.29-4.9-60.83-14.81a4.84,4.84,0,1,1,4.76-8.43C585.54,480.08,636.27,478.32,677,456c32.79-18,52.58-45.92,54.27-76.71,4.32-78.36-24.32-195.86-24.61-197A4.84,4.84,0,1,1,716,180c.29,1.19,29.28,120.07,24.88,199.88-1.88,34.21-23.49,65.07-59.29,84.67A157.43,157.43,0,0,1,606.79,483.67Z" transform="translate(18.14)"/><path d="M476.09,495.53a4.85,4.85,0,0,1-4-7.6h0c.14-.2,14.1-20.65,12.6-37.13-1.13-12.51-29.15-52.3-47.71-76a4.84,4.84,0,0,1,7.63-6c4.9,6.26,48,61.74,49.73,81.09,1.82,20-13.62,42.56-14.28,43.51A4.84,4.84,0,0,1,476.09,495.53Z" transform="translate(18.14)"/><path d="M444,375.83c-1.88,0-52.11-.58-55-50.13-1.23-20.82,7.26-36.57,23.28-43.2s35.95-2.63,46.5,9.25a4.84,4.84,0,0,1-7.24,6.43c-7.68-8.65-23.63-11.67-35.55-6.73-12.16,5-18.31,17-17.32,33.68,1,17.23,8.86,29.35,23.31,36a57.1,57.1,0,0,0,22,5,4.85,4.85,0,0,1,.13,9.69Z" transform="translate(18.14)"/><path d="M444.59,346a4.85,4.85,0,0,1-4.74-3.89c-.15-.71-3.5-15.51-22.57-24.75a4.84,4.84,0,0,1,4.23-8.71c23.67,11.47,27.68,30.76,27.84,31.58a4.85,4.85,0,0,1-4.76,5.77Z" transform="translate(18.14)"/><path d="M425.27,333.41a4.76,4.76,0,0,1-2.37-.63,4.83,4.83,0,0,1-1.84-6.59c2.65-4.71,9.6-7.34,11-7.82a4.84,4.84,0,0,1,3.22,9.13c-2.46.87-5.25,2.54-5.75,3.44A4.85,4.85,0,0,1,425.27,333.41Z" transform="translate(18.14)"/><path d="M401.87,300.72a4.84,4.84,0,0,1-4.25-2.5c-1.66-3-40.62-74.68-23.25-124.9,5.89-17,17.57-29.59,34.73-37.38a204,204,0,0,1,31.57-52.09c29.06-34.77,65.9-53.1,106.67-53.1l2.34,0a4.84,4.84,0,0,1,3.59,8l-1.84,2.15c23.17-2.4,73.42-4.57,115.08,14.8a4.84,4.84,0,0,1,.07,8.75l-4.15,2c20.24,7.66,61.49,27.9,82.31,71.09a4.83,4.83,0,0,1-3.7,6.9l-12.79,1.74c1.89,12.47,5.36,45.06-5.27,68.79a4.84,4.84,0,0,1-8.84-4c11.87-26.49,3.83-67.59,3.75-68a4.84,4.84,0,0,1,4.1-5.75l10.92-1.48C705.7,87.22,649,72.16,648.35,72a4.84,4.84,0,0,1-.9-9.05l5.23-2.53C602.06,41.64,541,52,540.36,52.14a4.84,4.84,0,0,1-4.52-7.92l3-3.51C504.08,43,473.6,59.55,448.1,90.06a193,193,0,0,0-30.66,51.16,4.86,4.86,0,0,1-2.66,2.8c-15.57,6.6-26.08,17.52-31.25,32.45-16,46.14,22.19,116.37,22.57,117.08a4.83,4.83,0,0,1-4.23,7.17Z" transform="translate(18.14)"/><path d="M481.56,307.16l-.35,0-26.46-1.89a4.84,4.84,0,0,1,.69-9.66l21.09,1.51L474,223.94a4.84,4.84,0,0,1,2.57-4.45c.27-.14,26.89-14.47,37.06-36.59a4.82,4.82,0,0,1,2.36-2.37c1.11-.52,27.61-12.63,65.26-19.28,34.92-6.17,86.23-8.47,132.33,15.59a4.84,4.84,0,0,1-4.48,8.59c-43.61-22.76-92.54-20.55-125.91-14.69a292.79,292.79,0,0,0-61.57,17.89c-10,20-30.47,33.53-37.84,37.9l2.63,75.62a4.85,4.85,0,0,1-4.84,5Z" transform="translate(18.14)"/><path d="M645.21,505.68a4.83,4.83,0,0,1-2.75-.86C628.23,495,627,477.74,627,477a4.84,4.84,0,0,1,9.67-.6c0,.24,1.06,13.36,11.31,20.45a4.84,4.84,0,0,1-2.76,8.82Z" transform="translate(18.14)"/><path d="M565.77,612.08a4.86,4.86,0,0,1-4.49-3c-2.39-5.86-7.88-11.29-13.7-17.05-4.38-4.34-8.85-8.76-12.45-13.73-1.72,4.42-4.37,9-8.43,12a18.85,18.85,0,0,1-15.59,3.24l-.15,0c-54.88-13-87.47-83.78-88.84-86.79a4.84,4.84,0,0,1,1.61-5.94c8.88-6.32,27.32-27.38,27.51-27.59a4.84,4.84,0,0,1,6.79-.5c.32.28,33,27.9,76.85,41.7,10.19,3.22,7.52,18.16,4.94,32.6-1.06,5.94-2.38,13.32-1.75,15.8a1.21,1.21,0,0,1,0,.18c2.34,8.36,9.42,15.36,16.27,22.14,6.25,6.18,12.72,12.58,15.86,20.26a4.85,4.85,0,0,1-2.65,6.32A4.93,4.93,0,0,1,565.77,612.08Zm-52.66-28a9.07,9.07,0,0,0,7.73-1.48c5.23-4,7.27-14,7.7-18.1-.87-4.55.35-11.38,1.75-19.2,1.12-6.25,3.43-19.17,1.54-21.71-37.49-11.83-66.44-32.75-76.4-40.53-5.07,5.64-15.29,16.73-22.83,23.07C439.73,520.21,469.4,573.68,513.11,584.1Z" transform="translate(18.14)"/><path d="M595.51,730.87a4.84,4.84,0,0,1-4.77-4.07c-3.17-19.68-10.75-44.13-17.43-65.7-4.62-14.91-9-29-11.09-39.08-3.18-15.2,3.93-26.63,9.65-35.8,4.17-6.71,7.78-12.5,6.83-18.15-.09-.52-.23-1.26-.41-2.15-2.83-14.64-4.95-30.74.8-39.24a12.23,12.23,0,0,1,7.87-5.31c39.31-8.85,66.1-32.51,66.37-32.75a4.84,4.84,0,0,1,6.46,7.21c-1.16,1-28.86,25.59-70.77,35l-.15,0a2.51,2.51,0,0,0-1.76,1.25c-2.84,4.19-2.61,14.95.69,32,.19,1,.34,1.77.45,2.37,1.56,9.29-3.38,17.22-8.16,24.9-5.3,8.5-10.78,17.3-8.39,28.69,2,9.64,6.31,23.52,10.86,38.21,6.78,21.87,14.46,46.67,17.74,67a4.85,4.85,0,0,1-4,5.55A5.12,5.12,0,0,1,595.51,730.87Z" transform="translate(18.14)"/><path d="M622.77,601.5a33,33,0,0,1-6.58-.67c-20.77-4.19-35.9-26.93-36.54-27.9a4.84,4.84,0,0,1,8.1-5.31c.13.2,13.59,20.35,30.38,23.72,6.31,1.27,12.18,0,18-3.87,23-15.48,37.41-53.41,41.09-64.08-11-10.62-22.77-26.37-23.3-27.08a4.84,4.84,0,0,1,7.76-5.79c.13.18,13.51,18,24.36,27.87a4.84,4.84,0,0,1,1.38,5c-.65,2.12-16.25,52.21-45.89,72.11A33.13,33.13,0,0,1,622.77,601.5Z" transform="translate(18.14)"/><path d="M205.36,1080.25a81.72,81.72,0,0,1-24.45-3.46c-14.2-4.44-24.49-13.36-29.74-25.79,0,0,0-.07,0-.11-4.93-12.51-8.51-27.2-10.64-43.64a4.84,4.84,0,1,1,9.6-1.25c2,15.64,5.4,29.52,10,41.29,4.18,9.83,12.15,16.65,23.69,20.26,28,8.78,68.79-3.14,94.55-19.45l.11-.07,48.25-28.77L438.64,949A221,221,0,0,1,476.38,929c11.43-4.63,29-7.7,44.52-10.41,11.51-2,24.54-4.28,27.85-6.31,3.85-2.36,9-8.15,14.44-14.29,8.84-9.94,18.85-21.21,30.14-26.29a51.49,51.49,0,0,1,7.7-2.56c7.18-2,18-5.07,18.65-11.1.1-.94-.14-1.15-.32-1.32-2.31-2.09-11.09-2-17.84-.67a4.84,4.84,0,1,1-1.93-9.49c3.13-.64,19.1-3.5,26.26,3a10.76,10.76,0,0,1,3.46,9.48c-1.28,12.59-15.95,16.71-25.66,19.45a48.24,48.24,0,0,0-6.15,2l-.14.07c-9.42,4.22-18.72,14.68-26.93,23.92-6.2,7-11.55,13-16.62,16.11-4.65,2.84-14.9,4.74-31.24,7.59-15,2.62-32.08,5.6-42.55,9.85a214,214,0,0,0-36,19l-.16.11-112.06,70.39-.09.06-48.25,28.77C263,1069.25,232.85,1080.25,205.36,1080.25Z" transform="translate(18.14)"/><path d="M147.25,908.37a4.3,4.3,0,0,1-.62,0,4.83,4.83,0,0,1-4.19-5.41c18.17-142.43,90.63-320.38,141-346.19,65.29-33.49,143.46-52,144.25-52.14a4.84,4.84,0,0,1,2.2,9.43c-.77.18-77.82,18.39-142,51.32C244.59,587.52,171,755.8,152.05,904.14A4.85,4.85,0,0,1,147.25,908.37Z" transform="translate(18.14)"/><path d="M297.15,905a4.84,4.84,0,0,1-4.84-5.11,4.84,4.84,0,0,1-3.37-8A68,68,0,0,0,298,877c2.75-6.06,6.59-62.46,8.81-112.44a4.84,4.84,0,1,1,9.67.43c-.78,17.55-4.9,105.63-9.67,116a86.32,86.32,0,0,1-6,10.93,6.5,6.5,0,0,1,3.64,4.6c.3,1.52.37,5.33-5.26,8A4.85,4.85,0,0,1,297.15,905Zm-.87-4.46Z" transform="translate(18.14)"/><path d="M349.67,766a4.84,4.84,0,0,1-.25-9.68c.78,0,78.57-4.28,105.72-14a4.84,4.84,0,1,1,3.27,9.11C429.93,761.65,353.19,765.83,349.93,766Z" transform="translate(18.14)"/><path d="M626,821.08a4.84,4.84,0,0,1-3.75-7.91c.34-.43,8.77-11.26.3-22.66-6.52-8.78-32.63-5.62-47.55-1.57a4.84,4.84,0,1,1-2.54-9.35c4.6-1.25,45.34-11.71,57.86,5.15,10.42,14,4.18,28.74-.57,34.56A4.84,4.84,0,0,1,626,821.08Z" transform="translate(18.14)"/><path d="M621.28,853.37a4.84,4.84,0,0,1-2.63-8.91c.09-.06,10.19-6.78,9.56-16a4.81,4.81,0,0,0-2.18-3.76c-7-5.11-27.34-2.79-38.49-.12a4.84,4.84,0,0,1-2.25-9.42c3.39-.81,33.53-7.66,46.43,1.7a14.51,14.51,0,0,1,6.14,10.88c1,15.06-13.35,24.5-14,24.9A4.84,4.84,0,0,1,621.28,853.37Z" transform="translate(18.14)"/><path d="M610.82,760.57a4.84,4.84,0,0,1-2.93-8.7,74.87,74.87,0,0,0,10.2-9.14c-5.42-3-20.52-8.19-32-8.86h-.38c-8.06,0-21.3,14.26-28.25,24.58a4.85,4.85,0,0,1-8-5.41c2-3,19.89-28.85,36.34-28.85l.9,0c6.94.41,16.31,2.44,25.06,5.43,15.29,5.23,16.33,8.74,16.82,10.43.6,2,2,6.78-14.84,19.53A4.76,4.76,0,0,1,610.82,760.57Zm9.06-16.64Z" transform="translate(18.14)"/><path d="M678.27,920.64c-4,0-7.89-.13-11.56-.35-18-1-40.7-4.79-45.86-9.06-7.85-6.5-18.6-23-17.92-39.21a4.84,4.84,0,0,1,9.68.41c-.56,13.2,9,26.84,14.35,31.29,2.48,1.57,19.3,5.79,41.2,7,23.76,1.25,41.49-1.86,48.65-8.57,38.86-37.77,30.18-128.37,28.24-144.82-38.14-16.78-119.92-11.09-120.76-11a4.84,4.84,0,1,1-.7-9.66c3.6-.26,88.69-6.17,128.06,13.08a4.85,4.85,0,0,1,2.66,3.66c.65,4.5,15.36,110.9-30.82,155.78C713.76,918.23,695.21,920.64,678.27,920.64ZM627,903.77Z" transform="translate(18.14)"/><path d="M542.74,858.27a4.81,4.81,0,0,1-3.76-1.79c-3.75-4.62-3.76-10.92-3.78-16a27.13,27.13,0,0,0-.35-5.65c-.43-1.54-2.45-4.39-4.08-6.69-2.94-4.14-5.48-7.71-5.48-11.36a34.58,34.58,0,0,1,.53-5c.39-2.62.93-6.22.07-7.79a4.84,4.84,0,1,1,8.49-4.66c2.44,4.44,1.65,9.68,1,13.89a32.3,32.3,0,0,0-.41,3.45c.31,1.14,2.42,4.12,3.69,5.91,2.28,3.21,4.63,6.53,5.51,9.7a31.17,31.17,0,0,1,.7,8.21c0,3.73,0,8,1.62,9.92a4.84,4.84,0,0,1-3.76,7.89Z" transform="translate(18.14)"/><path d="M276.18,1110.75h-.33a4.85,4.85,0,0,1-4.51-5.15l3.27-49.33a4.84,4.84,0,1,1,9.66.64L281,1106.23A4.84,4.84,0,0,1,276.18,1110.75Z" transform="translate(18.14)"/><path d="M858.72,964.67a4.85,4.85,0,0,1-4.84-4.7c-2-67.52-6.54-128.3-13.61-180.66-12.6-93.25-32.92-155.18-58.76-179.1-61.8-57.21-103.75-59.15-104.17-59.16a4.84,4.84,0,1,1,.3-9.68c1.85.06,46,2.09,110.45,61.73,58,53.67,72.17,252.72,75.47,366.59a4.85,4.85,0,0,1-4.7,5Z" transform="translate(18.14)"/><path d="M777.65,1110.75a4.84,4.84,0,0,1-4.8-4.26c-.11-.94-11.37-95.21-10.53-172.75.84-78,21-140.19,21.24-140.8a4.84,4.84,0,0,1,9.2,3c-.2.61-19.94,61.48-20.76,137.88-.83,76.9,10.35,170.55,10.47,171.49a4.86,4.86,0,0,1-4.23,5.39A5.83,5.83,0,0,1,777.65,1110.75Z" transform="translate(18.14)"/><path d="M588.74,1058.75a4.7,4.7,0,0,1-1.47-.23,4.84,4.84,0,0,1-3.15-6.08C596.8,1012.62,591,927.84,591,927a4.84,4.84,0,1,1,9.66-.68c.25,3.55,6,87.5-7.28,129.07A4.83,4.83,0,0,1,588.74,1058.75Z" transform="translate(18.14)"/><ellipse cx="588.73" cy="285.16" rx="8.96" ry="15.82"/><ellipse cx="701.85" cy="285.16" rx="8.96" ry="15.82"/><path d="M562.48,336.35c-1.75,0-3.5-.06-5.25-.19a51.32,51.32,0,0,1-41.11-25.11c-9.87-16.28-11.5-37.82-4.15-54.88,8.08-18.77,42.75-22.06,73.52-17,10.26,1.69,43.82,8.48,45.16,25.06A64.93,64.93,0,0,1,611.75,316,69.32,69.32,0,0,1,562.48,336.35Zm-2.24-89.58c-18.72,0-35.38,4-39.38,13.23-6.14,14.28-4.75,32.34,3.55,46a41.82,41.82,0,0,0,33.53,20.48,59.78,59.78,0,0,0,46.94-17.33A55.41,55.41,0,0,0,621,265c-.33-4.16-12.35-12.21-37.08-16.28A148.45,148.45,0,0,0,560.24,246.77Z" transform="translate(18.14)"/><path d="M714.85,327.77A60.57,60.57,0,0,1,672,310a62.78,62.78,0,0,1-18-49.39h0c1-12.85,22.48-20.76,42.27-23.88,24.65-3.88,56.11-1.93,63.61,16.36,6.75,16.44,5,37-4.45,52.3-8.11,13.17-20.89,21.07-36,22.24C718,327.71,716.39,327.77,714.85,327.77Zm-51.14-66.46a53.13,53.13,0,0,0,15.17,41.8,50.85,50.85,0,0,0,39.87,14.83c15.29-1.19,23.94-10.26,28.5-17.67,7.87-12.79,9.34-29.88,3.73-43.54-4.76-11.62-30.34-14.06-53.15-10.47-21.77,3.43-33.8,10.95-34.12,15.05Z" transform="translate(18.14)"/><path d="M625.81,269.5a4.86,4.86,0,0,1-3.11-8.58c.48-.41,12.14-10,37.18-4.72a4.84,4.84,0,0,1-2,9.48c-20-4.2-28.64,2.4-29,2.68A4.75,4.75,0,0,1,625.81,269.5Z" transform="translate(18.14)"/><path d="M377.13,291.55a4.83,4.83,0,0,1-4.54-3.18c-1.93-5.28-1.2-14.47,8.74-18.17,16.61-5.83,119.69-3.34,131.39-3a4.84,4.84,0,0,1-.25,9.68c-45.23-1.17-116.61-1.48-127.85,2.46-4,1.49-3.39,4.51-2.94,5.74a4.85,4.85,0,0,1-4.55,6.51Z" transform="translate(18.14)"/><path d="M756.46,262.42a4.84,4.84,0,0,1-.51-9.66l11.74-1.25a4.84,4.84,0,1,1,1,9.63L757,262.39A4.53,4.53,0,0,1,756.46,262.42Z" transform="translate(18.14)"/><path d="M646.69,353.9c-12.24,0-24.27-8.38-24.84-8.78a4.84,4.84,0,1,1,5.58-7.91c3.44,2.41,14.14,8.34,22.07,6.74a11.07,11.07,0,0,0,7.37-5.26c6.15-11.29-12.23-23.14-12.42-23.25a4.84,4.84,0,0,1,5.17-8.19A53.77,53.77,0,0,1,661,317.33c7.29,8.76,8.8,18.06,4.25,26.19a1.59,1.59,0,0,1-.13.22,20.56,20.56,0,0,1-13.75,9.71A24,24,0,0,1,646.69,353.9ZM661,341.16h0Z" transform="translate(18.14)"/><path d="M637.27,408.73c-16.47,0-28.79-12.86-29.32-13.43a4.84,4.84,0,0,1,7-6.64c.22.22,10.7,11,23.32,10.36,7.47-.36,14.5-4.67,20.9-12.83a4.84,4.84,0,0,1,7.61,6c-8.23,10.5-17.7,16.06-28.13,16.53Z" transform="translate(18.14)"/><path d="M532.32,258.9A74.33,74.33,0,0,1,544,247.41c1.06-.85,2.17-1.65,3.26-2.48s2.26-1.55,3.4-2.34,2.34-1.44,3.54-2.11,2.42-1.34,3.68-1.91a66,66,0,0,1,15.87-5.13l4.13-.75c1.39-.18,2.8-.29,4.2-.43l2.1-.2,2.11,0,4.23,0a4.35,4.35,0,0,1,.19,8.7l-.45,0-3.66.16-1.82.07-1.82.24c-1.21.17-2.42.29-3.63.49l-3.59.78a100.45,100.45,0,0,0-14,4.77c-1.17.41-2.3.94-3.45,1.45s-2.31.95-3.44,1.51c-2.31,1-4.59,2.12-6.86,3.27a143.73,143.73,0,0,0-13.27,7.78l-.09.06a1.69,1.69,0,0,1-2.26-2.46Z" transform="translate(18.14)"/><path d="M705.37,254.55c-.67-.61-1.46-1.29-2.25-1.88s-1.59-1.21-2.38-1.81a57.89,57.89,0,0,0-5.07-3.16,56.69,56.69,0,0,0-5.28-2.66l-2.69-1.18-2.74-1c-.89-.38-1.84-.63-2.75-.94s-1.82-.64-2.77-.86l-2.79-.76c-.94-.24-1.89-.39-2.84-.59-1.87-.44-3.81-.59-5.71-.85a27.49,27.49,0,0,0-2.88-.2l-2.87-.17-.42,0a5.3,5.3,0,1,1,.61-10.59l.41,0c2.21.3,4.43.49,6.61.93s4.38.84,6.5,1.52a59.94,59.94,0,0,1,12.37,4.87,56.2,56.2,0,0,1,10.81,7.53A50.15,50.15,0,0,1,708,252.5a1.67,1.67,0,0,1-2.51,2.15Z" transform="translate(18.14)"/><path d="M814.4,972.4c-30.74,0-48-7.66-49.13-8.17a4.84,4.84,0,0,1,4-8.81h0c.37.17,34.79,15.21,93.42,1.27-1.43-.25-3-.48-4.77-.67a4.84,4.84,0,1,1,1-9.63c16.66,1.81,21.87,7,22.75,8.06a4.85,4.85,0,0,1-2.3,7.78C853.73,969.92,831.88,972.4,814.4,972.4Z" transform="translate(18.14)"/><path d="M816,1031.88c-16.8,0-34.33-3.23-49-13a4.84,4.84,0,0,1,5.36-8.06c33,21.92,85,6.08,99.44,1-1.84-8.52-4.66-25.57.12-33.14,2.91-4.61,2.42-14.83,1.43-20.18a4.84,4.84,0,0,1,9.52-1.78c.33,1.79,3.12,17.81-2.77,27.13-2.42,3.84-.8,18.47,2.08,29.83a4.84,4.84,0,0,1-2.86,5.67C877.4,1020.09,848,1031.88,816,1031.88Z" transform="translate(18.14)"/><path d="M856.23,1110.75H856a4.83,4.83,0,0,1-4.61-5.06c1.68-35.58,0-83.5,0-84a4.84,4.84,0,1,1,9.67-.34c0,.48,1.7,48.79,0,84.78A4.84,4.84,0,0,1,856.23,1110.75Z" transform="translate(18.14)"/><path d="M431.05,936.32a30.25,30.25,0,1,1,30.25-30.25A30.28,30.28,0,0,1,431.05,936.32Zm0-55.65a25.41,25.41,0,1,0,25.41,25.4A25.42,25.42,0,0,0,431.05,880.67Z" transform="translate(18.14)"/><path d="M431.05,927.36a21.29,21.29,0,1,1,21.28-21.29A21.31,21.31,0,0,1,431.05,927.36Zm0-39.66a18.38,18.38,0,1,0,18.38,18.37A18.39,18.39,0,0,0,431.05,887.7Z" transform="translate(18.14)"/><path d="M435.31,956.68a1.45,1.45,0,0,1-1.31-.82l-10.3-21.33a1.45,1.45,0,0,1,2.61-1.26l9.67,20,29.71-14.35-9.9-20.49a1.45,1.45,0,0,1,2.62-1.26L468.94,939a1.46,1.46,0,0,1-.68,1.94l-32.32,15.61A1.45,1.45,0,0,1,435.31,956.68Z" transform="translate(18.14)"/><path d="M405.4,894.77a1.45,1.45,0,0,1-1.31-.82l-9.67-20a1.42,1.42,0,0,1-.06-1.11,1.44,1.44,0,0,1,.74-.83l32.32-15.61a1.48,1.48,0,0,1,1.11-.07,1.51,1.51,0,0,1,.83.74l9.68,20a1.45,1.45,0,1,1-2.62,1.26l-9-18.73L397.67,874l9,18.71a1.46,1.46,0,0,1-.68,1.94A1.41,1.41,0,0,1,405.4,894.77Z" transform="translate(18.14)"/><path d="M436.76,919.74a2,2,0,0,1-1.75-1.09l-5.7-11.73a1.94,1.94,0,0,1,1.74-2.78h7.81a1.94,1.94,0,0,1,0,3.87h-4.71l4.35,9a1.93,1.93,0,0,1-1.74,2.78Z" transform="translate(18.14)"/><path d="M256.31,934.09a4.84,4.84,0,0,1-1.44-9.46c.55-.18,55.77-17.5,87.34-30.61,31.87-13.23,84.39-39.58,84.92-39.85l.22-.1c10.16-4.47,38-18.07,44.85-27.32,5.69-7.7,10.92-15.07,16-22.19,15.83-22.26,27.26-38.34,37.66-44.06,11.46-6.31,56.71-20.49,79.88-12.8,6.72,2.23,11.36,6.09,13.8,11.46,4.32,9.76-2.18,19-6.69,22.89a4.84,4.84,0,1,1-6.34-7.32c0-.05,6.68-6,4.2-11.61-1.28-2.81-3.91-4.86-8-6.23-19.85-6.59-62.31,6.67-72.16,12.09-8.47,4.66-20.5,21.59-34.43,41.19C491,817.33,485.73,824.73,480,832.5c-9.5,12.87-44.13,28.4-48.63,30.38-2.75,1.38-54,27-85.44,40.08-32,13.28-87.6,30.73-88.16,30.91A4.86,4.86,0,0,1,256.31,934.09Z" transform="translate(18.14)"/><path d="M154.27,1050.32h-.19c-15-.56-20-13.84-19.66-22.62a3.53,3.53,0,0,1,.05-.56,190.28,190.28,0,0,1,18.4-53.64C172,937,200.4,914.9,235.13,909.68c31.19-4.76,51.66,3.29,52.52,3.64a4.84,4.84,0,1,1-3.62,9c-.35-.14-19.17-7.36-47.44-3-32,4.81-57.3,24.57-75.14,58.73a184.1,184.1,0,0,0-17.36,50.33c0,2.5.57,12,10.36,12.33a4.84,4.84,0,0,1-.18,9.68Z" transform="translate(18.14)"/><path d="M140.62,1040.59a4.83,4.83,0,0,1-4.08-2.23c-.59-.92-14.32-22.79-1.63-48.48,9.52-19.25-8.4-30-9.16-30.48a5,5,0,0,1-1.38-1.2c-.59-.77-14.52-19-5.18-37.43,11.91-23.54,55.68-34.41,130.1-32.29,51.52,1.69,57.79,21.93,58.34,24.23L298.2,915a1.27,1.27,0,0,0,.05.16c-.05-.16-5.39-15.51-49.25-17-39.33-1.11-70,1.44-91,7.59-15.84,4.63-26,11.15-30.16,19.39-5.79,11.44,1.72,23.57,3.72,26.46,9.19,5.87,22.47,21.48,12,42.57-10.28,20.83,1,38.78,1.1,39a4.85,4.85,0,0,1-4.07,7.46Z" transform="translate(18.14)"/><path d="M139.25,970.1a3.49,3.49,0,0,1-1.05-.17,3.38,3.38,0,0,1-2.17-4.26c.53-1.67,13.69-40.78,57.46-51.16a3.39,3.39,0,0,1,1.57,6.6c-40,9.48-52.47,46.28-52.59,46.65A3.39,3.39,0,0,1,139.25,970.1Z" transform="translate(18.14)"/><path d="M796.72,1001.43c-19.21,0-30.06-7.72-30.61-8.12a3.39,3.39,0,0,1,4-5.48c.21.14,14.81,10.29,39.92,5.54a3.39,3.39,0,1,1,1.26,6.66A78.77,78.77,0,0,1,796.72,1001.43Z" transform="translate(18.14)"/></g></svg>