<svg id="Layer_1" data-name="Layer 1" xmlns="http://www.w3.org/2000/svg" viewBox="0 0 1080 657.87"><defs><style>.cls-1{fill:#77c3ec;}.cls-2{fill:#b3dae5;}.cls-3{fill:#a5aa3f;}.cls-4{fill:#b29572;}.cls-5{fill:#af906b;}.cls-6{fill:#d3b488;}.cls-7{fill:#f7dcb5;}.cls-8{fill:#eac27a;}.cls-9{fill:#b4dded;}.cls-10{fill:#999242;}.cls-11{fill:#a0a03d;}.cls-12{fill:#d3ca59;}.cls-13{fill:#e8e8e8;}.cls-14{fill:#bfbc4c;}.cls-15,.cls-17,.cls-19{fill:none;}.cls-16{fill:#603913;}.cls-17,.cls-19{stroke:#000;stroke-linecap:round;stroke-linejoin:round;}.cls-18{fill:#333;}.cls-19{stroke-width:2px;}.cls-20{fill:#c96d6d;}.cls-21{fill:#c62e2e;}.cls-22{fill:#6b0f0f;}.cls-23{opacity:0.3;}.cls-24{fill:#0a0a0a;}.cls-25{fill:#544b42;}.cls-26{fill:#6b5336;}.cls-27{fill:#e0bf6e;}.cls-28{fill:#cea267;}.cls-29{fill:#8eaf33;}.cls-30{fill:#9ac638;}.cls-31{fill:#aa2121;}.cls-32{fill:#cc1d1d;}.cls-33{fill:#e59330;}.cls-34{fill:#f7b359;}.cls-35{fill:#dbdbdb;}.cls-36{fill:#efefef;}.cls-37{fill:#cecdcc;}.cls-38{fill:#c1c1c1;}.cls-39{fill:#aaa;}.cls-40{fill:#ffe7d2;}.cls-41{fill:#ba835d;}.cls-42{fill:#a3714f;}.cls-43{fill:#afafaf;}.cls-44{fill:#cecece;}.cls-45{fill:#705743;}.cls-46{fill:#594335;}.cls-47{fill:#60493a;}.cls-48{opacity:0.25;}.cls-49{fill:#d8d8d8;}.cls-50{fill:#919191;}.cls-51{fill:#b2b2b2;}.cls-52{fill:#425b23;}.cls-53{fill:#507229;}.cls-54{fill:#513b23;}.cls-55{fill:#3f2d1c;}.cls-56{fill:#ddd;}.cls-57{fill:#b7b7b7;}.cls-58{fill:#415b24;}.cls-59{fill:#2c3f14;}.cls-60{fill:#9e8a38;}.cls-61{fill:#d8c150;}.cls-62{fill:#efdb6a;}.cls-63{fill:#8e8e8e;}.cls-64{fill:#161616;}.cls-65{fill:#3a3a3a;}.cls-66{fill:#d3d3d3;}.cls-67{fill:#1c1c1c;}.cls-68{fill:#494949;}.cls-69{fill:#b01f24;}.cls-70{fill:#9b1b24;}</style></defs><title>emam-our-story</title><circle class="cls-1" cx="521.08" cy="328.94" r="328.94"/><path class="cls-2" d="M412.32,665.58c.18.46,1.84,5.89-5.09,25.28-7.27,20.35-18.89,19.45-18.89,30.75s0,24-9.08,33.47c-8.93,9.35-17.53,33.45-17.78,34.19a489,489,0,0,1-56.19,1.9c26.14-44.58,42.61-25.54,50.84-59.31s18.17-26.53,31.72-48.22-.24-41.16-16.58-52.7-37,.71-37.78-26.42-6.9-26.69-10.17-35.72-11.62-18.31-12-31.21,10.1-24.11,10.1-24.11l0-.13q4.91,1.89,9.86,3.45s-20.35,19.89-4.73,42.05,17.52,31,17.56,46c.06,14.6,35.47,1,55.46,34.5,16,26.72,57.39,28,74.82,26.21s37.78-1.81,41.41,27.59,8.52,50,26.59,49.69v0c-10.1,1.88-20.12,4-30,6.46h0s-16.57-18.17-12.22-44-19.25-26.22-44-22.15C432,687.18,413,666.3,412.32,665.58Z" transform="translate(0 -293.11)"/><path class="cls-3" d="M514.8,748.73l-2.36.57c-20.64,5.07-41.11,10.39-59.68,19-31.95,14.87-78.1,19.87-109.77,22.83.25-.75,16.37-27.51,25.31-36.86s3.78-22.19,3.78-33.51,18.23-17,25.5-37.32c6.92-19.39,4.13-30.69,4-31.15.67.73,32.6,30.43,56.86,26.43,24.7-4.08,48.36,1,44,26.82S514.8,748.73,514.8,748.73Z" transform="translate(0 -293.11)"/><path class="cls-4" d="M30.42,689l36.32-40.89c7,2.54,14.67,7.39,22.66,15.72,22.81,23.8,26.29,58.5,16.22,78-1.05,1.66-2,3.25-3,4.77,0,0,0,0,0,0a25,25,0,0,1-8.93,7.62,22.59,22.59,0,0,1-12.09,2.16c-32.79-2.8-57.56-10-59.06-43-.48-10.41,2.44-18.08,7-23.43Zm39-1.47-.34.44-8.67,13.13s-4.75-8.61-14.77,4.15,13.52,25.87,26,19.33C82.38,718.91,78,698.32,69.37,687.5Z" transform="translate(0 -293.11)"/><path class="cls-5" d="M68.93,690c8.32,10.46,12.59,30.38,2.17,35.84-12.1,6.32-34.87-6.34-25.18-18.7s14.28-4,14.28-4l8.4-12.7Z" transform="translate(0 -293.11)"/><path class="cls-6" d="M267.57,442.88a17.21,17.21,0,0,0-7.57,2.93c-8.48,5.72-156,125.4-225.94,204.36-2.44,2.74-4.7,5.45-6.79,8.09l1,1.22c.75-.71,15.72-14.82,36.64-8.12C88.54,621.18,152.32,545,267.57,442.88Z" transform="translate(0 -293.11)"/><path class="cls-7" d="M286.14,455.46c-5.19-9.71-12-13.37-18.57-12.58C152.32,545,88.54,621.18,64.92,651.36c.48.16,1,.31,1.46.49,6.8,2.46,14.2,7.16,21.92,15.21,22.07,23,25.44,56.6,15.7,75.43C140.46,684.12,250.76,526.1,276.75,489c3.55-5.09,5.53-7.9,5.53-7.9S293.41,469,286.14,455.46Z" transform="translate(0 -293.11)"/><path class="cls-4" d="M39.9,745.87c-10.2-6.29-16.6-16.28-17.33-32.54-.48-10.41,2.44-18.08,7-23.43l.84-.93,34.05-38.34c-22.41-8.13-35.66,6.66-37.11,5.34l-1.42,1.44C-23.54,719.76,11.33,755,23.32,759.13c5.16,1.79,11.63,3.46,18.45,5.08C36.19,758.22,37.73,750.86,39.9,745.87Z" transform="translate(0 -293.11)"/><path class="cls-8" d="M862.05,517.58s-106.07-75.05-279-35.25-206,48.82-301.49-1.83l-6.31,9c14.19,10.59,30.09,17.4,45.49,23.26,3.28,1.26,6.57,2.37,9.86,3.46,81.66,26.9,165.87-.25,165.87-.25,18.14-5.17,35.87-10.43,52.46-14.1h0c96.85-21.54,167.77-19.22,216.91-9.81C829,504.14,856.23,528,856.23,528c5.82,11.31,179.2,302.48,179.2,302.48-71.67-20.19-167-63.05-167-63.05C816.23,739,672.14,718,541.74,742.27c-10.1,1.88-20.12,4-30,6.47a436.44,436.44,0,0,0-59.68,19c-28.47,11.51-59.62,18-91.29,20.94a488.75,488.75,0,0,1-56.18,1.89c-110.91-2.25-212.81-36.67-212.81-36.67A21.76,21.76,0,0,1,80.1,756c-16.1-1.38-30.2-3.85-40.38-10.12-2.1,4.83-3.59,12,1.81,17.74,9.38,2.23,19.44,4.38,27.56,6.68,20.33,5.33,41.88,6.89,62.34,11.41,43.24,9.58,86.7,18,130.38,23.8a405.73,405.73,0,0,0,107,.07c35.35-4.89,66.55-18.58,101.11-28,28.48-7.8,58.59-16.29,87.57-20.31C617,749,676.21,749.59,736,755c35.76,3.24,72.31,8.74,106.44,23,101.71,42.5,234.66,85,234.66,85S886,560.08,862.05,517.58Z" transform="translate(0 -293.11)"/><path class="cls-9" d="M671.22,484.59c-34.91,1.22-75.27,7.56-121.58,17.85v0c-.07.6-1.43,13.81,10.63,15.34,12.35,1.55,23,8.5,32.45,16.62s37.29,19.31,54.49,13.27c9.83-3.44,14.52-.16,19.8,2,4,1.63,8.27,2.63,15.32-.29,16.47-6.84,21.79-22.21,28.58-36.68s43.59,4.85,55.64-20.1C740.91,487.72,709.31,483.26,671.22,484.59Z" transform="translate(0 -293.11)"/><path class="cls-10" d="M226.75,754c-11.23-18.64-32.6-38.79-15-61.68s22.16-53.67,0-62.5c-10.91-4.35-13.76-16.31-13.85-27.33-36.48,53-75.08,109.81-93.93,140a31.46,31.46,0,0,1-2.86,4.62,0,0,0,0,0,0,0,24,24,0,0,1-8.63,7.36s59.63,20.14,137.31,30.62C232.05,777.54,233.66,765.49,226.75,754Z" transform="translate(0 -293.11)"/><path class="cls-11" d="M282.28,659.48c18.11-29-11.57-47-29.71-63.64C240,584.35,242,553.46,244.32,535.47c-13.66,19.63-29.8,42.93-46.39,67,.09,11,2.94,23,13.85,27.33,22.16,8.83,17.62,39.6,0,62.5s3.74,43,15,61.68c6.91,11.49,5.3,23.54,3.05,31.11,13.63,1.83,27.81,3.38,42.33,4.46,7.68-15.94,14.78-55.88,10.15-64.28C276.72,715.21,264.16,688.52,282.28,659.48Z" transform="translate(0 -293.11)"/><path class="cls-11" d="M368.42,547.48s-6.08,35.26,18.62,39.29,45.35,10.58,55.43,31.73,89.66,12.85,91.67-4.4-13.1-26.83-8.56-45.46-7.05-45.25-30.22-40.51c-12.42,2.54-27.3-.4-38.44-3.68a315.16,315.16,0,0,1-82.29,1.22c-1-.13-2.1-.27-3.19-.43C372.52,529.86,372.51,537.39,368.42,547.48Z" transform="translate(0 -293.11)"/><path class="cls-10" d="M418,540.43s-23.68,1.51-18.39,15.62,44.83,8.31,53.9,18.63,22,5.19,25.69-5.54c2.2-6.36-3.15-9.68,2.39-15.24s-11.46-16.74-22-13.47S447,533.88,439.89,535,425.56,540,418,540.43Z" transform="translate(0 -293.11)"/><path class="cls-12" d="M951.59,689c1,9.27,0,22-11.67,26.28-19.14,7-28.2,24.68-19.14,37.28,6.87,9.54,12.87,31.23,12.74,42.49,31.42,12.44,69.42,26.48,102.42,35.77C1035.94,830.79,994.58,761.35,951.59,689Z" transform="translate(0 -293.11)"/><path class="cls-13" d="M715.88,531.32c-4.32,16.12,11.4,4.76,17.39,7.42S757,551,764,540.18s18.33-13.12,30.3-9,27.12-.11,24.83-9.06c-1.66-6.51-4-12.17-2.78-15.78a285.25,285.25,0,0,0-49.77-14c-12,24.95-48.87,5.63-55.64,20.1-.9,1.9-1.76,3.81-2.63,5.72C713.41,519.64,718.07,523.13,715.88,531.32Z" transform="translate(0 -293.11)"/><path class="cls-13" d="M883.63,749.28c-6.33-4.63,2.64-15.9-7.55-26.86s-24.62,5.48-39.6,1.37-17.72-18.25-24.1-31.48c-4.43-9.17-15.89-8.25-25.69-3.81a27.28,27.28,0,0,0,2.83,11.3c11.76,25.61,28.4,34.43,28.66,50.66A446.8,446.8,0,0,1,869,768s10,4.48,26,11.22C906.43,765.41,889.53,753.6,883.63,749.28Z" transform="translate(0 -293.11)"/><path class="cls-14" d="M951.64,688.93C930,652.44,907.88,615.2,890.46,585.75c-6.65.31-17.59,3.35-15.82,20.36,2.52,24.18,11.27,37.92-23.58,48.93-30,9.48-64.36,13.06-64.37,33.46,9.8-4.44,21.26-5.36,25.69,3.81,6.38,13.23,9.12,27.37,24.1,31.48s29.41-12.32,39.6-1.37,1.22,22.23,7.55,26.86c5.9,4.32,22.8,16.13,11.36,29.92,10.63,4.48,23.88,9.95,38.59,15.78.13-11.26-5.87-33-12.74-42.49-9.07-12.6,0-30.23,19.14-37.28C951.64,710.92,952.64,698.21,951.64,688.93Z" transform="translate(0 -293.11)"/><path class="cls-3" d="M730.12,699.85c20.61,1.15,35.75,5.09,45.32-4a42.1,42.1,0,0,1,11.25-7.37c0-20.4,34.38-24,64.37-33.46,34.85-11,26.1-24.75,23.58-48.93-1.77-17,9.17-20,15.82-20.36-18.78-31.76-32.13-54.47-33.67-57.48,0,0-12.62-11-40.6-21.91-1.19,3.61,1.12,9.27,2.78,15.78,2.29,9-12.86,13.21-24.83,9.07s-23.29-1.9-30.3,9-24.72,1.22-30.71-1.44-21.72,8.7-17.4-7.42c2.2-8.19-2.47-11.68-7.58-13.13-5.75,12.63-11.65,25-26,30.94-7.06,2.93-11.36,1.93-15.32.3-.34,21.35,3,89.61,51,179.67C718,718.35,710.19,698.74,730.12,699.85Z" transform="translate(0 -293.11)"/><path class="cls-13" d="M818.18,750.49c-.26-16.23-16.9-25-28.66-50.66a27.28,27.28,0,0,1-2.83-11.3,42.1,42.1,0,0,0-11.25,7.37c-9.57,9-24.71,5.1-45.32,4-19.93-1.11-12.12,18.5-12.26,29.27,0,.09.09.17.13.25l0,.8a8.15,8.15,0,0,1-1.06,3.43l3.46.22c0-.08-.08-.16-.13-.24A493.45,493.45,0,0,1,818.18,750.49Z" transform="translate(0 -293.11)"/><path class="cls-3" d="M355.12,649c4.07-12.46-7.48-13.6-13.56-25.61a8.23,8.23,0,0,1-.89-2.94c-3.34-1.79-5.76-4.9-6.68-10.53a39.32,39.32,0,0,1-.5-5.38c-.72-27.13-6.9-26.69-10.17-35.72s-11.62-18.31-12-31.21,10.1-24.11,10.1-24.11l0-.13c-15.41-5.86-31.31-12.67-45.49-23.26-6.44,9.2-17.27,24.7-31.65,45.38-2.37,18-4.28,48.88,8.25,60.37,18.14,16.62,47.82,34.61,29.71,63.64s-5.56,55.73,0,65.81c4.63,8.4-2.47,48.34-10.15,64.28l.53,0c10.73.79,21.64,1.33,32.63,1.56,26.14-44.58,42.61-25.54,50.84-59.31s18.17-26.53,31.72-48.22c5.18-8.3,6.86-16.58,6-24.3-1.94,1.51-3.61,2.84-4.83,3.72C383.63,666.94,351,661.45,355.12,649Z" transform="translate(0 -293.11)"/><path class="cls-3" d="M667,549.7c-5.28-2.17-10-5.45-19.79-2-17.2,6-45-5.12-54.49-13.27s-20.1-15.07-32.45-16.62c-12.06-1.53-10.7-14.74-10.63-15.34q-24.87,5.51-52.08,13.23s-16,5.09-40.64,8.76c11.14,3.28,26,6.22,38.44,3.68,23.17-4.74,34.75,21.87,30.22,40.51s10.58,28.2,8.56,45.46-81.6,25.56-91.67,4.4S411.74,590.8,387,586.77s-18.62-39.29-18.62-39.29c4.09-10.09,4.12-17.13,3.05-21.75a310.34,310.34,0,0,1-45.91-10.86s-22.43,17.5-1.33,45.46a77.27,77.27,0,0,1,15,32.89,69.81,69.81,0,0,1,1.41,15,5.35,5.35,0,0,0,3,5.05c5.63-5.9,17.19-9.28,17.19-9.28,7.43-2.85,4.94-14.28,9.27-15.19s21.74.53,25.32,9.45,21.73,15.64,27.75,26.2,3.42,27.22-5.64,24.57c-2.76-.8-6-.17-9.25,1.2,18,17.16,46,20.27,60.69,18.72,17.45-1.8,43.24-5.17,46.87,24.23s8.52,50,26.59,49.69v0C600.89,732,662.26,730,716.9,733.6a8.15,8.15,0,0,0,1.06-3.43l0-.8C670,639.32,666.67,571.06,667,549.7Z" transform="translate(0 -293.11)"/><path class="cls-15" d="M343.64,613.23c-2,2.09-3.25,4.51-3,7.2,8.55,4.59,23.1.59,34,8.27,10.1,7.14,17.93,18.15,19.24,30.64,4.05-3.15,9.31-7,14.39-9.16a51.63,51.63,0,0,1-8.67-10.85C383,611.46,353.17,618.51,343.64,613.23Z" transform="translate(0 -293.11)"/><path class="cls-13" d="M374.65,628.7c-10.88-7.68-25.43-3.68-34-8.27a8.23,8.23,0,0,0,.89,2.94c6.08,12,17.63,13.15,13.56,25.61s28.51,18,33.94,14.08c1.22-.88,2.89-2.21,4.83-3.72C392.58,646.85,384.75,635.84,374.65,628.7Z" transform="translate(0 -293.11)"/><path class="cls-13" d="M417.53,649c9.06,2.65,11.66-14,5.64-24.57s-24.16-17.29-27.75-26.2-21-10.37-25.32-9.45-1.84,12.34-9.27,15.19c0,0-11.56,3.38-17.19,9.28,9.53,5.28,39.32-1.77,56,26.1a51.63,51.63,0,0,0,8.67,10.85C411.56,648.81,414.77,648.18,417.53,649Z" transform="translate(0 -293.11)"/><path d="M1077.78,865.8a2,2,0,0,1-.73-.13c-1.32-.46-132.77-46.44-234.72-85C808.15,767.72,765,758.17,724,754.44c-63.15-5.72-110.15-2.1-165.51,5.58-27.15,3.77-55.19,11.45-82.3,18.89l-5,1.36c-9.91,2.71-19.83,5.7-29.41,8.58-23.68,7.12-48.16,14.48-73.52,18-32.54,4.48-68.36,4.18-106.48-.92-43.4-5.79-170.54-28.28-192.42-32.86C58,770.68,36.89,766,23.64,761.39c-5.77-2-16.68-11.28-21.41-27.6-4.61-15.88-4.31-42.12,23.3-76.91h0c2.19-2.76,4.5-5.52,6.86-8.18C101.26,570.91,249.31,450.34,258.75,444c4.65-3.13,9.64-4.15,14.47-3,5.82,1.45,11,6.08,14.88,13.41,6,11.22.55,21.56-2.48,25.94,88.38,47.88,125.91,39.23,279.67,3.76l18.41-4.24c89.79-20.66,161.16-9.68,205.23,3.16,47.83,13.95,74.84,33.12,75.1,33.31a2.17,2.17,0,0,1,.64.71c23.67,42,213.08,342.31,215,345.34a2.22,2.22,0,0,1-1.88,3.4ZM664.37,747.2c18.77,0,38.44.87,60,2.82,41.43,3.76,85,13.41,119.55,26.48,89.45,33.85,201.65,73.41,228.6,82.88-25.7-40.77-188.53-299.29-211.45-339.7-3.44-2.36-29.5-19.61-73.58-32.44-43.52-12.66-114-23.46-202.79-3l-18.41,4.24c-156.4,36.07-193.56,44.64-285.07-5.43a2.24,2.24,0,0,1-1.13-1.59,2.21,2.21,0,0,1,.57-1.87c.4-.44,10-11.08,3.54-23.05-3.31-6.19-7.47-10.06-12-11.19-3.57-.89-7.34-.08-10.91,2.33-9.41,6.34-156.88,126.46-225.52,204-2.31,2.61-4.57,5.3-6.71,8h0C2.57,693,2.17,717.67,6.49,732.55c4.43,15.27,14.45,23.2,18.61,24.64,13,4.54,33.87,9.17,45.13,11.53,21.85,4.57,148.78,27,192.11,32.8,37.72,5,73.14,5.35,105.28.92,25-3.46,48.25-10.44,72.85-17.84,9.61-2.89,19.55-5.88,29.51-8.61l5-1.37c27.25-7.46,55.42-15.19,82.86-19C594.64,750.52,627.78,747.2,664.37,747.2ZM27.27,658.26h0Z" transform="translate(0 -293.11)"/><path d="M63.62,729.75c-7.32,0-15-3.55-19.1-8.43s-4.23-10.6-.35-15.55c4.2-5.34,8.25-7.88,12-7.59a7.4,7.4,0,0,1,3.73,1.39l6.24-9.43a18.71,18.71,0,0,0-2.86-2.59c-6-4.35-21.24-4.42-30.41,5.38a2.22,2.22,0,0,1-3.24-3c10.1-10.79,27.78-12.06,36.25-5.95a25.16,25.16,0,0,1,4.79,4.66c6.55,8.24,10.13,20.91,8.32,29.48-1,4.51-3.32,7.87-6.85,9.72A18.4,18.4,0,0,1,63.62,729.75Zm-8-27.16c-1.3,0-3.92.85-7.9,5.92-2.59,3.3-2.5,6.65.26,10,4.45,5.36,15.32,9,22.15,5.39,2.34-1.23,3.88-3.48,4.56-6.7C76,710.69,73.56,701,69,693.88l-6.92,10.46a2.15,2.15,0,0,1-1.94,1,2.23,2.23,0,0,1-1.86-1.15,3.45,3.45,0,0,0-2.49-1.59Z" transform="translate(0 -293.11)"/><path d="M101.13,749.33a2.23,2.23,0,0,1-1.77-3.56,27.76,27.76,0,0,0,2.65-4.28c9.41-18.18,6.25-50.4-15.31-72.89-6.85-7.15-13.94-12.08-21.08-14.66a38,38,0,0,0-35.83,4.69,2.25,2.25,0,0,1-3.13-.14,2.2,2.2,0,0,1,.09-3.1,42.47,42.47,0,0,1,40.39-5.62c7.78,2.81,15.44,8.11,22.77,15.76,22.93,23.93,26.17,58.44,16.06,78a33.17,33.17,0,0,1-3.06,4.93A2.23,2.23,0,0,1,101.13,749.33Z" transform="translate(0 -293.11)"/><path d="M30.43,694.54a2.23,2.23,0,0,1-1.65-3.71l.81-.9,35.13-39.55a2.22,2.22,0,1,1,3.32,3l-36,40.47A2.21,2.21,0,0,1,30.43,694.54Z" transform="translate(0 -293.11)"/><path class="cls-16" d="M408.27,527.89c-24.11,0-50.84-2.63-77.16-10.38-3.31-1-6.64-2.21-9.92-3.47a222.18,222.18,0,0,1-44.34-22.86.73.73,0,0,1-.21-1,.74.74,0,0,1,1-.22,220.72,220.72,0,0,0,44.06,22.72c3.25,1.25,6.55,2.41,9.82,3.44,80.58,23.72,165-.87,165.81-1.12,18-5.13,35.54-9.59,52.13-13.26a.74.74,0,1,1,.32,1.44c-16.56,3.66-34.07,8.12-52,13.24C497.2,516.57,458.37,527.89,408.27,527.89Z" transform="translate(0 -293.11)"/><path class="cls-16" d="M1036.12,831.77l-.2,0c-70.9-20-170.43-64.91-171.42-65.36C796.36,739.07,676,718.73,542.57,743.57c-10.32,1.91-20.39,4.09-30,6.45A436.47,436.47,0,0,0,453,769c-26.55,10.73-57.33,17.79-91.49,21a491.9,491.9,0,0,1-56.27,1.9c-109.76-2.23-212-36.37-213-36.72a.72.72,0,0,1-.46-.93.74.74,0,0,1,.93-.47c1,.35,103.07,34.42,212.59,36.64a488.81,488.81,0,0,0,56.1-1.9c34-3.17,64.66-10.19,91.07-20.88a438.46,438.46,0,0,1,59.78-19.06c9.59-2.38,19.7-4.56,30-6.48C676,717.21,796.71,737.62,865.08,765c1,.46,98.78,44.61,169.46,64.79C1020.72,806.61,863,541.65,856.33,529c-1.89-1.58-29.61-24.12-89.92-35.65-68.34-13.08-139.19-9.87-216.58,9.8a.74.74,0,0,1-.37-1.43c77.61-19.73,148.67-22.94,217.23-9.82,62.65,12,90.44,35.84,90.72,36.08a.62.62,0,0,1,.17.22c5.74,11.16,177.45,299.53,179.18,302.44a.74.74,0,0,1,0,.83A.72.72,0,0,1,1036.12,831.77Z" transform="translate(0 -293.11)"/><path class="cls-15" d="M331.32,516.8s-20.35,19.89-4.73,42.05,17.52,31,17.56,46c.06,14.6,35.47,1,55.46,34.5,16,26.72,57.39,28,74.82,26.21s37.78-1.81,41.41,27.59,8.52,50,26.59,49.69" transform="translate(0 -293.11)"/><path class="cls-15" d="M321.43,513.48S311,524.7,311.33,537.59s8.72,22.16,12,31.21,9.45,8.59,10.17,35.72,21.43,14.87,37.78,26.42,30.14,31,16.58,52.7-23.48,14.47-31.72,48.22-24.7,14.73-50.84,59.31h0" transform="translate(0 -293.11)"/><path class="cls-15" d="M412.31,665.54v0c.67.72,19.69,21.6,43.95,17.6,24.7-4.07,48.3-3.61,44,22.15s12.22,44,12.22,44" transform="translate(0 -293.11)"/><path class="cls-15" d="M361.46,789.29l0,0c.25-.74,8.85-24.84,17.78-34.19,9.08-9.5,9.08-22.16,9.08-33.47s11.62-10.4,18.89-30.75c6.93-19.39,5.27-24.82,5.09-25.28" transform="translate(0 -293.11)"/><path class="cls-15" d="M549.64,502.46c-.07.6-1.43,13.81,10.63,15.34,12.35,1.55,23,8.5,32.45,16.62s37.29,19.31,54.49,13.27,18.65,8.55,35.12,1.72,21.79-22.21,28.58-36.68,43.59,4.85,55.64-20.1" transform="translate(0 -293.11)"/><path class="cls-17" d="M549.64,502.44" transform="translate(0 -293.11)"/><path d="M82.93,758.89c-.77,0-1.54,0-2.33-.1-27.78-2.37-57.55-7.9-59.18-43.71-.44-9.87,2-18,7.32-24.21a2.22,2.22,0,1,1,3.37,2.89c-4.54,5.31-6.64,12.42-6.25,21.12C27.18,744,47.93,751.55,81,754.37A19.6,19.6,0,0,0,91.5,752.5a21.77,21.77,0,0,0,7.84-6.7,2.22,2.22,0,1,1,3.56,2.65,26.14,26.14,0,0,1-9.44,8A23.33,23.33,0,0,1,82.93,758.89Z" transform="translate(0 -293.11)"/><path class="cls-18" d="M211.67,740.68h-1.13a3,3,0,0,1,.05-5.92h0a61.86,61.86,0,0,0,14-1.4,3,3,0,1,1,1.25,5.79A67.37,67.37,0,0,1,211.67,740.68Zm-15.7-2a3,3,0,0,1-.72-.09,77.57,77.57,0,0,1-14.44-5.25,3,3,0,0,1,2.56-5.34,70.42,70.42,0,0,0,13.32,4.85,3,3,0,0,1-.72,5.83Zm43.18-4.39a3,3,0,0,1-1.41-5.57,48.44,48.44,0,0,0,11.1-8.31,3,3,0,1,1,4.14,4.23,54.61,54.61,0,0,1-12.44,9.3A2.9,2.9,0,0,1,239.15,734.33Zm-69.81-8.15a3,3,0,0,1-1.69-.54,113,113,0,0,1-11.82-9.54,3,3,0,0,1,4-4.36,109.46,109.46,0,0,0,11.21,9,3,3,0,0,1-1.7,5.39Zm91.13-11.91a3,3,0,0,1-2.39-4.71c2.91-4,5.65-8.17,8.17-12.11a3,3,0,1,1,5,3.19c-2.58,4-5.38,8.31-8.38,12.41A2.94,2.94,0,0,1,260.47,714.27Zm-112.94-8a3,3,0,0,1-2.24-1A111.13,111.13,0,0,1,136,693.06a3,3,0,0,1,5-3.15,106.49,106.49,0,0,0,8.74,11.44,3,3,0,0,1-2.24,4.89Zm129.2-16.7a3,3,0,0,1-2.47-4.58c3.15-4.81,5.88-8.71,8.59-12.29a3,3,0,1,1,4.72,3.57c-2.63,3.47-5.29,7.27-8.36,12A3,3,0,0,1,276.73,689.54Zm18-23.43a3,3,0,0,1-2.15-5,105,105,0,0,1,11.21-10.26,3,3,0,1,1,3.66,4.65,100.24,100.24,0,0,0-10.58,9.68A3,3,0,0,1,294.74,666.11Zm265.79-16.35q-4.37,0-9.31-.11a3,3,0,0,1-2.9-3,3,3,0,0,1,3-2.89c5.42.11,10.3.12,14.68.06a3,3,0,1,1,.09,5.91C564.34,649.74,562.48,649.76,560.53,649.76Zm-24-.63h-.14c-4.75-.23-9.74-.52-14.83-.87a3,3,0,0,1,.4-5.91c5.05.35,10,.64,14.71.87a3,3,0,0,1-.14,5.91Zm44.35,0a3,3,0,0,1-.21-5.91A124.73,124.73,0,0,0,595,641.46a3,3,0,1,1,1.12,5.81,129.91,129.91,0,0,1-15,1.83ZM317.9,648a3,3,0,0,1-1.45-5.54,102,102,0,0,1,13.78-6.4,3,3,0,0,1,2.09,5.54,96.72,96.72,0,0,0-13,6A2.87,2.87,0,0,1,317.9,648ZM507,647.12h-.25c-4.73-.41-9.7-.87-14.77-1.38a3,3,0,1,1,.59-5.89c5.05.51,10,1,14.68,1.37a3,3,0,0,1-.25,5.91Zm-29.44-2.94-.33,0q-7.09-.79-14.72-1.74a3,3,0,1,1,.72-5.87q7.59.93,14.66,1.73a3,3,0,0,1-.33,5.9Zm-29.36-3.62a2.75,2.75,0,0,1-.4,0q-7.12-.94-14.68-2a3,3,0,0,1,.83-5.87q7.53,1.07,14.63,2a3,3,0,0,1-.38,5.89Zm157.22-2.29a3,3,0,0,1-2.68-4.22c2.1-4.5,4.37-9,6.73-13.4a3,3,0,1,1,5.21,2.8c-2.31,4.3-4.52,8.71-6.58,13.11A3,3,0,0,1,605.4,638.27Zm-260-.8a3,3,0,0,1-.68-5.84A141.3,141.3,0,0,1,359.55,629a3,3,0,0,1,.73,5.88,134.06,134.06,0,0,0-14.21,2.51A3.23,3.23,0,0,1,345.39,637.47Zm73.49-1-.42,0c-4.95-.7-9.85-1.28-14.55-1.71a3,3,0,1,1,.54-5.89c4.8.44,9.79,1,14.84,1.74a3,3,0,0,1-.41,5.89Zm-29.46-2.68h-.11c-5-.18-10-.18-14.58,0a3,3,0,0,1-.21-5.92c4.75-.17,9.82-.17,15,0a3,3,0,0,1-.1,5.92Zm230-21.61a2.92,2.92,0,0,1-1.55-.44,3,3,0,0,1-1-4.07c2.76-4.48,5.59-8.69,8.39-12.5a3,3,0,1,1,4.77,3.51c-2.71,3.68-5.44,7.75-8.13,12.1A3,3,0,0,1,619.44,612.15Zm17.68-23.73a3,3,0,0,1-2.16-5,76.63,76.63,0,0,1,11.51-10.21,3,3,0,1,1,3.41,4.84,70.47,70.47,0,0,0-10.6,9.42A3,3,0,0,1,637.12,588.42Zm83.44-15.14a3,3,0,0,1,0-5.92,76.51,76.51,0,0,0,14.16-1.29,3,3,0,1,1,1.2,5.8,82.35,82.35,0,0,1-15.27,1.41Zm-14.78-.35h-.15c-3-.15-6-.33-9.06-.51l-5.74-.33a3,3,0,0,1,.33-5.91l5.76.34c3,.17,6,.35,9,.5a3,3,0,0,1-.14,5.92Zm-44.31-.56a3,3,0,0,1-.65-5.85,30.24,30.24,0,0,1,4.48-.65c3.33-.22,7-.3,10.94-.26a3,3,0,0,1,2.93,3,3,3,0,0,1-3,2.93c-3.81,0-7.32,0-10.49.25a22.12,22.12,0,0,0-3.57.52A2.94,2.94,0,0,1,661.47,572.37Zm86.94-6.74a3,3,0,0,1-2.13-5,13,13,0,0,0,3.48-7.36,27,27,0,0,0,.33-4.21,3,3,0,0,1,3-3h0a3,3,0,0,1,3,3,33.56,33.56,0,0,1-.4,5.12,19.05,19.05,0,0,1-5.07,10.56A3,3,0,0,1,748.41,565.63Zm1.48-28a3,3,0,0,1-2.72-1.78A54.27,54.27,0,0,0,739.84,524a3,3,0,0,1,4.63-3.68,60,60,0,0,1,8.13,13.24,3,3,0,0,1-2.71,4.14Zm-18-23.27a2.92,2.92,0,0,1-2-.74,76.29,76.29,0,0,0-6.94-5.51,3,3,0,0,1,3.31-4.91,79.72,79.72,0,0,1,7.55,6,3,3,0,0,1-2,5.18Z" transform="translate(0 -293.11)"/><path class="cls-18" d="M960.26,771.92a35,35,0,0,1-9.82-1.39,3,3,0,0,1,1.67-5.67,31,31,0,0,0,13.37.73,3,3,0,1,1,.89,5.85A40.09,40.09,0,0,1,960.26,771.92ZM980,767a3,3,0,0,1-1.28-5.63,52.13,52.13,0,0,0,8.46-5,2.92,2.92,0,0,1,1.83-.63,3,3,0,0,1,3,3c0,.79,0,2.89-10.7,8A2.87,2.87,0,0,1,980,767Zm-41.4-3.69a2.94,2.94,0,0,1-2-.79,45.46,45.46,0,0,1-5.36-5.94,53.17,53.17,0,0,0-4.52-5.19,3,3,0,1,1,4.19-4.18,59,59,0,0,1,5,5.79,39.92,39.92,0,0,0,4.67,5.18,3,3,0,0,1-2,5.13Zm-21.45-20.06a2.94,2.94,0,0,1-1.51-.42,74.86,74.86,0,0,0-12.88-6,3,3,0,0,1,2-5.57,81,81,0,0,1,13.89,6.46,3,3,0,0,1-1.51,5.51Zm-27.59-10.32a2.94,2.94,0,0,1-.65-.07c-4.4-1-9.09-1.86-14.33-2.63a3,3,0,0,1,.87-5.85c5.39.79,10.22,1.68,14.77,2.71a3,3,0,0,1-.66,5.84Zm-29.23-4.45H860c-4.44-.44-9.24-.85-14.66-1.24a3,3,0,1,1,.42-5.9c5.48.39,10.33.8,14.82,1.25a3,3,0,0,1-.29,5.9Zm-29.51-2.18h-.17q-7.17-.4-14.76-.8a3,3,0,1,1,.31-5.91q7.6.4,14.79.8a3,3,0,0,1-.17,5.92Zm-29.55-1.58h-.16l-3.52-.19c-3.81-.21-7.62-.47-11.33-.78a3,3,0,1,1,.49-5.9c3.66.31,7.41.57,11.16.77l3.52.19a3,3,0,0,1-.16,5.91Zm-29.49-2.47a2.17,2.17,0,0,1-.36,0c-5-.61-10-1.33-14.78-2.13a3,3,0,1,1,1-5.83c4.7.78,9.59,1.48,14.52,2.09a3,3,0,0,1-.36,5.89Zm-29.18-4.89a3.58,3.58,0,0,1-.64-.07c-5-1.11-9.93-2.32-14.53-3.63A3,3,0,1,1,729,708c4.49,1.27,9.26,2.46,14.19,3.54a3,3,0,0,1-.63,5.85Zm-28.44-8.14a3.12,3.12,0,0,1-1-.19,134.72,134.72,0,0,1-13.88-6,3,3,0,1,1,2.67-5.28,128.21,128.21,0,0,0,13.27,5.73,3,3,0,0,1-1,5.74ZM688,695.57a3,3,0,0,1-1.81-.62,41.34,41.34,0,0,1-10.68-11.69,3,3,0,0,1,5.13-3,35.48,35.48,0,0,0,9.18,10,3,3,0,0,1-1.82,5.3Zm-13.33-25a3,3,0,0,1-2.88-2.3c-.83-3.57-3.36-6.8-7.54-9.6a3,3,0,0,1,3.29-4.92c5.47,3.67,8.84,8.11,10,13.2a2.94,2.94,0,0,1-2.22,3.54A2.48,2.48,0,0,1,674.68,670.59Zm-22.21-17.5a3.13,3.13,0,0,1-.9-.14,108.86,108.86,0,0,0-14-3.32,3,3,0,0,1,1-5.83,117.16,117.16,0,0,1,14.8,3.5,3,3,0,0,1-.88,5.79Zm-29.13-5.31h-.26c-8.31-.74-14.34-.75-14.59-.75a3,3,0,1,1,0-5.91c.26,0,6.54,0,15.11.76a3,3,0,0,1-.26,5.91Z" transform="translate(0 -293.11)"/><path d="M101.12,749.34a2.22,2.22,0,0,1-2.22-2.22,2.18,2.18,0,0,1,.39-1.25c.88-1.45,1.83-3,2.83-4.56,37.12-59.43,150.47-221.69,172.82-253.62,3.54-5.08,5.52-7.9,5.52-7.9a2.22,2.22,0,1,1,3.63,2.55s-2,2.82-5.51,7.9C256.24,522.15,143,684.32,105.88,743.66q-1.51,2.42-2.85,4.6a1.85,1.85,0,0,1-.19.27A2.21,2.21,0,0,1,101.12,749.34Z" transform="translate(0 -293.11)"/><path class="cls-19" d="M25.68,775.09" transform="translate(0 -293.11)"/><path class="cls-20" d="M371.9,405.79h0l0-.05S371.9,405.77,371.9,405.79Z" transform="translate(0 -293.11)"/><path class="cls-20" d="M445.16,405.79h0a.09.09,0,0,0,0-.05Z" transform="translate(0 -293.11)"/><path class="cls-21" d="M413.31,439.52c0-11.63-8.77-21.06-19.59-21.06s-19.59,9.43-19.59,21.06a22.09,22.09,0,0,0,.17,2.59h0s-.19,20.24,19.43,59.73c19.62-39.49,19.43-59.73,19.43-59.73h0A22.09,22.09,0,0,0,413.31,439.52Z" transform="translate(0 -293.11)"/><path d="M393.72,503.51l-.66-1.34c-19.48-39.2-19.52-59.23-19.51-60.07v0a21.78,21.78,0,0,1-.16-2.55c0-12,9.12-21.8,20.33-21.8s20.33,9.78,20.33,21.8a21.78,21.78,0,0,1-.16,2.55v0c0,.84,0,20.87-19.51,60.07Zm-18.67-60.66c.2,3.92,2,23.42,18.67,57.32,16.64-33.9,18.47-53.4,18.67-57.32h-.06l.08-.82a21.4,21.4,0,0,0,.16-2.51c0-11.2-8.46-20.32-18.85-20.32s-18.85,9.12-18.85,20.32A21.4,21.4,0,0,0,375,442l.09.82Z" transform="translate(0 -293.11)"/><ellipse class="cls-22" cx="393.72" cy="147.06" rx="10.04" ry="10.79"/><path class="cls-21" d="M757.89,399.23c0-6.87-5.18-12.44-11.57-12.44s-11.57,5.57-11.57,12.44a12.82,12.82,0,0,0,.1,1.53h0s-.11,12,11.48,35.29c11.6-23.33,11.48-35.29,11.48-35.29h0C757.85,400.26,757.89,399.75,757.89,399.23Z" transform="translate(0 -293.11)"/><path d="M746.32,437.71l-.66-1.33c-11.54-23.23-11.56-35.13-11.56-35.63h0a14.93,14.93,0,0,1-.09-1.51c0-7.27,5.52-13.18,12.31-13.18s12.31,5.91,12.31,13.18a12.5,12.5,0,0,1-.09,1.51h0c0,.5,0,12.4-11.56,35.63ZM735.61,401.5c.2,2.86,1.53,14,10.71,32.88,9.2-18.91,10.52-30,10.71-32.88H757l.09-.82a11.64,11.64,0,0,0,.09-1.45c0-6.45-4.86-11.7-10.83-11.7s-10.83,5.25-10.83,11.7a13.93,13.93,0,0,0,.09,1.45l.1.82Z" transform="translate(0 -293.11)"/><ellipse class="cls-22" cx="746.32" cy="106.51" rx="5.93" ry="6.38"/><g class="cls-23"><path class="cls-24" d="M917.83,699.41a6.33,6.33,0,0,0-2.55-1.79l-.31-.13a59.32,59.32,0,0,0-9.58-3c-3.07-.76-6.78-1.57-11.31-2.42l-2-.39-3.45-.68c.8-.16,1.52-.33,2.16-.52,1.93-.55,3.14-1.22,3.58-2a1.38,1.38,0,0,0,.16-.51c1.19-10.43-9.78-21.25-28.49-30.34-18.93-9.2-45.76-16.62-76-20.07H790c-1.9-.22-3.8-.42-5.68-.6l-.73-.06c-1.68-.16-3.36-.31-5-.44h-.25q-5.58-.43-11-.64h0c-4.34-.18-8.59-.24-12.74-.22h-1.1l-3.27.05-1.4,0-3.09.11-1.47.06-3,.16-1.4.09c-1,.06-2,.13-3,.21l-1.16.09q-5.24.43-10.14,1.1l-.82.11-2.57.38-1.41.22-2.33.4-1.53.28-2.17.43-1.55.32-2,.46-1.53.37-1.93.48-1.52.43-1.79.5c-1,.3-2,.61-3,.94l-1.42.49c-.54.19-1.08.38-1.6.58s-.92.35-1.38.53-1,.4-1.48.61-.86.37-1.28.56-.95.43-1.41.65l-1.18.58c-.46.23-.9.46-1.34.7l-1,.59c-.46.26-.89.52-1.32.79l-.89.56c-.51.34-1,.69-1.48,1-.17.12-.36.24-.52.37-.63.47-1.22,1-1.77,1.45-.19.16-.35.33-.52.49-.37.35-.74.7-1.07,1.05-.19.2-.37.41-.55.61s-.57.66-.83,1-.33.44-.48.66-.46.67-.67,1-.27.45-.4.68-.37.7-.53,1.06-.21.44-.3.67c-.16.39-.28.79-.4,1.19-.06.19-.14.39-.19.58a14,14,0,0,0-.34,1.83,1.38,1.38,0,0,0,0,.53,3.9,3.9,0,0,0,1.59,1.83,18.56,18.56,0,0,0,3,1.74c-.5,0-2.44-.1-5.12-.15-7.37-.13-20.33.07-24,3-.78.62-1,1.13-.86,1.56a1.48,1.48,0,0,0,.73.68,7,7,0,0,0,1.48.55l.64.16c2,.47,4.88.82,8,1.23l2.07.29,2.1.32,1,.18c.7.12,1.38.25,2,.39a36.41,36.41,0,0,1,3.81,1,10.68,10.68,0,0,1,1.78.73l-.5,4.37a.86.86,0,0,0,.17.59h0l-1.46,12.78c-.1.89,1,1.9,3.13,3a77.52,77.52,0,0,0,13.76,4.67l1.78.46q4,1,8.8,2.1c3.47.77,7.22,1.54,11.21,2.32q4,.78,8.31,1.55c5.75,1,11.9,2.06,18.38,3.07,4.86.75,9.9,1.5,15.1,2.22l5.25.72q5.31.7,10.79,1.39t11.12,1.32c2.82.32,5.61.63,8.39.92l1.34.15q4.15.43,8.2.83l.65.06c12.87,1.26,25,2.21,36,2.85h.12l3.53.2h0c4.6.25,9,.43,13.09.56l.6,0,2.68.08h.53q4.05.09,7.69.11h3.76l1.78,0,1,0,2.79-.07,1.14,0,1.27-.06,1.18-.06,1.15-.07,1.16-.08,1-.08,1.26-.12.73-.08c.61-.06,1.18-.13,1.73-.21l.61-.09,1-.17.59-.11.89-.19.48-.12c.35-.08.67-.18,1-.27l.18-.06a7.19,7.19,0,0,0,.91-.36l.23-.12a5.34,5.34,0,0,0,.49-.28l.19-.15a1.82,1.82,0,0,0,.31-.31.76.76,0,0,0,.11-.14,1.11,1.11,0,0,0,.19-.47l1.61-14.12c.31-.08.6-.18.88-.27,1.59-.54,2.66-1.29,2.92-2.26.77-2.86,4.06-3,7.86-2.58l.64.09,1.18.17.7.11c1.82.3,3.67.63,5.31.8a11.16,11.16,0,0,0,4.26-.37c.14,0,.28-.1.41-.15.65-.28,1.07-.65,1.08-1.1A1,1,0,0,0,917.83,699.41Zm-39.57-2.11-.56,0,2.94-.09Zm-3.21.06h-.62l2.2,0-1.35,0Zm-3.42,0h0Zm-3,0-1.58,0,2.42,0h-.84Zm-3.74-.06-2.46-.06,3.19.07h-.73Zm-7.06-.21-.32,0h-.07l4,.14h0Zm-4.25-.18-.59,0,2.62.12-1.68-.07Zm-8.52-.44-1.59-.09,2.57.15-.71,0Zm-18.73-1.28-.63,0,2.62.2-1.94-.15Zm-10.15-.85-1.07-.09,2,.18-1-.09Zm-7.84-.72-.74-.07,2,.19-1.06-.1Zm-8-.78-.21,0,1.56.16-1-.1Zm-8.14-.86h-.11l2.33.25-1.84-.2Zm48.92,4.25-2.76-.17Zm-6.8-.45-3.18-.23Zm-44.06-8,.8.08Zm5.85.62.35,0Zm24.08,6.26,2.63.22ZM817,690.33l.56,0Zm4.61.35c1.44.11,2.87.22,4.28.31C824.5,690.9,823.07,690.79,821.63,690.68Zm29.23,6.09-2.53-.13Z" transform="translate(0 -293.11)"/></g><path class="cls-25" d="M811.56,618.57c1.32.15,2.21,1.84,2,3.77s-1.48,3.4-2.8,3.24-2.21-1.84-2-3.78S810.23,618.42,811.56,618.57Z" transform="translate(0 -293.11)"/><path class="cls-25" d="M802.46,600.89c1.32.15,2.21,1.84,2,3.77s-1.47,3.4-2.79,3.24-2.2-1.84-2-3.78S801.14,600.74,802.46,600.89Z" transform="translate(0 -293.11)"/><path class="cls-25" d="M785.14,621.35c-1.32-.15-2.21-1.84-2-3.78s1.47-3.38,2.79-3.23,2.21,1.84,2,3.77S786.46,621.51,785.14,621.35Z" transform="translate(0 -293.11)"/><path class="cls-26" d="M919.23,689.34l-.14,1.28c-1,9.08-38,12.31-82.45,7.24-42.76-4.89-77-15.67-78.66-24.56l1-9c3.73,5.06-3.19,14.79,14.86,14.28,19.77-.55,27-.9,29.83,3.8s8,10.33,22.5,4.69a31.32,31.32,0,0,1,30.91,4.09c5.38,4,17.95,5.7,21.76-.88s16.72-5.38,21.45-.63C903.89,693.24,913.88,693.4,919.23,689.34Z" transform="translate(0 -293.11)"/><path class="cls-15" d="M811.56,618.57c-1.33-.15-2.58,1.3-2.8,3.23s.67,3.63,2,3.78,2.58-1.29,2.8-3.24S812.88,618.72,811.56,618.57Z" transform="translate(0 -293.11)"/><path class="cls-15" d="M785.94,614.34c-1.32-.15-2.57,1.3-2.79,3.23s.67,3.63,2,3.78,2.57-1.29,2.79-3.24S787.26,614.49,785.94,614.34Z" transform="translate(0 -293.11)"/><path class="cls-15" d="M802.46,600.89c-1.32-.15-2.56,1.3-2.78,3.23s.66,3.63,2,3.78,2.57-1.29,2.79-3.24S803.78,601,802.46,600.89Z" transform="translate(0 -293.11)"/><path class="cls-27" d="M850.47,576.71a92.22,92.22,0,0,0-17-.37c-4.53,5.5-12.52,19.93-3,46.63,9.12,25.67,35.12,41.1,48.79,47.66,17.86-.61,31.9-3.38,38.89-7.83,2.49-1.58,4.08-3.38,4.65-5.37a5.24,5.24,0,0,0,.18-1C927.43,617.5,895,581.79,850.47,576.71Z" transform="translate(0 -293.11)"/><path class="cls-28" d="M830.47,623c-9.5-26.7-1.51-41.13,3-46.63-37.21,2.61-67.79,27.82-71.66,61.74a5.35,5.35,0,0,0,0,1c.1,2,1.15,4,3,6l.27.28c6.68,6.81,22.92,13.53,44.12,18.38A284.93,284.93,0,0,0,840,668.88,281.56,281.56,0,0,0,871,670.76c2.82,0,5.56,0,8.22-.13C865.59,664.07,839.59,648.64,830.47,623Zm-45.33-1.62c-1.32-.15-2.21-1.84-2-3.78s1.47-3.38,2.79-3.23,2.21,1.84,2,3.77S786.46,621.51,785.14,621.35Zm16.52-13.45c-1.32-.15-2.2-1.84-2-3.78s1.46-3.38,2.78-3.23,2.21,1.84,2,3.77S803,608.06,801.66,607.9Zm9.09,17.68c-1.32-.15-2.21-1.84-2-3.78s1.47-3.38,2.8-3.23,2.21,1.84,2,3.77S812.07,625.74,810.75,625.58Z" transform="translate(0 -293.11)"/><path class="cls-28" d="M845.88,698.8q-4.56-.42-9.24-.94c-42.76-4.89-77-15.67-78.66-24.56L755.28,697c-1.22,10.66,33.87,23.41,78.38,28.49,9.17,1,18,1.68,26.32,1.94C847.2,719.43,845.85,704.83,845.88,698.8Z" transform="translate(0 -293.11)"/><path class="cls-27" d="M919.23,689.34l-.14,1.28c-1,8.44-33,11.83-73.21,8.18,0,6,1.32,20.63,14.1,28.66,31.92,1,55.48-3.58,56.45-12l3-26.23A.9.9,0,0,1,919.23,689.34Z" transform="translate(0 -293.11)"/><path class="cls-29" d="M863,678.14c-7.59-.38-15.62-1-23.92-2-30.83-3.52-57.22-10.2-70.15-17.06-5.74-3-8.82-6.11-8.5-9,.21-1.84,1.84-3.46,4.66-4.82l-.27-.28c-.37,0-1.83.12-3.85.37-5.55.7-15.36,2.7-18.46,8.53-4.24,7.95,8.36,4.62,15.08,9a5.45,5.45,0,0,1,1.25,1.12,1.49,1.49,0,0,1,.15.2c3.73,5.06-3.19,14.79,14.86,14.28,19.77-.55,27-.9,29.83,3.8s8,10.33,22.5,4.69a31.32,31.32,0,0,1,30.91,4.09c5.06,3.74,16.47,5.48,21,.21C863.57,689.65,862.52,682.1,863,678.14Z" transform="translate(0 -293.11)"/><path class="cls-30" d="M922.11,664.09c-1.26-.39-2.56-.86-4-1.29,2.44,2,3.67,3.9,3.46,5.74-.33,2.86-4,5.15-10.3,6.82-10.34,2.75-27.67,3.79-48.29,2.78-.5,4,.55,11.51,15.07,13.24a6.7,6.7,0,0,0,.78-1.09c3.81-6.58,16.72-5.38,21.45-.63,3.57,3.58,13.56,3.74,18.91-.32a.9.9,0,0,0,.19-.15,8.32,8.32,0,0,0,3.19-5.13c1.59-9.07,7.62-4.94,12-4.58C938.86,679.83,946.53,671.51,922.11,664.09Z" transform="translate(0 -293.11)"/><path class="cls-31" d="M857.08,670.34c-5.54-.31-11.27-.79-17.13-1.46a284.93,284.93,0,0,1-30.72-5.17c-21.2-4.85-37.44-11.57-44.12-18.38-2.82,1.36-4.45,3-4.66,4.82-.32,2.85,2.76,5.92,8.5,9,12.93,6.86,39.32,13.54,70.15,17.06q5.83.66,11.48,1.13A23.07,23.07,0,0,1,857.08,670.34Z" transform="translate(0 -293.11)"/><path class="cls-32" d="M918.15,662.8c-8,5.11-25.37,8-47.11,8-4.48,0-9.15-.15-14-.42a23.07,23.07,0,0,0-6.5,7c26,2.19,48.37,1.35,60.73-1.94,6.27-1.67,10-4,10.3-6.82C921.82,666.7,920.59,664.76,918.15,662.8Z" transform="translate(0 -293.11)"/><path d="M918.15,664.28a1.48,1.48,0,0,1-.79-2.73c2.21-1.41,3.56-2.93,4-4.52a4.46,4.46,0,0,0,.13-.73c2.11-18.41-4.12-36.68-17.53-51.42s-32.52-24.29-53.68-26.7S808.42,580.7,792,592.09s-26.57,27.74-28.67,46.16a4.58,4.58,0,0,0,0,.74c.08,1.57,1,3.27,2.65,5a1.48,1.48,0,0,1-2.16,2c-2.17-2.3-3.32-4.63-3.44-6.93a7.08,7.08,0,0,1,0-1.22c2.2-19.27,12.83-36.41,29.92-48.25s38.48-16.93,60.35-14.42,41.6,12.31,55.54,27.64,20.48,34.48,18.28,53.76a7,7,0,0,1-.23,1.19c-.65,2.32-2.43,4.41-5.27,6.22A1.57,1.57,0,0,1,918.15,664.28Z" transform="translate(0 -293.11)"/><path d="M871.63,672.24H871a294.35,294.35,0,0,1-62.13-7.09c-21.65-4.95-38-11.8-44.84-18.78a1.48,1.48,0,0,1,2.11-2.07c6.46,6.59,22.28,13.14,43.39,18a290.74,290.74,0,0,0,61.48,7h.57c21.06,0,38.13-2.88,45.75-7.73a1.48,1.48,0,0,1,1.59,2.5C910.76,669.26,893.53,672.24,871.63,672.24Z" transform="translate(0 -293.11)"/><path d="M876.26,701.71a358.8,358.8,0,0,1-39.79-2.39c-38.13-4.35-77.83-14.59-79.94-25.74a4.79,4.79,0,0,1-.07-1.52l.93-8.12a1.46,1.46,0,0,1,1.64-1.3,1.48,1.48,0,0,1,1.3,1.64l-.93,8.12a1.94,1.94,0,0,0,0,.59c1.36,7.21,32.78,18.31,77.38,23.4,46.62,5.31,80,1.14,80.81-5.94l.14-1.28a1.46,1.46,0,0,1,1.64-1.3,1.48,1.48,0,0,1,1.3,1.64l-.14,1.28C919.68,698.48,900.59,701.71,876.26,701.71Z" transform="translate(0 -293.11)"/><path d="M919.42,690.67a1.49,1.49,0,0,1-1.16-.57,1.47,1.47,0,0,1,.25-2.07,6.8,6.8,0,0,0,2.64-4.23c.54-3,1.61-5.06,3.27-6.14,2.31-1.51,5.08-.82,7.53-.21a19,19,0,0,0,2.81.55,3,3,0,0,0,2.92-2.14c.45-2.34-3.27-6.35-15.1-10.08a5.55,5.55,0,0,1,.5,2.93c-.4,3.45-4.23,6.17-11.39,8.08-14.83,4-42.71,4.27-72.75.85s-57.12-10-70.69-17.22c-6.54-3.47-9.66-7-9.27-10.43a5.62,5.62,0,0,1,1.33-3c-5.37.75-13.85,2.7-16.47,7.64-.59,1.11-.81,2-.6,2.41.45.91,3.17,1.35,5.57,1.73,3.18.52,6.77,1.1,9.61,3a7.24,7.24,0,0,1,1.59,1.42l.25.35a1.48,1.48,0,0,1-2.5,1.59l1.25-.8-1.28.75a4.4,4.4,0,0,0-.93-.84c-2.31-1.51-5.58-2-8.46-2.51-3.56-.57-6.63-1.06-7.76-3.34-.67-1.36-.46-3,.65-5.12,3.22-6.06,12.43-8.4,19.58-9.29,1.65-.21,2.93-.31,3.57-.36l.32,0a1.45,1.45,0,0,1,1.25.49l.18.19a1.51,1.51,0,0,1,.43,1.31,1.5,1.5,0,0,1-.8,1.1c-1.65.79-3.66,2.07-3.84,3.65-.23,2,2.58,4.76,7.72,7.48,13.26,7,39.94,13.51,69.63,16.9s57.16,3.09,71.66-.77c5.62-1.5,9-3.52,9.21-5.55.18-1.58-1.49-3.28-2.91-4.43a1.45,1.45,0,0,1-.38-1.84,1.47,1.47,0,0,1,1.74-.72c.69.21,1.35.43,2,.65s1.32.44,2,.63c17,5.17,18.59,10.83,18,13.75a5.93,5.93,0,0,1-6.07,4.53,21.17,21.17,0,0,1-3.27-.63c-2-.51-4-1-5.21-.18-.92.6-1.58,2-2,4.18a9.85,9.85,0,0,1-3.73,6A1.45,1.45,0,0,1,919.42,690.67Z" transform="translate(0 -293.11)"/><path d="M868.84,729.07A318.66,318.66,0,0,1,833.49,727c-21.64-2.47-41.77-6.82-56.67-12.23-11-4-23.88-10.33-23-17.9l3.73-32.71a1.49,1.49,0,0,1,1.09-1.27,1.47,1.47,0,0,1,1.57.55c1.37,1.86,1.55,4,1.73,6.16.36,4.38.68,7.86,11.9,7.52l1.72-.05c19.12-.53,26.26-.73,29.42,4.57,2.9,4.86,7.64,9.15,20.69,4.08A32.87,32.87,0,0,1,858,690a20.07,20.07,0,0,0,14.31,2.93,7.54,7.54,0,0,0,5.29-3.36c1.61-2.79,4.74-4.62,8.82-5.15,5.52-.72,11.81,1.05,15,4.21,3,3,12,3.28,17-.45a1.53,1.53,0,0,1,1.71-.27,1.46,1.46,0,0,1,.84,1.47l-3,26.23C916.82,725,895.31,729.07,868.84,729.07ZM759.48,673.22l-2.73,24c-.49,4.28,7.39,9.8,21.08,14.77,14.69,5.34,34.58,9.63,56,12.08,46.61,5.31,80.17-.37,81.13-8.8L917.61,692c-5.92,2.77-14.66,2.36-18.34-1.33-2.51-2.52-7.88-4-12.48-3.36-3.14.41-5.5,1.72-6.64,3.69a10.41,10.41,0,0,1-7.25,4.77c-5.34,1.11-12.51-.36-16.67-3.44a30,30,0,0,0-29.49-3.9c-15.38,6-21.24-.17-24.31-5.32-2.27-3.8-9.46-3.61-26.8-3.12l-1.72.05C763.58,680.34,760.53,677.38,759.48,673.22Z" transform="translate(0 -293.11)"/><g class="cls-23"><path d="M408.68,592.73l-.44,0-2.17-.16h0l.54-.48.16-.13c.48-.4,1-.8,1.45-1.19l.05,0c1.07-.84,2.17-1.64,3.29-2.41,10.9-7.47,23.82-11.53,30.12-13.89l.25-.09.76-.29.45-.19.3-.12.59-.26.19-.09.48-.24.08,0,.34-.23.08-.06a.89.89,0,0,0,.22-.21l0-.05a.29.29,0,0,0,.05-.19s0,0,0,0a.36.36,0,0,0-.12-.19l0,0a1.6,1.6,0,0,0-.3-.17l-.07,0a4.42,4.42,0,0,0-.47-.15l-.07,0c-.2-.05-.44-.09-.7-.14l-.17,0-.92-.13h-.09l-1.09-.12-.22,0-1.34-.11-.31,0L438,571h0c-.47,0-.94,0-1.4,0h-1.84l-1.21.07h-.16l-1.44.14-.11,0c-.43,0-.86.12-1.29.19l-.21,0-1.32.25h0C415.29,574.57,404.12,585,398,592c-8.88-.47-18.8-.73-29.28-.73-8.28,0-16.22.16-23.57.46q-4.73.19-9.11.46c-5.83.35-11.15.79-15.8,1.31-12.41,1.38-20.08,3.28-20.08,5.39a.62.62,0,0,0,0,.19h0c.09,4.79,3.78,9.26,10.11,13.07.7.43,1.43.84,2.2,1.25a70.33,70.33,0,0,0,10.62,4.43q3,1,6.28,1.84v5.5h0a.59.59,0,0,0,0,.22l.05.07a1.3,1.3,0,0,0,.1.15l.09.08.14.13.14.09.19.12.18.09.24.12.22.09.28.11.26.09.32.11.31.09.36.1.35.09.39.1.39.09.43.09.43.09.47.09.47.09.49.09.51.08.52.08.56.09.53.07.61.09.51.07.69.08.15,0q1,.14,2.16.24l.21,0,.94.09.44,0,.92.08.51.05.93.07.55,0,.95.07.58.05,1,.06.58,0,1,.06.59,0,1.06.06.6,0,1.1,0,.59,0,1.15.05.58,0,1.19,0,.58,0,1.23,0,.55,0,1.29,0h.47l1.41,0h.31c1.77,0,3.58,0,5.41,0,8.15,0,15.71-.27,22-.75.53,0,1-.08,1.54-.12l1.84-.16,2.07-.21a74.31,74.31,0,0,0,7.63-1.15c.5-.11,1-.23,1.37-.34a12.87,12.87,0,0,0,1.66-.55h0c.81-.35,1.24-.72,1.24-1.1v-5.5a95.09,95.09,0,0,0,9.19-2.86c.94-.35,1.85-.71,2.74-1.08q2.66-1.11,5-2.33c.76-.41,1.5-.82,2.2-1.25a28.09,28.09,0,0,0,6.79-5.44,16.69,16.69,0,0,0,1.15-1.46,11.09,11.09,0,0,0,2.17-6.17.71.71,0,0,0,0-.2h0a.85.85,0,0,0-.09-.38l-.08-.13a2.79,2.79,0,0,0-.17-.25l-.15-.14a3.29,3.29,0,0,0-.49-.38l-.33-.21-.31-.16-.4-.19-.39-.16c-.15-.07-.31-.13-.48-.19s-.3-.11-.45-.16l-.55-.18-.54-.17-.59-.17-.62-.16-.65-.16-.71-.17-.67-.14-.81-.17-.67-.13-.94-.18-.51-.09c-1.95-.34-4.14-.67-6.55-1l-.34,0-1.68-.2-.45-.06-1.73-.19-.5,0-1.8-.18-.52,0-1.9-.17-.49,0Zm-26.05,31-1,.07h0l1-.07ZM363.14,606.5h0Zm-5.52-.07h0ZM315,603.65l-2-.28Zm2.89.38-1.73-.22Zm4,.45c-.95-.09-1.86-.19-2.75-.3C320.09,604.29,321,604.39,322,604.48Zm3.19.31-1.45-.14Zm3.23.28-1.23-.1Zm-15.95-1.8c-.83-.13-1.61-.27-2.35-.41C310.81,603,311.59,603.14,312.42,603.27Zm-3-.53-1.6-.33Zm-2.21-.46c-.66-.15-1.3-.3-1.87-.45C305.88,602,306.52,602.13,307.18,602.28Zm30,3.39-.92,0Zm3.25.18-.43,0Zm5.78,17c-.72-.09-1.44-.18-2.15-.29C344.78,622.72,345.5,622.81,346.22,622.9Zm1.14.15c1,.12,2,.23,3,.33C349.34,623.28,348.35,623.17,347.36,623.05Zm3.37.37c5.67.57,11.64.87,17.8.88-6.15,0-12.09-.31-17.75-.87Z" transform="translate(0 -293.11)"/></g><path class="cls-33" d="M360.78,560.16c.14-8.79,16.32-12.55,28.23-14.13-28.81.15-52.89,7.32-59.46,17,9.82,6.62,33.19,11.29,60.45,11.29,1.29,0,2.56,0,3.83,0C380.13,572.82,360.64,569.2,360.78,560.16Z" transform="translate(0 -293.11)"/><path class="cls-34" d="M389.93,546H389c-11.91,1.58-28.09,5.34-28.23,14.13-.14,9,19.35,12.66,33.05,14.1,25.51-.42,47.1-4.91,56.51-11.18C443.77,553.28,419.2,546,389.93,546Z" transform="translate(0 -293.11)"/><path class="cls-35" d="M369.33,573.35c-18-1.67-32.56-5.48-39.78-10.34-3-2-4.72-4.21-4.93-6.51.16,20.46,11.15,38.49,27.87,49.43a66,66,0,0,0,10.95,5.78,69.42,69.42,0,0,0,26.42,5.23C364.27,608.94,367.77,581.22,369.33,573.35Z" transform="translate(0 -293.11)"/><path class="cls-36" d="M450.34,563.08c-9.88,6.58-33.17,11.22-60.34,11.22-7.23,0-14.17-.34-20.67-.95-1.56,7.87-5.06,35.59,20.53,43.59H390a69.29,69.29,0,0,0,26.55-5.23,66.49,66.49,0,0,0,11-5.78c16.71-10.94,27.7-29,27.86-49.43C455.16,558.82,453.39,561.05,450.34,563.08Z" transform="translate(0 -293.11)"/><path class="cls-37" d="M391,619.45a86.29,86.29,0,0,0,16.21-4.64,70.17,70.17,0,0,1-43.74-3.1,66,66,0,0,1-10.95-5.78v13.2c0,5.46,14.86,10,33.86,10.46C381.1,626.39,381.1,621,391,619.45Z" transform="translate(0 -293.11)"/><path class="cls-36" d="M416.55,611.71a66.78,66.78,0,0,1-9.37,3.1A86.29,86.29,0,0,1,391,619.45c-9.87,1.5-9.87,6.94-4.62,10.14,1.2,0,2.42,0,3.65,0,20.71,0,37.51-4.7,37.51-10.51v-13.2A66.49,66.49,0,0,1,416.55,611.71Z" transform="translate(0 -293.11)"/><path class="cls-38" d="M390,537.74c-36.12,0-65.39,8.19-65.39,18.29,0,.15,0,.32,0,.47.21,2.3,1.95,4.5,4.93,6.51,5.79-8.52,25.21-15.11,49.49-16.65,5.77-4,13-6.76,18.77-8.49C395.25,537.79,392.64,537.74,390,537.74Z" transform="translate(0 -293.11)"/><path class="cls-39" d="M397.81,537.87c-5.72,1.73-13,4.49-18.77,8.49,3.54-.22,7.17-.34,10.89-.34,29.27,0,53.84,7.26,60.41,17.06,3.05-2,4.82-4.26,5-6.58,0-.15,0-.32,0-.47C455.38,546.67,430.24,539,397.81,537.87Z" transform="translate(0 -293.11)"/><path d="M352.49,607a1.14,1.14,0,0,1-.61-.18c-17.61-11.53-28.21-30.35-28.37-50.35a1.12,1.12,0,0,1,1.11-1.12,1.14,1.14,0,0,1,1.11,1.1c.15,19.26,10.38,37.39,27.36,48.51a1.11,1.11,0,0,1,.32,1.54A1.08,1.08,0,0,1,352.49,607Z" transform="translate(0 -293.11)"/><path d="M427.51,607a1.1,1.1,0,0,1-.93-.5,1.11,1.11,0,0,1,.32-1.54c17-11.12,27.21-29.25,27.36-48.51a1.15,1.15,0,0,1,1.12-1.1,1.12,1.12,0,0,1,1.1,1.12c-.15,20-10.76,38.82-28.37,50.35A1.08,1.08,0,0,1,427.51,607Z" transform="translate(0 -293.11)"/><path d="M450.34,564.19a1.11,1.11,0,0,1-.62-2c2.8-1.86,4.37-3.85,4.54-5.76a2.49,2.49,0,0,0,0-.37c0-8.3-25.83-17.18-64.28-17.18s-64.28,8.88-64.28,17.18c0,.11,0,.24,0,.35.17,1.93,1.67,3.84,4.44,5.71a1.11,1.11,0,1,1-1.24,1.84c-3.36-2.26-5.18-4.73-5.41-7.33a5.24,5.24,0,0,1,0-.57c0-12.15,33.81-19.4,66.5-19.4s66.49,7.25,66.49,19.4c0,.19,0,.4,0,.6-.23,2.6-2.09,5.09-5.52,7.38A1.14,1.14,0,0,1,450.34,564.19Z" transform="translate(0 -293.11)"/><path d="M390,630.75c-18.73,0-38.62-4.07-38.62-11.62v-13.2a1.11,1.11,0,0,1,1.71-.93,65.79,65.79,0,0,0,10.78,5.69,69,69,0,0,0,52.25,0A65.39,65.39,0,0,0,426.9,605a1.12,1.12,0,0,1,1.72.93v13.2C428.62,626.68,408.72,630.75,390,630.75Zm-36.4-22.81v11.19c0,4.45,14.95,9.4,36.4,9.4s36.4-4.95,36.4-9.4V607.94a68,68,0,0,1-9.43,4.8,71.17,71.17,0,0,1-54,0A68.44,68.44,0,0,1,353.6,607.94Z" transform="translate(0 -293.11)"/><path d="M390,575.41c-26.75,0-50.72-4.51-61.07-11.48a1.13,1.13,0,0,1-.47-.71,1.15,1.15,0,0,1,.17-.83c7-10.29,32.2-17.48,61.3-17.48s54.41,7.22,61.33,17.56a1.1,1.1,0,0,1,.16.83,1.08,1.08,0,0,1-.47.71C440.56,570.93,416.63,575.41,390,575.41Zm-58.84-12.69c10.5,6.38,33.33,10.47,58.84,10.47s48.19-4.06,58.74-10.41c-7.37-9.12-31.68-15.65-58.81-15.65S338.58,553.63,331.16,562.72Z" transform="translate(0 -293.11)"/><ellipse class="cls-40" cx="427.51" cy="559.79" rx="2.65" ry="5.02" transform="translate(-201.29 584.08) rotate(-79.41)"/><ellipse class="cls-40" cx="405.18" cy="555.62" rx="4.93" ry="11.55" transform="translate(-180.51 622.85) rotate(-85.5)"/><ellipse class="cls-41" cx="376.41" cy="559.79" rx="3.2" ry="6.5" transform="translate(-211.13 598.11) rotate(-85.51)"/><ellipse class="cls-42" cx="350.87" cy="560.94" rx="2" ry="4.05" transform="translate(-235.82 573.72) rotate(-85.51)"/><ellipse class="cls-42" cx="355.9" cy="565.51" rx="1.3" ry="2.64" transform="translate(-235.74 582.94) rotate(-85.51)"/><ellipse class="cls-41" cx="389.16" cy="566.14" rx="1.24" ry="2.51" transform="translate(-205.72 616.68) rotate(-85.51)"/><ellipse class="cls-41" cx="395.11" cy="562.53" rx="0.99" ry="2.01" transform="translate(-196.62 619.28) rotate(-85.51)"/><path class="cls-43" d="M413,555.24c1.24,3.41,6.6,2,6.6,2a119.69,119.69,0,0,1,11.33-26.71c2.09-20.8,8.89-32.26,13.87-38C426.1,506.13,413,555.24,413,555.24Z" transform="translate(0 -293.11)"/><path class="cls-44" d="M456.06,489.1c-3.94-.59-7.73.73-11.31,3.36-5,5.77-11.78,17.23-13.87,38C450.13,497.33,476,492.13,456.06,489.1Z" transform="translate(0 -293.11)"/><path d="M417.11,558.63c-2.1,0-4.35-.68-5.2-3a1.1,1.1,0,0,1,0-.67c.78-2.89,19.25-70.77,44.35-66.94,5.32.8,7.5,1.76,8,3.52.7,2.33-2,4.74-6.81,9.12-9.62,8.7-27.53,24.9-36.83,56.86a1.11,1.11,0,0,1-.78.76A10.56,10.56,0,0,1,417.11,558.63Zm-3-3.48c.85,1.53,3.38,1.3,4.55,1.1C428.2,524.11,446.24,507.79,456,499c3.18-2.88,6.47-5.85,6.17-6.83-.09-.32-.9-1.16-6.23-2C433.65,486.82,415.65,549.67,414.13,555.15Z" transform="translate(0 -293.11)"/><path class="cls-45" d="M405.38,565.56c1.71-.19,1.07,1.48,2.09,1.67s3.62.52,4-.6c-.05-.32-.1-.64-.18-1-.44-2-2.55-2.74-4.05-2.61-1.17.11-2.08,1.31-3.27,1.84C404,565.21,404.2,565.69,405.38,565.56Z" transform="translate(0 -293.11)"/><path class="cls-46" d="M407.47,567.23c-1-.19-.38-1.86-2.09-1.67-1.18.13-1.37-.35-1.39-.71a2.69,2.69,0,0,1-1.1.26c-1.8,0-2.78,2.57-2.78,2.57-1.41,2.82,10,1.8,10.74,1.54s.83-1.13.64-2.59C411.09,567.75,408.42,567.41,407.47,567.23Z" transform="translate(0 -293.11)"/><path d="M405.43,569.94c-2.37,0-4.76-.24-5.5-1.1a1.11,1.11,0,0,1-.13-1.3c.1-.24,1.14-2.77,3.09-2.77a3.86,3.86,0,0,0,2.25-1,4.28,4.28,0,0,1,2.09-1.05c1.5-.13,3.91.53,4.41,2.87s.27,3.67-.68,4A34.81,34.81,0,0,1,405.43,569.94Zm2.18-6.61-.32,0a3.75,3.75,0,0,0-1.75.91,4.41,4.41,0,0,1-2.65,1.18c-1.54,0-2.46,2.33-2.47,2.36v0a.47.47,0,0,0,0,.57c1.22,1.41,9.49.78,10.32.5.54-.18.63-1.38.24-3.21A3.27,3.27,0,0,0,407.61,563.33Zm-7.5,4.35h0Z" transform="translate(0 -293.11)"/><path class="cls-47" d="M364.78,554.77c-.43-1-2.44-.85-3.43-1.41a2,2,0,0,1-.74-1.78,4.34,4.34,0,0,1-1.15.15c-1.8,0-2.43,3.25-2.43,3.25-1.41,2.83,10,1.8,10.74,1.54.42-.14.7-.28.8-.69C367.23,555.94,365.12,555.57,364.78,554.77Z" transform="translate(0 -293.11)"/><path class="cls-45" d="M361.35,553.36c1,.56,3,.43,3.43,1.41.34.8,2.45,1.17,3.79,1.06a4.47,4.47,0,0,0-.15-1.84c-.44-2-3.5-3.45-5-3.32a16.19,16.19,0,0,0-2.81.91A2,2,0,0,0,361.35,553.36Z" transform="translate(0 -293.11)"/><path d="M362.34,557.24c-2.37,0-4.76-.24-5.49-1.1a1.09,1.09,0,0,1-.14-1.27c.09-.43.79-3.48,2.74-3.48a4.88,4.88,0,0,0,2.14-.53,5.37,5.37,0,0,1,1.8-.53c1.54-.14,4.86,1.29,5.35,3.59.45,2.08.17,2.57-.86,2.92A34.86,34.86,0,0,1,362.34,557.24Zm1.28-6.25h-.17a4.92,4.92,0,0,0-1.59.47,5.47,5.47,0,0,1-2.41.59c-1.24,0-1.93,2.15-2.09,3l0,.09c-.16.31-.08.46,0,.58,1.22,1.4,9.48.77,10.32.49.58-.19.82-.27.42-2.14S365,551,363.62,551ZM357,555h0Z" transform="translate(0 -293.11)"/><path class="cls-21" d="M869,480.28c0-12.5-9.42-22.64-21-22.64s-21,10.14-21,22.64a25.61,25.61,0,0,0,.17,2.78h0s-.21,21.74,20.88,64.18c21.09-42.44,20.89-64.18,20.89-64.18h0A25.61,25.61,0,0,0,869,480.28Z" transform="translate(0 -293.11)"/><path d="M848,548.91l-.66-1.34c-20.93-42.11-21-64.3-21-64.52V483a24.89,24.89,0,0,1-.16-2.72c0-12.89,9.77-23.38,21.78-23.38s21.79,10.49,21.79,23.38a22.65,22.65,0,0,1-.17,2.72v.05c0,.22,0,22.41-21,64.52ZM827.83,483.8c.2,4.08,2.1,25.09,20.12,61.77,18-36.72,19.93-57.7,20.12-61.77H868l.08-.83a22.55,22.55,0,0,0,.17-2.69c0-12.08-9.11-21.9-20.31-21.9s-20.3,9.82-20.3,21.9a22.55,22.55,0,0,0,.17,2.69l.09.83Z" transform="translate(0 -293.11)"/><ellipse class="cls-22" cx="847.95" cy="187.86" rx="10.78" ry="11.6"/><g class="cls-48"><path d="M739.79,493.71c-2-1.91-5.64-4.5-11.93-5.49-.66-.11-1.29-.19-1.9-.26l-.58,0c-.4,0-.8-.08-1.18-.1l-.79,0-.84,0c-.31,0-.6,0-.89,0h-.62l-.89.08-.5.05-.87.13-.4.07c-.29.05-.57.12-.84.19l-.31.07a8,8,0,0,0-.78.24l-.27.08h0a13.3,13.3,0,0,0-1.81.78h0a10.69,10.69,0,0,0-1.43.92h0a8.89,8.89,0,0,0-1.09,1h0a7.86,7.86,0,0,0-.77,1,4.11,4.11,0,0,0-.27.51H707.3c-2.37,0-4.71,0-7,0l4.19-2.12-4.2,2.12c-3.59,0-7.11.11-10.54.2l0,0c0-.16-.54-.3-1.21-.3s-1.22.14-1.22.3,0,.06.08.09q-5.13.17-10,.39c-2.82-1.45-4.76-2.22-4.76-2.22l3.44,2.29c-1.67.08-3.3.17-4.91.27-.84-.45-1.36-.71-1.36-.71l1.1.73c-26.17,1.59-44.11,4.83-44.11,8.59,0,3.18,12.88,6,32.75,7.76a12.17,12.17,0,0,0,1.21.67,1.51,1.51,0,0,0,.22.11c.44.21.91.41,1.42.61l.32.13c.53.2,1.09.4,1.68.59l.28.08c.56.18,1.15.35,1.77.52l.35.1,2.07.51.59.13c.71.16,1.44.31,2.21.46l.66.13c.71.13,1.44.27,2.19.39l.66.11c.76.13,1.55.24,2.35.36l.84.12,2.63.34,1,.12.67.08,1.2.12,1.58.16c.73.08,1.49.14,2.24.21l2,.16,2.68.19,1.49.09,2.28.12,1.57.07,2.36.1,1.55,0,2.65.06,1.34,0c1.34,0,2.7,0,4.07,0s2.94,0,4.38,0l1.42,0,2.87-.07,1.65-.06,2.52-.1,1.71-.09,2.34-.14,1.69-.11,2.22-.17,1.63-.14,2.13-.2,1.55-.16,2-.23,1.45-.17,2-.28,1.27-.18c.76-.11,1.48-.24,2.2-.36l.89-.14,2.83-.54.74-.17,1.88-.42.93-.24,1.43-.38.91-.28c.4-.13.81-.25,1.18-.38l.83-.3,1-.39.72-.32.43-.19.47-.26.39-.22a8.48,8.48,0,0,0,1.06-.71h0c16.79-1.76,27.39-4.35,27.39-7.24C787.79,498.59,768.05,495.21,739.79,493.71Z" transform="translate(0 -293.11)"/><path d="M691.15,504.06c.11-.06.15-.14.11-.23s-5-4.28-10.38-8.2c.38-.12,13.48-7.22,13.48-7.22a3.74,3.74,0,0,1,.82-.34,6.14,6.14,0,0,1,4.52.54c3.15,1.57,10.2,6.13,9.14,11.87C708.84,500.48,708.33,504,691.15,504.06Z" transform="translate(0 -293.11)"/><path d="M680.88,495.63c5.4,3.92,10.3,8.06,10.38,8.2s0,.17-.11.23h0c-1.35.81-13.48.23-25.68-.23-13.24-.49-8.36-7.87-7.84-8.95s5.08-6.74,10.66-6.24h0C670.93,488.89,676.1,492.17,680.88,495.63Z" transform="translate(0 -293.11)"/><path d="M695.18,488.07a3.74,3.74,0,0,0-.82.34s-13.1,7.1-13.48,7.22c-4.78-3.46-10-6.74-12.58-7a39,39,0,0,1,14.21-2.53A40.34,40.34,0,0,1,695.18,488.07Z" transform="translate(0 -293.11)"/></g><path class="cls-49" d="M814.16,493.38c0,4.66-9.26,8.84-23.93,11.69-12.38,2.41-28.61,3.85-46.39,3.85a266.64,266.64,0,0,1-41.71-3c-17.36-2.83-28.61-7.38-28.61-12.52,0-8.58,31.48-15.54,70.32-15.54S814.16,484.8,814.16,493.38Z" transform="translate(0 -293.11)"/><path class="cls-50" d="M788.55,507a10.8,10.8,0,0,0,1.68-1.91c-12.38,2.41-28.61,3.85-46.39,3.85a266.64,266.64,0,0,1-41.71-3c3.22,3.78,10.53,7,20.18,9a178,178,0,0,1,35.55-3.77C774.05,511,783.51,508.77,788.55,507Z" transform="translate(0 -293.11)"/><path class="cls-51" d="M788.55,507c-5,1.79-14.5,4-30.69,4.11a178,178,0,0,0-35.55,3.77,118.1,118.1,0,0,0,23.55,2.24C765.43,517.1,782.11,512.89,788.55,507Z" transform="translate(0 -293.11)"/><path d="M702.13,506.64H702c-10.92-1.78-29.23-5.88-29.23-13.25,0-10.19,36.13-16.28,71.06-16.28s71.06,6.09,71.06,16.28c0,6.66-15.37,10.64-24.52,12.41a.75.75,0,0,1-.87-.58.74.74,0,0,1,.58-.87c14.61-2.84,23.33-6.93,23.33-11,0-7.14-28-14.8-69.58-14.8s-69.58,7.66-69.58,14.8c0,4.45,10.72,9,28,11.79a.74.74,0,0,1,.61.85A.73.73,0,0,1,702.13,506.64Z" transform="translate(0 -293.11)"/><path d="M745.86,517.84c-20.66,0-38.46-4.6-44.29-11.46a.72.72,0,0,1-.09-.84.75.75,0,0,1,.77-.37,265.32,265.32,0,0,0,41.59,3c17.08,0,33.51-1.36,46.25-3.84a.74.74,0,0,1,.76,1.14C785.93,512.76,767.43,517.84,745.86,517.84ZM704.31,507c6.84,5.6,23.28,9.38,41.55,9.38,19.19,0,36.35-4.21,42.47-10.19a261.34,261.34,0,0,1-44.49,3.48A272.51,272.51,0,0,1,704.31,507Z" transform="translate(0 -293.11)"/><path class="cls-52" d="M797.33,491.31c-3.22-3.15-12.78,2.9-21.66-1.85s-27.71.93-38.42-2.9-21.73,7.27-29.78,4.24-18.87,1.12-18.79,3.92a8.85,8.85,0,0,0,1.62,4.3c9.49,0,19.08,1.79,22.83,4.3s23.07,4.59,30.46,1.92,22.31-2.22,26.89-.59,19.87.15,22.34-3.85c1.47-2.39,4.57-4.29,7.38-5.64A15.5,15.5,0,0,0,797.33,491.31Z" transform="translate(0 -293.11)"/><path class="cls-53" d="M792.11,486.13c-14.93,1-18.33-5.18-26.56-5S750,484.36,746,484.36s-11.23-4.74-17.69-4-7.76,4.29-15.51,5-11.64-2.81-18-.59-5.64,4.74-8.34,4.45-5.64,2.57-5.41,4c0,0-.35,5.78,9.17,5.78h.09a8.85,8.85,0,0,1-1.62-4.3c-.08-2.8,10.73-6.94,18.79-3.92s19.06-8.06,29.78-4.24,29.55-1.84,38.42,2.9,18.44-1.3,21.66,1.85a15.5,15.5,0,0,1,2.87,3.85,49.13,49.13,0,0,1,4.72-1.92C807.51,492.36,807,485.1,792.11,486.13Z" transform="translate(0 -293.11)"/><path d="M733.25,506.79c-8.24,0-17.67-1.5-20.25-3.23-3.69-2.47-13.27-4.26-22.79-4.26-3.87,0-6.62-.93-8.18-2.77a5.06,5.06,0,0,1-1.24-3.27,2.81,2.81,0,0,1,.82-2,6,6,0,0,1,4.86-2.27,2.67,2.67,0,0,0,2.44-1.05,14.8,14.8,0,0,1,5.81-3.39c3.57-1.25,6.43-.69,9.46-.09a27.77,27.77,0,0,0,8.57.67,20.88,20.88,0,0,0,8.52-2.67,18.4,18.4,0,0,1,7-2.36c3.88-.45,7.94,1,11.53,2.33,2.45.9,4.57,1.67,6.19,1.67a32.61,32.61,0,0,0,6.63-1.2,58.84,58.84,0,0,1,12.93-2.06c3.43-.06,6,.95,9,2.12a35.19,35.19,0,0,0,17.6,2.91c9.79-.67,13.79,2.26,14.25,5a2.31,2.31,0,0,1-1.34,2.68c-2.82,1-9.62,3.63-12,7.45-2.64,4.26-18.19,5.53-22.62,4-4.65-1.65-19.61-2-26.74.59A33.37,33.37,0,0,1,733.25,506.79Zm-47.2-17.29a5.81,5.81,0,0,0-4.06,2.12,2.34,2.34,0,0,0-.7,1.57v.07a4.58,4.58,0,0,0,1.12,2.9c1.44,1.69,4.14,2.58,7.8,2.58,9.6,0,19.3,1.83,23,4.34s23,4.52,30.25,1.9,22.24-2.31,27-.6,19.72,0,22.05-3.74,8.68-6.44,12.24-7.66a1.75,1.75,0,0,0,1-2c-.42-2.5-4.25-5.18-13.71-4.53a35.55,35.55,0,0,1-17.81-2.94c-2.91-1.16-5.42-2.15-8.77-2.09a58.21,58.21,0,0,0-12.83,2.05,32.66,32.66,0,0,1-6.74,1.21c-1.7,0-3.85-.79-6.35-1.69-3.54-1.29-7.54-2.74-11.31-2.31a17.86,17.86,0,0,0-6.84,2.31,21.31,21.31,0,0,1-8.68,2.72,28.23,28.23,0,0,1-8.71-.68c-3.1-.61-5.77-1.13-9.22.08a14.36,14.36,0,0,0-5.64,3.28,3.05,3.05,0,0,1-2.81,1.17Z" transform="translate(0 -293.11)"/><path class="cls-54" d="M764.18,481.86c2.83.29,5.27.58,7.39.85a11.82,11.82,0,0,1,1.07-2.35s-2.86-9.85-12-12.53c-4.57-1.34-7.85-.7-10.18.79C749.35,472.56,749.26,480.31,764.18,481.86Z" transform="translate(0 -293.11)"/><path class="cls-55" d="M764.18,481.86c-14.92-1.55-14.83-9.3-13.76-13.24a11.47,11.47,0,0,0-4.46,6c-1.46,4.16-.24,12.17,8.87,14.66s16.37-2.85,16.37-2.85a7.24,7.24,0,0,1,.37-3.68C769.45,482.44,767,482.15,764.18,481.86Z" transform="translate(0 -293.11)"/><path class="cls-56" d="M795.17,486.53a2.32,2.32,0,0,0-2.9.09,2.32,2.32,0,0,1-2.13.69,180.33,180.33,0,0,1-17.5-6.95,11.47,11.47,0,0,0-1.24,2.93c2.46.65,12.14,3.24,16.25,5,4.73,2,3.35,3.26,4.61,3.68a2.06,2.06,0,0,0,2.48-.88,4.21,4.21,0,0,0-.79-1.35C796.68,489.37,795.89,487.23,795.17,486.53Z" transform="translate(0 -293.11)"/><path class="cls-57" d="M792.26,492c-1.26-.42.12-1.65-4.61-3.68-4.11-1.76-13.79-4.35-16.25-5a6.79,6.79,0,0,0-.2,3.1s18.13,1.64,19.24,5.34c.77,2.56,3.44,2.85,4.31.6a2,2,0,0,0,0-1.24A2.06,2.06,0,0,1,792.26,492Z" transform="translate(0 -293.11)"/><path d="M759.81,490.65a19.7,19.7,0,0,1-5.17-.69,13.06,13.06,0,0,1-8.56-6.45,11.93,11.93,0,0,1-.82-9.17c1.13-3.21,4.91-10.34,15.55-7.22,9.46,2.76,12.42,12.62,12.54,13a.73.73,0,0,1-.07.58c-1.88,3.21-1.37,5.46-1.36,5.48a.76.76,0,0,1-.28.78A21.5,21.5,0,0,1,759.81,490.65Zm-3.91-22.82c-5.79,0-8.24,4.15-9.25,7a10.56,10.56,0,0,0,.74,8,11.74,11.74,0,0,0,7.64,5.7A19.75,19.75,0,0,0,770.4,486a10,10,0,0,1,1.44-5.76c-.56-1.61-3.64-9.46-11.45-11.74A15.74,15.74,0,0,0,755.9,467.83Z" transform="translate(0 -293.11)"/><path d="M792.8,494.59h-.1a3.41,3.41,0,0,1-3-2.65c-.66-2.22-11.27-4.15-18.6-4.81a.74.74,0,0,1,.14-1.48c3.11.29,18.69,1.89,19.88,5.87.28.94.91,1.57,1.61,1.59.55.06,1-.36,1.29-1s-.45-1.61-.65-1.83a.73.73,0,0,1-.15-.75.74.74,0,0,1,.6-.49c.49-.06,1.1-.23,1.23-.64a1.51,1.51,0,0,0-.42-1.3,1.31,1.31,0,0,0-.94-.26,1.34,1.34,0,0,0-.89.31A3.08,3.08,0,0,1,790,488a180.59,180.59,0,0,1-17.64-7,.74.74,0,1,1,.62-1.34,181.47,181.47,0,0,0,17.41,6.91h.21a1.5,1.5,0,0,0,1.15-.48,2.7,2.7,0,0,1,1.95-.81,2.8,2.8,0,0,1,2,.68,3,3,0,0,1,.8,2.82,2.22,2.22,0,0,1-1.34,1.36,2.89,2.89,0,0,1-2.35,4.41Z" transform="translate(0 -293.11)"/><path class="cls-58" d="M735.22,496.86a.35.35,0,0,0,.09-.36c-.06-.24-4.34-6.91-9.07-13.23.34-.2,11.78-11.64,11.78-11.64a2.8,2.8,0,0,1,.72-.55c.79-.44,2.2-.74,4,.86,2.76,2.53,8.91,9.89,8,19.15C750.68,491.09,750.23,496.71,735.22,496.86Z" transform="translate(0 -293.11)"/><path class="cls-58" d="M735.21,496.86c-1.18,1.31-11.78.37-22.44-.36-11.56-.8-7.3-12.7-6.84-14.45s4.43-10.86,9.31-10.06h0c2.3.4,6.81,5.7,11,11.28,4.73,6.32,9,13,9.07,13.23a.35.35,0,0,1-.09.36Z" transform="translate(0 -293.11)"/><path class="cls-35" d="M727.67,467.91a20.84,20.84,0,0,1,11.07,3.17,2.8,2.8,0,0,0-.72.55s-11.44,11.44-11.78,11.64c-4.17-5.58-8.68-10.88-11-11.28A20.9,20.9,0,0,1,727.67,467.91Z" transform="translate(0 -293.11)"/><path d="M715.26,472.72a.74.74,0,0,1-.44-1.33,21.67,21.67,0,0,1,24.31-.94.74.74,0,0,1-.78,1.26,20.18,20.18,0,0,0-22.65.87A.74.74,0,0,1,715.26,472.72Z" transform="translate(0 -293.11)"/><path d="M730.69,498.26c-3.08,0-7.66-.29-14.2-.76l-3.77-.27c-3.35-.23-5.78-1.38-7.21-3.43-2.67-3.83-1-9.62-.42-11.52l.12-.42c.39-1.46,4.52-11.52,10.15-10.61.82.14,3.25.57,11.48,11.57a.76.76,0,0,1-.15,1,.75.75,0,0,1-1-.15c-7.11-9.51-9.72-10.86-10.52-11-4.19-.67-8,7.75-8.49,9.53l-.13.46c-.51,1.73-2,7,.22,10.25,1.16,1.66,3.21,2.61,6.09,2.81l3.77.26c7.58.55,17,1.22,18.08.34a.77.77,0,0,1,1.29.5.74.74,0,0,1-.29.59C735,498,733.49,498.26,730.69,498.26Z" transform="translate(0 -293.11)"/><path d="M735.22,497.6a.73.73,0,0,1-.68-.44.75.75,0,0,1,0-.57c-.61-1-4.54-7.07-8.88-12.88a.73.73,0,0,1-.13-.59.71.71,0,0,1,.35-.49c.43-.35,7.2-7.1,11.63-11.53a3.3,3.3,0,0,1,.89-.67c.87-.48,2.66-1,4.8,1,.95.87,9.31,8.88,8.22,19.76,0,.24-.67,6.28-16.18,6.44Zm-8-14.24c3.95,5.32,8.06,11.55,8.71,12.75,13.26-.3,14-5.05,14-5.09,1-10.17-6.85-17.71-7.75-18.53-1.12-1-2.16-1.28-3.09-.77h0a2,2,0,0,0-.51.38C731,479.73,728.24,482.4,727.23,483.36Zm11.51-12.28h0Z" transform="translate(0 -293.11)"/><path class="cls-59" d="M730.28,496.79a.74.74,0,0,1-.66-.41,64.48,64.48,0,0,0-17.26-21.24.74.74,0,0,1-.17-1,.75.75,0,0,1,1-.16,66,66,0,0,1,17.71,21.77.73.73,0,0,1-.33,1A.67.67,0,0,1,730.28,496.79Z" transform="translate(0 -293.11)"/><path class="cls-59" d="M725.45,496.79a.72.72,0,0,1-.65-.39c-4.72-8.76-14.88-18.23-15-18.33a.74.74,0,0,1,1-1.08c.43.39,10.44,9.74,15.28,18.71a.74.74,0,0,1-.3,1A.73.73,0,0,1,725.45,496.79Z" transform="translate(0 -293.11)"/><path class="cls-59" d="M720.56,496.35a.74.74,0,0,1-.65-.38c-3.59-6.47-10.66-12.47-12-13.61l.9-1.16-.47.56.51-.54c1.41,1.17,8.66,7.33,12.39,14a.76.76,0,0,1-.29,1A.8.8,0,0,1,720.56,496.35Z" transform="translate(0 -293.11)"/><path class="cls-59" d="M714.81,495.92a.75.75,0,0,1-.66-.39c-2.37-4.41-7.85-8.69-7.91-8.74a.74.74,0,1,1,.91-1.17c.23.19,5.79,4.53,8.31,9.21a.74.74,0,0,1-.3,1A.76.76,0,0,1,714.81,495.92Z" transform="translate(0 -293.11)"/><path class="cls-59" d="M729.23,485.26l-1-1.08,11.85-11.06a.75.75,0,0,1,1,0,.74.74,0,0,1,0,1Z" transform="translate(0 -293.11)"/><path class="cls-59" d="M731,488a.74.74,0,0,1-.47-1.32l.33-.31c4.94-4.81,9.35-8.17,13.11-10a.74.74,0,0,1,1,.34.75.75,0,0,1-.35,1c-2.48,1.2-6.71,3.86-12.71,9.71l-.45.42A.74.74,0,0,1,731,488Z" transform="translate(0 -293.11)"/><path class="cls-59" d="M732.58,490.38a.71.71,0,0,1-.56-.27.73.73,0,0,1,.08-1c.09-.07,8.3-7,15.33-8a.74.74,0,0,1,.22,1.46c-6.62,1-14.51,7.64-14.59,7.71A.74.74,0,0,1,732.58,490.38Z" transform="translate(0 -293.11)"/><path class="cls-59" d="M734.65,494a.76.76,0,0,1-.51-.2.74.74,0,0,1,0-1.05,20,20,0,0,1,14.36-5.55.74.74,0,0,1,.72.76.73.73,0,0,1-.77.72,18.76,18.76,0,0,0-13.24,5.09A.76.76,0,0,1,734.65,494Z" transform="translate(0 -293.11)"/><ellipse class="cls-51" cx="720.58" cy="178.92" rx="1.06" ry="0.49"/><ellipse class="cls-51" cx="723.22" cy="180.78" rx="1.06" ry="0.49"/><ellipse class="cls-51" cx="725.7" cy="178.78" rx="1.06" ry="0.49"/><ellipse class="cls-51" cx="728.3" cy="181.44" rx="1.06" ry="0.49"/><ellipse class="cls-51" cx="726.65" cy="184.25" rx="1.06" ry="0.49"/><ellipse class="cls-51" cx="731.64" cy="178.34" rx="1.06" ry="0.49"/><ellipse class="cls-51" cx="728.73" cy="176.72" rx="1.06" ry="0.49"/><polygon class="cls-60" points="765.26 198.58 764.99 208.57 775.2 204.55 775.21 195.08 765.26 198.58"/><path d="M765,502a.39.39,0,0,1-.21-.06.4.4,0,0,1-.16-.32l.27-10a.41.41,0,0,1,.25-.34l10-3.49a.37.37,0,0,1,.34.05.38.38,0,0,1,.15.3v9.47a.37.37,0,0,1-.23.34l-10.21,4Zm.64-10.09-.25,9.17,9.45-3.72v-8.69Z" transform="translate(0 -293.11)"/><polygon class="cls-61" points="775.22 195.08 765.28 198.56 756.67 194.74 766.76 191.42 775.22 195.08"/><polygon class="cls-62" points="765.28 198.56 765 208.57 756.67 203.94 756.67 194.74 765.28 198.56"/><path d="M765.28,492a.37.37,0,0,1-.15,0l-8.61-3.83a.36.36,0,0,1-.22-.36.37.37,0,0,1,.26-.33l10.08-3.32a.39.39,0,0,1,.26,0l8.47,3.67a.36.36,0,0,1,.22.35.36.36,0,0,1-.25.34L765.4,492Zm-7.58-4.15,7.59,3.38,8.92-3.12-7.47-3.23Z" transform="translate(0 -293.11)"/><path d="M765,502a.34.34,0,0,1-.18,0l-8.33-4.63a.37.37,0,0,1-.19-.33v-9.2a.37.37,0,1,1,.74,0v9l7.6,4.22.27-9.39a.33.33,0,0,1,.38-.36.38.38,0,0,1,.36.38l-.28,10a.38.38,0,0,1-.19.31A.31.31,0,0,1,765,502Z" transform="translate(0 -293.11)"/><polygon class="cls-60" points="751.48 202.04 751.21 212.02 761.41 208.01 761.43 198.54 751.48 202.04"/><path d="M751.21,505.5a.38.38,0,0,1-.21-.07.38.38,0,0,1-.16-.31l.27-10a.36.36,0,0,1,.25-.34l9.94-3.49a.4.4,0,0,1,.34,0,.38.38,0,0,1,.16.31l0,9.46a.38.38,0,0,1-.23.35l-10.2,4A.35.35,0,0,1,751.21,505.5Zm.63-10.09-.25,9.17,9.45-3.72,0-8.69Z" transform="translate(0 -293.11)"/><polygon class="cls-61" points="761.44 198.54 751.49 202.02 742.89 198.19 752.97 194.87 761.44 198.54"/><polygon class="cls-62" points="751.49 202.02 751.21 212.02 742.89 207.4 742.89 198.19 751.49 202.02"/><path d="M751.49,495.5a.28.28,0,0,1-.15,0l-8.6-3.82a.38.38,0,0,1-.22-.36.36.36,0,0,1,.25-.33l10.09-3.32a.34.34,0,0,1,.26,0l8.46,3.66a.41.41,0,0,1,.23.36.38.38,0,0,1-.25.33l-9.94,3.49Zm-7.58-4.15,7.6,3.38,8.91-3.12L753,488.37Z" transform="translate(0 -293.11)"/><path d="M751.21,505.5a.41.41,0,0,1-.18-.05l-8.32-4.62a.37.37,0,0,1-.19-.33v-9.2a.37.37,0,0,1,.37-.37.38.38,0,0,1,.37.37v9l7.6,4.23.26-9.39c0-.21.17-.41.38-.36a.36.36,0,0,1,.36.38l-.28,10a.34.34,0,0,1-.19.31A.37.37,0,0,1,751.21,505.5Z" transform="translate(0 -293.11)"/><g class="cls-23"><path d="M600.28,632.05a16.75,16.75,0,0,0-.93-3.71h0c0-.11-.08-.21-.13-.32v0c0-.1-.09-.21-.14-.31v0l-.15-.29,0-.06c0-.09-.09-.18-.14-.27l0-.08-.15-.25,0-.09-.15-.23-.07-.11-.15-.21-.08-.11-.15-.19-.1-.12-.15-.17-.12-.12-.15-.15-.13-.13-.15-.13-.15-.12-.15-.12-.18-.11a.71.71,0,0,0-.14-.1l-.2-.11-.14-.08-.23-.11-.13,0-.38-.14c-2.88-.87-16-1.68-24.57-2.12-3.91-.2-6.9-.33-7.57-.34l-.51,0a5.57,5.57,0,0,1-1-.22l-.48-.16h0L551.59,614c-1.31-1-2.45-2-3.07-2.43a6.87,6.87,0,0,0-1.26-.75h0a16.27,16.27,0,0,0-4.73-1.26s-14.66-.5-29.54-.91l-7.81-.21-2.53-.06-1.25,0-2.42-.05-1.18,0-4.44-.08-3,0-1.78,0c-2.55,0-4.48,0-5.54,0-1.72.09-3,1.74-4,4.08l-6.15-.14s-2.45,6.14-2.12,11l5.65.13h0q0,.33-.09.63h0v.08c0,.33-.09.66-.13,1v0c0,.15,0,.29-.05.43v.09c0,.13,0,.26-.05.39V626c0,.12,0,.24-.05.36v.1c-.06.5-.11,1-.15,1.33v0a2.29,2.29,0,0,0,0,.25l0,.12,0,.16,0,.13s0,.1,0,.15l0,.09a.51.51,0,0,1,0,.13v.07a.3.3,0,0,1,0,.1v.06s0,.05,0,.07v0l0,.05h0l0,1.39-.07,3.11,6.16.14c1.09,3.11,5.82,5.53,11.55,5.67s10.57-2.08,11.8-5.14l61.88,1.42c1.09,3.12,5.82,5.54,11.55,5.67s10.56-2.07,11.79-5.13l9.92.22.07-2.76,0-1.73h0ZM570,629.73Zm-3,3.2h0q.1-.25.24-.51Q567.06,632.68,567,632.93Zm2.51-2.87h0Zm-1.27,1-.11.11Zm-.34.37c-.06.08-.13.15-.18.23C567.72,631.62,567.79,631.55,567.85,631.47Zm-.35.46-.2.3Z" transform="translate(0 -293.11)"/></g><path class="cls-63" d="M597.6,629.28l-.09,4.17-8.2-.18a10.6,10.6,0,0,0,.27-2.2,10.34,10.34,0,0,0-.14-2Z" transform="translate(0 -293.11)"/><path class="cls-63" d="M570,632.82l-51.12-1.17a11.21,11.21,0,0,0,.27-2.19,10.48,10.48,0,0,0-.21-2.39l51.14,1.44a10.5,10.5,0,0,0-.25,2.11A10.66,10.66,0,0,0,570,632.82Z" transform="translate(0 -293.11)"/><path class="cls-63" d="M494.62,626.39l5.16.15a10.44,10.44,0,0,0-.35,2.47,11.4,11.4,0,0,0,.17,2.2l-5.08-.12Z" transform="translate(0 -293.11)"/><path class="cls-64" d="M492.68,598.54l5.07.12a122.45,122.45,0,0,0-2.34,16.6l-4.67-.11C490.55,607.85,492.68,598.54,492.68,598.54Z" transform="translate(0 -293.11)"/><path class="cls-65" d="M563.59,608.84a9.1,9.1,0,0,0,2,1.89c-.21,0-7.21,0-8.64-.19a2.27,2.27,0,0,1-1.87-1.09s-5.19-11.45-5.55-12.85,1.39-1.27,1.39-1.27,3,.08,3.26.07a6.53,6.53,0,0,1,1,1.12C556.94,599,563.59,608.84,563.59,608.84Z" transform="translate(0 -293.11)"/><path class="cls-66" d="M579.86,624.64a6,6,0,0,1,5.49,4.29,6.35,6.35,0,0,1,.28,2.05,6.56,6.56,0,0,1-.43,2.19,5.83,5.83,0,0,1-11.07-.25,6.43,6.43,0,0,1-.33-2.21,6.57,6.57,0,0,1,.39-2.09A6,6,0,0,1,579.86,624.64Z" transform="translate(0 -293.11)"/><path class="cls-66" d="M509.16,635.44a5.93,5.93,0,0,1-5.44-4.13,6.73,6.73,0,0,1-.34-2.21,6.45,6.45,0,0,1,.54-2.45,5.82,5.82,0,0,1,10.89.31,6.4,6.4,0,0,1,.41,2.41,6.62,6.62,0,0,1-.44,2.19A5.93,5.93,0,0,1,509.16,635.44Z" transform="translate(0 -293.11)"/><path class="cls-67" d="M509.54,618.88a10,10,0,0,1,9.42,8.19,10.48,10.48,0,0,1,.21,2.39,11.21,11.21,0,0,1-.27,2.19,9.79,9.79,0,0,1-19.3-.44,11.4,11.4,0,0,1-.17-2.2,10.44,10.44,0,0,1,.35-2.47A10,10,0,0,1,509.54,618.88Zm-5.82,12.43a5.82,5.82,0,0,0,11.06.25,6.62,6.62,0,0,0,.44-2.19,6.4,6.4,0,0,0-.41-2.41,5.82,5.82,0,0,0-10.89-.31,6.45,6.45,0,0,0-.54,2.45A6.73,6.73,0,0,0,503.72,631.31Z" transform="translate(0 -293.11)"/><path class="cls-67" d="M579.57,637.05a5.94,5.94,0,0,0,5.63-3.88,6.56,6.56,0,0,0,.43-2.19,6.35,6.35,0,0,0-.28-2.05,5.83,5.83,0,0,0-11.16-.31,6.57,6.57,0,0,0-.39,2.09,6.43,6.43,0,0,0,.33,2.21A5.93,5.93,0,0,0,579.57,637.05Zm.38-16.56a10,10,0,0,1,9.49,8.56,10.34,10.34,0,0,1,.14,2,10.6,10.6,0,0,1-.27,2.2,9.78,9.78,0,0,1-19.29-.45,10.66,10.66,0,0,1-.17-2.2,10.5,10.5,0,0,1,.25-2.11A10,10,0,0,1,580,620.49Z" transform="translate(0 -293.11)"/><path class="cls-65" d="M529.36,596.8a1.67,1.67,0,0,0-1.07-1.66l-1.45,0-6.67,13.64c4.43.11,8.48.19,8.91.17.64,0,.83-.69.89-1.16v-.49S529.43,598.2,529.36,596.8Z" transform="translate(0 -293.11)"/><path class="cls-68" d="M526.84,595.11l-5.28-.12-6.94,13.62,5.55.14Z" transform="translate(0 -293.11)"/><path class="cls-65" d="M521.56,595l-1.42,0L513,608.57l1.61,0Z" transform="translate(0 -293.11)"/><path class="cls-65" d="M509.46,594.71c-1.62,0-1.94,2.57-1.94,2.57s-1.35,7.6-1.37,9.93a2,2,0,0,0,0,.36c.26,1.11,1.8.87,1.8.87l3.94.1,7.18-13.61Z" transform="translate(0 -293.11)"/><path class="cls-68" d="M520.21,595l-1.11,0-7.18,13.61,1.16,0Z" transform="translate(0 -293.11)"/><path class="cls-65" d="M531.51,595.25s-1.13.11-1,1.58.88,11,.88,11a.8.8,0,0,0,0,.19l0,.1,6.33-12.79C534.56,595.29,531.51,595.25,531.51,595.25Z" transform="translate(0 -293.11)"/><path class="cls-68" d="M537.81,595.36l-6.33,12.79c.13.3.56.77,1.82.87l4.38.1,6.19-13.6C542.36,595.46,540,595.41,537.81,595.36Z" transform="translate(0 -293.11)"/><path class="cls-65" d="M547.86,597.23s-.16-1.54-3.75-1.7h-.24l-6.19,13.6,15.35.35Z" transform="translate(0 -293.11)"/><path class="cls-15" d="M533.25,609l19.73.45-5.17-12.25s-.16-1.54-3.75-1.69-12.55-.28-12.55-.28-1.13.11-1,1.58.88,11,.88,11a.8.8,0,0,0,0,.19C531.53,608.34,531.87,608.88,533.25,609Z" transform="translate(0 -293.11)"/><path class="cls-15" d="M507.91,608.44s20.17.53,21.17.48c.64,0,.83-.69.89-1.16a4.58,4.58,0,0,0,0-.49s-.55-9.07-.62-10.47a1.67,1.67,0,0,0-1.07-1.66l-18.91-.43c-1.61,0-1.93,2.56-1.93,2.56s-1.35,7.61-1.37,9.94a1.05,1.05,0,0,0,0,.36C506.37,608.68,507.91,608.44,507.91,608.44Z" transform="translate(0 -293.11)"/><path class="cls-15" d="M572.67,623.62a129,129,0,0,0,13.84-.29,9.51,9.51,0,0,0-13.84.29Z" transform="translate(0 -293.11)"/><path class="cls-69" d="M530,607.76c-.06.47-.25,1.13-.89,1.16-1,.05-21.17-.48-21.17-.48s-1.54.24-1.8-.87h0l1.45,9.71a14.38,14.38,0,0,1,6.54,1L529.67,620C529.76,616,529.92,609.57,530,607.76Z" transform="translate(0 -293.11)"/><path class="cls-70" d="M520.82,624.83l7.12.17s1.68.21,1.68-2c0-.5,0-1.59,0-3l-15.59-1.73A12.69,12.69,0,0,1,520.82,624.83Z" transform="translate(0 -293.11)"/><path class="cls-70" d="M549.09,625.48c1.86,0,2-2.18,2-2.18l.13-1c-3.62-.32-7.51-.71-11.7-1.18l-8-.88c0,2.79-.07,4.83-.07,4.83Z" transform="translate(0 -293.11)"/><path class="cls-69" d="M551.26,622.31,553,609.47,533.25,609c-1.38-.14-1.72-.68-1.8-1h0c.17,3.43.17,8.49.14,12.2l8,.88C543.75,621.6,547.64,622,551.26,622.31Z" transform="translate(0 -293.11)"/><path class="cls-69" d="M593.75,614.55c-3.44-1.86-24.74-3.18-26.53-3.22a3.2,3.2,0,0,1-1.64-.6h0c-.21,0-7.21,0-8.64-.19a2.27,2.27,0,0,1-1.87-1.09s-5.19-11.45-5.55-12.85,1.39-1.27,1.39-1.27,3,.08,3.26.07a8.69,8.69,0,0,0-3.88-1.81s-42.93-1.88-49.14-1.16c-1.42.17-2.53,2.68-3.4,6.23a122.45,122.45,0,0,0-2.34,16.6c0,.33-.05.65-.08,1l18.75,2.08a14.38,14.38,0,0,0-6.54-1l-1.45-9.71h0a1.05,1.05,0,0,1,0-.36c0-2.33,1.37-9.94,1.37-9.94s.32-2.6,1.93-2.56l18.91.43a1.67,1.67,0,0,1,1.07,1.66c.07,1.4.62,10.47.62,10.47a4.58,4.58,0,0,1,0,.49c-.05,1.81-.21,8.28-.3,12.28l1.92.21c0-3.71,0-8.77-.14-12.2h0a.8.8,0,0,1,0-.19s-.71-9.57-.88-11,1-1.58,1-1.58,9,.13,12.55.28,3.75,1.69,3.75,1.69L553,609.47l-1.72,12.84c8.6.77,15.64,1.18,21.41,1.31a9.51,9.51,0,0,1,13.84-.29c5.76-.48,8.82-1.39,10.44-2.27C596.39,618.33,595.42,615.45,593.75,614.55Z" transform="translate(0 -293.11)"/><path class="cls-70" d="M589.44,629.05l8.16.23.06-2.62a40.63,40.63,0,0,0-.71-5.6c-1.62.88-4.68,1.79-10.44,2.27A10.47,10.47,0,0,1,589.44,629.05Z" transform="translate(0 -293.11)"/><path class="cls-70" d="M551.13,623.3s-.18,2.22-2,2.18l-17.57-.4s.05-2,.07-4.83l-1.92-.21c0,1.38,0,2.47,0,3,0,2.2-1.68,2-1.68,2l-7.12-.17a12.69,12.69,0,0,0-6.74-6.52l-18.75-2.08c-.38,4.49-.56,7.87-.66,8.08l-.05,2.08,5.16.15a9.77,9.77,0,0,1,19.18.53l51.14,1.44a10.54,10.54,0,0,1,2.57-4.89c-5.77-.13-12.81-.54-21.41-1.31Z" transform="translate(0 -293.11)"/><path d="M499.6,631.58h0l-5.09-.12a.35.35,0,0,1-.36-.37l.15-6.79a.42.42,0,0,1,0-.16c0-.14.13-1.42.23-2.91s.27-3.67.48-6a118.24,118.24,0,0,1,2.34-16.66c1-4.21,2.24-6.33,3.72-6.51,6.17-.72,47.44,1.08,49.19,1.16a9,9,0,0,1,4.11,1.9,6.42,6.42,0,0,1,1.09,1.19c1.72,2.42,8.33,12.23,8.4,12.33h0a8.87,8.87,0,0,0,1.88,1.78.38.38,0,0,1,.11.52.37.37,0,0,1-.51.1,9.39,9.39,0,0,1-2.09-2c-.07-.11-6.67-9.91-8.39-12.32a5.65,5.65,0,0,0-1-1,8.37,8.37,0,0,0-3.7-1.74c-.39,0-42.93-1.86-49-1.15-.63.07-1.86.94-3.08,6a117.8,117.8,0,0,0-2.33,16.54c-.2,2.33-.35,4.41-.47,6-.16,2.23-.21,2.85-.27,3.08l-.14,6.37,4.71.11a.37.37,0,0,1,0,.74Z" transform="translate(0 -293.11)"/><path d="M570,633.19h0L518.89,632a.37.37,0,0,1,0-.74h0L570,632.45a.38.38,0,0,1,.36.38A.37.37,0,0,1,570,633.19Z" transform="translate(0 -293.11)"/><path d="M597.51,633.82h0l-8.2-.18a.38.38,0,0,1-.36-.38.37.37,0,0,1,.37-.36h0l7.83.18.14-6.42c0-.08-.49-10-3.71-11.79s-24.08-3.12-26.37-3.17a3.53,3.53,0,0,1-1.83-.66.37.37,0,0,1-.11-.51.38.38,0,0,1,.52-.11,2.78,2.78,0,0,0,1.44.54c1.35,0,23.12,1.34,26.7,3.26s4.08,12,4.1,12.43l-.15,6.81a.42.42,0,0,1-.12.26A.35.35,0,0,1,597.51,633.82Z" transform="translate(0 -293.11)"/><path d="M597.6,629.64h0l-8.16-.22a.38.38,0,0,1-.36-.38.37.37,0,0,1,.38-.36l8.16.23a.37.37,0,1,1,0,.73Z" transform="translate(0 -293.11)"/><path d="M570.1,628.88h0L519,627.44a.36.36,0,0,1-.36-.38.4.4,0,0,1,.38-.36l51.14,1.44a.36.36,0,0,1,.36.38A.37.37,0,0,1,570.1,628.88Z" transform="translate(0 -293.11)"/><path d="M499.78,626.91h0l-5.16-.15a.37.37,0,0,1-.36-.38.38.38,0,0,1,.38-.36l5.16.15a.37.37,0,0,1,.36.38A.37.37,0,0,1,499.78,626.91Z" transform="translate(0 -293.11)"/><path d="M509.28,640h-.22a10.41,10.41,0,0,1-9.82-8.67,11,11,0,0,1-.18-2.28,10.83,10.83,0,0,1,.36-2.56,10.14,10.14,0,0,1,19.9.56,11.24,11.24,0,0,1,.22,2.47,11.74,11.74,0,0,1-.28,2.27A10.44,10.44,0,0,1,509.28,640Zm0-20.71a9.58,9.58,0,0,0-9.18,7.38,10,10,0,0,0-.34,2.39,10.93,10.93,0,0,0,.17,2.13,9.41,9.41,0,0,0,18.56.42,10.89,10.89,0,0,0,.27-2.12,10.26,10.26,0,0,0-.2-2.3h0a9.55,9.55,0,0,0-9.06-7.9Z" transform="translate(0 -293.11)"/><path d="M509.29,635.81h-.14a6.33,6.33,0,0,1-5.78-4.39,6.8,6.8,0,0,1-.36-2.33,6.7,6.7,0,0,1,.58-2.58,6.18,6.18,0,0,1,11.57.32,6.84,6.84,0,0,1,.43,2.55,7,7,0,0,1-.46,2.31A6.35,6.35,0,0,1,509.29,635.81Zm0-12.42a5.56,5.56,0,0,0-5.06,3.41,6.08,6.08,0,0,0-.19,4.39,5.59,5.59,0,0,0,5.1,3.88h.12a5.6,5.6,0,0,0,5.15-3.65,6.11,6.11,0,0,0,0-4.33,5.55,5.55,0,0,0-5-3.69Z" transform="translate(0 -293.11)"/><path d="M579.69,641.57h-.22a10.42,10.42,0,0,1-9.82-8.68,11.62,11.62,0,0,1-.17-2.28A10.21,10.21,0,0,1,589.81,629h0a11.36,11.36,0,0,1,.14,2.09,10.93,10.93,0,0,1-.28,2.27A10.42,10.42,0,0,1,579.69,641.57Zm0-20.71a9.68,9.68,0,0,0-9.28,7.73,10.63,10.63,0,0,0-.24,2,10.92,10.92,0,0,0,.16,2.13,9.42,9.42,0,0,0,18.57.42,10.15,10.15,0,0,0,.26-2.11,10.76,10.76,0,0,0-.13-2h0a9.67,9.67,0,0,0-9.13-8.25Z" transform="translate(0 -293.11)"/><path d="M579.7,637.42h-.13a6.34,6.34,0,0,1-5.79-4.38,6.9,6.9,0,0,1,.07-4.55,6.2,6.2,0,0,1,11.85.33A6.7,6.7,0,0,1,586,631h0a6.69,6.69,0,0,1-.46,2.31A6.34,6.34,0,0,1,579.7,637.42Zm0-12.41a5.59,5.59,0,0,0-5.19,3.74,5.89,5.89,0,0,0-.37,2,6.11,6.11,0,0,0,.31,2.08,5.46,5.46,0,0,0,10.37.24,6.05,6.05,0,0,0,.41-2.07h0A6,6,0,0,0,585,629a5.57,5.57,0,0,0-5.15-4Zm5.9,6h0Z" transform="translate(0 -293.11)"/><path d="M565.58,611.1c-.07,0-7.21,0-8.68-.2a2.6,2.6,0,0,1-2.17-1.3c-.21-.47-5.2-11.49-5.57-12.91a1.26,1.26,0,0,1,.2-1.2,2,2,0,0,1,1.58-.53c1,0,3,.09,3.23.07a.41.41,0,0,1,.37.37.37.37,0,0,1-.36.37l-3.28-.07a1.39,1.39,0,0,0-1,.26s-.15.18,0,.55c.28,1.08,3.74,8.84,5.53,12.79a1.91,1.91,0,0,0,1.57.87c1.32.15,7.78.19,8.6.19a.38.38,0,0,1,.37.37A.36.36,0,0,1,565.58,611.1Z" transform="translate(0 -293.11)"/><path d="M553,609.84h0l-19.72-.45c-1.63-.16-2-.85-2.16-1.25a1.18,1.18,0,0,1,0-.31s-.71-9.52-.87-11a1.88,1.88,0,0,1,.34-1.46,1.46,1.46,0,0,1,1-.53h0c.15,0,9.06.13,12.6.28s4,1.6,4.09,2l5.15,12.21a.37.37,0,0,1,0,.35A.35.35,0,0,1,553,609.84Zm-21.47-14.22c-.08,0-.71.14-.6,1.17.17,1.45.85,10.65.88,11l0,.12c0,.14.25.58,1.48.7l19.13.44-4.95-11.72a.45.45,0,0,1,0-.11s-.24-1.22-3.39-1.36C540.51,595.75,531.6,595.62,531.51,595.62Z" transform="translate(0 -293.11)"/><path d="M528.87,609.3c-2.43,0-20.18-.47-21-.49-.59.1-1.89,0-2.15-1.16h0a1.64,1.64,0,0,1,0-.45c0-2.33,1.32-9.68,1.38-10,0-.1.39-2.94,2.3-2.87l18.91.43a2,2,0,0,1,1.43,2c.07,1.39.61,10.45.62,10.47h0a4.26,4.26,0,0,1,0,.54c-.14,1.26-.83,1.48-1.23,1.5Zm-21-1.23c.27,0,20.21.56,21.22.48.29,0,.47-.29.53-.84a3.37,3.37,0,0,0,0-.42s-.55-9.08-.62-10.47a1.31,1.31,0,0,0-.79-1.32l-18.83-.42h0c-1.22,0-1.53,2.22-1.53,2.24s-1.35,7.62-1.38,9.89a1.12,1.12,0,0,0,0,.27h0C506.65,608.25,507.84,608.08,507.85,608.07Zm22.5-.82Z" transform="translate(0 -293.11)"/><path d="M495.41,615.63h0l-4.67-.11a.36.36,0,0,1-.36-.36c-.2-7.26,1.91-16.61,1.93-16.7a.35.35,0,0,1,.37-.29l5.08.12a.37.37,0,0,1,.36.38.38.38,0,0,1-.38.36l-4.77-.11a80.12,80.12,0,0,0-1.86,15.87l4.31.1a.37.37,0,0,1,0,.74Z" transform="translate(0 -293.11)"/><path d="M549.14,625.85h-.06l-17.56-.4a.37.37,0,0,1-.37-.38c0-.11.23-11.07-.07-17a.36.36,0,0,1,.35-.39.37.37,0,0,1,.39.35c.27,5.34.12,14.72.08,16.69l17.2.39c1.52,0,1.66-1.77,1.66-1.84l1.85-13.85a.39.39,0,0,1,.42-.32.39.39,0,0,1,.32.42l-1.85,13.83A2.53,2.53,0,0,1,549.14,625.85Z" transform="translate(0 -293.11)"/><path d="M536.84,612.4h0l-2.65-.06a.37.37,0,0,1-.36-.38.38.38,0,0,1,.37-.36l2.66.06a.37.37,0,0,1,.36.38A.37.37,0,0,1,536.84,612.4Z" transform="translate(0 -293.11)"/><path d="M528.05,625.37h-.16l-7.08-.16a.35.35,0,0,1-.32-.21,12.88,12.88,0,0,0-12.91-7.34.38.38,0,0,1-.41-.32l-1.47-9.8a.39.39,0,0,1,.31-.43.36.36,0,0,1,.42.3l0,.11,1.4,9.37c1.75-.09,9.43,0,13.2,7.59l6.9.16a1.2,1.2,0,0,0,.86-.27,1.76,1.76,0,0,0,.44-1.35c0-2,.28-12.71.35-15.26v-.49a.37.37,0,0,1,.37-.36h0a.37.37,0,0,1,.37.38v.48c-.06,2.12-.34,13.3-.35,15.26a2.43,2.43,0,0,1-.7,1.9A1.87,1.87,0,0,1,528.05,625.37Z" transform="translate(0 -293.11)"/><path d="M510.26,611.79h0l-2.25,0a.37.37,0,1,1,0-.74l2.24,0a.37.37,0,0,1,0,.74Z" transform="translate(0 -293.11)"/></svg>