<svg id="emam-youtube" xmlns="http://www.w3.org/2000/svg" width="148" height="148" viewBox="0 0 148 148">
  <path id="Path_59" data-name="Path 59" d="M472.74,466.558l24.071-13.864L472.74,438.83Z" transform="translate(-407.957 -378.694)" fill="#ea2438"/>
  <path id="Path_60" data-name="Path 60" d="M74,0a74,74,0,1,0,74,74A74.008,74.008,0,0,0,74,0Zm46.239,74.075s0,15.008-1.9,22.245a11.589,11.589,0,0,1-8.158,8.15c-7.237,1.9-36.178,1.9-36.178,1.9s-28.871,0-36.178-1.98a11.591,11.591,0,0,1-8.152-8.152C27.76,89.084,27.76,74,27.76,74s0-15.007,1.9-22.242a11.805,11.805,0,0,1,8.152-8.222c7.237-1.9,36.178-1.9,36.178-1.9s28.946,0,36.178,1.98a11.591,11.591,0,0,1,8.152,8.152C120.319,58.993,120.239,74.075,120.239,74.075Z" fill="#ea2438"/>
</svg>
