<svg xmlns="http://www.w3.org/2000/svg" xmlns:xlink="http://www.w3.org/1999/xlink" width="472" height="472" viewBox="0 0 472 472">
  <defs>
    <clipPath id="clip-path">
      <rect id="Rectangle_1604" data-name="Rectangle 1604" width="472" height="472" transform="translate(445 263)" fill="#fff" stroke="#707070" stroke-width="1"/>
    </clipPath>
  </defs>
  <g id="Mask_Group_41" data-name="Mask Group 41" transform="translate(-445 -263)" clip-path="url(#clip-path)">
    <g id="Group_887" data-name="Group 887">
      <text id="Mungkin_gambarnya_sedang_difoto_cek_lagi_lain_waktu_yaa" data-name="Mungkin gambarnya sedang difotocek lagi lain waktu yaa" transform="translate(683 568)" fill="#707070" font-size="26" font-family="Muli-Black, Muli" font-weight="800"><tspan x="-227.058" y="0">Mungkin gambarnya sedang difoto</tspan><tspan x="-150.007" y="33">cek lagi lain waktu yaa</tspan></text>
      <g id="_7" data-name="7" transform="translate(306.704 204.887)">
        <g id="Group_889" data-name="Group 889" transform="translate(250.398 192.891)">
          <path id="Path_1246" data-name="Path 1246" d="M262.7,201.448c.293.787,1.395,5.4-.728,9.189a6.03,6.03,0,0,1-1.975,2.15l10.826,6.636,1.673,0,.493-3.293,3.75-6.395Z" transform="translate(-239.893 -187.261)" fill="#dead8e"/>
          <path id="Path_1247" data-name="Path 1247" d="M277.534,201.886s1.366,9.714.263,13.877c3.21,1.219,5.017.24,5.017.24l-.575-8.412Z" transform="translate(-233.525 -187.102)" fill="#dead8e"/>
          <path id="Path_1248" data-name="Path 1248" d="M278.886,211.69s6.016.472,6.426.331c0,0-4.121,19.541-4.533,19.681s-3.777.027-6.727-6.656C276.01,222.655,278.886,211.69,278.886,211.69Z" transform="translate(-234.79 -183.542)" fill="#2198dd"/>
          <path id="Path_1249" data-name="Path 1249" d="M273.859,227.909a100.111,100.111,0,0,0-7.383,20.284c-2.369.121-17.176,1.335-17.176,1.335l12.143-25.953,2.838-4.126Z" transform="translate(-243.779 -180.724)" fill="#2198dd"/>
          <g id="Group_888" data-name="Group 888" transform="translate(18.35)">
            <g id="Group_887-2" data-name="Group 887">
              <path id="Path_1250" data-name="Path 1250" d="M276.189,198.074c.146.022,1.123,3.813,1.249,4.184-1.685-.046,1.988,4.568,1.433,5.39-.241.357-.759.447-.992.81-.218.338-.113.778-.14,1.179s-.368.87-.739.716q.082.818.162,1.634a2.893,2.893,0,0,1,.015.677c-.326,2.41-4.354.671-5.668.322-1.189-.315-2.371-.669-3.539-1.055-.341-.113-1.45-.29-1.666-.619l-1.02-1.55a9.648,9.648,0,0,0-1.633-2.245,5.3,5.3,0,0,1-1.073-1,1.972,1.972,0,0,1-.236-1.722,2.584,2.584,0,0,0,.229-.623,4.782,4.782,0,0,0-.119-.926q-.157-1.227-.312-2.452l1.479-3.048,3.011-1.193Z" transform="translate(-257.466 -189.038)" fill="#fec29e"/>
              <path id="Path_1251" data-name="Path 1251" d="M269.745,200.8c1.153.174,2.058.323,2.665.424a10.972,10.972,0,0,0,1.724.2,8.994,8.994,0,0,0,1.708-.124l-.769,1.123a5.34,5.34,0,0,1-1.351.124,5.47,5.47,0,0,1-2.2-.589A6.818,6.818,0,0,1,269.745,200.8Z" transform="translate(-254.704 -187.496)" fill="#404040"/>
              <path id="Path_1252" data-name="Path 1252" d="M278.867,196.781l-.378-.485,1.039-.534a21.337,21.337,0,0,0-3.325-2.471,16.137,16.137,0,0,0-2.924-.841c-.633-.158-4.271-1.314-4.473.015.071-.469.164-.957.213-1.423-.075.714-3.5,1.276-4.095,1.565-1.032.506-1.581,1.516-2.481,2.073-.408.254-1.287.184-1.589.484-.417.413-1.007,4.515-.3,4.74l-1.846-.582a7.133,7.133,0,0,1,.864,2.913,9.346,9.346,0,0,0,.037,3.4c.69,2.335,1.739,5.554,3.773,6.9.292.194,1.889-1.514,1.907-1.75a10.814,10.814,0,0,0-.943-3.705c-.675-1.266-.855-4.451,1.343-4.325a1.828,1.828,0,0,1,1.434,1.016,3.892,3.892,0,0,1,.363,1.7,2.669,2.669,0,0,0,.309,1.491c.294.414,1.029.563,1.329.145a6.975,6.975,0,0,0-.044-1.006,3.369,3.369,0,0,1,.439-1.265,2.767,2.767,0,0,1,1.84-1.412c-.3-.851-.672-1.724-.947-2.631a9.615,9.615,0,0,0,3.337,1.336c.922.065,1.81-.312,2.7-.241a16.87,16.87,0,0,1,3.98,1.275,1.958,1.958,0,0,1-.378-.883c.15-.375.774-.326,1.063-.327.423,0,.987-.192,1.046-.646a.866.866,0,0,0-.252-.624Z" transform="translate(-258.711 -191.041)" fill="#404040"/>
            </g>
            <path id="Path_1253" data-name="Path 1253" d="M263.835,205.272l3.169,3.18,7.893,1.8,2.057-.9a4.369,4.369,0,0,1,.158,1.3,4.542,4.542,0,0,1-.742,2.326l-4.834-1.4-5.838-2.623Z" transform="translate(-256.85 -185.873)" fill="#404040"/>
            <path id="Path_1254" data-name="Path 1254" d="M271.373,207.512a4.59,4.59,0,0,1,3.9-1.962c-.049.412-.1.83-.146,1.238-1.2.153-1.928-.329-2.8.766-.222.278-1.444,3.345-.628,3.394l-1.063-.065A4.366,4.366,0,0,1,271.373,207.512Z" transform="translate(-254.411 -185.772)" fill="#404040"/>
          </g>
          <path id="Path_1255" data-name="Path 1255" d="M283.612,220.837l-4.659-7.6a15.169,15.169,0,0,0-11.526-5.706c-6.936,1.183-11.793,6.592-15.291,12.2-2.98,4.779-3.431,10.518-4.379,16-1.987,13.686-2.508,17.765-2.508,17.765l7.354.476s12.1-23.069,12.845-26.938c7.312,5.06,13.757,9.672,18.3,12.713a129.856,129.856,0,0,0,2.695-14.88Z" transform="translate(-245.25 -185.052)" fill="#2ea8ed"/>
        </g>
        <g id="Group_890" data-name="Group 890" transform="translate(257.499 260.139)">
          <path id="Path_1256" data-name="Path 1256" d="M290.89,271.826a.537.537,0,0,1-.442-.116.381.381,0,0,1-.108-.286,6.641,6.641,0,0,1,.841,3.085c.094,2.379-.03,3.6.747,4.523.622.739,2.061.814,2.583,1.006a8.539,8.539,0,0,0,4.445.04,23.119,23.119,0,0,0,7.392-2.518c-1.1-1.052-2.655-1.431-4.006-2.131-2.625-1.362-6.166-4.9-6.467-7.837-1.287.8-1.078,2.162-2.33,2.991A8.392,8.392,0,0,1,290.89,271.826Z" transform="translate(-235.977 -230.488)" fill="#9aa4af"/>
          <path id="Path_1257" data-name="Path 1257" d="M290.925,275.967a8.731,8.731,0,0,0,.249,2.181c.368,1.425.789,2.837,1.284,4.222a15.032,15.032,0,0,0,5.458-.663c.628-.245,1.077-.72,1.656-.984,2.031-.923,3.318-.166,5.305-.056a27.529,27.529,0,0,0,8.787-1.081c1.176-.315,4.1-.532,4.982-1.344,1.2-1.11-.8-2.1-1.884-1.993a31.667,31.667,0,0,1-4.319.436,12.29,12.29,0,0,1-4.278-1.065c-.493-.206-5-2.369-5.186-2.161a3.57,3.57,0,0,1-1.7,1.363,23.124,23.124,0,0,1-2.4.743,9.3,9.3,0,0,1-4.967,0,11.28,11.28,0,0,1-2.927-1.444C290.958,274.763,290.924,275.368,290.925,275.967Z" transform="translate(-235.763 -228.362)" fill="#2c3a48"/>
          <path id="Path_1258" data-name="Path 1258" d="M305.592,264.82l-8.059-18.106-6.621-2.444-10.138-2.1-18.081-1.793a18.83,18.83,0,0,1-2.687.943l-9.548,12.773,4.4,3.642,17.5-1.993s13.156-1.4,13.948-1.27S291.5,265.03,291.5,265.03l12.875,20.1,9.434-3.19Z" transform="translate(-250.459 -240.373)" fill="#7d4c2e"/>
        </g>
        <g id="Group_893" data-name="Group 893" transform="translate(279.44 220.159)">
          <g id="Group_892" data-name="Group 892" transform="translate(0 2.315)">
            <path id="Path_1259" data-name="Path 1259" d="M280.722,212.742c-.042.459-.069.941-.072,1.44l-.526,95.851c-.019,3.172.847,5.815,1.933,5.815,2.321,0,1.979-2.5,2-5.668l.528-95.851c0-.551-.022-1.081-.068-1.587Z" transform="translate(-262.627 -212.742)" fill="#3c4a58"/>
            <g id="Group_891" data-name="Group 891">
              <path id="Path_1260" data-name="Path 1260" d="M283.816,212.742l-16.271,84.767c-.544,2.834-.2,6.16.773,7.429s2.2,0,2.744-2.838l16.451-85.716a15.141,15.141,0,0,0,.226-3.642Z" transform="translate(-267.288 -212.742)" fill="#3c4a58"/>
              <path id="Path_1261" data-name="Path 1261" d="M300.888,298.949,285.51,212.742h-3.878a15.216,15.216,0,0,0,.189,3.623l15.5,86.912c.513,2.876,1.215,3.443,2.71,3.043S301.4,301.825,300.888,298.949Z" transform="translate(-262.091 -212.742)" fill="#3c4a58"/>
            </g>
          </g>
          <path id="Path_1262" data-name="Path 1262" d="M287.429,211.044h-7.641a1.886,1.886,0,0,0-1.838,1.93v1.1a1.886,1.886,0,0,0,1.838,1.93h7.641a1.885,1.885,0,0,0,1.836-1.93v-1.1A1.885,1.885,0,0,0,287.429,211.044Z" transform="translate(-263.416 -211.044)" fill="#3c4a58"/>
        </g>
        <g id="_16" data-name="16" transform="translate(231.075 238.94)">
          <path id="_1" data-name="1" d="M275.761,267.457h-29.24c-1.315-15.566-11.333-37.891-13.426-42.415a.379.379,0,0,0-.7.02,28.4,28.4,0,0,1-1.324,2.882c5.728,8.262,10.052,41.385,10.052,41.385v35.5h3.73V271.815h28.459v32.274h3.731V271.815h.384v-2.486A1.778,1.778,0,0,0,275.761,267.457Z" transform="translate(-231.075 -224.822)" fill="#3c4a58"/>
          <g id="_2" data-name="2" transform="translate(17.36 20.931)">
            <path id="Path_1263" data-name="Path 1263" d="M270.007,271.264c-.669.589-2.8,5.243-4.231,6.451-1.151.971-3.154,1.846-3.419,2.748-.211.714.566.654.83,1.309a19.781,19.781,0,0,0,10.48,10.645c-.613-.26-3.187-7.437-3.2-8.546-.044-2.684,3.986-7.082,5.641-8.942C270.518,272.329,271.01,270.381,270.007,271.264Z" transform="translate(-237.088 -228.964)" fill="#9aa4af"/>
            <path id="Path_1264" data-name="Path 1264" d="M245.932,241.371,244,250.4a8.692,8.692,0,0,0,.487,5.183l2.64,6.3c6.441.646,12.909.173,19.361.694,4.644.376,18.8,1.149,18.8,1.149l-1.329,2.78s-9.407,17.618-11.535,20.693l6.724,7.142,15.915-22.791,3.569-10.772a4.319,4.319,0,0,0-.761-4.1l-2.97-3.612-19.785-6.635-5.044-3.307-1.483-2.947Z" transform="translate(-243.81 -240.176)" fill="#8d5c3e"/>
            <path id="Path_1265" data-name="Path 1265" d="M264.107,277.408a54.3,54.3,0,0,0,2.781,5.046,7.639,7.639,0,0,0,4.087,3.266,5.347,5.347,0,0,0,2.08.1,28.45,28.45,0,0,0,2.546,3.769,16.385,16.385,0,0,0,6.8,3.866,1.965,1.965,0,0,1,1.322.766c1.371,2.6-5.012,1.6-5.938,1.441l-5.406-.962c-1.138-.183-2.844-1.8-3.762-2.488a19.087,19.087,0,0,1-3.461-3.21c-.386-.48-.7-1.209-1.219-1.542-.423-.267-1-.189-1.456-.413-1.006-.493-3.772-3.6-3.772-3.6a6.532,6.532,0,0,1,.47-1.3A14.691,14.691,0,0,1,264.107,277.408Z" transform="translate(-238.398 -226.654)" fill="#34495e"/>
            <path id="Path_1266" data-name="Path 1266" d="M256.135,242.37l8.039,2.831-9.261,4.275s13.933-2.655,21.177-2.9c-3.416-.862-12.085-6.336-12.085-6.336S259.055,240.1,256.135,242.37Z" transform="translate(-239.778 -240.154)" fill="#7d4c2e"/>
          </g>
        </g>
        <g id="Group_896" data-name="Group 896" transform="matrix(0.966, 0.259, -0.259, 0.966, 300.495, 186.431)">
          <g id="Group_894" data-name="Group 894" transform="translate(0 15.242)">
            <rect id="Rectangle_1593" data-name="Rectangle 1593" width="2.177" height="9.95" transform="translate(10.329 6.568) rotate(-0.298)" fill="#303030"/>
            <path id="Path_1267" data-name="Path 1267" d="M302.121,201.877l-7.817.039-2.843.015-3.287.016-2.532.013.008,1.61,16.479-.25Z" transform="translate(-273.135 -195.402)" fill="#383838"/>
            <path id="Path_1268" data-name="Path 1268" d="M302.127,202.935l-16.479.25.013,2.716,16.479-.32Z" transform="translate(-273.133 -195.018)" fill="#303030"/>
            <path id="Path_1269" data-name="Path 1269" d="M302.136,204.876l-16.479.32.015,2.935,16.479-.166Z" transform="translate(-273.129 -194.313)" fill="#383838"/>
            <path id="Path_1270" data-name="Path 1270" d="M285.668,207.309l.013,2.688,2.532-.013,3.288-.017,2.842-.014,7.818-.039-.015-2.772Z" transform="translate(-273.125 -193.49)" fill="#303030"/>
            <path id="Path_1271" data-name="Path 1271" d="M278.329,199.452l.065,13.032c0,.608-.093,1.1-.213,1.1l-1.348.007c-.168,0-.305-.57-.309-1.275l-.057-11.582c0-.7.128-1.277.3-1.277Z" transform="translate(-276.467 -196.283)" fill="#414042"/>
            <path id="Path_1272" data-name="Path 1272" d="M280.659,198.849l.022.2-3.194.015.082,16.376a1.383,1.383,0,0,0,1.389,1.375l8.512-.042a1.784,1.784,0,0,0,1.911-1.613s-.187-15.152-.372-15.4c.868-.007,1.566-.117,1.566-.248l-.2-2.377-8.159-.01A1.564,1.564,0,0,0,280.659,198.849Z" transform="translate(-276.096 -197.127)" fill="#383838"/>
            <path id="Path_1273" data-name="Path 1273" d="M279.034,200.284l.023,4.582-1.96.01a.4.4,0,0,1-.382-.412l-.019-3.754a.4.4,0,0,1,.379-.414Z" transform="translate(-276.384 -195.98)" fill="#303030"/>
            <path id="Path_1274" data-name="Path 1274" d="M281.477,201.991a1.867,1.867,0,0,0-1.857,1.874l.031,6.136a1.866,1.866,0,0,0,3.731-.018l-.031-6.137A1.865,1.865,0,0,0,281.477,201.991Z" transform="translate(-275.322 -195.361)" fill="#4d4d4d"/>
            <rect id="Rectangle_1594" data-name="Rectangle 1594" width="4.442" height="11.727" transform="translate(24.54 5.608) rotate(-0.286)" fill="#383838"/>
            <rect id="Rectangle_1595" data-name="Rectangle 1595" width="3.731" height="15.043" transform="translate(28.974 3.928) rotate(-0.284)" fill="#414042"/>
            <path id="Path_1275" data-name="Path 1275" d="M300.378,200.847a1,1,0,0,1,.654-.881l5.412-2.432c.472-.215,1.069.048,1.071.463l.008,1.595-7.138,2.837Z" transform="translate(-267.783 -197.007)" fill="#4d4d4d"/>
            <path id="Path_1276" data-name="Path 1276" d="M300.443,212.838l-.034-6.59,7.154.262v.005a1.529,1.529,0,0,1-.56,1.165,11.259,11.259,0,0,0-1.688,1.775.734.734,0,0,0,.019.917A10.523,10.523,0,0,0,307,212.1a1.556,1.556,0,0,1,.593,1.206l.011,2.305c0,.416-.593.684-1.067.474l-5.434-2.377A1,1,0,0,1,300.443,212.838Z" transform="translate(-267.772 -193.815)" fill="#303030"/>
            <path id="Path_1277" data-name="Path 1277" d="M300.4,204.851l6.678-1.3a1.533,1.533,0,0,1,.473,1.061s.01,1.839.015,2.884l-7.154-.262Z" transform="translate(-267.775 -194.796)" fill="#414042"/>
            <path id="Path_1278" data-name="Path 1278" d="M300.384,201.861l7.138-2.837,0,.78a1.494,1.494,0,0,1-.324.919l-1.435,2a.751.751,0,0,0,.041.953l1.164,1.4c.042.037.075.079.113.119l-6.678,1.3Z" transform="translate(-267.781 -196.438)" fill="#303030"/>
          </g>
          <g id="Group_895" data-name="Group 895" transform="translate(6.096)">
            <rect id="Rectangle_1596" data-name="Rectangle 1596" width="3.677" height="1.774" transform="translate(1.577 13.996) rotate(-0.088)" fill="#303030"/>
            <path id="Path_1279" data-name="Path 1279" d="M286.944,192.23l.005,1.983,0,1.88v1.092a.991.991,0,0,1-.984.987l-3.437.005a.986.986,0,0,1-.987-.983l-.011-4.955Z" transform="translate(-280.723 -183.663)" fill="#303030"/>
            <path id="Path_1280" data-name="Path 1280" d="M291.888,186.881l-8.366-.928a1.136,1.136,0,0,0-1.245.928l-.273,1.523,9.439,1.32Z" transform="translate(-280.552 -185.946)" fill="#404040"/>
            <path id="Path_1281" data-name="Path 1281" d="M282.176,187.749l-.643,3.576,9.485,1.557.6-3.815Z" transform="translate(-280.723 -185.291)" fill="#383838"/>
            <path id="Path_1282" data-name="Path 1282" d="M290.653,186.756l-1.121-.124-1.041,6.657,1.181.194Z" transform="translate(-278.196 -185.697)" fill="#fece57"/>
            <path id="Path_1283" data-name="Path 1283" d="M287.545,192.173a3.3,3.3,0,1,1-3.308-3.3A3.3,3.3,0,0,1,287.545,192.173Z" transform="translate(-280.939 -184.882)" fill="#4d4d4d"/>
            <path id="Path_1284" data-name="Path 1284" d="M286.176,191.887a2.221,2.221,0,1,1-2.226-2.217A2.22,2.22,0,0,1,286.176,191.887Z" transform="translate(-280.651 -184.593)" fill="#414042"/>
            <path id="Path_1285" data-name="Path 1285" d="M285.788,193.685l0,1.879-1-.055-.055-1.808Z" transform="translate(-279.561 -183.135)" fill="#d13f4a"/>
          </g>
        </g>
        <g id="Group_897" data-name="Group 897" transform="translate(288.897 197.489)">
          <path id="Path_1286" data-name="Path 1286" d="M287.23,220.438l.134-3.143-.221-1.992c.378-1.157.893-2.255,1.194-3.428.372-1.453.765-2.9,1.033-4.369a15.194,15.194,0,0,0,.409-1.714,1.3,1.3,0,0,0-.159-.8,1.238,1.238,0,0,0-.751-.485c-.273.01-.574.5-.725.713a3.816,3.816,0,0,0-.6,1.171q.178-.937.354-1.873a4.37,4.37,0,0,0-.093-2.628c-.168-.45-.575-.866-1.108-.643-.487.2-.6.977-.767,1.429l-.92,2.514q.327-1.6.658-3.194c.181-.881.641-3.089-.622-3.457-.96-.279-1.122.8-1.262,1.463-.288,1.335-.724,2.713-.878,4.07l.724-8.73a1.051,1.051,0,0,0-.818-.875l-.174-.038c-.571-.121-.977.912-1,1.351l-.827,8.375-.244,1.977-1.13-1.967q-.18-.855-.359-1.708a2.764,2.764,0,0,0-.269-.983c-.23-.331-1.249-1.686-1.7-1.39-.4.262.038,1.6.112,1.967l1.216,5.919,1.654,6.245.056,4.055-.185,1.9,6.959.38Z" transform="translate(-272.238 -194.414)" fill="#fec29e"/>
          <path id="Path_1287" data-name="Path 1287" d="M281.025,212.889l-1.344,7.5a28.431,28.431,0,0,0-1.265,5.712l-2.229-3.175a129.856,129.856,0,0,1-2.695,14.88c2.117,1.416,3.824,2.493,5.007,3.111a3.972,3.972,0,0,0,1.714-.4,4.988,4.988,0,0,0,.754-.444c3.974-2.925,5.8-9.477,5.8-9.477a77.787,77.787,0,0,0,2.561-17.154Z" transform="translate(-273.492 -187.704)" fill="#2ea8ed"/>
        </g>
      </g>
      <g id="Path_1288" data-name="Path 1288" transform="translate(703.691 469.239) rotate(99)" fill="#3c4a58">
        <path d="M 60.89019393920898 2.502927541732788 L 0.5000001192092896 2.500019788742065 L 0.5000001192092896 0.4999957978725433 L 60.57296371459961 0.4999957978725433 L 60.89019393920898 2.502927541732788 Z" stroke="none"/>
        <path d="M 1 0.9999957084655762 L 1 2.000043869018555 L 60.30475997924805 2.002899408340454 L 60.14591979980469 0.9999957084655762 L 1 0.9999957084655762 M 0 -4.291534423828125e-06 L 61 -4.291534423828125e-06 L 61.47562026977539 3.002955913543701 L 0 2.999995708465576 L 0 -4.291534423828125e-06 Z" stroke="none" fill="#3c4a58"/>
      </g>
      <g id="Path_1290" data-name="Path 1290" transform="translate(716.511 470.322) rotate(99)" fill="#3c4a58">
        <path d="M 40.58671569824219 2.502915859222412 L 0.4999966323375702 2.500031709671021 L 0.4999966323375702 0.4999957978725433 L 40.37440872192383 0.4999957978725433 L 40.58671569824219 2.502915859222412 Z" stroke="none"/>
        <path d="M 0.9999961853027344 0.9999957084655762 L 0.9999961853027344 2.000067710876465 L 40.03090667724609 2.002875804901123 L 39.92460250854492 0.9999957084655762 L 0.9999961853027344 0.9999957084655762 M -3.814697265625e-06 -4.291534423828125e-06 L 40.8242073059082 -4.291534423828125e-06 L 41.14251708984375 3.002955913543701 L -3.814697265625e-06 2.999995708465576 L -3.814697265625e-06 -4.291534423828125e-06 Z" stroke="none" fill="#3c4a58"/>
      </g>
      <g id="Path_1291" data-name="Path 1291" transform="translate(799.075 469.852) rotate(81)" fill="#3c4a58">
        <path d="M 0.5000021457672119 2.503212690353394 L 0.500008761882782 0.5030967593193054 L 40.58671951293945 0.5000470876693726 L 40.37440490722656 2.503036737442017 L 0.5000021457672119 2.503212690353394 Z" stroke="none"/>
        <path d="M 1.000003814697266 2.003210306167603 L 39.92459487915039 2.003038644790649 L 40.03090667724609 1.000089406967163 L 1.000007152557373 1.003058671951294 L 1.000003814697266 2.003210306167603 M 4.522705125964421e-07 3.003214836120605 L 1.045227054419229e-05 0.003134795464575291 L 41.14252090454102 4.795455879502697e-06 L 40.82419967651367 3.003034830093384 L 4.522705125964421e-07 3.003214836120605 Z" stroke="none" fill="#3c4a58"/>
      </g>
      <g id="Rectangle_1598" data-name="Rectangle 1598" transform="translate(737 463)" fill="#ff8b31" stroke="#ff8b31" stroke-width="1">
        <rect width="13" height="3" stroke="none"/>
        <rect x="0.5" y="0.5" width="12" height="2" fill="none"/>
      </g>
      <g id="Ellipse_58" data-name="Ellipse 58" transform="translate(736 465)" fill="#b4b4b4" stroke="#b4b4b4" stroke-width="1">
        <ellipse cx="7.5" cy="1" rx="7.5" ry="1" stroke="none"/>
        <ellipse cx="7.5" cy="1" rx="7" ry="0.5" fill="none"/>
      </g>
      <g id="Rectangle_1600" data-name="Rectangle 1600" transform="translate(737 462.3)" fill="#9c4a0a" stroke="#9c4a0a" stroke-width="1">
        <rect width="13" height="1.5" stroke="none"/>
        <rect x="0.5" y="0.5" width="12" height="0.5" fill="none"/>
      </g>
      <g id="Ellipse_59" data-name="Ellipse 59" transform="translate(737 460.7)" fill="#e92737" stroke="#e92737" stroke-width="1">
        <ellipse cx="3" cy="0.75" rx="3" ry="0.75" stroke="none"/>
        <ellipse cx="3" cy="0.75" rx="2.5" ry="0.25" fill="none"/>
      </g>
      <g id="Ellipse_60" data-name="Ellipse 60" transform="translate(741 460.7)" fill="#e92737" stroke="#e92737" stroke-width="1">
        <ellipse cx="3" cy="0.75" rx="3" ry="0.75" stroke="none"/>
        <ellipse cx="3" cy="0.75" rx="2.5" ry="0.25" fill="none"/>
      </g>
      <g id="Ellipse_61" data-name="Ellipse 61" transform="translate(744 460.7)" fill="#e92737" stroke="#e92737" stroke-width="1">
        <ellipse cx="3" cy="0.75" rx="3" ry="0.75" stroke="none"/>
        <ellipse cx="3" cy="0.75" rx="2.5" ry="0.25" fill="none"/>
      </g>
      <path id="Path_1296" data-name="Path 1296" d="M13974.019,2393.969s-1.05,1.825-.112,1.3.05.313,1.05,0,.237.325,1.25.087-.2.375,1.838,0,3.324.712,4.225,0,1.438.262,2.413-.187,1.156,1.041,1.756.188,1.237-.128.825-.791-.229-.578-.229-.578Z" transform="translate(-13237 -1934.069)" fill="#b5d334"/>
      <path id="Path_1297" data-name="Path 1297" d="M13974.074,2396.064s-.569.869-.682.456a1.4,1.4,0,0,1,.414-.721,1.414,1.414,0,0,1,.812-.192c.649.05,12.472.044,12.472.044a.422.422,0,0,1,.275.217c.089.181.128.518,0,.538s-.434-.342-.434-.342-1.845-.025-5.058,0-4.638-.012-6.375,0A8.923,8.923,0,0,1,13974.074,2396.064Z" transform="translate(-13237 -1933.706)" fill="#ffff60"/>
      <path id="Path_1298" data-name="Path 1298" d="M6.5,0C10.09,0,13,2.212,13,4.941c-.031.1-6.5,0-6.5,0s-6.46.032-6.5,0C0,2.212,2.91,0,6.5,0Z" transform="translate(737 455)" fill="#ff8b31"/>
      <path id="Path_1302" data-name="Path 1302" d="M13991.048,2381.716l-.8-4.318s-.647-.289-.329-.4.432-.4.205-.439-.5-.46-.205-.536-.055-.45-.374-.407-2.8,1.264-2.8,1.264l-.252-.322,3.17-1.492s.962.166.867.677-.451.382-.122.511.533.551.339.626a.328.328,0,0,0-.095.514c.136.193.745,4.318.745,4.318Z" transform="translate(-13242.379 -1930.338)" fill="#ffff60" stroke="#707070" stroke-width="0.2"/>
      <path id="Path_1303" data-name="Path 1303" d="M0,0H9.616L8.4,17.14H1.311Z" transform="translate(744 448.86)" fill="red"/>
      <path id="Path_1304" data-name="Path 1304" d="M13988.794,2381.562h0Z" transform="translate(-13245 -1932.702)" fill="#ffa6a6" stroke="#ffa6a6" stroke-linejoin="round" stroke-width="1"/>
      <g id="Rectangle_1601" data-name="Rectangle 1601" transform="translate(724 463)" fill="#ff8b31" stroke="#ff8b31" stroke-width="1">
        <rect width="13" height="3" stroke="none"/>
        <rect x="0.5" y="0.5" width="12" height="2" fill="none"/>
      </g>
      <g id="Ellipse_62" data-name="Ellipse 62" transform="translate(723 465)" fill="#b4b4b4" stroke="#b4b4b4" stroke-width="1">
        <ellipse cx="7.5" cy="1" rx="7.5" ry="1" stroke="none"/>
        <ellipse cx="7.5" cy="1" rx="7" ry="0.5" fill="none"/>
      </g>
      <g id="Rectangle_1602" data-name="Rectangle 1602" transform="translate(724 462.3)" fill="#9c4a0a" stroke="#9c4a0a" stroke-width="1">
        <rect width="13" height="1.5" stroke="none"/>
        <rect x="0.5" y="0.5" width="12" height="0.5" fill="none"/>
      </g>
      <g id="Ellipse_63" data-name="Ellipse 63" transform="translate(724 460.7)" fill="#e92737" stroke="#e92737" stroke-width="1">
        <ellipse cx="3" cy="0.75" rx="3" ry="0.75" stroke="none"/>
        <ellipse cx="3" cy="0.75" rx="2.5" ry="0.25" fill="none"/>
      </g>
      <g id="Ellipse_64" data-name="Ellipse 64" transform="translate(728 460.7)" fill="#e92737" stroke="#e92737" stroke-width="1">
        <ellipse cx="3" cy="0.75" rx="3" ry="0.75" stroke="none"/>
        <ellipse cx="3" cy="0.75" rx="2.5" ry="0.25" fill="none"/>
      </g>
      <g id="Ellipse_65" data-name="Ellipse 65" transform="translate(731 460.7)" fill="#e92737" stroke="#e92737" stroke-width="1">
        <ellipse cx="3" cy="0.75" rx="3" ry="0.75" stroke="none"/>
        <ellipse cx="3" cy="0.75" rx="2.5" ry="0.25" fill="none"/>
      </g>
      <path id="Path_1305" data-name="Path 1305" d="M13974.019,2393.969s-1.05,1.825-.112,1.3.05.313,1.05,0,.237.325,1.25.087-.2.375,1.838,0,3.324.712,4.225,0,1.438.262,2.413-.187,1.156,1.041,1.756.188,1.237-.128.825-.791-.229-.578-.229-.578Z" transform="translate(-13250 -1934.069)" fill="#b5d334"/>
      <path id="Path_1306" data-name="Path 1306" d="M13974.074,2396.064s-.569.869-.682.456a1.4,1.4,0,0,1,.414-.721,1.414,1.414,0,0,1,.812-.192c.649.05,12.472.044,12.472.044a.422.422,0,0,1,.275.217c.089.181.128.518,0,.538s-.434-.342-.434-.342-1.845-.025-5.058,0-4.638-.012-6.375,0A8.923,8.923,0,0,1,13974.074,2396.064Z" transform="translate(-13250 -1933.706)" fill="#ffff60"/>
      <path id="Path_1307" data-name="Path 1307" d="M6.5,0C10.09,0,13,2.212,13,4.941c-.031.1-6.5,0-6.5,0s-6.46.032-6.5,0C0,2.212,2.91,0,6.5,0Z" transform="translate(724 455)" fill="#ff8b31"/>
      <g id="Rectangle_1603" data-name="Rectangle 1603" transform="translate(685 466)" fill="#3c4a58" stroke="#3c4a58" stroke-width="1">
        <rect width="144" height="5" stroke="none"/>
        <rect x="0.5" y="0.5" width="143" height="4" fill="none"/>
      </g>
      <g id="Path_1308" data-name="Path 1308" transform="translate(812.075 468.769) rotate(81)" fill="#3c4a58">
        <path d="M 0.5000003576278687 2.50307822227478 L 0.5000070333480835 0.503024160861969 L 60.89017486572266 0.5000280141830444 L 60.57294082641602 2.502979755401611 L 0.5000003576278687 2.50307822227478 Z" stroke="none"/>
        <path d="M 1.000002026557922 2.003077268600464 L 60.14589691162109 2.002980470657349 L 60.30474090576172 1.000057101249695 L 1.00000536441803 1.002999424934387 L 1.000002026557922 2.003077268600464 M -1.309204094468441e-06 3.003078937530518 L 8.690795766597148e-06 0.003048992017284036 L 61.4755973815918 -1.008071876640315e-06 L 60.99997711181641 3.002979040145874 L -1.309204094468441e-06 3.003078937530518 Z" stroke="none" fill="#3c4a58"/>
      </g>
      <g id="Group_901" data-name="Group 901">
        <g id="Group_900" data-name="Group 900">
          <path id="Path_1309" data-name="Path 1309" d="M691.108,391.318v39.64H740.2v-39.64Z" fill="#e3f5ff" stroke="#707070" stroke-linejoin="round" stroke-width="1"/>
          <line id="Line_14" data-name="Line 14" y2="39" transform="translate(715.5 391.5)" fill="none" stroke="#707070" stroke-width="1"/>
          <line id="Line_15" data-name="Line 15" x2="49" transform="translate(691.5 411.5)" fill="none" stroke="#707070" stroke-width="1"/>
        </g>
        <g id="Group_899" data-name="Group 899">
          <path id="Path_1310" data-name="Path 1310" d="M13947.536,2321.318s.525,17.752-6.667,19.267a2.473,2.473,0,0,0-.775.688c-.206.363-.341.647-.341.647v.387s.09.38.149.681c.858,4.711,17.586,18.511,7.634,23.327-11.736,5.679-15.521,1.893-16.279,0s0-45,0-45Z" transform="translate(-13241 -1930)" fill="#d65555" stroke="#d65555" stroke-linejoin="round" stroke-width="1"/>
          <path id="Path_1311" data-name="Path 1311" d="M13938.5,2341.294h9.878" transform="translate(-13249 -1929)" fill="none" stroke="#a50000" stroke-width="1"/>
        </g>
        <g id="Group_898" data-name="Group 898" transform="translate(2)">
          <path id="Path_1312" data-name="Path 1312" d="M13934.069,2321.318s-.525,17.752,6.667,19.267a2.473,2.473,0,0,1,.775.688c.206.363.341.647.341.647v.387s-.09.38-.149.681c-.858,4.711-17.586,18.511-7.634,23.327,11.736,5.679,15.521,1.893,16.279,0s0-45,0-45Z" transform="translate(-13210.419 -1930)" fill="#d65555" stroke="#d65555" stroke-linejoin="round" stroke-width="1"/>
          <path id="Path_1313" data-name="Path 1313" d="M13948.379,2341.294h-9.878" transform="translate(-13207.692 -1929)" fill="none" stroke="#a50000" stroke-width="1"/>
        </g>
      </g>
      <g id="Group_902" data-name="Group 902" transform="translate(86)">
        <g id="Group_900-2" data-name="Group 900">
          <path id="Path_1309-2" data-name="Path 1309" d="M691.108,391.318v39.64H740.2v-39.64Z" fill="#e3f5ff" stroke="#707070" stroke-linejoin="round" stroke-width="1"/>
          <line id="Line_14-2" data-name="Line 14" y2="39" transform="translate(715.5 391.5)" fill="none" stroke="#707070" stroke-width="1"/>
          <line id="Line_15-2" data-name="Line 15" x2="49" transform="translate(691.5 411.5)" fill="none" stroke="#707070" stroke-width="1"/>
        </g>
        <g id="Group_899-2" data-name="Group 899">
          <path id="Path_1310-2" data-name="Path 1310" d="M13947.536,2321.318s.525,17.752-6.667,19.267a2.473,2.473,0,0,0-.775.688c-.206.363-.341.647-.341.647v.387s.09.38.149.681c.858,4.711,17.586,18.511,7.634,23.327-11.736,5.679-15.521,1.893-16.279,0s0-45,0-45Z" transform="translate(-13241 -1930)" fill="#d65555" stroke="#d65555" stroke-linejoin="round" stroke-width="1"/>
          <path id="Path_1311-2" data-name="Path 1311" d="M13938.5,2341.294h9.878" transform="translate(-13249 -1929)" fill="none" stroke="#a50000" stroke-width="1"/>
        </g>
        <g id="Group_898-2" data-name="Group 898" transform="translate(2)">
          <path id="Path_1312-2" data-name="Path 1312" d="M13934.069,2321.318s-.525,17.752,6.667,19.267a2.473,2.473,0,0,1,.775.688c.206.363.341.647.341.647v.387s-.09.38-.149.681c-.858,4.711-17.586,18.511-7.634,23.327,11.736,5.679,15.521,1.893,16.279,0s0-45,0-45Z" transform="translate(-13210.419 -1930)" fill="#d65555" stroke="#d65555" stroke-linejoin="round" stroke-width="1"/>
          <path id="Path_1313-2" data-name="Path 1313" d="M13948.379,2341.294h-9.878" transform="translate(-13207.692 -1929)" fill="none" stroke="#a50000" stroke-width="1"/>
        </g>
      </g>
    </g>
  </g>
</svg>
