<svg xmlns="http://www.w3.org/2000/svg" width="284.953" height="72.742" viewBox="0 0 284.953 72.742">
  <g id="Group_104" data-name="Group 104" transform="translate(-818 -1044)">
    <path id="Path_1" data-name="Path 1" d="M85.193,185.631a36.371,36.371,0,1,1,36.371-36.371A36.412,36.412,0,0,1,85.193,185.631Zm0-57.244a20.873,20.873,0,1,0,20.873,20.873A20.9,20.9,0,0,0,85.193,128.387Z" transform="translate(769.178 931.111)" fill="#fe9900"/>
    <path id="Path_2" data-name="Path 2" d="M191.3,185.631a36.371,36.371,0,1,1,36.371-36.371A36.412,36.412,0,0,1,191.3,185.631Zm0-57.244a20.873,20.873,0,1,0,20.873,20.873A20.9,20.9,0,0,0,191.3,128.387Z" transform="translate(769.178 931.111)" fill="#df0828"/>
    <g id="Group_54" data-name="Group 54" transform="translate(769.178 931.111)">
      <g id="Group_20" data-name="Group 20">
        <path id="Path_17" data-name="Path 17" d="M285.493,183.334a7.828,7.828,0,0,1-3.347-.754,36.849,36.849,0,0,1,0-66.64,7.848,7.848,0,0,1,6.706,14.192,21.152,21.152,0,0,0,0,38.256,7.85,7.85,0,0,1-3.359,14.946Z" fill="#b4ca1d"/>
      </g>
      <g id="Group_21" data-name="Group 21">
        <path id="Path_18" data-name="Path 18" d="M309.314,183.334a7.849,7.849,0,0,1-3.358-14.946,21.153,21.153,0,0,0,0-38.256,7.848,7.848,0,0,1,6.706-14.192,36.849,36.849,0,0,1,0,66.64A7.832,7.832,0,0,1,309.314,183.334Z" fill="#b4ca1d"/>
      </g>
    </g>
  </g>
</svg>
